<svg xmlns="http://www.w3.org/2000/svg" xmlns:xlink="http://www.w3.org/1999/xlink" width="82" height="82" viewBox="0 0 82 82">
  <defs>
    <clipPath id="clip-path">
      <rect id="Rectángulo_402577" data-name="Rectángulo 402577" width="48.862" height="44.434" fill="none"/>
    </clipPath>
    <clipPath id="clip-path-3">
      <rect id="Rectángulo_402574" data-name="Rectángulo 402574" width="4.127" height="16.975" fill="none"/>
    </clipPath>
    <clipPath id="clip-path-4">
      <rect id="Rectángulo_402575" data-name="Rectángulo 402575" width="20.379" height="22.85" fill="none"/>
    </clipPath>
  </defs>
  <g id="Grupo_1101990" data-name="Grupo 1101990" transform="translate(6908 6356.691)">
    <g id="Grupo_1101931" data-name="Grupo 1101931" transform="translate(-7856.333 -6798.69)">
      <circle id="Elipse_11497" data-name="Elipse 11497" cx="41" cy="41" r="41" transform="translate(948.333 441.999)" fill="#fff"/>
    </g>
    <g id="Grupo_1101989" data-name="Grupo 1101989" transform="translate(-6891.431 -6338)">
      <g id="Grupo_1101956" data-name="Grupo 1101956" clip-path="url(#clip-path)">
        <g id="Grupo_1101955" data-name="Grupo 1101955">
          <g id="Grupo_1101954" data-name="Grupo 1101954" clip-path="url(#clip-path)">
            <path id="Trazado_877900" data-name="Trazado 877900" d="M40.111,47.6V47.6a1.959,1.959,0,0,1-1.96,1.959h-.7a1.959,1.959,0,0,1,1.959,1.96v.006a1.963,1.963,0,0,1-1.959,1.96H36.72A1.957,1.957,0,0,1,38.1,56.831a1.934,1.934,0,0,1-1.384.576h-.911a1.958,1.958,0,0,1,1.959,1.959v.007a1.959,1.959,0,0,1-1.959,1.96H19.035v-.014a1.4,1.4,0,0,0,1.2-1.383V45.76a1.456,1.456,0,0,0-.055-.391l4.59-4.576a3.486,3.486,0,0,0,1.021-2.48v-2.7a.675.675,0,0,1,.158-.425.659.659,0,0,1,.624-.233c6.351.98,1.24,10.681,1.24,10.681h10.34a1.959,1.959,0,0,1,1.96,1.959" transform="translate(-9.478 -17.4)" fill="#f4d0b5"/>
            <path id="Trazado_877901" data-name="Trazado 877901" d="M35.311,61.336H18.537a.5.5,0,0,1-.5-.5.517.517,0,0,1,.427-.51.9.9,0,0,0,.773-.888V45.261a.964.964,0,0,0-.037-.256.5.5,0,0,1,.129-.49l4.59-4.576a3,3,0,0,0,.873-2.125v-2.7a1.176,1.176,0,0,1,.272-.744,1.152,1.152,0,0,1,1.1-.408,3.9,3.9,0,0,1,3.105,2.064c1.324,2.629-.365,6.9-1.151,8.609h9.539A2.465,2.465,0,0,1,40.116,47.1V47.1a2.464,2.464,0,0,1-1.387,2.214,2.466,2.466,0,0,1-.722,3.937,2.456,2.456,0,0,1-.046,3.433,2.4,2.4,0,0,1-.814.542,2.465,2.465,0,0,1-1.836,4.107M18.537,60.82h0Zm1.479-.489h15.3a1.461,1.461,0,0,0,0-2.921.5.5,0,0,1,0-1h.911a1.463,1.463,0,0,0,1.457-1.458,1.458,1.458,0,0,0-1.457-1.457.5.5,0,0,1,0-1h.733a1.461,1.461,0,0,0,0-2.921.5.5,0,0,1,0-1h.7A1.459,1.459,0,0,0,39.112,47.1V47.1a1.459,1.459,0,0,0-1.458-1.458H27.313a.5.5,0,0,1-.444-.736c.029-.056,2.918-5.611,1.5-8.426A2.925,2.925,0,0,0,26,34.954a.161.161,0,0,0-.157.054.181.181,0,0,0-.045.107v2.7a4.011,4.011,0,0,1-1.169,2.837l-4.4,4.387a1.96,1.96,0,0,1,.014.223V59.436a1.9,1.9,0,0,1-.223.9" transform="translate(-8.98 -16.902)"/>
            <path id="Trazado_877902" data-name="Trazado 877902" d="M11.254,55.092V69.267a1.4,1.4,0,0,1-1.2,1.384,2.013,2.013,0,0,1-.205.014H2.4a1.4,1.4,0,0,1-1.4-1.4V55.092a1.406,1.406,0,0,1,1.4-1.4H9.85A1.414,1.414,0,0,1,11.2,54.7a1.459,1.459,0,0,1,.055.391" transform="translate(-0.498 -26.732)" fill="#b3a4ee"/>
            <g id="Grupo_1101950" data-name="Grupo 1101950" transform="translate(6.627 26.956)" opacity="0.1">
              <g id="Grupo_1101949" data-name="Grupo 1101949">
                <g id="Grupo_1101948" data-name="Grupo 1101948" clip-path="url(#clip-path-3)">
                  <path id="Trazado_877903" data-name="Trazado 877903" d="M17.327,55.091V69.27a1.4,1.4,0,0,1-1.195,1.381,1.473,1.473,0,0,1-.206.015H13.2a1.42,1.42,0,0,0,.206-.015,1.4,1.4,0,0,0,1.2-1.381V55.091a1.383,1.383,0,0,0-.055-.387A1.414,1.414,0,0,0,13.2,53.69h2.726A1.408,1.408,0,0,1,17.272,54.7a1.383,1.383,0,0,1,.055.387" transform="translate(-13.2 -53.69)"/>
                </g>
              </g>
            </g>
            <path id="Trazado_877904" data-name="Trazado 877904" d="M9.352,70.668H1.906A1.905,1.905,0,0,1,0,68.768V54.594a1.908,1.908,0,0,1,1.906-1.906H9.352a1.922,1.922,0,0,1,1.832,1.374,2,2,0,0,1,.075.533V68.768a1.9,1.9,0,0,1-1.626,1.88,2.443,2.443,0,0,1-.281.02M1.906,53.692a.9.9,0,0,0-.9.9V68.768a.9.9,0,0,0,.9.9H9.352a1.465,1.465,0,0,0,.155-.011.893.893,0,0,0,.747-.885V54.594a.957.957,0,0,0-.037-.257.909.909,0,0,0-.866-.645Z" transform="translate(0 -26.234)"/>
            <path id="Trazado_877905" data-name="Trazado 877905" d="M49.448,64.062H43.627a.5.5,0,0,1,0-1h5.821a.5.5,0,0,1,0,1" transform="translate(-21.473 -31.398)"/>
            <path id="Trazado_877906" data-name="Trazado 877906" d="M49.244,71.88H44.689a.5.5,0,0,1,0-1h4.555a.5.5,0,0,1,0,1" transform="translate(-22.002 -35.291)"/>
            <path id="Trazado_877907" data-name="Trazado 877907" d="M47.8,79.686H43.627a.5.5,0,0,1,0-1H47.8a.5.5,0,0,1,0,1" transform="translate(-21.473 -39.177)"/>
            <path id="Trazado_877908" data-name="Trazado 877908" d="M71.586,3.64V16.365a2.647,2.647,0,0,1-2.645,2.645H57.287l-6.082,4.839V19.01H49.287a2.645,2.645,0,0,1-2.64-2.645V3.64A2.637,2.637,0,0,1,49.287,1H68.941a2.638,2.638,0,0,1,2.645,2.64" transform="translate(-23.226 -0.498)" fill="#fbd277"/>
            <g id="Grupo_1101953" data-name="Grupo 1101953" transform="translate(27.981 0.502)" opacity="0.1">
              <g id="Grupo_1101952" data-name="Grupo 1101952">
                <g id="Grupo_1101951" data-name="Grupo 1101951" clip-path="url(#clip-path-4)">
                  <path id="Trazado_877909" data-name="Trazado 877909" d="M57.352,36.87H61.81l-6.08,4.84V38.16Z" transform="translate(-55.73 -18.86)"/>
                  <path id="Trazado_877910" data-name="Trazado 877910" d="M89.279,3.641V16.364a2.646,2.646,0,0,1-2.646,2.646H82.18a2.642,2.642,0,0,0,2.641-2.646V3.641A2.635,2.635,0,0,0,82.18,1h4.453a2.639,2.639,0,0,1,2.646,2.641" transform="translate(-68.9 -1)"/>
                </g>
              </g>
            </g>
            <path id="Trazado_877911" data-name="Trazado 877911" d="M50.706,23.853a.491.491,0,0,1-.218-.05.5.5,0,0,1-.284-.452V19.014H48.788a3.148,3.148,0,0,1-3.142-3.148V3.142A3.146,3.146,0,0,1,48.788,0H68.442A3.149,3.149,0,0,1,71.59,3.142V15.867a3.151,3.151,0,0,1-3.148,3.148H56.963l-5.944,4.73a.5.5,0,0,1-.313.109M48.788,1A2.14,2.14,0,0,0,46.65,3.142V15.867a2.143,2.143,0,0,0,2.138,2.143h1.918a.5.5,0,0,1,.5.5v3.8l5.267-4.191a.5.5,0,0,1,.312-.109H68.442a2.146,2.146,0,0,0,2.144-2.143V3.142A2.143,2.143,0,0,0,68.442,1Z" transform="translate(-22.728)"/>
            <path id="Trazado_877912" data-name="Trazado 877912" d="M71.048,10.587H55.6a.5.5,0,1,1,0-1H71.048a.5.5,0,0,1,0,1" transform="translate(-27.434 -4.772)"/>
            <path id="Trazado_877913" data-name="Trazado 877913" d="M71.048,18.92H55.6a.5.5,0,1,1,0-1H71.048a.5.5,0,0,1,0,1" transform="translate(-27.434 -8.921)"/>
            <path id="Trazado_877914" data-name="Trazado 877914" d="M67.656,27.254H55.6a.5.5,0,0,1,0-1H67.656a.5.5,0,1,1,0,1" transform="translate(-27.434 -13.07)"/>
          </g>
        </g>
      </g>
    </g>
  </g>
</svg>
