<svg xmlns="http://www.w3.org/2000/svg" xmlns:xlink="http://www.w3.org/1999/xlink" width="82" height="82" viewBox="0 0 82 82">
  <defs>
    <clipPath id="clip-path">
      <rect id="Rectángulo_402594" data-name="Rectángulo 402594" width="49.277" height="54.851" fill="none"/>
    </clipPath>
    <clipPath id="clip-path-3">
      <rect id="Rectángulo_402589" data-name="Rectángulo 402589" width="13.12" height="9.979" fill="none"/>
    </clipPath>
    <clipPath id="clip-path-4">
      <rect id="Rectángulo_402590" data-name="Rectángulo 402590" width="16.855" height="28.92" fill="none"/>
    </clipPath>
    <clipPath id="clip-path-5">
      <rect id="Rectángulo_402591" data-name="Rectángulo 402591" width="4.099" height="2.727" fill="none"/>
    </clipPath>
    <clipPath id="clip-path-6">
      <rect id="Rectángulo_402592" data-name="Rectángulo 402592" width="9.474" height="15.959" fill="none"/>
    </clipPath>
  </defs>
  <g id="Grupo_1102007" data-name="Grupo 1102007" transform="translate(6580 6357)">
    <g id="Grupo_1101930" data-name="Grupo 1101930" transform="translate(-7528.333 -6798.999)">
      <circle id="Elipse_11497" data-name="Elipse 11497" cx="41" cy="41" r="41" transform="translate(948.333 441.999)" fill="#fff"/>
    </g>
    <g id="Grupo_1102006" data-name="Grupo 1102006" transform="translate(-6564 -6343)">
      <g id="Grupo_1102005" data-name="Grupo 1102005" clip-path="url(#clip-path)">
        <g id="Grupo_1102004" data-name="Grupo 1102004" transform="translate(0 0)">
          <g id="Grupo_1102003" data-name="Grupo 1102003" clip-path="url(#clip-path)">
            <path id="Trazado_877990" data-name="Trazado 877990" d="M20.413,74.227V62.486L8.392,50.316a2.943,2.943,0,0,1,4.182-4.141l9.04,9.109H34.3l9.04-9.109a2.943,2.943,0,0,1,4.182,4.141L35.5,62.486V74.227Z" transform="translate(-3.319 -19.936)" fill="#5e9cea"/>
            <g id="Grupo_1101993" data-name="Grupo 1101993" transform="translate(5.174 25.369)" opacity="0.1">
              <g id="Grupo_1101992" data-name="Grupo 1101992">
                <g id="Grupo_1101991" data-name="Grupo 1101991" clip-path="url(#clip-path-3)">
                  <path id="Trazado_877991" data-name="Trazado 877991" d="M13.323,46.173l9.038,9.111H18.374L9.336,46.173a.721.721,0,0,0-.1-.09,2.945,2.945,0,0,1,4.082.09" transform="translate(-9.241 -45.305)"/>
                </g>
              </g>
            </g>
            <g id="Grupo_1101996" data-name="Grupo 1101996" transform="translate(28.2 25.371)" opacity="0.1">
              <g id="Grupo_1101995" data-name="Grupo 1101995">
                <g id="Grupo_1101994" data-name="Grupo 1101994" clip-path="url(#clip-path-4)">
                  <path id="Trazado_877992" data-name="Trazado 877992" d="M67.216,48.246a2.939,2.939,0,0,1-.851,2.072L54.342,62.486V74.228H50.361V62.486L62.383,50.318a2.948,2.948,0,0,0,.09-4.037c-.062-.067-.129-.134-.2-.2a2.944,2.944,0,0,1,4.939,2.161" transform="translate(-50.361 -45.308)"/>
                </g>
              </g>
            </g>
            <path id="Trazado_877993" data-name="Trazado 877993" d="M35.062,74.346H19.974a.56.56,0,0,1-.56-.56V62.274L7.553,50.268a3.505,3.505,0,0,1-.109-4.808,3.466,3.466,0,0,1,2.517-1.155,3.4,3.4,0,0,1,2.569,1.034l8.877,8.944H33.629L42.5,45.339a3.426,3.426,0,0,1,2.57-1.034,3.47,3.47,0,0,1,2.518,1.155,3.506,3.506,0,0,1-.11,4.808L35.622,62.274V73.786a.559.559,0,0,1-.56.56m-14.528-1.12H34.5V62.044a.56.56,0,0,1,.162-.394L46.686,49.481a2.384,2.384,0,0,0,.074-3.27,2.36,2.36,0,0,0-1.711-.786,2.323,2.323,0,0,0-1.749.7L34.26,55.237a.562.562,0,0,1-.4.166H21.175a.56.56,0,0,1-.4-.166l-9.04-9.109a2.33,2.33,0,0,0-1.749-.7,2.358,2.358,0,0,0-1.711.786,2.384,2.384,0,0,0,.074,3.27L20.372,61.65a.562.562,0,0,1,.162.394Z" transform="translate(-2.879 -19.495)"/>
            <path id="Trazado_877994" data-name="Trazado 877994" d="M45.327,40.424a6.219,6.219,0,1,1-6.219-6.219,6.218,6.218,0,0,1,6.219,6.219" transform="translate(-14.472 -15.052)" fill="#f4d0b5"/>
            <path id="Trazado_877995" data-name="Trazado 877995" d="M38.668,46.763a6.779,6.779,0,1,1,6.779-6.779,6.787,6.787,0,0,1-6.779,6.779m0-12.438a5.659,5.659,0,1,0,5.659,5.658,5.665,5.665,0,0,0-5.659-5.658" transform="translate(-14.032 -14.612)"/>
            <path id="Trazado_877996" data-name="Trazado 877996" d="M37.408.955,40,6.208l5.8.842L41.6,11.14l.99,5.774-5.185-2.726-5.185,2.726.99-5.774L29.018,7.051l5.8-.842Z" transform="translate(-12.769 -0.42)" fill="#fbd277"/>
            <g id="Grupo_1101999" data-name="Grupo 1101999" transform="translate(19.453 13.766)" opacity="0.1">
              <g id="Grupo_1101998" data-name="Grupo 1101998">
                <g id="Grupo_1101997" data-name="Grupo 1101997" clip-path="url(#clip-path-5)">
                  <path id="Trazado_877997" data-name="Trazado 877997" d="M37.753,24.585l1.086.571-4.1,2.156.218-1.254Z" transform="translate(-34.741 -24.585)"/>
                </g>
              </g>
            </g>
            <g id="Grupo_1102002" data-name="Grupo 1102002" transform="translate(23.552 0.535)" opacity="0.1">
              <g id="Grupo_1102001" data-name="Grupo 1102001">
                <g id="Grupo_1102000" data-name="Grupo 1102000" clip-path="url(#clip-path-6)">
                  <path id="Trazado_877998" data-name="Trazado 877998" d="M47.341,11.141l.991,5.773-2.391-1.254-.773-4.519,4.194-4.088-5.8-.846L42.061,3.155l1.086-2.2L45.74,6.207l5.8.846Z" transform="translate(-42.061 -0.955)"/>
                </g>
              </g>
            </g>
            <path id="Trazado_877999" data-name="Trazado 877999" d="M42.153,17.054a.558.558,0,0,1-.26-.064L36.968,14.4l-4.925,2.589a.56.56,0,0,1-.813-.59l.941-5.484L28.186,7.031a.56.56,0,0,1,.311-.955L34,5.276,36.465.287a.583.583,0,0,1,1,0l2.462,4.989,5.506.8a.56.56,0,0,1,.311.955l-3.985,3.883L42.7,16.4a.56.56,0,0,1-.552.655m-5.185-3.846a.555.555,0,0,1,.26.064l4.181,2.2-.8-4.656a.561.561,0,0,1,.161-.5l3.383-3.3-4.675-.68a.56.56,0,0,1-.422-.306L36.968,1.8l-2.09,4.235a.56.56,0,0,1-.422.306l-4.675.68,3.383,3.3a.561.561,0,0,1,.161.5l-.8,4.656,4.181-2.2a.555.555,0,0,1,.26-.064" transform="translate(-12.329 0)"/>
            <path id="Trazado_878000" data-name="Trazado 878000" d="M73.161,11.174l1.663,3.37,3.719.54-2.691,2.623.636,3.7-3.326-1.749-3.326,1.749.636-3.7-2.691-2.623,3.719-.54Z" transform="translate(-29.826 -4.917)" fill="#fbd277"/>
            <path id="Trazado_878001" data-name="Trazado 878001" d="M76.047,21.55a.558.558,0,0,1-.26-.064l-3.066-1.612-3.066,1.612a.56.56,0,0,1-.812-.59l.586-3.414-2.48-2.417a.56.56,0,0,1,.31-.955l3.428-.5,1.533-3.106a.583.583,0,0,1,1,0l1.533,3.106,3.428.5a.56.56,0,0,1,.31.955l-2.48,2.417L76.6,20.9a.56.56,0,0,1-.552.655m-3.326-2.869a.555.555,0,0,1,.26.064L75.3,19.967l-.444-2.585a.562.562,0,0,1,.161-.5L76.9,15.055l-2.6-.377a.56.56,0,0,1-.422-.306l-1.161-2.352L71.56,14.371a.56.56,0,0,1-.422.306l-2.6.377,1.879,1.831a.562.562,0,0,1,.161.5l-.444,2.585,2.322-1.221a.555.555,0,0,1,.26-.064" transform="translate(-29.385 -4.497)"/>
            <path id="Trazado_878002" data-name="Trazado 878002" d="M6.382,11.174l1.663,3.37,3.719.54L9.072,17.707l.636,3.7L6.382,19.662,3.056,21.411l.636-3.7L1,15.084l3.719-.54Z" transform="translate(-0.44 -4.917)" fill="#fbd277"/>
            <path id="Trazado_878003" data-name="Trazado 878003" d="M9.268,21.55a.558.558,0,0,1-.26-.064L5.942,19.874,2.876,21.486a.56.56,0,0,1-.813-.59l.586-3.414L.169,15.065a.56.56,0,0,1,.31-.955l3.428-.5,1.533-3.106a.583.583,0,0,1,1,0l1.533,3.106,3.428.5a.56.56,0,0,1,.31.955l-2.48,2.417L9.82,20.9a.56.56,0,0,1-.552.655M5.942,18.682a.555.555,0,0,1,.26.064l2.322,1.221L8.08,17.381a.562.562,0,0,1,.161-.5l1.879-1.831-2.6-.377a.56.56,0,0,1-.422-.306L5.942,12.019,4.781,14.371a.56.56,0,0,1-.422.306l-2.6.377,1.879,1.831a.562.562,0,0,1,.161.5l-.444,2.585,2.322-1.221a.555.555,0,0,1,.26-.064" transform="translate(0 -4.497)"/>
          </g>
        </g>
      </g>
    </g>
  </g>
</svg>
