<svg xmlns="http://www.w3.org/2000/svg" xmlns:xlink="http://www.w3.org/1999/xlink" width="82" height="82" viewBox="0 0 82 82">
  <defs>
    <clipPath id="clip-path">
      <rect id="Rectángulo_402653" data-name="Rectángulo 402653" width="56.873" height="51.287" fill="#fff" stroke="#984b4b" stroke-width="1"/>
    </clipPath>
  </defs>
  <g id="Grupo_1102154" data-name="Grupo 1102154" transform="translate(-1185.377 -2039)">
    <g id="Grupo_1102143" data-name="Grupo 1102143" transform="translate(237.044 1597.001)">
      <circle id="Elipse_11497" data-name="Elipse 11497" cx="41" cy="41" r="41" transform="translate(948.333 441.999)" fill="#2436b1"/>
    </g>
    <g id="Grupo_1102149" data-name="Grupo 1102149" transform="translate(1197.94 2052.006)">
      <g id="Grupo_1102144" data-name="Grupo 1102144" clip-path="url(#clip-path)">
        <path id="Trazado_878371" data-name="Trazado 878371" d="M129.276,0a1.3,1.3,0,0,0-1.3,1.3V8.5a1.3,1.3,0,1,0,2.607,0V1.3a1.3,1.3,0,0,0-1.3-1.3" transform="translate(-101.821)" fill="#ff9b6a"/>
        <path id="Trazado_878372" data-name="Trazado 878372" d="M158.777,18.064a1.3,1.3,0,0,0-1.787.454L154,23.552a1.3,1.3,0,1,0,2.241,1.333l2.995-5.035a1.3,1.3,0,0,0-.454-1.787" transform="translate(-122.381 -14.227)" fill="#ff9b6a"/>
        <path id="Trazado_878373" data-name="Trazado 878373" d="M86.429,18.412a1.3,1.3,0,0,0-2.1,1.546l3.631,4.933a1.3,1.3,0,1,0,2.1-1.545Z" transform="translate(-66.895 -14.227)" fill="#ff9b6a"/>
        <path id="Trazado_878374" data-name="Trazado 878374" d="M183.093,85.435a6.6,6.6,0,1,0,6.6-6.6,6.6,6.6,0,0,0-6.6,6.6" transform="translate(-145.678 -62.724)" fill="#fff"/>
        <path id="Trazado_878375" data-name="Trazado 878375" d="M173.057,135.241a7.049,7.049,0,0,0-.577-1.713,7.271,7.271,0,0,0-3.872-3.6c-.025-.009-.049-.02-.074-.029-.064-.025-.129-.049-.194-.071a.6.6,0,0,0-.065-.022c-.109-.039-.242-.084-.394-.129a16.231,16.231,0,0,0-5.113-.691c-2.816.065-7.6.029-9.25-.878a1.7,1.7,0,0,1-.484-.416,33.226,33.226,0,0,1-3.225-4.588,4.38,4.38,0,0,1-.6-1.451,17.164,17.164,0,0,1-2.573,7.47l-.432.684,4.031,6.379a7.343,7.343,0,0,1,1.135,3.923v7.626a.345.345,0,0,0,.345.345h21.141a.345.345,0,0,0,.345-.345V136.67a7.483,7.483,0,0,0-.139-1.429" transform="translate(-116.323 -96.793)" fill="#fff"/>
        <path id="Trazado_878376" data-name="Trazado 878376" d="M43.815,85.435a6.6,6.6,0,1,1-6.6-6.6,6.6,6.6,0,0,1,6.6,6.6" transform="translate(-24.357 -62.724)" fill="#fff"/>
        <path id="Trazado_878377" data-name="Trazado 878377" d="M30.535,70.462V76.64a14.758,14.758,0,0,1-2.284,7.89l-5.285,8.363a7.343,7.343,0,0,0-1.135,3.923v7.626a.345.345,0,0,1-.345.345H.345A.345.345,0,0,1,0,104.442V93.377a7.5,7.5,0,0,1,.139-1.429,7.057,7.057,0,0,1,.577-1.713,7.271,7.271,0,0,1,3.872-3.6l.074-.029c.064-.025.129-.049.194-.071a.592.592,0,0,1,.065-.022c.109-.039.242-.084.394-.129a16.231,16.231,0,0,1,5.113-.691c2.816.065,7.6.029,9.25-.878a1.706,1.706,0,0,0,.484-.416,33.229,33.229,0,0,0,3.224-4.588,4.393,4.393,0,0,0,.706-2.39V70.553a3.281,3.281,0,0,1,3.065-3.309,3.221,3.221,0,0,1,3.377,3.217" transform="translate(0 -53.5)" fill="#fff"/>
      </g>
    </g>
  </g>
</svg>
