<svg xmlns="http://www.w3.org/2000/svg" xmlns:xlink="http://www.w3.org/1999/xlink" width="82" height="82" viewBox="0 0 82 82">
  <defs>
    <clipPath id="clip-path">
      <rect id="Rectángulo_402656" data-name="Rectángulo 402656" width="49.04" height="50.607" fill="none"/>
    </clipPath>
  </defs>
  <g id="Grupo_1102159" data-name="Grupo 1102159" transform="translate(-767.051 -4919.309)">
    <g id="Grupo_1099651" data-name="Grupo 1099651" transform="translate(-181.282 4477.31)">
      <circle id="Elipse_11497" data-name="Elipse 11497" cx="41" cy="41" r="41" transform="translate(948.333 441.999)" fill="#fff"/>
    </g>
    <g id="Grupo_1102169" data-name="Grupo 1102169" transform="translate(784.29 4933.854)">
      <g id="Grupo_1102168" data-name="Grupo 1102168" transform="translate(0 0)" clip-path="url(#clip-path)">
        <path id="Trazado_878395" data-name="Trazado 878395" d="M45.959,28.229a1.649,1.649,0,0,1,.462,1.386,1.51,1.51,0,0,1-.767,1.127,11.222,11.222,0,0,1-5.385,1.375.9.9,0,0,0-.9.9V38.19a5.486,5.486,0,0,1-2.175,4.395,5.28,5.28,0,0,1-4.6.924,14.4,14.4,0,0,1-6.378-3.921.9.9,0,0,0-1.25-.034.922.922,0,0,0-.08,1.251l.553.654v7.155H9.9V33.953a30.848,30.848,0,0,0,5.859-.98.9.9,0,1,0-.452-1.747A29.728,29.728,0,0,1,9.9,32.15V30.4a.952.952,0,0,0-.18-.541A17.565,17.565,0,0,1,6.34,20.51a51.074,51.074,0,0,0,9.848,7.313,45.679,45.679,0,0,0,16.62,6.006h.113a.89.89,0,0,0,.89-.789.9.9,0,0,0-.789-1,43.862,43.862,0,0,1-15.934-5.769A47.871,47.871,0,0,1,6.363,18,17.747,17.747,0,0,1,26.239,1.727,17.956,17.956,0,0,1,40.7,13.231c.091.259.181.518.26.777-2.469,3.786-6.828,7.921-12.385,11.369a.9.9,0,0,0,.474,1.668.919.919,0,0,0,.473-.135A43.486,43.486,0,0,0,41.54,16.341a17.381,17.381,0,0,1-.123,6.817.883.883,0,0,0,.247.834Z" transform="translate(0.804 0.203)" fill="#ffeb92"/>
        <path id="Trazado_878396" data-name="Trazado 878396" d="M48.024,27.147A3.434,3.434,0,0,1,49,30.065a3.277,3.277,0,0,1-1.679,2.456A13.144,13.144,0,0,1,41.974,34.1v4.293A7.309,7.309,0,0,1,39.1,44.218a7.064,7.064,0,0,1-6.165,1.239,14.661,14.661,0,0,1-4.89-2.411v5.769h3.122a.9.9,0,1,1,0,1.792H7.482a.9.9,0,1,1,0-1.792H8.9V34.2c-3.875-.09-6.748-1.318-8.079-3.64a7.129,7.129,0,0,1-.483-5.578.914.914,0,0,1,1.1-.631.9.9,0,0,1,.642,1.1,5.43,5.43,0,0,0,.292,4.2C3.38,31.4,5.713,32.33,8.9,32.4v-1.51A19.343,19.343,0,0,1,5.3,19.575c0-.248.023-.485.034-.732A31.316,31.316,0,0,1,3.256,16.33C.034,11.913-.824,7.924.821,5.073,2.806,1.625,8.034.543,15.156,2.109a.963.963,0,0,1,.428.248A19.769,19.769,0,0,1,27.256.137,18.844,18.844,0,0,1,32.913,1.76a1.112,1.112,0,0,1,.338-.124c5.827-.777,9.984.439,11.709,3.437,1.442,2.49.879,5.837-1.228,9.409a18.921,18.921,0,0,1,.348,8.778Zm-.8,2.671a1.649,1.649,0,0,0-.462-1.386l-4.294-4.237a.883.883,0,0,1-.247-.834,17.4,17.4,0,0,0,.124-6.817A43.509,43.509,0,0,1,30.322,27.113a.919.919,0,0,1-.473.135.9.9,0,0,1-.474-1.668C34.931,22.133,39.291,18,41.759,14.211c-.079-.259-.169-.518-.259-.777a17.959,17.959,0,0,0-14.457-11.5A17.747,17.747,0,0,0,7.166,18.2a47.853,47.853,0,0,0,10.727,8.271A43.85,43.85,0,0,0,33.827,32.24a.9.9,0,0,1,.789,1,.891.891,0,0,1-.89.789h-.113a45.679,45.679,0,0,1-16.62-6.006,51.074,51.074,0,0,1-9.848-7.313,17.583,17.583,0,0,0,3.38,9.353.952.952,0,0,1,.18.541v1.747a29.739,29.739,0,0,0,5.409-.924.9.9,0,1,1,.451,1.747,30.848,30.848,0,0,1-5.859.98v14.66H26.243V41.66l-.553-.654a.923.923,0,0,1,.079-1.251.9.9,0,0,1,1.251.034A14.4,14.4,0,0,0,33.4,43.711a5.28,5.28,0,0,0,4.6-.924,5.486,5.486,0,0,0,2.175-4.395V33.221a.9.9,0,0,1,.9-.9,11.222,11.222,0,0,0,5.385-1.375,1.51,1.51,0,0,0,.767-1.127M42.92,12.16c1.159-2.411,1.409-4.586.485-6.186-1.127-1.949-3.944-2.907-7.832-2.727A20.023,20.023,0,0,1,42.92,12.16M11.876,4.926a18.606,18.606,0,0,1,1.645-1.307c-5.578-.992-9.7-.146-11.145,2.355-1.25,2.163-.393,5.544,2.334,9.285.27.372.575.744.879,1.116A19.53,19.53,0,0,1,11.876,4.926" transform="translate(0 0)"/>
      </g>
    </g>
  </g>
</svg>
