<svg xmlns="http://www.w3.org/2000/svg" xmlns:xlink="http://www.w3.org/1999/xlink" width="82" height="82" viewBox="0 0 82 82">
  <defs>
    <clipPath id="clip-path">
      <rect id="Rectángulo_402657" data-name="Rectángulo 402657" width="58.382" height="52.641" fill="none"/>
    </clipPath>
  </defs>
  <g id="Grupo_1102160" data-name="Grupo 1102160" transform="translate(-1095.051 -4919)">
    <g id="Grupo_1099619" data-name="Grupo 1099619" transform="translate(146.718 4477.001)">
      <circle id="Elipse_11497" data-name="Elipse 11497" cx="41" cy="41" r="41" transform="translate(948.333 441.999)" fill="#fff"/>
    </g>
    <g id="Grupo_1102171" data-name="Grupo 1102171" transform="translate(1106.42 4932.809)">
      <g id="Grupo_1102170" data-name="Grupo 1102170" transform="translate(0 0)" clip-path="url(#clip-path)">
        <path id="Trazado_878397" data-name="Trazado 878397" d="M17.837,41.988s6.652,8.482,15.748,8.482,12.742-1.518,13.472-2.43a30.06,30.06,0,0,0,2.007-3.4l.425-7.661,3.4-1.436A21.029,21.029,0,0,0,54.413,32.6c.122-.607-3.708-6.383-3.708-6.383S49.941,6.273,36.126,4.57,16.962,9.131,16.962,9.131s-5.524,5.532-6.41,12.706.135,15.01,7.285,20.151" transform="translate(2.776 1.155)" fill="#ffeb92"/>
        <path id="Trazado_878398" data-name="Trazado 878398" d="M57.023,30.112A5.281,5.281,0,0,1,53.3,38.925l-.064,4.356a9.879,9.879,0,0,1-9.855,9.36H37.376a1.016,1.016,0,0,1,0-2.032h6.007a7.84,7.84,0,0,0,7.823-7.4l.076-5.309a1.014,1.014,0,0,1,1.016-.991h.787a3.255,3.255,0,0,0,2.426-5.436l-2.705-3.023a1.033,1.033,0,0,1-.254-.673v-2.4a19.645,19.645,0,0,0-6.159-14.237A18.287,18.287,0,0,0,32.614,6.083c-.381.025-.762.063-1.143.1a20.051,20.051,0,0,0-9.792,3.937l1.8,1.791h8.623a1.016,1.016,0,0,1,0,2.032H23.063a1.055,1.055,0,0,1-.711-.292L20.117,11.43a20.469,20.469,0,0,0-5,7.137l2.248,1.791H28.384a1.016,1.016,0,0,1,0,2.032H17.005a.975.975,0,0,1-.635-.229l-1.981-1.575a20.374,20.374,0,0,0-.762,3.861c-.051.47-.063.927-.076,1.4H24.816a1.016,1.016,0,0,1,0,2.032H13.589A20.524,20.524,0,0,0,14.6,32.931L16.6,31.775a.945.945,0,0,1,.521-.14H29.769a1.016,1.016,0,0,1,0,2.032H17.386l-2.019,1.168a20.319,20.319,0,0,0,5.156,6.871,1.022,1.022,0,0,1-1.346,1.537,22.732,22.732,0,0,1-5.588-7.379L11.481,37.1a3.921,3.921,0,0,1,.33,1.6,4.026,4.026,0,1,1-4.026-4.039,3.984,3.984,0,0,1,2.413.825l2.616-1.511a22.448,22.448,0,0,1-1.257-6.1H7.912a4.039,4.039,0,1,1,0-2.032h3.607c.013-.533.038-1.054.076-1.587a21.93,21.93,0,0,1,1.092-5.016L7.15,14.834A3.976,3.976,0,0,1,5.3,15.3a4.052,4.052,0,1,1,3.378-1.854l4.788,3.81a22.492,22.492,0,0,1,5.207-7.252L16.51,7.861a3.97,3.97,0,0,1-1.181.2,4.032,4.032,0,1,1,4.026-4.039,3.984,3.984,0,0,1-1.079,2.73l1.956,1.93A22.131,22.131,0,0,1,31.242,4.166c.419-.051.838-.076,1.257-.1a20.251,20.251,0,0,1,15.291,5.6,21.641,21.641,0,0,1,6.794,15.71v2.007ZM17.323,4.026a1.994,1.994,0,1,0-1.994,2.007,2,2,0,0,0,1.994-2.007M9.779,38.7a1.994,1.994,0,1,0-1.994,1.994A2,2,0,0,0,9.779,38.7M7.29,11.278A2,2,0,1,0,5.3,13.271,2,2,0,0,0,7.29,11.278M6.02,26.86a1.994,1.994,0,1,0-1.994,1.994A2,2,0,0,0,6.02,26.86" transform="translate(0 0)"/>
        <path id="Trazado_878399" data-name="Trazado 878399" d="M12.494,1.6A2,2,0,1,1,10.5,3.594,2,2,0,0,1,12.494,1.6" transform="translate(2.835 0.432)" fill="#ff9989"/>
        <path id="Trazado_878400" data-name="Trazado 878400" d="M6.554,28.89A2,2,0,1,1,4.56,30.9,2,2,0,0,1,6.554,28.89" transform="translate(1.231 7.8)" fill="#ff7863"/>
        <path id="Trazado_878401" data-name="Trazado 878401" d="M4.6,7.31A1.994,1.994,0,1,1,2.59,9.3,2,2,0,0,1,4.6,7.31" transform="translate(0.699 1.974)" fill="#ff7863"/>
        <path id="Trazado_878402" data-name="Trazado 878402" d="M3.594,19.57A2,2,0,1,1,1.6,21.577,2,2,0,0,1,3.594,19.57" transform="translate(0.432 5.284)" fill="#ff9989"/>
      </g>
    </g>
  </g>
</svg>
