<svg xmlns="http://www.w3.org/2000/svg" xmlns:xlink="http://www.w3.org/1999/xlink" width="82" height="82" viewBox="0 0 82 82">
  <defs>
    <clipPath id="clip-path">
      <rect id="Rectángulo_402658" data-name="Rectángulo 402658" width="37.981" height="60.031" fill="none"/>
    </clipPath>
  </defs>
  <g id="Grupo_1102164" data-name="Grupo 1102164" transform="translate(-767.051 -4919.31)">
    <g id="Grupo_1099651" data-name="Grupo 1099651" transform="translate(-181.282 4477.31)">
      <circle id="Elipse_11497" data-name="Elipse 11497" cx="41" cy="41" r="41" transform="translate(948.333 441.999)" fill="#fff"/>
    </g>
    <g id="Grupo_1102173" data-name="Grupo 1102173" transform="translate(787.928 4929.726)">
      <g id="Grupo_1102172" data-name="Grupo 1102172" transform="translate(0 0)" clip-path="url(#clip-path)">
        <path id="Trazado_878403" data-name="Trazado 878403" d="M29.915,14.326v4.912H22.451V8.623s4.27-1.381,5.338-.377a16.421,16.421,0,0,1,1.727,1.884Z" transform="translate(7.004 2.459)" fill="#ffeb92"/>
        <path id="Trazado_878404" data-name="Trazado 878404" d="M29.482,20.583v4.042H23.839V16.272s2.857-1.068,4.02-.345a5.669,5.669,0,0,1,1.821,2.386Z" transform="translate(7.437 4.891)" fill="#fdc367"/>
        <path id="Trazado_878405" data-name="Trazado 878405" d="M37.968,30.748V46.19a6.242,6.242,0,0,1-1.889,4.474,4.18,4.18,0,0,0-1.246,2.965v4.3h2.1a1.05,1.05,0,1,1,0,2.1H1.05a1.05,1.05,0,1,1,0-2.1H6.1v-7.7a7.3,7.3,0,0,0-2.519-5.51l-.328-.276A9.428,9.428,0,0,1,.013,37.334V22.758A2.735,2.735,0,0,1,2.742,20.03h1.5A5.453,5.453,0,0,1,7.622,21.2V8.8a4.69,4.69,0,0,1,4.329-4.776,4.69,4.69,0,0,1,2.729.722V4.575a4.618,4.618,0,0,1,1.43-3.319,4.536,4.536,0,0,1,3.4-1.246,4.682,4.682,0,0,1,4.329,4.776V5.1a4.594,4.594,0,0,1,2.729-.722A4.7,4.7,0,0,1,30.91,9.153v.328a4.5,4.5,0,0,1,2.729-.722,4.669,4.669,0,0,1,4.329,4.762v2.217a1.05,1.05,0,1,1-2.1,0V13.522a2.62,2.62,0,0,0-2.348-2.676,2.508,2.508,0,0,0-1.837.682,2.461,2.461,0,0,0-.774,1.8v3.241a4,4,0,0,1,1.5,3.018,3.758,3.758,0,0,1,1.942-.407,3.914,3.914,0,0,1,3.621,3.988v1.259a1.05,1.05,0,0,1-2.1,0V23.165a1.835,1.835,0,0,0-1.64-1.889,1.708,1.708,0,0,0-1.286.472,1.686,1.686,0,0,0-.538,1.259v2.44A3.454,3.454,0,0,1,33.56,27.6a3.249,3.249,0,0,1,4.408,3.149m-2.1,15.442V30.748a1.225,1.225,0,0,0-1.076-1.259,1.116,1.116,0,0,0-.853.315,1.092,1.092,0,0,0-.354.827v7.924a1.05,1.05,0,1,1-2.1,0V28.033A1.226,1.226,0,0,0,30.4,26.773a1.154,1.154,0,0,0-.853.315,1.14,1.14,0,0,0-.354.827v10.64a1.05,1.05,0,1,1-2.1,0V25.317a1.225,1.225,0,0,0-1.076-1.259,1.154,1.154,0,0,0-.853.315,1.14,1.14,0,0,0-.354.827V38.554a1.05,1.05,0,1,1-2.1,0V27.691A1.144,1.144,0,0,0,21.5,26.55a1.239,1.239,0,0,0-1.076,1.273V43.2a1.05,1.05,0,1,1-2.1,0V38.187a1.7,1.7,0,0,0-1.706-1.692H15.7v2.453c0,.013-.013.026-.013.039l.013,6.56a4.1,4.1,0,0,0,1.43,3.122l.2.171a6.229,6.229,0,0,1,2.152,4.71v4.382H32.733v-4.3a6.242,6.242,0,0,1,1.889-4.474,4.18,4.18,0,0,0,1.246-2.965m-5.563-21.5V19.715a1.844,1.844,0,0,0-1.64-1.889,1.749,1.749,0,0,0-1.837,1.732v2.532a3.305,3.305,0,0,1,2.335,2.794,3.314,3.314,0,0,1,1.141-.2m-1.5-8.948V9.153a2.63,2.63,0,0,0-2.348-2.676,2.486,2.486,0,0,0-1.85.682,2.44,2.44,0,0,0-.774,1.8v3.424a3.941,3.941,0,0,1,2.991,3.752,3.924,3.924,0,0,1,1.942-.407c.013,0,.026.013.039.013m-4.08,6.455v-5.93A1.853,1.853,0,0,0,23.1,14.375a1.729,1.729,0,0,0-1.837,1.732v8.37c.039,0,.079-.013.131-.013a3.116,3.116,0,0,1,1.351.21,3.273,3.273,0,0,1,.971-1.824,3.345,3.345,0,0,1,1.01-.656m-2.991-9.7V4.785a2.611,2.611,0,0,0-2.348-2.676,2.378,2.378,0,0,0-1.837.669,2.461,2.461,0,0,0-.774,1.8V15.53c.144-.026.3-.066.446-.079a3.814,3.814,0,0,1,1.955.42,3.918,3.918,0,0,1,1.181-2.545,3.828,3.828,0,0,1,1.378-.827M19.168,25.553V19.282a1.686,1.686,0,0,0-.538-1.259,1.78,1.78,0,0,0-1.286-.472,1.844,1.844,0,0,0-1.64,1.889V34.4h.918a3.881,3.881,0,0,1,1.706.394V27.823a3.43,3.43,0,0,1,.84-2.27M17.383,57.932V53.55a4.148,4.148,0,0,0-1.43-3.122l-.2-.171a6.271,6.271,0,0,1-2.152-4.71V32.6a2.444,2.444,0,0,0-2.44-2.44H9.984a.266.266,0,0,0-.262.276v3.122l-.013.013v8.357A5.5,5.5,0,0,0,11.624,46.1l.249.223a7.628,7.628,0,0,1,2.637,5.773v5.838Zm-2.7-41.261V8.6a2.49,2.49,0,0,0-2.624-2.48A2.62,2.62,0,0,0,9.722,8.8V28.085a1.615,1.615,0,0,1,.262-.026h1.181a4.577,4.577,0,0,1,2.44.708V19.439a4.025,4.025,0,0,1,1.076-2.768m-2.27,41.261V52.094A5.505,5.505,0,0,0,10.5,47.909l-.249-.223a7.625,7.625,0,0,1-2.637-5.76V30.433l.013-.013V25.5a3.382,3.382,0,0,0-3.385-3.372h-1.5a.63.63,0,0,0-.63.63V37.334a7.305,7.305,0,0,0,2.519,5.523l.328.276a9.38,9.38,0,0,1,3.241,7.1v7.7Z" transform="translate(0 0.001)"/>
        <path id="Trazado_878406" data-name="Trazado 878406" d="M32.138,25.028V40.47a4.18,4.18,0,0,1-1.246,2.965A6.242,6.242,0,0,0,29,47.909v4.3H15.752V47.83A6.229,6.229,0,0,0,13.6,43.12l-.2-.171a4.1,4.1,0,0,1-1.43-3.122l-.013-6.56c0-.013.013-.026.013-.039V30.775h.918A1.7,1.7,0,0,1,14.6,32.467v5.012a1.05,1.05,0,1,0,2.1,0V22.1a1.239,1.239,0,0,1,1.076-1.273,1.144,1.144,0,0,1,1.207,1.141V32.834a1.05,1.05,0,1,0,2.1,0V19.479a1.14,1.14,0,0,1,.354-.827,1.154,1.154,0,0,1,.853-.315A1.225,1.225,0,0,1,23.361,19.6V32.834a1.05,1.05,0,1,0,2.1,0V22.194a1.14,1.14,0,0,1,.354-.827,1.154,1.154,0,0,1,.853-.315,1.226,1.226,0,0,1,1.089,1.259V32.834a1.05,1.05,0,1,0,2.1,0V24.91a1.092,1.092,0,0,1,.354-.827,1.116,1.116,0,0,1,.853-.315,1.225,1.225,0,0,1,1.076,1.259" transform="translate(3.731 5.721)" fill="#ffeb92"/>
        <path id="Trazado_878407" data-name="Trazado 878407" d="M23.927,18.77v1.679a3.314,3.314,0,0,0-1.141.2,3.305,3.305,0,0,0-2.335-2.794V15.319a1.749,1.749,0,0,1,1.837-1.732,1.844,1.844,0,0,1,1.64,1.889Z" transform="translate(6.38 4.238)" fill="#fdc367"/>
        <path id="Trazado_878408" data-name="Trazado 878408" d="M23.142,11.786V14.2c-.013,0-.026-.013-.039-.013a3.924,3.924,0,0,0-1.942.407,3.941,3.941,0,0,0-2.991-3.752V7.418a2.44,2.44,0,0,1,.774-1.8,2.486,2.486,0,0,1,1.85-.682,2.63,2.63,0,0,1,2.348,2.676Z" transform="translate(5.668 1.54)" fill="#ffeb92"/>
        <path id="Trazado_878409" data-name="Trazado 878409" d="M19.674,16.139v2.637a3.345,3.345,0,0,0-1.01.656,3.273,3.273,0,0,0-.971,1.824,3.116,3.116,0,0,0-1.351-.21c-.052,0-.092.013-.131.013v-8.37a1.729,1.729,0,0,1,1.837-1.732,1.853,1.853,0,0,1,1.627,1.889Z" transform="translate(5.057 3.418)" fill="#fdc367"/>
        <path id="Trazado_878410" data-name="Trazado 878410" d="M17.749,8.457V12a3.828,3.828,0,0,0-1.378.827,3.918,3.918,0,0,0-1.181,2.545,3.814,3.814,0,0,0-1.955-.42c-.144.013-.3.052-.446.079V4.075a2.461,2.461,0,0,1,.774-1.8A2.378,2.378,0,0,1,15.4,1.609a2.611,2.611,0,0,1,2.348,2.676Z" transform="translate(3.99 0.5)" fill="#ffeb92"/>
        <path id="Trazado_878411" data-name="Trazado 878411" d="M15.434,15.109V21.38a3.43,3.43,0,0,0-.84,2.27v6.967a3.881,3.881,0,0,0-1.706-.394H11.97V15.266a1.844,1.844,0,0,1,1.64-1.889,1.78,1.78,0,0,1,1.286.472,1.686,1.686,0,0,1,.538,1.259" transform="translate(3.734 4.173)" fill="#fdc367"/>
        <path id="Trazado_878412" data-name="Trazado 878412" d="M15.075,46.379v4.382H12.2V44.923A7.628,7.628,0,0,0,9.565,39.15l-.249-.223A5.5,5.5,0,0,1,7.4,34.755V26.4l.013-.013V23.263a.266.266,0,0,1,.262-.276H8.856a2.444,2.444,0,0,1,2.44,2.44V38.376a6.271,6.271,0,0,0,2.152,4.71l.2.171a4.148,4.148,0,0,1,1.43,3.122" transform="translate(2.309 7.172)" fill="#fdc367"/>
        <path id="Trazado_878413" data-name="Trazado 878413" d="M12.369,7.148v8.069a4.025,4.025,0,0,0-1.076,2.768v9.328a4.577,4.577,0,0,0-2.44-.708H7.672a1.615,1.615,0,0,0-.262.026V7.344A2.62,2.62,0,0,1,9.745,4.668a2.49,2.49,0,0,1,2.624,2.48" transform="translate(2.312 1.455)" fill="#ffeb92"/>
        <path id="Trazado_878414" data-name="Trazado 878414" d="M11.909,46.832V52.67H7.7v-7.7a9.38,9.38,0,0,0-3.241-7.1L4.129,37.6A7.305,7.305,0,0,1,1.61,32.073V17.5a.63.63,0,0,1,.63-.63h1.5A3.382,3.382,0,0,1,7.12,20.239v4.92l-.013.013V36.664a7.625,7.625,0,0,0,2.637,5.76l.249.223a5.505,5.505,0,0,1,1.915,4.185" transform="translate(0.502 5.262)" fill="#ffeb92"/>
      </g>
    </g>
  </g>
</svg>
