<svg xmlns="http://www.w3.org/2000/svg" xmlns:xlink="http://www.w3.org/1999/xlink" width="82" height="82" viewBox="0 0 82 82">
  <defs>
    <clipPath id="clip-path">
      <rect id="Rectángulo_402659" data-name="Rectángulo 402659" width="48.637" height="57.642" fill="none"/>
    </clipPath>
  </defs>
  <g id="Grupo_1102165" data-name="Grupo 1102165" transform="translate(-1095.051 -4919)">
    <g id="Grupo_1099619" data-name="Grupo 1099619" transform="translate(146.718 4477.001)">
      <circle id="Elipse_11497" data-name="Elipse 11497" cx="41" cy="41" r="41" transform="translate(948.333 441.999)" fill="#fff"/>
    </g>
    <g id="Grupo_1102176" data-name="Grupo 1102176" transform="translate(1112.912 4929.908)">
      <path id="Trazado_878415" data-name="Trazado 878415" d="M12.363,26.964,1.544,33.455.8,49.717H47.385v-13.3l-3.019-4.543L33.918,26.964Z" transform="translate(0.235 7.924)" fill="#97d0dc"/>
      <g id="Grupo_1102175" data-name="Grupo 1102175" transform="translate(0 0)">
        <g id="Grupo_1102174" data-name="Grupo 1102174" clip-path="url(#clip-path)">
          <path id="Trazado_878416" data-name="Trazado 878416" d="M48.637,56.594a1.03,1.03,0,0,1-1.022,1.048H47.6a1.044,1.044,0,0,1-1.035-1.022l-.142-10.8a6.444,6.444,0,0,0-3.455-5.6l-7.776-4.076-5.952,6.974L31.894,56.4a1.017,1.017,0,0,1-.815,1.216,1,1,0,0,1-.194.026,1.038,1.038,0,0,1-1.022-.828L27.482,44.859l-2.445,2.329a.8.8,0,0,1-.22.142c-.039.013-.065.052-.1.065a1.038,1.038,0,0,1-.388.078.945.945,0,0,1-.388-.078c-.052-.013-.078-.052-.116-.065a1.282,1.282,0,0,1-.22-.142l-2.432-2.329L18.774,56.814a1.035,1.035,0,0,1-1.009.828,1.006,1.006,0,0,1-.207-.026,1.027,1.027,0,0,1-.815-1.216l2.665-13.288-5.965-6.974L5.667,40.214a6.407,6.407,0,0,0-3.442,5.6L2.07,56.62A1.035,1.035,0,0,1,0,56.594l.155-10.8A8.487,8.487,0,0,1,4.71,38.376l4.529-2.368a21.187,21.187,0,1,1,30.16,0l4.542,2.368a8.537,8.537,0,0,1,4.554,7.414ZM37.484,35a19.117,19.117,0,1,0-26.33,0l.919-.479-.932-1.087a1.032,1.032,0,0,1,.776-1.708h4.8a.569.569,0,0,1,.129.026.835.835,0,0,1,.246.052.543.543,0,0,1,.181.116.5.5,0,0,1,.142.078l6.909,6.327L31.234,32a.431.431,0,0,1,.129-.078.6.6,0,0,1,.194-.116.755.755,0,0,1,.233-.052.55.55,0,0,1,.142-.026H36.72a1.04,1.04,0,0,1,.789,1.708l-.945,1.087ZM28,41.378,34.469,33.8H32.334L25.9,39.67Zm-3.675,3.636,2.238-2.135-2.238-1.824-2.238,1.824ZM20.65,41.378l2.083-1.708L16.316,33.8H14.168Z" transform="translate(0 0)"/>
          <path id="Trazado_878417" data-name="Trazado 878417" d="M42.254,20.711A19.11,19.11,0,0,1,36.3,34.529l-.919-.479.945-1.087a1.04,1.04,0,0,0-.789-1.708H30.752a.55.55,0,0,0-.142.026.755.755,0,0,0-.233.052.6.6,0,0,0-.194.116.431.431,0,0,0-.129.078l-6.909,6.327-6.909-6.327a.5.5,0,0,0-.142-.078.543.543,0,0,0-.181-.116.835.835,0,0,0-.246-.052.569.569,0,0,0-.129-.026h-4.8a1.032,1.032,0,0,0-.776,1.708l.932,1.087-.919.479A19.1,19.1,0,1,1,42.254,20.711M37.57,17.7c.039-.492.039-.789.039-.789-.013-5.15-3.882-9.342-8.63-9.342a8.234,8.234,0,0,0-5.835,2.471A8.287,8.287,0,0,0,17.3,7.565c-4.749,0-8.617,4.192-8.617,9.329a6.722,6.722,0,0,0,.026.776,9.625,9.625,0,0,0,.53,2.523C10.4,23.971,13.672,29.38,22.691,33.74a1.1,1.1,0,0,0,.453.1,1.152,1.152,0,0,0,.453-.1c8.992-4.347,12.279-9.769,13.456-13.547a10.334,10.334,0,0,0,.518-2.5" transform="translate(1.181 0.47)" fill="#ff9989"/>
          <path id="Trazado_878418" data-name="Trazado 878418" d="M32.23,37.91a1.035,1.035,0,1,1,0,2.07H27.675a1.035,1.035,0,1,1,0-2.07Z" transform="translate(7.829 11.141)"/>
          <path id="Trazado_878419" data-name="Trazado 878419" d="M36.552,15.552s0,.3-.039.789a10.334,10.334,0,0,1-.518,2.5c-1.177,3.778-4.464,9.2-13.456,13.547a1.152,1.152,0,0,1-.453.1,1.1,1.1,0,0,1-.453-.1c-9.018-4.36-12.292-9.769-13.456-13.547a9.625,9.625,0,0,1-.53-2.523,6.722,6.722,0,0,1-.026-.776c0-5.137,3.869-9.329,8.617-9.329a8.287,8.287,0,0,1,5.848,2.471A8.234,8.234,0,0,1,27.921,6.21c4.749,0,8.617,4.192,8.63,9.342m-2.109.608a4.967,4.967,0,0,0,.039-.569c0-4.05-2.95-7.31-6.56-7.31a6.322,6.322,0,0,0-5.02,2.588,1.064,1.064,0,0,1-1.643,0,6.322,6.322,0,0,0-5.02-2.588c-3.61,0-6.547,3.261-6.547,7.272a3.69,3.69,0,0,0,.026.582,7.759,7.759,0,0,0,.427,2.057C11.179,21.542,14.09,26.3,22.086,30.3c8-4,10.907-8.76,11.93-12.085a7.674,7.674,0,0,0,.427-2.057" transform="translate(2.239 1.825)"/>
          <path id="Trazado_878420" data-name="Trazado 878420" d="M34.011,15.12a4.967,4.967,0,0,1-.039.569,7.674,7.674,0,0,1-.427,2.057c-1.022,3.325-3.933,8.087-11.93,12.085-8-4-10.907-8.76-11.942-12.111a7.759,7.759,0,0,1-.427-2.057,3.69,3.69,0,0,1-.026-.582c0-4.011,2.937-7.272,6.547-7.272a6.322,6.322,0,0,1,5.02,2.588,1.064,1.064,0,0,0,1.643,0,6.322,6.322,0,0,1,5.02-2.588c3.61,0,6.56,3.261,6.56,7.31" transform="translate(2.709 2.295)" fill="#ff7863"/>
          <path id="Trazado_878421" data-name="Trazado 878421" d="M28.586,26.12,22.116,33.7l-2.1-1.708,6.431-5.874Z" transform="translate(5.883 7.676)" fill="#43aac2"/>
          <path id="Trazado_878422" data-name="Trazado 878422" d="M21.547,33.554l-2.238,2.135L17.07,33.554l2.238-1.824Z" transform="translate(5.017 9.325)" fill="#43aac2"/>
          <path id="Trazado_878423" data-name="Trazado 878423" d="M19.516,31.994,17.433,33.7,10.95,26.12H13.1Z" transform="translate(3.218 7.676)" fill="#43aac2"/>
        </g>
      </g>
    </g>
  </g>
</svg>
