<svg xmlns="http://www.w3.org/2000/svg" xmlns:xlink="http://www.w3.org/1999/xlink" width="82" height="82" viewBox="0 0 82 82">
  <defs>
    <clipPath id="clip-path">
      <rect id="Rectángulo_402660" data-name="Rectángulo 402660" width="54.795" height="50.663" fill="none"/>
    </clipPath>
  </defs>
  <g id="Grupo_1102167" data-name="Grupo 1102167" transform="translate(-1095.051 -4919)">
    <g id="Grupo_1099619" data-name="Grupo 1099619" transform="translate(146.718 4477.001)">
      <circle id="Elipse_11497" data-name="Elipse 11497" cx="41" cy="41" r="41" transform="translate(948.333 441.999)" fill="#fff"/>
    </g>
    <g id="Grupo_1102178" data-name="Grupo 1102178" transform="translate(1109.889 4933.307)">
      <g id="Grupo_1102177" data-name="Grupo 1102177" clip-path="url(#clip-path)">
        <path id="Trazado_878424" data-name="Trazado 878424" d="M51.843,38.683c0,2.645-11.373,4.789-25.4,4.789s-25.4-2.145-25.4-4.789,11.372-4.788,25.4-4.788,25.4,2.143,25.4,4.788" transform="translate(0.186 6.068)" fill="#97d0dc"/>
        <path id="Trazado_878425" data-name="Trazado 878425" d="M44.2,30.857a.944.944,0,0,1,.212,1.321l-1.167,1.639a.95.95,0,0,1-.766.389.931.931,0,0,1-.542-.177.957.957,0,0,1-.224-1.321l1.167-1.627a.946.946,0,0,1,1.321-.224" transform="translate(7.437 5.493)"/>
        <path id="Trazado_878426" data-name="Trazado 878426" d="M41.346,11.224a13.341,13.341,0,1,1-5.117,25.667,10.163,10.163,0,0,1-18.7,4.7c-10.882.8-14.9,2.688-15.068,3.431.283,1.3,8.89,3.749,24.371,3.749s24.076-2.452,24.359-3.761c-.094-.413-2.523-2.228-12.769-3.231a.932.932,0,0,1-.849-1.026,1.133,1.133,0,0,1,.094-.342.917.917,0,0,1,.931-.507c6.6.637,14.478,2.052,14.478,5.117,0,4.457-17.167,5.636-26.245,5.636S.575,49.484.575,45.027c0-3.384,9.574-4.728,16.035-5.247a10.084,10.084,0,0,1,.224-7.888,16.046,16.046,0,1,1,18.24-19.1,13.261,13.261,0,0,1,6.272-1.568m11.46,13.347a11.46,11.46,0,1,0-11.46,11.448,11.473,11.473,0,0,0,11.46-11.448M34.39,36.1a.893.893,0,0,0-.012-.177,12.6,12.6,0,0,1-1.521-1.073,3.493,3.493,0,0,1,.035.365.943.943,0,0,1-1.886,0,1.085,1.085,0,0,0-2.169,0,.943.943,0,1,1-1.886,0,2.974,2.974,0,0,1,2.971-2.971,3.1,3.1,0,0,1,.578.059,13.168,13.168,0,0,1-1.981-4.115,8.427,8.427,0,0,0-2.429-.377,8.294,8.294,0,1,0,8.3,8.289M28,24.571A13.336,13.336,0,0,1,33.34,13.913,14.153,14.153,0,1,0,17.871,30.124a10.174,10.174,0,0,1,8.218-4.2,10.439,10.439,0,0,1,2.016.2A13.435,13.435,0,0,1,28,24.571" transform="translate(0.103)"/>
        <path id="Trazado_878427" data-name="Trazado 878427" d="M36.9,11.12a11.454,11.454,0,1,1-11.46,11.46A11.473,11.473,0,0,1,36.9,11.12m7.864,11.213a.946.946,0,0,0,.943-.943,3.667,3.667,0,1,0-7.334,0,.943.943,0,0,0,1.886,0,1.78,1.78,0,1,1,3.561,0,.946.946,0,0,0,.943.943m-4.2,5.188a.943.943,0,1,0-1.886,0,1.78,1.78,0,1,1-3.561,0,.943.943,0,0,0-1.886,0,3.667,3.667,0,0,0,7.334,0m-6.084-5.188a.946.946,0,0,0,.943-.943,3.667,3.667,0,1,0-7.334,0,.943.943,0,0,0,1.886,0,1.78,1.78,0,1,1,3.561,0,.946.946,0,0,0,.943.943" transform="translate(4.554 1.991)" fill="#ffeb92"/>
        <path id="Trazado_878428" data-name="Trazado 878428" d="M43.739,20.387a.943.943,0,1,1-1.886,0,1.78,1.78,0,0,0-3.561,0,.943.943,0,0,1-1.886,0,3.667,3.667,0,1,1,7.334,0" transform="translate(6.518 2.993)"/>
        <path id="Trazado_878429" data-name="Trazado 878429" d="M38.435,24.23a.946.946,0,0,1,.943.943,3.667,3.667,0,0,1-7.334,0,.943.943,0,0,1,1.886,0,1.78,1.78,0,1,0,3.561,0,.946.946,0,0,1,.943-.943" transform="translate(5.737 4.338)"/>
        <path id="Trazado_878430" data-name="Trazado 878430" d="M35.019,20.387a.943.943,0,0,1-1.886,0,1.78,1.78,0,1,0-3.561,0,.943.943,0,0,1-1.886,0,3.667,3.667,0,1,1,7.334,0" transform="translate(4.956 2.993)"/>
        <path id="Trazado_878431" data-name="Trazado 878431" d="M31.762,31.7a.893.893,0,0,1,.012.177,8.294,8.294,0,1,1-8.3-8.289,8.427,8.427,0,0,1,2.429.377,13.168,13.168,0,0,0,1.981,4.115,3.1,3.1,0,0,0-.578-.059,2.974,2.974,0,0,0-2.971,2.971.943.943,0,1,0,1.886,0,1.085,1.085,0,0,1,2.169,0,.943.943,0,0,0,1.886,0,3.493,3.493,0,0,0-.035-.365A12.6,12.6,0,0,0,31.762,31.7m-8.289,6.827a2.974,2.974,0,0,0,2.971-2.971.943.943,0,1,0-1.886,0,1.085,1.085,0,1,1-2.169,0,.943.943,0,1,0-1.886,0,2.974,2.974,0,0,0,2.971,2.971m-.849-7.534a2.971,2.971,0,0,0-5.942,0,.943.943,0,0,0,1.886,0,1.085,1.085,0,1,1,2.169,0,.943.943,0,1,0,1.886,0" transform="translate(2.719 4.223)" fill="#fdc367"/>
        <path id="Trazado_878432" data-name="Trazado 878432" d="M32.638,13.626A13.086,13.086,0,0,0,27.4,25.841a10.439,10.439,0,0,0-2.016-.2,10.174,10.174,0,0,0-8.218,4.2A14.157,14.157,0,1,1,32.638,13.626m-4.41,1.639a.946.946,0,0,0,.943-.943,4.256,4.256,0,1,0-8.513,0,.943.943,0,0,0,1.886,0,2.37,2.37,0,1,1,4.74,0,.946.946,0,0,0,.943.943m-5.317,6.52a.943.943,0,1,0-1.886,0,2.37,2.37,0,1,1-4.74,0,.943.943,0,1,0-1.886,0,4.256,4.256,0,1,0,8.513,0m-7.2-6.52a.946.946,0,0,0,.943-.943,4.256,4.256,0,1,0-8.513,0,.943.943,0,0,0,1.886,0,2.37,2.37,0,1,1,4.74,0,.946.946,0,0,0,.943.943" transform="translate(0.805 0.286)" fill="#ffeb92"/>
        <path id="Trazado_878433" data-name="Trazado 878433" d="M26.718,13.038a.943.943,0,1,1-1.886,0,2.37,2.37,0,1,0-4.74,0,.943.943,0,0,1-1.886,0,4.256,4.256,0,1,1,8.513,0" transform="translate(3.259 1.57)"/>
        <path id="Trazado_878434" data-name="Trazado 878434" d="M25.637,33.883a2.971,2.971,0,0,1-5.942,0,.943.943,0,1,1,1.886,0,1.085,1.085,0,1,0,2.169,0,.943.943,0,1,1,1.886,0" transform="translate(3.526 5.897)"/>
        <path id="Trazado_878435" data-name="Trazado 878435" d="M19.426,27.35A2.974,2.974,0,0,1,22.4,30.321a.943.943,0,1,1-1.886,0,1.085,1.085,0,0,0-2.169,0,.943.943,0,0,1-1.886,0,2.974,2.974,0,0,1,2.971-2.971" transform="translate(2.946 4.896)"/>
        <path id="Trazado_878436" data-name="Trazado 878436" d="M20.464,17.92a.946.946,0,0,1,.943.943,4.256,4.256,0,1,1-8.513,0,.943.943,0,1,1,1.886,0,2.37,2.37,0,1,0,4.74,0,.946.946,0,0,1,.943-.943" transform="translate(2.309 3.208)"/>
        <path id="Trazado_878437" data-name="Trazado 878437" d="M16.1,13.038a.943.943,0,0,1-1.886,0,2.37,2.37,0,1,0-4.74,0,.943.943,0,0,1-1.886,0,4.256,4.256,0,1,1,8.513,0" transform="translate(1.358 1.57)"/>
        <path id="Trazado_878438" data-name="Trazado 878438" d="M11.659,31.363a.927.927,0,0,1-.189,1.309.909.909,0,0,1-.566.189.949.949,0,0,1-.755-.377l-3.8-5.105a.94.94,0,0,1,1.509-1.12Z" transform="translate(1.104 4.633)"/>
        <path id="Trazado_878439" data-name="Trazado 878439" d="M7.563,32.736a.952.952,0,0,1-.177,1.321.969.969,0,0,1-1.332-.177l-5.86-7.7a.955.955,0,0,1,.177-1.332.954.954,0,0,1,1.321.189Z" transform="translate(0 4.415)"/>
      </g>
    </g>
  </g>
</svg>
