<svg xmlns="http://www.w3.org/2000/svg" xmlns:xlink="http://www.w3.org/1999/xlink" width="67" height="67" viewBox="0 0 67 67">
  <defs>
    <clipPath id="clip-path">
      <rect id="Rectángulo_402662" data-name="Rectángulo 402662" width="42.824" height="41.856" fill="#fff"/>
    </clipPath>
  </defs>
  <g id="Grupo_1101922" data-name="Grupo 1101922" transform="translate(-351.051 -4468)">
    <circle id="Elipse_11560" data-name="Elipse 11560" cx="33.5" cy="33.5" r="33.5" transform="translate(351.051 4468)" fill="#2436b1"/>
    <g id="Grupo_1102181" data-name="Grupo 1102181" transform="translate(364.051 4480.196)">
      <g id="Grupo_1102180" data-name="Grupo 1102180" clip-path="url(#clip-path)">
        <path id="Trazado_878441" data-name="Trazado 878441" d="M.431,74.9A.43.43,0,0,1,0,74.467V65.531a4.1,4.1,0,0,1,4.1-4.1h7.368a.431.431,0,1,1,0,.861H4.1A3.242,3.242,0,0,0,.861,65.531v8.936a.43.43,0,0,1-.431.431" transform="translate(0 -50.853)" fill="#fff"/>
        <path id="Trazado_878442" data-name="Trazado 878442" d="M1.969,106.9A1.971,1.971,0,0,1,0,104.927v-4.384a.431.431,0,0,1,.861,0v4.384a1.108,1.108,0,1,0,2.215,0V97.079a.431.431,0,1,1,.861,0v7.848A1.971,1.971,0,0,1,1.969,106.9" transform="translate(0 -80.004)" fill="#fff"/>
        <path id="Trazado_878443" data-name="Trazado 878443" d="M26.047,113.336H19.093a1.231,1.231,0,0,1-1.23-1.23V96.431a.431.431,0,1,1,.861,0v15.675a.369.369,0,0,0,.369.369h6.955a.369.369,0,0,0,.369-.369c0-.2.028-19.983,0-23.393a2.338,2.338,0,0,1,.542-1.74c.583-.588,1.474-.588,2.6-.588a.431.431,0,1,1,0,.861c-.927,0-1.66,0-1.99.333a1.57,1.57,0,0,0-.292,1.126c.028,3.414,0,23.2,0,23.4a1.231,1.231,0,0,1-1.23,1.229" transform="translate(-14.787 -71.509)" fill="#fff"/>
        <path id="Trazado_878444" data-name="Trazado 878444" d="M43.128,161.205a.43.43,0,0,1-.431-.431V144.644a.431.431,0,1,1,.861,0v16.131a.43.43,0,0,1-.431.431" transform="translate(-35.344 -119.378)" fill="#fff"/>
        <path id="Trazado_878445" data-name="Trazado 878445" d="M25.726,9.167c-2.182,0-4.051-2.813-4.051-5.117a4.051,4.051,0,1,1,8.1,0c0,2.3-1.869,5.117-4.051,5.117m0-8.306a3.193,3.193,0,0,0-3.19,3.19c0,2.252,1.784,4.255,3.19,4.255s3.189-2,3.189-4.255A3.193,3.193,0,0,0,25.726.861" transform="translate(-17.942)" fill="#fff"/>
        <path id="Trazado_878446" data-name="Trazado 878446" d="M92.4,18.038a.431.431,0,0,1-.382-.629l4.524-8.691a1.772,1.772,0,0,0,.138-1.763,1.011,1.011,0,0,0-.831-.514c-.741,0-1.655.906-2.176,1.8l-3.63,6.394a.43.43,0,1,1-.749-.425l3.632-6.4c.648-1.114,1.8-2.233,2.922-2.233a1.861,1.861,0,0,1,1.571.935A2.534,2.534,0,0,1,97.3,9.121L92.78,17.806a.431.431,0,0,1-.382.232" transform="translate(-73.868 -4.618)" fill="#fff"/>
        <path id="Trazado_878447" data-name="Trazado 878447" d="M65.638,55.217H64.38a.431.431,0,1,1,0-.861H64.4a.431.431,0,0,1,.409.565l.826-.565c1.527,0,2.224,0,2.865-1.239a.431.431,0,0,1,.765.4c-.882,1.7-2.094,1.7-3.629,1.7" transform="translate(-52.936 -43.777)" fill="#fff"/>
        <path id="Trazado_878448" data-name="Trazado 878448" d="M83.283,70.174v-.008c-.207-.022-.431-.105-.431-.423,0-.3.162-.391.431-.419v-.012h.938c1.384,0,1.919-.9,2.746-2.489.143-.274.29-.557.45-.843a.43.43,0,1,1,.751.421c-.153.274-.3.551-.437.819-.79,1.518-1.536,2.951-3.51,2.952h-.938Z" transform="translate(-68.584 -54.436)" fill="#fff"/>
        <path id="Trazado_878449" data-name="Trazado 878449" d="M191.053,75.065a.43.43,0,0,1-.431-.431V65.7a3.242,3.242,0,0,0-3.239-3.238h-7.368a.431.431,0,0,1,0-.861h7.368a4.1,4.1,0,0,1,4.1,4.1v8.936a.43.43,0,0,1-.431.431" transform="translate(-148.66 -50.991)" fill="#fff"/>
        <path id="Trazado_878450" data-name="Trazado 878450" d="M227.78,107.062a1.971,1.971,0,0,1-1.969-1.969V97.246a.431.431,0,1,1,.861,0v7.848a1.108,1.108,0,1,0,2.215,0V100.71a.431.431,0,1,1,.861,0v4.384a1.971,1.971,0,0,1-1.969,1.969" transform="translate(-186.924 -80.143)" fill="#fff"/>
        <path id="Trazado_878451" data-name="Trazado 878451" d="M171.285,113.5H164.33a1.231,1.231,0,0,1-1.23-1.23c0-.2-.029-19.986,0-23.4a1.571,1.571,0,0,0-.293-1.126c-.331-.333-1.063-.333-1.99-.333a.431.431,0,0,1,0-.861c1.128,0,2.018,0,2.6.588a2.338,2.338,0,0,1,.542,1.74c-.029,3.41,0,23.193,0,23.392a.369.369,0,0,0,.369.37h6.954a.369.369,0,0,0,.369-.369V96.6a.431.431,0,1,1,.861,0v15.674a1.232,1.232,0,0,1-1.23,1.23" transform="translate(-132.767 -71.647)" fill="#fff"/>
        <path id="Trazado_878452" data-name="Trazado 878452" d="M201.408,161.372a.43.43,0,0,1-.431-.431V144.811a.431.431,0,1,1,.861,0v16.131a.43.43,0,0,1-.431.431" transform="translate(-166.367 -119.516)" fill="#fff"/>
        <path id="Trazado_878453" data-name="Trazado 878453" d="M184.006,9.334c-2.182,0-4.051-2.813-4.051-5.117a4.051,4.051,0,1,1,8.1,0c0,2.3-1.869,5.117-4.051,5.117m0-8.306a3.193,3.193,0,0,0-3.19,3.19c0,2.252,1.784,4.255,3.19,4.255s3.189-2,3.189-4.255a3.193,3.193,0,0,0-3.189-3.19" transform="translate(-148.965 -0.138)" fill="#fff"/>
        <path id="Trazado_878454" data-name="Trazado 878454" d="M142.139,33.033a.43.43,0,0,1-.375-.218l-2.649-4.665a.431.431,0,1,1,.749-.425l2.649,4.665a.431.431,0,0,1-.374.643" transform="translate(-115.112 -22.769)" fill="#fff"/>
        <path id="Trazado_878455" data-name="Trazado 878455" d="M129.231,56.1a.43.43,0,0,1-.378-.224l-2.034-3.714a.43.43,0,1,1,.755-.413l2.034,3.714a.431.431,0,0,1-.377.637" transform="translate(-104.936 -42.651)" fill="#fff"/>
        <path id="Trazado_878456" data-name="Trazado 878456" d="M158.5,55.384h-.024a.431.431,0,0,1-.409-.565l-.826.565c-1.535,0-2.748,0-3.629-1.7a.431.431,0,0,1,.765-.4c.641,1.239,1.338,1.239,2.864,1.239H158.5a.431.431,0,0,1,0,.861" transform="translate(-127.117 -43.915)" fill="#fff"/>
        <path id="Trazado_878457" data-name="Trazado 878457" d="M139.57,70.341h-.938c-1.974,0-2.72-1.435-3.51-2.953-.14-.268-.284-.546-.437-.819a.431.431,0,1,1,.751-.421c.16.285.307.568.45.842.827,1.589,1.363,2.489,2.747,2.489h.756l.182.008c.207.022.431.106.431.423,0,.3-.162.391-.431.419Z" transform="translate(-111.445 -54.575)" fill="#fff"/>
      </g>
    </g>
  </g>
</svg>
