<svg xmlns="http://www.w3.org/2000/svg" xmlns:xlink="http://www.w3.org/1999/xlink" width="67" height="67" viewBox="0 0 67 67">
  <defs>
    <clipPath id="clip-path">
      <rect id="Rectángulo_402564" data-name="Rectángulo 402564" width="41.7" height="49.032" fill="#fff"/>
    </clipPath>
  </defs>
  <g id="Grupo_1101922" data-name="Grupo 1101922" transform="translate(-351.051 -4468)">
    <circle id="Elipse_11560" data-name="Elipse 11560" cx="33.5" cy="33.5" r="33.5" transform="translate(351.051 4468)" fill="#2436b1"/>
    <g id="Grupo_1101921" data-name="Grupo 1101921" transform="translate(365.737 4476.984)">
      <g id="Grupo_1101920" data-name="Grupo 1101920" clip-path="url(#clip-path)">
        <path id="Trazado_877884" data-name="Trazado 877884" d="M25.305,49.032a.488.488,0,0,1-.488-.488v-7.45a.488.488,0,0,1,.488-.488s8.027,0,9.023,0h0a1.215,1.215,0,0,0,.925-.331,1.734,1.734,0,0,0,.381-1.124c0-.006,0-.015,0-.021V28.719a.488.488,0,0,1,.488-.488h3.365a2.394,2.394,0,0,0,1.225-.187,1.119,1.119,0,0,0-.274-.367.5.5,0,0,1-.077-.087L35.725,20.9a.487.487,0,0,1-.087-.278V20c0-10.488-7.775-19.02-17.331-19.02S.977,9.509.977,20c0,4.475,2.4,9.176,7.13,13.973a.489.489,0,0,1,.141.343V48.544a.488.488,0,0,1-.977,0V34.512a31.439,31.439,0,0,1-4.89-6.33A16.6,16.6,0,0,1,0,20C0,8.971,8.212,0,18.307,0S36.614,8.971,36.614,20v.474l4.521,6.516a1.411,1.411,0,0,1,.506,1.4c-.276.733-1.36.817-2.15.817H36.614V39.12a2.71,2.71,0,0,1-.647,1.825,2.163,2.163,0,0,1-1.635.636h0c-.847,0-6.778,0-8.533,0v6.962a.488.488,0,0,1-.488.488" fill="#fff"/>
        <path id="Trazado_877885" data-name="Trazado 877885" d="M32.427,75.838a3.892,3.892,0,0,1-3.269-6.005H17.811a.488.488,0,0,1-.314-.862,2.916,2.916,0,1,0-3.749,0,.488.488,0,0,1-.314.862H7.189a.488.488,0,1,1,0-.977h5.167a3.892,3.892,0,1,1,6.532,0H30.232a.488.488,0,0,1,.315.861,2.916,2.916,0,1,0,3.76,0,.488.488,0,0,1,.315-.861H40.9a.488.488,0,1,1,0,.977H35.7a3.892,3.892,0,0,1-3.269,6.005" transform="translate(-5.392 -50.57)" fill="#fff"/>
        <path id="Trazado_877886" data-name="Trazado 877886" d="M68.16,41.988a.488.488,0,0,1-.488-.488V36.332a3.893,3.893,0,1,1,0-6.532V18.631a.488.488,0,0,1,.861-.315,2.916,2.916,0,1,0,0-3.76.488.488,0,0,1-.861-.315V7.788a.488.488,0,0,1,.977,0v5.378a3.893,3.893,0,1,1,0,6.538V30.878a.488.488,0,0,1-.862.314,2.916,2.916,0,1,0,0,3.749.488.488,0,0,1,.862.314V41.5a.488.488,0,0,1-.488.488" transform="translate(-49.616 -5.874)" fill="#fff"/>
      </g>
    </g>
  </g>
</svg>
