<svg id="Grupo_1102113" data-name="Grupo 1102113" xmlns="http://www.w3.org/2000/svg" xmlns:xlink="http://www.w3.org/1999/xlink" width="252.873" height="160.332" viewBox="0 0 252.873 160.332">
  <defs>
    <clipPath id="clip-path">
      <rect id="Rectángulo_402635" data-name="Rectángulo 402635" width="252.873" height="160.332" fill="none"/>
    </clipPath>
    <clipPath id="clip-path-3">
      <rect id="Rectángulo_402602" data-name="Rectángulo 402602" width="22.149" height="35.385" fill="none"/>
    </clipPath>
    <clipPath id="clip-path-4">
      <rect id="Rectángulo_402603" data-name="Rectángulo 402603" width="11.128" height="18.506" fill="none"/>
    </clipPath>
    <clipPath id="clip-path-5">
      <rect id="Rectángulo_402606" data-name="Rectángulo 402606" width="3.515" height="6.414" fill="none"/>
    </clipPath>
    <clipPath id="clip-path-6">
      <rect id="Rectángulo_402607" data-name="Rectángulo 402607" width="0.575" height="0.542" fill="none"/>
    </clipPath>
    <clipPath id="clip-path-7">
      <rect id="Rectángulo_402608" data-name="Rectángulo 402608" width="0.973" height="1.321" fill="none"/>
    </clipPath>
    <clipPath id="clip-path-8">
      <rect id="Rectángulo_402609" data-name="Rectángulo 402609" width="10.783" height="39.281" fill="none"/>
    </clipPath>
    <clipPath id="clip-path-9">
      <rect id="Rectángulo_402610" data-name="Rectángulo 402610" width="11.934" height="51.875" fill="none"/>
    </clipPath>
    <clipPath id="clip-path-10">
      <rect id="Rectángulo_402611" data-name="Rectángulo 402611" width="5.949" height="13.715" fill="none"/>
    </clipPath>
    <clipPath id="clip-path-11">
      <rect id="Rectángulo_402612" data-name="Rectángulo 402612" width="5.35" height="12.312" fill="none"/>
    </clipPath>
    <clipPath id="clip-path-12">
      <rect id="Rectángulo_402613" data-name="Rectángulo 402613" width="3.19" height="1.572" fill="none"/>
    </clipPath>
    <clipPath id="clip-path-13">
      <rect id="Rectángulo_402614" data-name="Rectángulo 402614" width="4.162" height="24.78" fill="none"/>
    </clipPath>
    <clipPath id="clip-path-14">
      <rect id="Rectángulo_402615" data-name="Rectángulo 402615" width="1.14" height="7.994" fill="none"/>
    </clipPath>
    <clipPath id="clip-path-15">
      <rect id="Rectángulo_402616" data-name="Rectángulo 402616" width="4.079" height="3.723" fill="none"/>
    </clipPath>
    <clipPath id="clip-path-16">
      <rect id="Rectángulo_402617" data-name="Rectángulo 402617" width="0.466" height="0.634" fill="none"/>
    </clipPath>
    <clipPath id="clip-path-17">
      <rect id="Rectángulo_402618" data-name="Rectángulo 402618" width="3.121" height="1.113" fill="none"/>
    </clipPath>
    <clipPath id="clip-path-18">
      <rect id="Rectángulo_402619" data-name="Rectángulo 402619" width="2.573" height="1.112" fill="none"/>
    </clipPath>
    <clipPath id="clip-path-19">
      <rect id="Rectángulo_402620" data-name="Rectángulo 402620" width="1.278" height="1.376" fill="none"/>
    </clipPath>
    <clipPath id="clip-path-20">
      <rect id="Rectángulo_402621" data-name="Rectángulo 402621" width="0.419" height="0.63" fill="none"/>
    </clipPath>
    <clipPath id="clip-path-21">
      <rect id="Rectángulo_402622" data-name="Rectángulo 402622" width="0.302" height="0.428" fill="none"/>
    </clipPath>
    <clipPath id="clip-path-23">
      <rect id="Rectángulo_402624" data-name="Rectángulo 402624" width="6.066" height="2.136" fill="none"/>
    </clipPath>
    <clipPath id="clip-path-24">
      <rect id="Rectángulo_402626" data-name="Rectángulo 402626" width="3.981" height="35.166" fill="none"/>
    </clipPath>
    <clipPath id="clip-path-25">
      <rect id="Rectángulo_402627" data-name="Rectángulo 402627" width="3.195" height="21.196" fill="none"/>
    </clipPath>
    <clipPath id="clip-path-26">
      <rect id="Rectángulo_402628" data-name="Rectángulo 402628" width="6.346" height="4.202" fill="none"/>
    </clipPath>
    <clipPath id="clip-path-27">
      <rect id="Rectángulo_402629" data-name="Rectángulo 402629" width="5.218" height="1.508" fill="none"/>
    </clipPath>
    <clipPath id="clip-path-28">
      <rect id="Rectángulo_402630" data-name="Rectángulo 402630" width="3.101" height="16.631" fill="none"/>
    </clipPath>
    <clipPath id="clip-path-29">
      <rect id="Rectángulo_402631" data-name="Rectángulo 402631" width="6.566" height="1.126" fill="none"/>
    </clipPath>
    <clipPath id="clip-path-30">
      <rect id="Rectángulo_402632" data-name="Rectángulo 402632" width="3.266" height="1.451" fill="none"/>
    </clipPath>
  </defs>
  <g id="Grupo_1102112" data-name="Grupo 1102112" clip-path="url(#clip-path)">
    <g id="Grupo_1102111" data-name="Grupo 1102111">
      <g id="Grupo_1102110" data-name="Grupo 1102110" clip-path="url(#clip-path)">
        <path id="Trazado_878026" data-name="Trazado 878026" d="M432.43,109.253c-26.029,14.773-15.818,29.048-2.588,39.689s30.2-9.491,26.459-25.884-13.23-19.845-23.871-13.805" transform="translate(-207.396 -53.046)" fill="#fcf3e5"/>
        <path id="Trazado_878027" data-name="Trazado 878027" d="M214.778,9.328C178.91,34.378,216.5,68.286,238.649,51.605s53.206,6.9,53.782-14.38-41.415-53.206-77.653-27.9" transform="translate(-99.608 0)" fill="#fcf3e5"/>
        <path id="Trazado_878028" data-name="Trazado 878028" d="M8.469,188.48c-27.3,3.9,19.845,52.056,23.3,32.5S28.6,185.6,8.469,188.48" transform="translate(0 -93.735)" fill="#fcf3e5"/>
        <path id="Trazado_878029" data-name="Trazado 878029" d="M32.856,108.43C23.248,59.515,72.721,40.068,91.184,73.817a99.7,99.7,0,0,0,10.152,15.511c14.526,17.643,29.306,15.759,55.477,8.748,32.212-8.628,74.777,14.668,77.077,48.6s-18.406,40.839-18.406,40.839l-124.244-.863c-52.056-32.5-52.056-46.016-58.383-78.228" transform="translate(-15.759 -28.352)" fill="#fcf3e5"/>
        <path id="Trazado_878030" data-name="Trazado 878030" d="M51.913,128.49H49.32a.612.612,0,1,1,0-1.225h2.593a.612.612,0,1,1,0,1.225" transform="translate(-24.267 -63.405)" fill="#fff"/>
        <path id="Trazado_878031" data-name="Trazado 878031" d="M45.021,128.49h-1.15a.612.612,0,1,1,0-1.225h1.15a.612.612,0,1,1,0,1.225" transform="translate(-21.552 -63.405)" fill="#fff"/>
        <path id="Trazado_878032" data-name="Trazado 878032" d="M48.515,133.912H43.337a.612.612,0,0,1,0-1.225h5.178a.612.612,0,1,1,0,1.225" transform="translate(-21.286 -66.107)" fill="#fff"/>
        <path id="Trazado_878033" data-name="Trazado 878033" d="M23.441,126.448a.614.614,0,0,1-.433-.179l-3.219-3.219a.612.612,0,1,1,.866-.866l2.777,2.777,5.327-5.554a.613.613,0,1,1,.884.848l-5.76,6a.613.613,0,0,1-.436.189h-.007" transform="translate(-9.77 -59.396)" fill="#e05745"/>
        <path id="Trazado_878034" data-name="Trazado 878034" d="M466.535,85.888h-3.5a1.12,1.12,0,0,1-1.118-1.118v-3.5a1.119,1.119,0,0,1,1.118-1.118h3.5a1.119,1.119,0,0,1,1.118,1.118v3.5a1.12,1.12,0,0,1-1.118,1.118m-3.5-5.369a.752.752,0,0,0-.751.751v3.5a.752.752,0,0,0,.751.751h3.5a.752.752,0,0,0,.751-.751v-3.5a.752.752,0,0,0-.751-.751Z" transform="translate(-230.134 -39.933)" fill="#ffc894"/>
        <path id="Trazado_878035" data-name="Trazado 878035" d="M465.735,85.279a.186.186,0,0,1-.13-.054l-1.246-1.246a.184.184,0,0,1,.26-.26l1.117,1.116,1.716-1.716a.184.184,0,0,1,.26.26l-1.846,1.846a.185.185,0,0,1-.13.054" transform="translate(-231.324 -41.385)" fill="#ffc894"/>
        <path id="Trazado_878036" data-name="Trazado 878036" d="M199.574,288.247h-3.5a1.12,1.12,0,0,1-1.118-1.118v-3.5a1.12,1.12,0,0,1,1.118-1.118h3.5a1.119,1.119,0,0,1,1.118,1.118v3.5a1.119,1.119,0,0,1-1.118,1.118m-3.5-5.369a.752.752,0,0,0-.751.751v3.5a.752.752,0,0,0,.751.751h3.5a.751.751,0,0,0,.751-.751v-3.5a.751.751,0,0,0-.751-.751Z" transform="translate(-97.13 -140.751)" fill="#ffc894"/>
        <path id="Trazado_878037" data-name="Trazado 878037" d="M198.774,287.637a.185.185,0,0,1-.13-.054l-1.246-1.246a.184.184,0,0,1,.26-.26l1.116,1.116,1.716-1.716a.184.184,0,0,1,.26.26l-1.846,1.846a.185.185,0,0,1-.13.054" transform="translate(-98.32 -142.202)" fill="#ffc894"/>
        <path id="Trazado_878038" data-name="Trazado 878038" d="M327.008,20.855a.184.184,0,0,1-.13-.054L326,19.92a3.831,3.831,0,1,1,1.195-.759v1.51a.183.183,0,0,1-.113.17.181.181,0,0,1-.07.014m-.968-1.336a.184.184,0,0,1,.13.054l.655.655V19.08a.183.183,0,0,1,.061-.137,3.452,3.452,0,1,0-.92.592.18.18,0,0,1,.074-.016" transform="translate(-159.804 -6.247)" fill="#ffc894"/>
        <path id="Trazado_878039" data-name="Trazado 878039" d="M328.135,19.768a.36.36,0,1,1-.359-.359.359.359,0,0,1,.359.359" transform="translate(-163.124 -9.67)" fill="#ffc894"/>
        <path id="Trazado_878040" data-name="Trazado 878040" d="M330.82,19.768a.36.36,0,1,1-.359-.359.359.359,0,0,1,.359.359" transform="translate(-164.461 -9.67)" fill="#ffc894"/>
        <path id="Trazado_878041" data-name="Trazado 878041" d="M325.694,19.768a.359.359,0,1,1-.359-.359.359.359,0,0,1,.359.359" transform="translate(-161.907 -9.67)" fill="#ffc894"/>
        <path id="Trazado_878042" data-name="Trazado 878042" d="M182.915,43.23H181.7a.184.184,0,1,1,0-.367h1.214a1.256,1.256,0,0,0,1.254-1.254V38.732a1.256,1.256,0,0,0-1.254-1.254h-6.231a1.255,1.255,0,0,0-1.254,1.254.184.184,0,1,1-.367,0,1.623,1.623,0,0,1,1.622-1.621h6.231a1.623,1.623,0,0,1,1.622,1.621v2.876a1.624,1.624,0,0,1-1.622,1.622" transform="translate(-87.219 -18.489)" fill="#ffc894"/>
        <path id="Trazado_878043" data-name="Trazado 878043" d="M175.4,47.5h-6.231a1.624,1.624,0,0,1-1.622-1.622V43a1.623,1.623,0,0,1,1.622-1.622H175.4A1.623,1.623,0,0,1,177.022,43v2.876A1.623,1.623,0,0,1,175.4,47.5m-6.231-5.752A1.256,1.256,0,0,0,167.914,43v2.876a1.256,1.256,0,0,0,1.254,1.254H175.4a1.256,1.256,0,0,0,1.254-1.254V43a1.256,1.256,0,0,0-1.254-1.254Z" transform="translate(-83.474 -20.615)" fill="#ffc894"/>
        <path id="Trazado_878044" data-name="Trazado 878044" d="M176.641,47.269a.335.335,0,1,1-.336-.336.336.336,0,0,1,.336.336" transform="translate(-87.671 -23.383)" fill="#ffc894"/>
        <path id="Trazado_878045" data-name="Trazado 878045" d="M180.791,47.269a.335.335,0,1,1-.336-.336.336.336,0,0,1,.336.336" transform="translate(-89.738 -23.383)" fill="#ffc894"/>
        <path id="Trazado_878046" data-name="Trazado 878046" d="M172.491,47.269a.335.335,0,1,1-.336-.336.336.336,0,0,1,.336.336" transform="translate(-85.603 -23.383)" fill="#ffc894"/>
        <path id="Trazado_878047" data-name="Trazado 878047" d="M452.3,253.058a.185.185,0,0,1-.118-.159,40.424,40.424,0,0,1,1.034-10.308,50.292,50.292,0,0,1,10.822-21.79.184.184,0,0,1,.28.239,49.923,49.923,0,0,0-10.74,21.615,40.065,40.065,0,0,0-1.03,10.218.184.184,0,0,1-.249.185" transform="translate(-225.272 -109.974)" fill="#523d3c"/>
        <path id="Trazado_878048" data-name="Trazado 878048" d="M471.615,221.506a.184.184,0,0,1-.117-.147,4.924,4.924,0,0,1,.836-3.466,5.184,5.184,0,0,1,1.792-1.432,1.491,1.491,0,0,1,1.589.021,1.159,1.159,0,0,1,.383.851.184.184,0,1,1-.367.022.793.793,0,0,0-.251-.589,1.177,1.177,0,0,0-1.2.032,4.824,4.824,0,0,0-1.659,1.331,4.459,4.459,0,0,0-.771,3.005,4.46,4.46,0,0,0,2.815-1.305,6.171,6.171,0,0,0,.371-.5.184.184,0,1,1,.306.205,6.39,6.39,0,0,1-.394.527,4.92,4.92,0,0,1-3.256,1.453.177.177,0,0,1-.073-.012" transform="translate(-234.889 -107.738)" fill="#7b8c76"/>
        <path id="Trazado_878049" data-name="Trazado 878049" d="M462.491,230.979a.2.2,0,0,1-.03-.014,3.692,3.692,0,0,1-1.628-2.121,3.894,3.894,0,0,1,.009-1.718c.142-.532.422-.866.786-.939a.9.9,0,0,1,.7.182.184.184,0,0,1-.213.3.538.538,0,0,0-.418-.121c-.217.044-.4.289-.5.672a3.52,3.52,0,0,0,0,1.551,1.22,1.22,0,1,0,1.833-.368,4.332,4.332,0,0,0-.112-.439.184.184,0,0,1,.352-.11,4.846,4.846,0,0,1,.121.477,3.688,3.688,0,0,1-.683,2.586.184.184,0,0,1-.213.063" transform="translate(-229.549 -112.683)" fill="#7b8c76"/>
        <path id="Trazado_878050" data-name="Trazado 878050" d="M463.614,233.6a.184.184,0,0,1-.117-.147,29.114,29.114,0,0,0-.784-3.784.184.184,0,0,1,.351-.112,28.9,28.9,0,0,1,.8,3.846.185.185,0,0,1-.248.2" transform="translate(-230.526 -114.304)" fill="#523d3c"/>
        <path id="Trazado_878051" data-name="Trazado 878051" d="M464.419,228.049a.181.181,0,0,1-.1-.1,3.007,3.007,0,0,0-.4-.606.184.184,0,0,1,.283-.236,3.314,3.314,0,0,1,.448.691.184.184,0,0,1-.233.247" transform="translate(-231.111 -113.117)" fill="#7b8c76"/>
        <path id="Trazado_878052" data-name="Trazado 878052" d="M450.036,258.719a3.2,3.2,0,0,1-1.584-1.191,3.89,3.89,0,0,1-.611-1.605,1.147,1.147,0,0,1,.4-1.16.9.9,0,0,1,.723-.084.184.184,0,0,1-.091.357.541.541,0,0,0-.434.038c-.187.119-.27.414-.227.809a3.517,3.517,0,0,0,.556,1.447,1.22,1.22,0,1,0,1.577-1,4.431,4.431,0,0,0-.263-.369.184.184,0,0,1,.289-.229,4.676,4.676,0,0,1,.285.4,3.691,3.691,0,0,1,.295,2.658.184.184,0,0,1-.209.133,4.066,4.066,0,0,1-.7-.2" transform="translate(-223.114 -126.867)" fill="#7b8c76"/>
        <path id="Trazado_878053" data-name="Trazado 878053" d="M452.324,261.295a.182.182,0,0,1-.1-.083,29.128,29.128,0,0,0-2.095-3.248.184.184,0,0,1,.287-.231,28.852,28.852,0,0,1,2.13,3.3.184.184,0,0,1-.072.25.182.182,0,0,1-.155.011" transform="translate(-224.243 -128.372)" fill="#523d3c"/>
        <path id="Trazado_878054" data-name="Trazado 878054" d="M451.077,255.828a.185.185,0,0,1-.064-.041,3.019,3.019,0,0,0-.587-.423.184.184,0,0,1,.179-.322,3.3,3.3,0,0,1,.667.483.184.184,0,0,1-.2.3" transform="translate(-224.362 -127.054)" fill="#7b8c76"/>
        <path id="Trazado_878055" data-name="Trazado 878055" d="M461.723,246.489a4,4,0,0,1-.591-.277.184.184,0,0,1-.071-.236,3.689,3.689,0,0,1,1.956-1.824,4.754,4.754,0,0,1,.477-.118.184.184,0,0,1,.07.362,4.4,4.4,0,0,0-.44.109,3.2,3.2,0,0,0-1.646,1.475,3.209,3.209,0,0,0,2.188.314,3.517,3.517,0,0,0,1.364-.736c.29-.272.419-.549.355-.762a.542.542,0,0,0-.3-.311.184.184,0,0,1,.164-.33.9.9,0,0,1,.493.534,1.146,1.146,0,0,1-.456,1.138,3.9,3.9,0,0,1-1.51.819,3.255,3.255,0,0,1-2.049-.156" transform="translate(-229.699 -121.579)" fill="#7b8c76"/>
        <path id="Trazado_878056" data-name="Trazado 878056" d="M459.274,247.641a.184.184,0,0,1,0-.345,28.735,28.735,0,0,1,3.766-1.115.184.184,0,1,1,.067.362,29.13,29.13,0,0,0-3.706,1.1.186.186,0,0,1-.13,0" transform="translate(-228.758 -122.649)" fill="#523d3c"/>
        <path id="Trazado_878057" data-name="Trazado 878057" d="M466.727,244.239a.184.184,0,0,1,.052-.356,3.32,3.32,0,0,1,.821.068.184.184,0,0,1-.074.361,3,3,0,0,0-.721-.062.183.183,0,0,1-.078-.012" transform="translate(-232.471 -121.505)" fill="#7b8c76"/>
        <path id="Trazado_878058" data-name="Trazado 878058" d="M475.451,231.673a.239.239,0,0,1-.2-.361c1.43-2.393,3.7-5.542,6.894-5.269a5.283,5.283,0,0,1,4.059,2.32.239.239,0,0,1-.395.268,4.759,4.759,0,0,0-3.705-2.113c-2.929-.252-5.079,2.755-6.443,5.038a.238.238,0,0,1-.2.116" transform="translate(-236.758 -112.61)" fill="#7b8c76"/>
        <path id="Trazado_878059" data-name="Trazado 878059" d="M458.024,248.068a.239.239,0,0,1-.152-.424,4.276,4.276,0,0,1,4.419-.847.239.239,0,0,1-.177.443,3.817,3.817,0,0,0-3.94.773.239.239,0,0,1-.151.054" transform="translate(-228.075 -122.812)" fill="#7b8c76"/>
        <path id="Trazado_878060" data-name="Trazado 878060" d="M464.746,282.559h0l-8.131-.087a.239.239,0,0,1,0-.478h0l8.105.087c.312-.069,4.178-1.042,5.473-6.548.839-3.567-.321-3.942-1.253-4.244-.578-.187-1.233-.4-1.112-1.327.128-.983,1.73-2.668,3.585-4.617,2.172-2.285,4.635-4.874,5.052-6.684a5.246,5.246,0,0,0-.153-2.849c-.37-1.369-.688-2.552,1.631-5.041a8.529,8.529,0,0,0,1.832-3.292.239.239,0,0,1,.456.142A9.007,9.007,0,0,1,478.3,251.1c-2.139,2.3-1.866,3.309-1.52,4.591a5.718,5.718,0,0,1,.157,3.081c-.447,1.937-2.958,4.577-5.172,6.905-1.723,1.811-3.349,3.522-3.458,4.35-.067.514.177.615.785.811,1.323.428,2.439,1.118,1.571,4.808-1.418,6.027-5.828,6.9-5.872,6.912a.244.244,0,0,1-.043,0" transform="translate(-227.373 -123.214)" fill="#7b8c76"/>
        <path id="Trazado_878061" data-name="Trazado 878061" d="M445.124,274.035c-9.215-10.294-8.965-15.192-3.819-14.943s2.49-8.3,3.736-12.536,4.711-6.994,7.886-4.4c1.5,1.225,4.234-10.792,10.045-10.294s5.977,8.8,2.573,12.452-.6,4.151-1.349,7.389-7.949,8.8-8.2,10.709,3.57-.332,2.242,5.313-5.4,6.392-5.4,6.392Z" transform="translate(-218.091 -115.51)" fill="#a5b1a3"/>
        <path id="Trazado_878062" data-name="Trazado 878062" d="M456.7,280.423a.238.238,0,0,1-.238-.23c-.388-10.38,3.663-19.879,7.128-26.019a64.862,64.862,0,0,1,7.691-10.948.239.239,0,1,1,.351.324A64.34,64.34,0,0,0,464,254.42c-3.433,6.085-7.445,15.492-7.061,25.756a.239.239,0,0,1-.23.247H456.7" transform="translate(-227.401 -121.14)" fill="#523d3c"/>
        <path id="Trazado_878063" data-name="Trazado 878063" d="M460.486,283.067a.239.239,0,0,1-.195-.376c.135-.192,3.36-4.721,7.435-6.759a.239.239,0,0,1,.214.427c-3.966,1.983-7.226,6.561-7.258,6.607a.24.24,0,0,1-.2.1" transform="translate(-229.302 -137.461)" fill="#523d3c"/>
        <path id="Trazado_878064" data-name="Trazado 878064" d="M474.963,253.9l-.036,0a.239.239,0,0,1-.2-.271,13.926,13.926,0,0,0,0-4.063.239.239,0,0,1,.466-.1,14.123,14.123,0,0,1,0,4.239.239.239,0,0,1-.236.2" transform="translate(-236.514 -124.19)" fill="#523d3c"/>
        <path id="Trazado_878065" data-name="Trazado 878065" d="M157.824,268.218a.132.132,0,0,1-.113-.2c.787-1.317,2.038-3.051,3.795-2.9a2.9,2.9,0,0,1,2.233,1.277.131.131,0,1,1-.217.148,2.618,2.618,0,0,0-2.039-1.163c-1.612-.139-2.8,1.517-3.547,2.773a.132.132,0,0,1-.113.064" transform="translate(-78.565 -132.082)" fill="#7b8c76"/>
        <path id="Trazado_878066" data-name="Trazado 878066" d="M148.23,277.242a.131.131,0,0,1-.083-.233,2.353,2.353,0,0,1,2.432-.466.131.131,0,1,1-.1.244,2.1,2.1,0,0,0-2.168.426.131.131,0,0,1-.083.03" transform="translate(-73.785 -137.698)" fill="#7b8c76"/>
        <path id="Trazado_878067" data-name="Trazado 878067" d="M151.931,296.227h0l-4.475-.048a.131.131,0,0,1,0-.263h0l4.461.048c.172-.038,2.3-.574,3.013-3.6.462-1.964-.177-2.17-.69-2.336-.318-.1-.678-.22-.612-.731.07-.541.952-1.468,1.973-2.542,1.2-1.257,2.552-2.683,2.781-3.679a2.887,2.887,0,0,0-.084-1.568c-.2-.754-.379-1.4.9-2.775a4.7,4.7,0,0,0,1.009-1.811.131.131,0,0,1,.251.077,4.954,4.954,0,0,1-1.067,1.913c-1.177,1.264-1.027,1.821-.836,2.527a3.147,3.147,0,0,1,.086,1.7c-.246,1.066-1.628,2.519-2.847,3.8a8.263,8.263,0,0,0-1.9,2.395c-.037.284.1.339.432.447.729.235,1.343.615.865,2.646-.781,3.318-3.208,3.8-3.232,3.805l-.024,0" transform="translate(-73.399 -137.918)" fill="#7b8c76"/>
        <path id="Trazado_878068" data-name="Trazado 878068" d="M141.13,291.535c-5.072-5.666-4.935-8.362-2.1-8.225s1.371-4.57,2.056-6.9,2.593-3.85,4.341-2.422c.825.674,2.33-5.941,5.529-5.667s3.29,4.844,1.417,6.854-.331,2.285-.743,4.067-4.375,4.844-4.512,5.895,1.965-.183,1.233,2.924-2.97,3.519-2.97,3.519Z" transform="translate(-68.289 -133.678)" fill="#a5b1a3"/>
        <path id="Trazado_878069" data-name="Trazado 878069" d="M147.5,295.052a.132.132,0,0,1-.131-.126c-.213-5.714,2.016-10.942,3.924-14.322a35.682,35.682,0,0,1,4.234-6.026.131.131,0,0,1,.193.178,35.389,35.389,0,0,0-4.2,5.983c-1.89,3.349-4.1,8.527-3.887,14.177a.132.132,0,0,1-.126.136H147.5" transform="translate(-73.414 -136.777)" fill="#523d3c"/>
        <path id="Trazado_878070" data-name="Trazado 878070" d="M149.586,296.507a.131.131,0,0,1-.107-.207,13.21,13.21,0,0,1,4.093-3.72.131.131,0,1,1,.117.235,13.2,13.2,0,0,0-4,3.637.132.132,0,0,1-.107.056" transform="translate(-74.46 -145.761)" fill="#523d3c"/>
        <path id="Trazado_878071" data-name="Trazado 878071" d="M157.554,280.451h-.02a.131.131,0,0,1-.11-.15,7.667,7.667,0,0,0,0-2.236.131.131,0,0,1,.256-.058,7.747,7.747,0,0,1,0,2.333.131.131,0,0,1-.129.112" transform="translate(-78.43 -138.456)" fill="#523d3c"/>
        <path id="Trazado_878072" data-name="Trazado 878072" d="M367.354,289.157c-2.864-.031-2.148,3.082-1.027,3.954s1.432.9.467,1.868-1.058,2.241,1.4,3.362a48.017,48.017,0,0,1,5.728,3.362l1.9.031c-.218-2.646.9-6.039-1.183-5.977-.818.025-2.023-1-2.739-3.549s-3.829-5.323-4.545-3.051" transform="translate(-182.02 -143.643)" fill="#a5b1a3"/>
        <path id="Trazado_878073" data-name="Trazado 878073" d="M378.155,305.291a.24.24,0,0,1-.211-.127c-3.584-6.761-7.047-9.7-7.081-9.725a.239.239,0,0,1,.306-.366c.035.029,3.565,3.015,7.2,9.867a.239.239,0,0,1-.211.351" transform="translate(-184.727 -146.982)" fill="#523d3c"/>
        <path id="Trazado_878074" data-name="Trazado 878074" d="M376.125,298.348a.239.239,0,0,1-.238-.234,12.759,12.759,0,0,0-.364-2.709.239.239,0,1,1,.458-.133,12.993,12.993,0,0,1,.383,2.833.239.239,0,0,1-.234.243h-.005" transform="translate(-187.086 -147.023)" fill="#523d3c"/>
        <path id="Trazado_878075" data-name="Trazado 878075" d="M379.267,308.611a.237.237,0,0,1-.064-.009,9.534,9.534,0,0,1-2.985-1.417.239.239,0,0,1,.308-.365,9.25,9.25,0,0,0,2.805,1.322.239.239,0,0,1-.064.469" transform="translate(-187.395 -152.834)" fill="#523d3c"/>
        <path id="Trazado_878076" data-name="Trazado 878076" d="M363.66,293.019a.237.237,0,0,1-.164-.065,3.016,3.016,0,0,1-.929-2.9,2.74,2.74,0,0,1,1.9-2.017.239.239,0,1,1,.137.457,2.268,2.268,0,0,0-1.568,1.67,2.544,2.544,0,0,0,.791,2.442.239.239,0,0,1-.164.413" transform="translate(-180.598 -143.5)" fill="#7b8c76"/>
        <path id="Trazado_878077" data-name="Trazado 878077" d="M37.788,252.288a.192.192,0,0,0,.086-.059.2.2,0,0,0-.024-.276c-1.754-1.475-4.365-3.312-6.772-2.242a4.342,4.342,0,0,0-2.531,2.893.2.2,0,1,0,.379.1,3.911,3.911,0,0,1,2.311-2.636c2.208-.983,4.686.777,6.36,2.184a.2.2,0,0,0,.191.035" transform="translate(-14.219 -124.25)" fill="#7b8c76"/>
        <path id="Trazado_878078" data-name="Trazado 878078" d="M60.125,259.427a.2.2,0,0,0,0-.37,3.516,3.516,0,0,0-3.661.529.2.2,0,0,0,.257.3,3.137,3.137,0,0,1,3.268-.458.192.192,0,0,0,.132,0" transform="translate(-28.099 -128.927)" fill="#7b8c76"/>
        <path id="Trazado_878079" data-name="Trazado 878079" d="M92.911,293.2a.2.2,0,0,0,.124-.129c1.166-3.916,1.241-6.666.218-7.95a.2.2,0,1,0-.307.244c.926,1.163.824,3.86-.287,7.594a.2.2,0,0,0,.252.241" transform="translate(-46.16 -142.015)" fill="#7b8c76"/>
        <path id="Trazado_878080" data-name="Trazado 878080" d="M49.27,293.7h0l6.294-2.252a.2.2,0,0,0-.13-.37h0l-6.274,2.244c-.261.03-3.526.313-6.011-3.617-1.61-2.546-.809-3.149-.166-3.634.4-.3.851-.641.507-1.33-.363-.729-2.06-1.608-4.025-2.625-2.3-1.191-4.91-2.542-5.721-3.836a4.314,4.314,0,0,1-.646-2.255c-.081-1.163-.151-2.167-2.622-3.478a7.005,7.005,0,0,1-2.307-2.065.2.2,0,0,0-.317.232,7.409,7.409,0,0,0,2.44,2.18c2.279,1.209,2.338,2.069,2.414,3.159a4.7,4.7,0,0,0,.706,2.436c.868,1.385,3.527,2.762,5.873,3.976,1.825.944,3.549,1.837,3.855,2.451.19.382.028.525-.392.841-.913.688-1.595,1.524.071,4.157,2.721,4.3,6.382,3.8,6.419,3.793a.2.2,0,0,0,.035-.009" transform="translate(-13.857 -134.717)" fill="#7b8c76"/>
        <path id="Trazado_878081" data-name="Trazado 878081" d="M59.279,284.153c4.395-10.473,2.291-16.4-1.641-14.822s-4.165-5.781-6.269-8.737-5.539-4.168-7.31-1.3c-.836,1.355-6.188-7.248-10.57-5.3s-2.28,8.443,1.345,10.366,1.583,3.063,3.033,5.378,8.539,4.7,9.246,6.119-2.863.7-.315,4.73,5.91,3.517,5.91,3.517Z" transform="translate(-15.458 -126.4)" fill="#a5b1a3"/>
        <path id="Trazado_878082" data-name="Trazado 878082" d="M61.594,287.581a.2.2,0,0,0,.123-.242c-2.486-8.169-8.185-14.461-12.527-18.3a53.313,53.313,0,0,0-8.916-6.441.2.2,0,0,0-.186.346,52.924,52.924,0,0,1,8.849,6.4c4.3,3.806,9.945,10.037,12.4,18.115a.2.2,0,0,0,.245.131l.007,0" transform="translate(-19.921 -130.817)" fill="#523d3c"/>
        <path id="Trazado_878083" data-name="Trazado 878083" d="M65.1,288.669a.193.193,0,0,0,.095-.071.2.2,0,0,0-.045-.274,19.712,19.712,0,0,0-7.592-3.254.2.2,0,1,0-.051.389c3.613.476,7.377,3.157,7.414,3.184a.2.2,0,0,0,.179.026" transform="translate(-28.563 -142.025)" fill="#523d3c"/>
        <path id="Trazado_878084" data-name="Trazado 878084" d="M51.681,267.936l.027-.012a.2.2,0,0,0,.083-.265A11.439,11.439,0,0,1,50.7,264.5a.2.2,0,1,0-.39.044,11.615,11.615,0,0,0,1.136,3.294.2.2,0,0,0,.238.095" transform="translate(-25.063 -131.692)" fill="#523d3c"/>
        <path id="Trazado_878085" data-name="Trazado 878085" d="M72.412,254.025a.2.2,0,0,0,.127-.169,43.148,43.148,0,0,0-1.026-11.013A53.7,53.7,0,0,0,60.123,219.5a.2.2,0,0,0-.3.253,53.3,53.3,0,0,1,11.3,23.157,42.77,42.77,0,0,1,1.023,10.916.2.2,0,0,0,.181.211.194.194,0,0,0,.084-.012" transform="translate(-29.781 -109.323)" fill="#523d3c"/>
        <path id="Trazado_878086" data-name="Trazado 878086" d="M60.049,220.259a.2.2,0,0,0,.126-.156,5.258,5.258,0,0,0-.866-3.706,5.548,5.548,0,0,0-1.9-1.542,1.59,1.59,0,0,0-1.7.011,1.233,1.233,0,0,0-.415.9.2.2,0,1,0,.392.027.848.848,0,0,1,.272-.627,1.259,1.259,0,0,1,1.285.044A5.15,5.15,0,0,1,59,216.646a4.758,4.758,0,0,1,.8,3.214,4.759,4.759,0,0,1-3-1.415,6.42,6.42,0,0,1-.392-.532.2.2,0,1,0-.329.216,6.823,6.823,0,0,0,.417.566,5.256,5.256,0,0,0,3.465,1.576.193.193,0,0,0,.078-.012" transform="translate(-27.548 -106.927)" fill="#7b8c76"/>
        <path id="Trazado_878087" data-name="Trazado 878087" d="M71.77,230.459l.031-.015a3.941,3.941,0,0,0,1.755-2.253,4.15,4.15,0,0,0,0-1.834,1.225,1.225,0,0,0-.833-1.009.965.965,0,0,0-.753.189.2.2,0,0,0,.226.322.576.576,0,0,1,.448-.126c.232.048.426.311.532.722a3.754,3.754,0,0,1-.008,1.655A3.415,3.415,0,0,1,71.759,230a3.426,3.426,0,0,1-.541-2.3,4.6,4.6,0,0,1,.123-.468.2.2,0,1,0-.374-.12,4.955,4.955,0,0,0-.133.508,3.938,3.938,0,0,0,.71,2.765.2.2,0,0,0,.227.069" transform="translate(-35.263 -112.264)" fill="#7b8c76"/>
        <path id="Trazado_878088" data-name="Trazado 878088" d="M72.167,233.252a.2.2,0,0,0,.126-.156,31.072,31.072,0,0,1,.866-4.035.2.2,0,1,0-.374-.121,30.709,30.709,0,0,0-.88,4.1.2.2,0,0,0,.263.213" transform="translate(-35.823 -113.993)" fill="#523d3c"/>
        <path id="Trazado_878089" data-name="Trazado 878089" d="M71.763,227.323a.2.2,0,0,0,.11-.1,3.174,3.174,0,0,1,.426-.644.2.2,0,0,0-.3-.254,3.548,3.548,0,0,0-.484.735.2.2,0,0,0,.247.266" transform="translate(-35.621 -112.722)" fill="#7b8c76"/>
        <path id="Trazado_878090" data-name="Trazado 878090" d="M84.273,260.169a3.423,3.423,0,0,0,1.7-1.259,4.154,4.154,0,0,0,.664-1.71,1.226,1.226,0,0,0-.413-1.241.966.966,0,0,0-.771-.095.2.2,0,0,0,.094.382.574.574,0,0,1,.463.044c.2.128.285.444.236.865a3.754,3.754,0,0,1-.6,1.541,3.424,3.424,0,0,1-2,1.254,3.428,3.428,0,0,1,.323-2.338,4.543,4.543,0,0,1,.284-.392.2.2,0,0,0-.307-.247,5.027,5.027,0,0,0-.307.426,3.942,3.942,0,0,0-.334,2.836.2.2,0,0,0,.222.144,4.393,4.393,0,0,0,.749-.21" transform="translate(-41.44 -127.457)" fill="#7b8c76"/>
        <path id="Trazado_878091" data-name="Trazado 878091" d="M82.615,262.906a.194.194,0,0,0,.1-.088,31.055,31.055,0,0,1,2.261-3.452.2.2,0,0,0-.305-.248,30.773,30.773,0,0,0-2.3,3.507.2.2,0,0,0,.24.28" transform="translate(-41.028 -129.061)" fill="#523d3c"/>
        <path id="Trazado_878092" data-name="Trazado 878092" d="M85.583,257.079a.2.2,0,0,0,.069-.044,3.2,3.2,0,0,1,.629-.447.2.2,0,0,0-.188-.345,3.567,3.567,0,0,0-.716.511.2.2,0,0,0,.206.325" transform="translate(-42.506 -127.652)" fill="#7b8c76"/>
        <path id="Trazado_878093" data-name="Trazado 878093" d="M70.33,247.013a4.246,4.246,0,0,0,.632-.291.2.2,0,0,0,.078-.252,3.939,3.939,0,0,0-2.074-1.962,5.019,5.019,0,0,0-.509-.13.2.2,0,1,0-.077.386,4.622,4.622,0,0,1,.469.119A3.416,3.416,0,0,1,70.6,246.47a3.427,3.427,0,0,1-2.338.319,3.752,3.752,0,0,1-1.452-.8c-.307-.292-.444-.59-.373-.816a.578.578,0,0,1,.328-.33.2.2,0,1,0-.172-.354.963.963,0,0,0-.531.567,1.224,1.224,0,0,0,.478,1.217,4.153,4.153,0,0,0,1.606.886,3.472,3.472,0,0,0,2.189-.151" transform="translate(-32.893 -121.751)" fill="#7b8c76"/>
        <path id="Trazado_878094" data-name="Trazado 878094" d="M73.6,248.248a.2.2,0,0,0,0-.368,30.809,30.809,0,0,0-4.012-1.218.2.2,0,1,0-.075.386,31.008,31.008,0,0,1,3.948,1.2.2.2,0,0,0,.138,0" transform="translate(-34.554 -122.889)" fill="#523d3c"/>
        <path id="Trazado_878095" data-name="Trazado 878095" d="M68.813,244.589a.2.2,0,0,0-.053-.38,3.544,3.544,0,0,0-.877.067.2.2,0,0,0,.076.386,3.173,3.173,0,0,1,.77-.06.2.2,0,0,0,.083-.012" transform="translate(-33.741 -121.666)" fill="#7b8c76"/>
        <path id="Trazado_878096" data-name="Trazado 878096" d="M270.413,316.786H54.6a1.178,1.178,0,0,1-1.178-1.178v-.4A1.178,1.178,0,0,1,54.6,314.03H270.413a1.178,1.178,0,0,1,1.178,1.178v.4a1.178,1.178,0,0,1-1.178,1.178" transform="translate(-26.617 -156.454)" fill="#523d3c"/>
        <path id="Trazado_878097" data-name="Trazado 878097" d="M173.108,198.08l-7.9-3.389a1.118,1.118,0,0,1-.66-.811,1.1,1.1,0,0,1,.361-1.066c2.9-2.5,5.671-7.322,3.29-14.805-2.536-7.969,6.1-19.151,11.062-21.17a3,3,0,0,1,1.185-.219,3.2,3.2,0,0,1,1.422.365l8.474,4.4Z" transform="translate(-81.969 -78.03)" fill="#a5b1a3"/>
        <path id="Trazado_878098" data-name="Trazado 878098" d="M179.309,202.687h0a4.2,4.2,0,0,1-1.9-5.622l14.28-28.861a4.2,4.2,0,1,1,7.523,3.722l-14.28,28.861a4.2,4.2,0,0,1-5.622,1.9" transform="translate(-88.17 -82.637)" fill="#7b8c76"/>
        <path id="Trazado_878099" data-name="Trazado 878099" d="M204.751,176.813l-12.641-6.281-14.289,29,12.52,6.409Z" transform="translate(-88.593 -84.961)" fill="#fff"/>
        <path id="Trazado_878100" data-name="Trazado 878100" d="M200.451,211.741h0a4.2,4.2,0,0,1-1.9-5.622l10.689-21.6a4.2,4.2,0,0,1,7.523,3.722l-10.688,21.6a4.2,4.2,0,0,1-5.623,1.9" transform="translate(-98.704 -90.765)" fill="#c9c6de"/>
        <path id="Trazado_878101" data-name="Trazado 878101" d="M233.977,196.549l9.952-3.118-.72,6.355Z" transform="translate(-116.571 -96.37)" fill="#ff8762"/>
        <path id="Trazado_878102" data-name="Trazado 878102" d="M253.3,209.485l.251.476a2.9,2.9,0,0,1-3.477,4.1l-.291-.1.045.2a2.581,2.581,0,0,1-.2,1.686l-.3.62a2.587,2.587,0,0,1-3.147,1.329,2.712,2.712,0,0,1-1.008,2.341l-.788.63a2.711,2.711,0,0,1-2.418.495l-.822-.228a2.753,2.753,0,0,1-.953,2.082l-1.081.935a2.735,2.735,0,0,1-.664.425,2.677,2.677,0,0,1-.317.12c-2.727.839-14.665,3.295-29.48-11.836l-9.863-4.377,10.941-22.123,13.19,8.034,18.345,2.278,10.912,7.075Z" transform="translate(-99.04 -92.799)" fill="#ff8762"/>
        <path id="Trazado_878103" data-name="Trazado 878103" d="M265.566,182.36l-7.195,5.356-9.994-1.214a9.434,9.434,0,0,0-7.421,2.332,40.869,40.869,0,0,1-7.4,5.3,3.788,3.788,0,0,0-1.224,5.556q.044.06.09.119a3.793,3.793,0,0,0,4.541,1.1l11.259-5.118c8.873,1.519,19.984,9.273,21.423,11.751l10.232-6.315Z" transform="translate(-115.385 -90.854)" fill="#ba593c"/>
        <path id="Trazado_878104" data-name="Trazado 878104" d="M231.6,207.947a1.853,1.853,0,0,0,.583-.268l2.741-1.906a1.857,1.857,0,0,0,.623-2.307c-.712.454-1.379.848-1.991,1.186a3.783,3.783,0,0,0-1.956,3.3" transform="translate(-115.386 -101.37)" fill="#cf6f52"/>
        <path id="Trazado_878105" data-name="Trazado 878105" d="M234.492,242.126l.6,6.964a3.065,3.065,0,0,0,2.788,2.793l.09.008a3.067,3.067,0,0,0,3.312-3.4A40.364,40.364,0,0,0,239.6,241.1a2.624,2.624,0,0,0-5.113,1.026" transform="translate(-116.823 -119.212)" fill="#ba593c"/>
        <path id="Trazado_878106" data-name="Trazado 878106" d="M259.183,263.451h0A4.979,4.979,0,0,1,257.5,259.3v-.017a1.979,1.979,0,0,1,1.174-1.649l.013-.006a1.989,1.989,0,0,1,2.515.825,12.29,12.29,0,0,0,1.264,1.745,2.317,2.317,0,0,1-3.283,3.254" transform="translate(-128.281 -128.27)" fill="#ba593c"/>
        <path id="Trazado_878107" data-name="Trazado 878107" d="M249.413,248.792h0a2.516,2.516,0,0,1,2,2.314,11.152,11.152,0,0,0,1.314,4.668,1.858,1.858,0,0,1-.873,2.573l-.207.094a3.743,3.743,0,0,1-4.539-1.13,1.076,1.076,0,0,1-.262-.533,19.146,19.146,0,0,1-.47-5.7,2.527,2.527,0,0,1,3.039-2.285" transform="translate(-122.724 -123.925)" fill="#ba593c"/>
        <path id="Trazado_878108" data-name="Trazado 878108" d="M227.24,240.7h0a2.441,2.441,0,0,1,2.039,2.472l-.037,1.4a3.274,3.274,0,0,0,1.333,2.724l.963.708.344,2.754-4.186-.542a3.758,3.758,0,0,1-3.275-3.7l-.024-3.391a2.441,2.441,0,0,1,2.842-2.426" transform="translate(-111.798 -119.903)" fill="#ba593c"/>
        <path id="Trazado_878109" data-name="Trazado 878109" d="M260.219,261.128h0a1.033,1.033,0,0,1-1.358-.536l-.377-.87a1.032,1.032,0,0,1,1.894-.821l.377.87a1.032,1.032,0,0,1-.536,1.358" transform="translate(-128.738 -128.678)" fill="#cf6f52"/>
        <path id="Trazado_878110" data-name="Trazado 878110" d="M249.333,252.454h0a1.35,1.35,0,0,1-1.454-1.24l-.059-.745a1.351,1.351,0,1,1,2.693-.214l.059.745a1.351,1.351,0,0,1-1.239,1.454" transform="translate(-123.465 -124.061)" fill="#cf6f52"/>
        <path id="Trazado_878111" data-name="Trazado 878111" d="M237.158,243.783h0a1.546,1.546,0,0,1-1.665-1.42l-.067-.854a1.548,1.548,0,1,1,3.085-.245l.068.854a1.548,1.548,0,0,1-1.421,1.665" transform="translate(-117.29 -119.491)" fill="#cf6f52"/>
        <path id="Trazado_878112" data-name="Trazado 878112" d="M226.356,245.4h0a1.548,1.548,0,0,1-1.479-1.614l.037-.856a1.548,1.548,0,0,1,3.092.135l-.037.856a1.548,1.548,0,0,1-1.614,1.479" transform="translate(-112.037 -120.294)" fill="#cf6f52"/>
        <path id="Trazado_878113" data-name="Trazado 878113" d="M286.592,218.036l-.014-.034c-.044-.108-.1-.26-.139-.394s-.082-.281-.116-.424-.065-.289-.1-.432-.055-.291-.078-.437a15.138,15.138,0,0,1-.171-1.769c-.031-.591-.02-1.187,0-1.777l.05-.887L286.1,211a1.276,1.276,0,0,0-.083-.574,1.259,1.259,0,0,0-1.633-.71l-.146.057a5.054,5.054,0,0,1-1.592.414l-.224.028c-.075.009-.155.011-.232.016l-.468.028-.48,0-.241,0-.245-.009a38.906,38.906,0,0,1-4-.371c-1.347-.182-2.7-.4-4.05-.633s-2.7-.477-4.055-.723h0a.307.307,0,0,0-.149.595c1.31.42,2.62.841,3.938,1.246s2.64.8,3.982,1.167a40.649,40.649,0,0,0,4.125.931l.267.044.272.034.546.067.561.041c.094.006.187.015.283.017l.29,0c.3,0,.6,0,.909-.028l.09.375c.167.626.34,1.245.557,1.855a16.439,16.439,0,0,0,.73,1.793c.07.146.146.29.218.433s.154.285.237.424.169.278.259.414.18.262.3.411a.307.307,0,0,0,.52-.311" transform="translate(-133.666 -103.888)" fill="#ab472a"/>
        <path id="Trazado_878114" data-name="Trazado 878114" d="M235.439,256.289a.153.153,0,0,1-.147-.111,13.767,13.767,0,0,1-.426-3.035.153.153,0,1,1,.306-.011,13.774,13.774,0,0,0,.414,2.961.154.154,0,0,1-.148.2" transform="translate(-117.014 -126.041)" fill="#ab472a"/>
        <path id="Trazado_878115" data-name="Trazado 878115" d="M246.736,259.032a.153.153,0,0,1-.153-.14c0-.022-.046-.535-.053-1.451a.153.153,0,0,1,.152-.155.156.156,0,0,1,.155.152c.007.9.051,1.422.052,1.427a.154.154,0,0,1-.139.166h-.014" transform="translate(-122.825 -128.184)" fill="#ab472a"/>
        <path id="Trazado_878116" data-name="Trazado 878116" d="M246.722,254.011h-.005a.153.153,0,0,1-.148-.158q.012-.371.034-.782a.153.153,0,0,1,.306.017q-.022.407-.034.775a.153.153,0,0,1-.153.148" transform="translate(-122.844 -126.012)" fill="#ab472a"/>
        <path id="Trazado_878117" data-name="Trazado 878117" d="M257.812,263.455a.153.153,0,0,1-.142-.094,8.4,8.4,0,0,1-.461-2.141.153.153,0,0,1,.305-.033,8.285,8.285,0,0,0,.439,2.056.154.154,0,0,1-.083.2.161.161,0,0,1-.059.012" transform="translate(-128.145 -130.059)" fill="#ab472a"/>
        <path id="Trazado_878118" data-name="Trazado 878118" d="M291.05,234.507a.153.153,0,0,1-.078-.022c-.683-.407-1.084-.6-1.088-.6a.153.153,0,0,1,.13-.277c.017.008.417.2,1.115.613a.153.153,0,0,1-.079.285" transform="translate(-144.381 -116.381)" fill="#ff7557"/>
        <path id="Trazado_878119" data-name="Trazado 878119" d="M296.815,238.37a.153.153,0,0,1-.1-.035,33.362,33.362,0,0,0-3.122-2.3.153.153,0,0,1,.166-.257,33.666,33.666,0,0,1,3.15,2.318.153.153,0,0,1-.1.271" transform="translate(-146.239 -117.457)" fill="#ff7557"/>
        <path id="Trazado_878120" data-name="Trazado 878120" d="M287.1,245.659a.15.15,0,0,1-.074-.019c-1.01-.557-1.893-1.086-1.9-1.092a.153.153,0,1,1,.158-.262c.009.005.887.531,1.892,1.086a.153.153,0,0,1-.074.288" transform="translate(-142.015 -121.696)" fill="#ff7557"/>
        <path id="Trazado_878121" data-name="Trazado 878121" d="M291.274,247.961a.151.151,0,0,1-.068-.016c-.126-.063-.254-.128-.384-.2a.153.153,0,0,1,.141-.272c.128.067.255.132.38.194a.153.153,0,0,1-.069.29" transform="translate(-144.85 -123.288)" fill="#ff7557"/>
        <path id="Trazado_878122" data-name="Trazado 878122" d="M278.639,253.414a.148.148,0,0,1-.039-.005l-2.758-.72a.153.153,0,1,1,.077-.3l2.758.72a.153.153,0,0,1-.039.3" transform="translate(-137.372 -125.744)" fill="#ff7557"/>
        <path id="Trazado_878123" data-name="Trazado 878123" d="M280.886,229.746a2.634,2.634,0,0,1-1.423-.41.153.153,0,0,1,.167-.257,2.318,2.318,0,0,0,2.305.1,1.266,1.266,0,0,0,.736-1.1.153.153,0,0,1,.307,0,1.565,1.565,0,0,1-.9,1.365,2.511,2.511,0,0,1-1.2.294" transform="translate(-139.198 -113.561)" fill="#ff7557"/>
        <path id="Trazado_878124" data-name="Trazado 878124" d="M274.514,240.419a2.634,2.634,0,0,1-1.423-.41.153.153,0,0,1,.167-.257,2.318,2.318,0,0,0,2.305.1,1.266,1.266,0,0,0,.736-1.1.153.153,0,0,1,.307,0,1.565,1.565,0,0,1-.9,1.365,2.511,2.511,0,0,1-1.2.294" transform="translate(-136.023 -118.878)" fill="#ff7557"/>
        <path id="Trazado_878125" data-name="Trazado 878125" d="M266.867,251.093a2.634,2.634,0,0,1-1.423-.41.153.153,0,0,1,.167-.257,2.317,2.317,0,0,0,2.305.1,1.266,1.266,0,0,0,.736-1.1.153.153,0,0,1,.307,0,1.565,1.565,0,0,1-.9,1.365,2.512,2.512,0,0,1-1.2.294" transform="translate(-132.213 -124.196)" fill="#ff7557"/>
        <path id="Trazado_878126" data-name="Trazado 878126" d="M319.768,195.367l-7.24,4.7a29.986,29.986,0,0,1-16.5-25.232l-.009-.174,7.24-4.7Z" transform="translate(-147.484 -84.677)" fill="#fff"/>
        <path id="Trazado_878127" data-name="Trazado 878127" d="M337.119,182.728l-11.183,7.116A35.549,35.549,0,0,1,306.38,159.93l-.011-.206,11.106-7.322a2.755,2.755,0,0,1,3.42.307c3.452,3.306,5.607,11.1,5.505,16.816-.094,5.277,6.329,9.517,10.48,11.033a1.215,1.215,0,0,1,.788,1.335,1.2,1.2,0,0,1-.549.834" transform="translate(-152.638 -75.702)" fill="#d1cee3"/>
        <path id="Trazado_878128" data-name="Trazado 878128" d="M334.314,180.563l.837-.546c-.406-.2-.818-.421-1.233-.659l-.695.453c-.957-.683-1.887-1.408-2.78-2.166l.505-.33q-.492-.4-.952-.842l-.511.334c-.939-.848-1.828-1.729-2.653-2.631l.87-.568a8.788,8.788,0,0,1-.532-1.116l-1.158.755c-.672-.79-1.293-1.591-1.852-2.4l2.518-1.643a28.1,28.1,0,0,0-.287-3.61q-.483-.839-.919-1.7l.557-.364q-.133-.638-.292-1.273l-.8.523a35.068,35.068,0,0,1-1.439-3.652l1.024-.668q-.235-.586-.491-1.143l-.911.594q-.482-1.655-.8-3.354l.1-.064a10.445,10.445,0,0,0-1.246-1.458,2.757,2.757,0,0,0-.374-.3c.053.412.11.823.177,1.233l-2.622,1.711q-.178-1.359-.252-2.733a.608.608,0,0,0-.133-.348c-.073.039-.146.081-.216.127l-.858.565q.095,1.574.325,3.129l-2.733,1.783q-.22-1.538-.3-3.1c0-.009,0-.016,0-.025l-1.175.775q.111,1.551.353,3.084l-3.28,2.14q-.21-1.5-.291-3.017a.64.64,0,0,0-.012-.078l-1.171.772q.108,1.539.344,3.06l-2.022,1.319q.09.668.2,1.33l2.048-1.336q.328,1.691.816,3.342l-2.107,1.375c.113.412.235.82.363,1.227l2.126-1.388a36.256,36.256,0,0,0,1.442,3.651l-2.179,1.422q.251.566.52,1.123l2.194-1.432a36.121,36.121,0,0,0,1.929,3.378l-2.237,1.46q.184.294.374.585c.1.148.2.293.3.44l2.25-1.468c.566.8,1.191,1.6,1.865,2.387l-2.318,1.513q.388.479.793.945l2.347-1.531c.828.9,1.717,1.782,2.654,2.631l-2.419,1.578q.463.432.942.849l2.433-1.587c.89.759,1.816,1.487,2.768,2.174L321.6,187.4q.54.383,1.1.748l2.42-1.579a39.789,39.789,0,0,0,3.468,2.1l1.193-.759a37.68,37.68,0,0,1-3.545-2.066l3.348-2.185a39.745,39.745,0,0,0,3.538,2.126l1.2-.761a37.681,37.681,0,0,1-3.617-2.093l2.5-1.633a40.054,40.054,0,0,0,3.551,2.176l.645-.41a1.206,1.206,0,0,0,.4-.419,38.232,38.232,0,0,1-3.486-2.072m-5.887-3.065-2.6,1.7c-.947-.84-1.846-1.716-2.681-2.613l2.65-1.729c.819.905,1.7,1.79,2.632,2.644m-3.448-3.576-2.665,1.739c-.68-.782-1.309-1.578-1.879-2.378l2.7-1.761c.558.806,1.176,1.609,1.845,2.4m-5.232-1.654a34.891,34.891,0,0,1-1.929-3.378l2.735-1.785a35.941,35.941,0,0,0,1.9,3.394Zm6.641-4.333-2.9,1.895a34.835,34.835,0,0,1-1.9-3.4l2.853-1.862a36.044,36.044,0,0,0,1.947,3.366m-3.951-8.114a36.219,36.219,0,0,0,1.463,3.637l-2.835,1.85a35.027,35.027,0,0,1-1.393-3.683Zm-1.224-4.54q.339,1.685.836,3.33l-2.74,1.788q-.46-1.67-.754-3.383Zm-2.606,7.04a36.139,36.139,0,0,0,1.419,3.666l-2.74,1.788a35.058,35.058,0,0,1-1.426-3.661Zm-1.167-4.577q.317,1.7.794,3.357l-2.747,1.792q-.475-1.66-.785-3.363Zm-7.149,4.665,3.3-2.154q.333,1.689.823,3.338l-3.345,2.183q-.471-1.663-.778-3.367M311.441,167,314.8,164.8a36.044,36.044,0,0,0,1.449,3.646l-3.39,2.212A34.977,34.977,0,0,1,311.441,167m1.948,4.784,3.4-2.216a36.065,36.065,0,0,0,1.935,3.373l-3.411,2.225a34.963,34.963,0,0,1-1.922-3.383m2.607,4.4,3.413-2.227c.569.8,1.195,1.6,1.871,2.383l-3.411,2.226c-.678-.784-1.3-1.581-1.872-2.382m2.7,3.306,3.408-2.224c.83.9,1.722,1.78,2.66,2.626l-3.394,2.214c-.945-.842-1.842-1.718-2.675-2.616m6.441,5.6c-.963-.677-1.9-1.4-2.8-2.153l3.387-2.21c.892.758,1.821,1.484,2.774,2.17Zm4.461-2.911c-.964-.676-1.9-1.4-2.805-2.15l2.583-1.685c.883.762,1.8,1.494,2.75,2.186Z" transform="translate(-152.916 -76.029)" fill="#c9c6de"/>
        <path id="Trazado_878129" data-name="Trazado 878129" d="M209.732,186.263,198.79,208.386l6.562,2.912a58.828,58.828,0,0,1,5.853-24.137Z" transform="translate(-99.04 -92.799)" fill="#ff7557"/>
        <path id="Trazado_878130" data-name="Trazado 878130" d="M254.564,75.124a16.391,16.391,0,1,1-16.391-16.391,16.391,16.391,0,0,1,16.391,16.391" transform="translate(-110.496 -29.262)" fill="#ffc894"/>
        <path id="Trazado_878131" data-name="Trazado 878131" d="M238.8,107.872a.482.482,0,0,1-.422-.249l-1.888-3.423a18.062,18.062,0,1,1,4.614.01l-1.883,3.413a.48.48,0,0,1-.421.249m.031-38.684a17.1,17.1,0,0,0-1.984,34.086.481.481,0,0,1,.366.246l1.586,2.874,1.581-2.865a.48.48,0,0,1,.368-.246,17.1,17.1,0,0,0-1.918-34.095" transform="translate(-109.986 -33.991)" fill="#947675"/>
        <path id="Trazado_878132" data-name="Trazado 878132" d="M248.993,88.493h0a1.113,1.113,0,0,1-.787-.326l-7.318-7.318a1.113,1.113,0,0,1,1.574-1.574l6.531,6.53,16.23-16.229A1.113,1.113,0,0,1,266.8,71.15L249.78,88.167a1.113,1.113,0,0,1-.787.326" transform="translate(-119.852 -34.501)" fill="#e05745"/>
        <path id="Trazado_878133" data-name="Trazado 878133" d="M439.23,288.678a16.765,16.765,0,0,1,.432,7.88l.971,1.943h4.857a3.257,3.257,0,0,0,1.4-.432,43.262,43.262,0,0,0,1.835-4.39l-.864-5.541Z" transform="translate(-218.831 -143.555)" fill="#ff8762"/>
        <path id="Trazado_878134" data-name="Trazado 878134" d="M420.805,306.7h19.287c.9-2.662-.683-7.52-.683-7.52-1.188,1.511-4.822,3.778-7.2,3.778a2.681,2.681,0,0,0-2.3-3.238c-1.691,2.051-4.713,2.95-6.909,3.346s-2.951,1.871-2.195,3.634" transform="translate(-209.51 -149.056)" fill="#574250"/>
        <path id="Trazado_878135" data-name="Trazado 878135" d="M420.529,311.515a3.163,3.163,0,0,0,.28,1.331H440.1a5.475,5.475,0,0,0,.251-1.331Z" transform="translate(-209.513 -155.201)" fill="#fff"/>
        <path id="Trazado_878136" data-name="Trazado 878136" d="M397.233,288.678a16.766,16.766,0,0,1,.432,7.88l.971,1.943h4.857a3.257,3.257,0,0,0,1.4-.432,43.261,43.261,0,0,0,1.835-4.39l-.864-5.541Z" transform="translate(-197.907 -143.555)" fill="#ff8762"/>
        <path id="Trazado_878137" data-name="Trazado 878137" d="M378.517,150.727s6.045,38,7.341,64.121h14.465l-3.671-32.168,9.284,31.737h14.9l-8.2-33.464-4.75-34.327L392.334,135.4l-11.226,3.239Z" transform="translate(-188.583 -67.457)" fill="#574250"/>
        <path id="Trazado_878138" data-name="Trazado 878138" d="M340.937,76.179s-.993-2.912-3.089-3.552-2.78-.309-4.435-1.236c-.459-.257-.824-.46-1.112-.618a.977.977,0,0,0-1.383.5.961.961,0,0,0-.064.287.976.976,0,0,0,.313.785l2.312,2.131c-1.2.264-4.792-1.254-6.2-1.88a.715.715,0,0,0-.9.285l-.042.069a.719.719,0,0,0,.1.875,13.674,13.674,0,0,0,1.967,1.556,10.657,10.657,0,0,1-2.648-1.063.716.716,0,0,0-1,.352l-.075.177a.719.719,0,0,0,.162.8,8.044,8.044,0,0,0,1.6,1.085l-.574-.174a.715.715,0,0,0-.924.654l-.006.133a.726.726,0,0,0,.092.387.712.712,0,0,0,.284.277,18.884,18.884,0,0,0,4.107,1.26s-1.1-.029-1.924-.093a.717.717,0,0,0-.171,1.422,24.161,24.161,0,0,0,7.478.216c.336.5,1.048,1.693,1.97,3.271l6.186-4.829Z" transform="translate(-161.733 -35.2)" fill="#ff8762"/>
        <path id="Trazado_878139" data-name="Trazado 878139" d="M337.611,83.133a.127.127,0,0,0,.041-.007c.691-.231,3.891-.882,3.923-.888a.127.127,0,0,0,.093-.075.128.128,0,0,0-.009-.119c-.014-.022-1.356-2.2-1.277-3.1a.129.129,0,0,0-.257-.023c-.074.849.9,2.57,1.219,3.1-.695.143-3.156.654-3.773.86a.129.129,0,0,0,.041.251" transform="translate(-168.138 -39.261)" fill="#ff7557"/>
        <path id="Trazado_878140" data-name="Trazado 878140" d="M334.011,80.42a.129.129,0,0,0,.015-.257c-.006,0-.576-.069-1.384-.25a.129.129,0,0,0-.056.252c.821.184,1.4.254,1.41.254h.015" transform="translate(-165.649 -39.812)" fill="#ff7557"/>
        <path id="Trazado_878141" data-name="Trazado 878141" d="M331.029,83.607a.129.129,0,0,0,.029-.254c-.008,0-.805-.19-2.265-.621a.129.129,0,0,0-.073.247c1.468.434,2.271.623,2.279.625a.122.122,0,0,0,.03,0" transform="translate(-163.727 -41.216)" fill="#ff7557"/>
        <path id="Trazado_878142" data-name="Trazado 878142" d="M334.627,82.7a.129.129,0,0,0,.128-.114,8.471,8.471,0,0,1,1.726-3.54.129.129,0,1,0-.207-.154,8.529,8.529,0,0,0-1.775,3.664.129.129,0,0,0,.113.143h.015" transform="translate(-166.652 -39.277)" fill="#ff7557"/>
        <path id="Trazado_878143" data-name="Trazado 878143" d="M355.821,88.871l-2.3-3.239-7.844,5.4,1.871,2.878Z" transform="translate(-172.22 -42.663)" fill="#fff"/>
        <path id="Trazado_878144" data-name="Trazado 878144" d="M373.666,79.474a7.051,7.051,0,0,0-9.392,3.346l-3.634,7.659-4.317-6.82-9.79,6.2,9.931,15.688A5.9,5.9,0,0,0,358.2,107.3a5.784,5.784,0,0,0,8-1.695l.216-.331,10.139-15.586a7.716,7.716,0,0,0,.459-.822,7.05,7.05,0,0,0-3.346-9.392" transform="translate(-172.647 -39.255)" fill="#705567"/>
        <path id="Trazado_878145" data-name="Trazado 878145" d="M384.827,106.065h10.507l3.886-39.077-6.909,3.419-3.958,9.751Z" transform="translate(-191.727 -33.374)" fill="#fff"/>
        <g id="Grupo_1102028" data-name="Grupo 1102028" transform="translate(198.786 57.146)" style="mix-blend-mode: multiply;isolation: isolate">
          <g id="Grupo_1102027" data-name="Grupo 1102027">
            <g id="Grupo_1102026" data-name="Grupo 1102026" clip-path="url(#clip-path-3)">
              <path id="Trazado_878146" data-name="Trazado 878146" d="M396.157,113.886c.3,23.318-.176,34.057,15.555,35.376,6.782.189,6.593-2.449,6.593-2.449s-8.666-14.13-8.76-14.507-13.389-18.42-13.389-18.42" transform="translate(-396.157 -113.886)" fill="#ababab"/>
            </g>
          </g>
        </g>
        <path id="Trazado_878147" data-name="Trazado 878147" d="M404.865,66.988l2.195,2,9.176,4.156,6.548,35.515-2.159,10.938-18.566-.72c-5.47-5.757-5.9-28.354-5.9-28.354Z" transform="translate(-197.372 -33.374)" fill="#705567"/>
        <g id="Grupo_1102031" data-name="Grupo 1102031" transform="translate(198.786 38.64)" style="mix-blend-mode: multiply;isolation: isolate">
          <g id="Grupo_1102030" data-name="Grupo 1102030">
            <g id="Grupo_1102029" data-name="Grupo 1102029" clip-path="url(#clip-path-4)">
              <path id="Trazado_878148" data-name="Trazado 878148" d="M406.751,77.006l.534,1.319-2.708.833,1.735,1.8-10.154,14.55,8.113-17.156Z" transform="translate(-396.157 -77.006)" fill="#ababab"/>
            </g>
          </g>
        </g>
        <rect id="Rectángulo_402604" data-name="Rectángulo 402604" width="26.555" height="18.567" transform="translate(203.045 72.864) rotate(-12.342)" fill="#d14a38"/>
        <rect id="Rectángulo_402605" data-name="Rectángulo 402605" width="26.555" height="16.48" transform="translate(203.045 72.864) rotate(-12.342)" fill="#e05745"/>
        <path id="Trazado_878149" data-name="Trazado 878149" d="M430.395,164.942l7.412.144.935,5.181-1.246,3.9a.752.752,0,0,1-.67.522l-.124.008a.752.752,0,0,1-.73-.436.784.784,0,0,1-.561.488,1.508,1.508,0,0,1-.305.047l-.251.056a.61.61,0,0,1-.646-.267l-.419.2a.6.6,0,0,1-.092.035.606.606,0,0,1-.162.022h-.705a.6.6,0,0,1-.565-.4l-.6.224a.924.924,0,0,1-.333.059.883.883,0,0,1-.208-.026.922.922,0,0,1-.675-1.129l.411-1.575-.557,1.161a1.029,1.029,0,0,1-1.012.579,1.015,1.015,0,0,1-.406-.121,1.034,1.034,0,0,1-.536-.914c.012-2.029-.392-5.923,2.043-7.757" transform="translate(-213.402 -82.177)" fill="#ff8762"/>
        <path id="Trazado_878150" data-name="Trazado 878150" d="M432.411,157.664l-1.3,3.886,9.607.486.917-2.807Z" transform="translate(-214.788 -78.551)" fill="#fff"/>
        <path id="Trazado_878151" data-name="Trazado 878151" d="M442.362,95.909l-.265-.336-11.064-14a7.727,7.727,0,0,0-.66-.726,7.052,7.052,0,0,0-9.746,10.194l10.454,10-6.486,17.834,11.651,1.818,7.01-19.232a5.778,5.778,0,0,0-.894-5.543" transform="translate(-208.477 -39.303)" fill="#705567"/>
        <path id="Trazado_878152" data-name="Trazado 878152" d="M407.06,68.985l.432,3.4-2.915,1.781,1.619.432L396.157,90.521l8.708-23.533Z" transform="translate(-197.371 -33.374)" fill="#8a687e"/>
        <path id="Trazado_878153" data-name="Trazado 878153" d="M387.666,74.733c-1.583,6.621-3.454,20.078-3.454,20.078s-1.152,23.964-4.678,28.138l-3.742-.072,4.966-34.327,3.166-11.73Z" transform="translate(-187.225 -37.233)" fill="#705567"/>
        <path id="Trazado_878154" data-name="Trazado 878154" d="M393.872,74.844l-2.087,3.67,1.4.936-1.979.935.683,13.961,3.6-20.546Z" transform="translate(-194.906 -36.769)" fill="#8a687e"/>
        <path id="Trazado_878155" data-name="Trazado 878155" d="M405.365,60.061s1.253,3.737,1.253,3.911c-4.548,4.606-5.185,4.258-5.678,3.128a1.9,1.9,0,0,0,0-1.854s3.741-5.611,4.425-5.185" transform="translate(-199.754 -29.912)" fill="#ff8762"/>
        <g id="Grupo_1102034" data-name="Grupo 1102034" transform="translate(201.33 29.976)" style="mix-blend-mode: multiply;isolation: isolate">
          <g id="Grupo_1102033" data-name="Grupo 1102033">
            <g id="Grupo_1102032" data-name="Grupo 1102032" clip-path="url(#clip-path-5)">
              <path id="Trazado_878156" data-name="Trazado 878156" d="M401.228,64.648c.283,1.781,1.537,1.985,2.433.587a7.837,7.837,0,0,0,.934-5.5Z" transform="translate(-401.228 -59.738)" fill="#8c8c8c"/>
            </g>
          </g>
        </g>
        <path id="Trazado_878157" data-name="Trazado 878157" d="M393.9,48.854c-.377-.55-1.1-1.8.666-2.491s3.129-.464,3.36-.174,2.317-.725,3.418,1.564a10.215,10.215,0,0,1,.492,5.446L400.1,54.416Z" transform="translate(-196.011 -22.871)" fill="#452116"/>
        <path id="Trazado_878158" data-name="Trazado 878158" d="M396.441,59.847c5.315,0,4.983-5.41,4.983-5.41s1.072-.826-.015-.7-.855-1.579-1.275-1.984-.927-.7-.884-1.434a1.348,1.348,0,0,0-1.072-1.622c-.97-.275-2.057.71-3.447.362a3.686,3.686,0,0,0-1.246,4.135c.522,1.673-.108,2.65,1.13,4.475s1.347,2.173,1.825,2.173" transform="translate(-195.947 -24.239)" fill="#ff8762"/>
        <path id="Trazado_878159" data-name="Trazado 878159" d="M396.769,63.539c.472-.056,1.017-.153,1.537-.257,1.1-.222,2.091-.481,2.091-.481-1.2,1.575-2.466,2.042-3.628.739" transform="translate(-197.676 -31.288)" fill="#fff"/>
        <path id="Trazado_878160" data-name="Trazado 878160" d="M397.065,58.73c-.281.694-.452,1.4-.323,1.567a.821.821,0,0,0,.685.259,4.1,4.1,0,0,0,.7-.113c.369-.094.672.235.712-.205a.8.8,0,0,0-.754-.854c-.492-.09-.88-1.086-1.017-.654" transform="translate(-197.641 -29.206)" fill="#ff7557"/>
        <path id="Trazado_878161" data-name="Trazado 878161" d="M403.9,59.047a1.194,1.194,0,1,1-1.263-.915,1.109,1.109,0,0,1,1.263.915" transform="translate(-200.056 -28.96)" fill="#ff7557"/>
        <path id="Trazado_878162" data-name="Trazado 878162" d="M394.169,60.692a6.015,6.015,0,0,0,.329,1.945,1.044,1.044,0,0,0,.731-1.031,1.074,1.074,0,0,0-1.06-.914" transform="translate(-196.381 -30.238)" fill="#ff7557"/>
        <path id="Trazado_878163" data-name="Trazado 878163" d="M401.255,56.964h0a.368.368,0,0,0,.337-.4l-.016-.192a.367.367,0,1,0-.732.059l.016.192a.367.367,0,0,0,.4.337" transform="translate(-199.706 -27.919)" fill="#452116"/>
        <g id="Grupo_1102037" data-name="Grupo 1102037" transform="translate(201.586 28.756)" style="mix-blend-mode: multiply;isolation: isolate">
          <g id="Grupo_1102036" data-name="Grupo 1102036">
            <g id="Grupo_1102035" data-name="Grupo 1102035" clip-path="url(#clip-path-6)">
              <path id="Trazado_878164" data-name="Trazado 878164" d="M401.88,57.834a.572.572,0,0,1-.1.016.045.045,0,0,1-.048-.041.044.044,0,0,1,.041-.048.476.476,0,0,0,.445-.414.044.044,0,0,1,.05-.038.045.045,0,0,1,.038.05.556.556,0,0,1-.431.476" transform="translate(-401.737 -57.308)" fill="#a1a1a1"/>
            </g>
          </g>
        </g>
        <path id="Trazado_878165" data-name="Trazado 878165" d="M408.542,57.075a1.45,1.45,0,0,0,.695,1.672c.542.209,1.111-.2,1.27-.916a1.451,1.451,0,0,0-.695-1.672c-.542-.209-1.111.2-1.27.916" transform="translate(-203.521 -27.952)" fill="#ff7557"/>
        <g id="Grupo_1102040" data-name="Grupo 1102040" transform="translate(205.402 28.874)" style="mix-blend-mode: multiply;isolation: isolate">
          <g id="Grupo_1102039" data-name="Grupo 1102039">
            <g id="Grupo_1102038" data-name="Grupo 1102038" clip-path="url(#clip-path-7)">
              <path id="Trazado_878166" data-name="Trazado 878166" d="M409.659,58.863a.043.043,0,0,1-.048-.021.042.042,0,0,1,.018-.057.21.21,0,0,0,.1-.245c-.029-.095-.134-.19-.342-.17a.042.042,0,0,1-.031-.01.041.041,0,0,1-.015-.029.727.727,0,0,1,.219-.627.8.8,0,0,1,.718-.135.042.042,0,1,1-.018.082.722.722,0,0,0-.645.116.632.632,0,0,0-.193.515.357.357,0,0,1,.387.232.292.292,0,0,1-.146.343l-.009,0" transform="translate(-409.342 -57.542)" fill="#a1a1a1"/>
            </g>
          </g>
        </g>
        <path id="Trazado_878167" data-name="Trazado 878167" d="M397.264,59.863a.842.842,0,0,1-.455-.136.447.447,0,0,1-.241-.361v-.009c.011-.048.423-1.52.478-1.721a3.085,3.085,0,0,1-.24-.418.045.045,0,0,1,.026-.061.05.05,0,0,1,.065.024,3.1,3.1,0,0,0,.244.422.045.045,0,0,1,.007.038c-.159.57-.46,1.645-.482,1.731a.381.381,0,0,0,.2.279.64.64,0,0,0,.472.106.05.05,0,0,1,.064.026.046.046,0,0,1-.028.061.345.345,0,0,1-.109.02" transform="translate(-197.577 -28.474)" fill="#452116"/>
        <path id="Trazado_878168" data-name="Trazado 878168" d="M399.078,61.523a.052.052,0,0,1-.028-.007.045.045,0,0,1-.016-.064.4.4,0,0,1,.517-.1.216.216,0,0,0,.225-.043c.054-.051.125-.178-.012-.449a.045.045,0,0,1,.023-.062.05.05,0,0,1,.066.022c.163.323.065.486-.008.555a.318.318,0,0,1-.338.061.3.3,0,0,0-.39.068.049.049,0,0,1-.04.022" transform="translate(-198.801 -30.287)" fill="#452116"/>
        <path id="Trazado_878169" data-name="Trazado 878169" d="M395.247,58.38h0a.367.367,0,0,0,.337-.4l-.016-.192a.367.367,0,1,0-.732.059l.016.192a.364.364,0,0,0,.128.25.368.368,0,0,0,.267.086" transform="translate(-196.713 -28.625)" fill="#452116"/>
        <path id="Trazado_878170" data-name="Trazado 878170" d="M399.236,54.754a3.933,3.933,0,0,1,1.656-.212.15.15,0,0,0,.087-.28,1.371,1.371,0,0,0-1.927.282.15.15,0,0,0,.184.211" transform="translate(-198.806 -26.907)" fill="#452116"/>
        <path id="Trazado_878171" data-name="Trazado 878171" d="M393.895,56.4a2.24,2.24,0,0,1,.886-.308.144.144,0,0,0,.045-.27.806.806,0,0,0-1.142.4.143.143,0,0,0,.211.18" transform="translate(-196.132 -27.757)" fill="#452116"/>
        <path id="Trazado_878172" data-name="Trazado 878172" d="M401.9,63.049a.055.055,0,0,1-.013-.109c.592-.137,1.018-.248,1.022-.249a.055.055,0,0,1,.068.04.056.056,0,0,1-.04.068s-.431.112-1.025.249l-.013,0" transform="translate(-200.207 -31.232)" fill="#452116"/>
        <path id="Trazado_878173" data-name="Trazado 878173" d="M396.714,63.877a.056.056,0,0,1-.007-.111c.418-.049.934-.136,1.533-.256.229-.046.453-.094.664-.141a.055.055,0,0,1,.024.108c-.212.047-.437.095-.666.141-.6.122-1.121.209-1.542.258h-.007" transform="translate(-197.621 -31.571)" fill="#452116"/>
        <path id="Trazado_878174" data-name="Trazado 878174" d="M399.222,66.224a2.11,2.11,0,0,1-.441-.047.055.055,0,0,1-.043-.066.054.054,0,0,1,.066-.043,1.888,1.888,0,0,0,1.5-.3.055.055,0,0,1,.065.09,1.982,1.982,0,0,1-1.146.361" transform="translate(-198.657 -32.764)" fill="#ff7557"/>
        <g id="Grupo_1102043" data-name="Grupo 1102043" transform="translate(196.777 74.136)" style="mix-blend-mode: multiply;isolation: isolate">
          <g id="Grupo_1102042" data-name="Grupo 1102042">
            <g id="Grupo_1102041" data-name="Grupo 1102041" clip-path="url(#clip-path-8)">
              <path id="Trazado_878175" data-name="Trazado 878175" d="M402.8,187.025a.137.137,0,0,1-.133-.1l-8.474-33.606-1.223-.408a.137.137,0,0,1-.093-.111l-.72-4.893a.138.138,0,1,1,.273-.04l.708,4.81,1.215.4a.14.14,0,0,1,.09.1l8.492,33.679a.138.138,0,0,1-.1.168.162.162,0,0,1-.034,0" transform="translate(-392.153 -147.744)" fill="#8c8c8c"/>
            </g>
          </g>
        </g>
        <g id="Grupo_1102046" data-name="Grupo 1102046" transform="translate(217.754 93.278)" style="mix-blend-mode: multiply;isolation: isolate">
          <g id="Grupo_1102045" data-name="Grupo 1102045">
            <g id="Grupo_1102044" data-name="Grupo 1102044" clip-path="url(#clip-path-9)">
              <path id="Trazado_878176" data-name="Trazado 878176" d="M445.756,237.768a.137.137,0,0,1-.133-.1l-8.42-31.629-3.241-19.984a.138.138,0,1,1,.272-.044l3.238,19.97,8.417,31.615a.138.138,0,0,1-.1.169.148.148,0,0,1-.036,0" transform="translate(-433.959 -185.893)" fill="#8c8c8c"/>
            </g>
          </g>
        </g>
        <g id="Grupo_1102049" data-name="Grupo 1102049" transform="translate(211.218 39.359)" style="mix-blend-mode: multiply;isolation: isolate">
          <g id="Grupo_1102048" data-name="Grupo 1102048">
            <g id="Grupo_1102047" data-name="Grupo 1102047" clip-path="url(#clip-path-10)">
              <path id="Trazado_878177" data-name="Trazado 878177" d="M423.128,92.153a.137.137,0,0,1-.1-.045,8.592,8.592,0,0,1-1.666-8.363,7.51,7.51,0,0,1,5.354-5.3.138.138,0,1,1,.061.269,7.238,7.238,0,0,0-5.152,5.118,8.317,8.317,0,0,0,1.607,8.094.138.138,0,0,1-.1.231" transform="translate(-420.933 -78.438)" fill="#ababab"/>
            </g>
          </g>
        </g>
        <g id="Grupo_1102052" data-name="Grupo 1102052" transform="translate(217.107 56.523)" style="mix-blend-mode: multiply;isolation: isolate">
          <g id="Grupo_1102051" data-name="Grupo 1102051">
            <g id="Grupo_1102050" data-name="Grupo 1102050" clip-path="url(#clip-path-11)">
              <path id="Trazado_878178" data-name="Trazado 878178" d="M435.343,124.955a.13.13,0,0,1-.047-.009.138.138,0,0,1-.082-.177l2.506-6.88-5.011-5.011a.138.138,0,0,1,.2-.2l5.074,5.074a.138.138,0,0,1,.032.145l-2.537,6.963a.137.137,0,0,1-.129.091" transform="translate(-432.669 -112.643)" fill="#ababab"/>
            </g>
          </g>
        </g>
        <g id="Grupo_1102055" data-name="Grupo 1102055" transform="translate(223.044 60.786)" style="mix-blend-mode: multiply;isolation: isolate">
          <g id="Grupo_1102054" data-name="Grupo 1102054">
            <g id="Grupo_1102053" data-name="Grupo 1102053" clip-path="url(#clip-path-12)">
              <path id="Trazado_878179" data-name="Trazado 878179" d="M445.5,122.712a.138.138,0,0,1-.062-.015l-.864-.432a.138.138,0,0,1,.01-.251,12.774,12.774,0,0,1,2.967-.874.138.138,0,0,1,0,.276,10.745,10.745,0,0,0-2.577.74l.588.294a.138.138,0,0,1-.062.261" transform="translate(-444.501 -121.141)" fill="#ababab"/>
            </g>
          </g>
        </g>
        <g id="Grupo_1102058" data-name="Grupo 1102058" transform="translate(190.876 43.083)" style="mix-blend-mode: multiply;isolation: isolate">
          <g id="Grupo_1102057" data-name="Grupo 1102057">
            <g id="Grupo_1102056" data-name="Grupo 1102056" clip-path="url(#clip-path-13)">
              <path id="Trazado_878180" data-name="Trazado 878180" d="M380.531,110.639h-.01a.138.138,0,0,1-.128-.148c.011-.148,1.113-14.915,3.891-24.532a.138.138,0,1,1,.265.077c-2.77,9.59-3.87,24.328-3.881,24.476a.138.138,0,0,1-.137.128" transform="translate(-380.393 -85.859)" fill="#ababab"/>
            </g>
          </g>
        </g>
        <g id="Grupo_1102061" data-name="Grupo 1102061" transform="translate(186.881 51.773)" style="mix-blend-mode: multiply;isolation: isolate">
          <g id="Grupo_1102060" data-name="Grupo 1102060">
            <g id="Grupo_1102059" data-name="Grupo 1102059" clip-path="url(#clip-path-14)">
              <path id="Trazado_878181" data-name="Trazado 878181" d="M373.057,111.172a.138.138,0,0,1-.137-.127,38.056,38.056,0,0,1,.268-6.926l-.493.986a.138.138,0,1,1-.247-.124l.864-1.727a.138.138,0,0,1,.26.083,39.788,39.788,0,0,0-.377,7.686.136.136,0,0,1-.127.148h-.011" transform="translate(-372.433 -103.177)" fill="#ababab"/>
            </g>
          </g>
        </g>
        <path id="Trazado_878182" data-name="Trazado 878182" d="M378.807,306.7h19.287c.9-2.662-.684-7.52-.684-7.52-1.187,1.511-4.821,3.778-7.2,3.778a2.681,2.681,0,0,0-2.3-3.238c-1.691,2.051-4.713,2.95-6.909,3.346s-2.951,1.871-2.195,3.634" transform="translate(-188.586 -149.056)" fill="#574250"/>
        <path id="Trazado_878183" data-name="Trazado 878183" d="M378.531,311.515a3.163,3.163,0,0,0,.28,1.331H398.1a5.5,5.5,0,0,0,.251-1.331Z" transform="translate(-188.589 -155.201)" fill="#fff"/>
        <path id="Trazado_878184" data-name="Trazado 878184" d="M116.975,282.449c0,1.98,10.01,7.59,10.78.22s-7.535-4.565-7.535-4.565Z" transform="translate(-58.279 -138.294)" fill="#2e3645"/>
        <path id="Trazado_878185" data-name="Trazado 878185" d="M80.585,281.771c1.87,3.025,9.845,4.565,10.56,0s-6.27-6.655-6.27-6.655-3.685,2.53-4.29,6.655" transform="translate(-40.149 -137.067)" fill="#2e3645"/>
        <path id="Trazado_878186" data-name="Trazado 878186" d="M83.532,293.152l-.645-11.842,8.085-.055-2.854,10.183.347.834-.208,1.019s-2.13-.009-2.223-.032-2.5-.107-2.5-.107" transform="translate(-41.296 -140.125)" fill="#ba593c"/>
        <path id="Trazado_878187" data-name="Trazado 878187" d="M76.273,307.074c-.579.741-.463,2.849-.463,2.849l10.723.009a5.55,5.55,0,0,0-.232-2.64l-4.909-1.375Z" transform="translate(-37.765 -152.412)" fill="#fff"/>
        <path id="Trazado_878188" data-name="Trazado 878188" d="M82.922,301.517a1.756,1.756,0,0,0-2.984,1,3.625,3.625,0,0,0-3.2,2.1c2.339-.162,5.257-.278,6.184.278s3.821.078,3.844-.061a7.752,7.752,0,0,0-1.714-3.567c.278,1.69-1.767,1.181-2.134.25" transform="translate(-38.234 -149.955)" fill="#e04734"/>
        <path id="Trazado_878189" data-name="Trazado 878189" d="M123.183,307l-.035,2.918h15.286l-.07-2.259-5.871-1.771-5.315.138Z" transform="translate(-61.355 -152.398)" fill="#fff"/>
        <path id="Trazado_878190" data-name="Trazado 878190" d="M120.879,279.521l1.8,10.649s-.1,1.008,0,1.077a25.59,25.59,0,0,0,2.918.452c.174-.035,2.917-.108,2.917-.455s-.139-2.119-.139-2.119l.611-10.391Z" transform="translate(-60.224 -138.869)" fill="#ba593c"/>
        <path id="Trazado_878191" data-name="Trazado 878191" d="M123.8,300.278c-.9.938-.625,3.3-.625,3.3a7.876,7.876,0,0,0,4.9.521,5.5,5.5,0,0,1,3.717.278c.938.382,5.107.66,6.566-.139-.938-2.779-2.849-3.536-5.212-3.362s-3.161-1.818-3.613-1.853-.626.521-1.008,1.25-4.551.247-4.724,0" transform="translate(-61.349 -148.978)" fill="#e04734"/>
        <path id="Trazado_878192" data-name="Trazado 878192" d="M104.806,77.615l6.291.418s5.7,7.88,5.7,8.1,3.245,17.27,3.245,17.27l-1.155,4.51-11.11-1.65-3.19-25.3Z" transform="translate(-52.108 -38.669)" fill="#e04734"/>
        <path id="Trazado_878193" data-name="Trazado 878193" d="M81.685,162.109l-1.1,48.18c2.64-5.775,10.56,0,10.56,0l6.27-57.75,1.43,57.42c4.73-4.62,10.78,0,10.78,0s3.41-57.75,3.3-61.05a42.571,42.571,0,0,0-1.76-8.58l-4.51-8.69H89.495Z" transform="translate(-40.149 -65.585)" fill="#515a69"/>
        <path id="Trazado_878194" data-name="Trazado 878194" d="M108.842,52.49a7,7,0,1,1-7-7,7,7,0,0,1,7,7" transform="translate(-47.248 -22.662)" fill="#1f0d08"/>
        <path id="Trazado_878195" data-name="Trazado 878195" d="M105.488,68.407c.369,3.588-.467,4.62-.467,4.62,2.015,2.408,5.751,3.735,6.291.417a3.148,3.148,0,0,1-.835-1.892Z" transform="translate(-52.323 -34.081)" fill="#ba593c"/>
        <g id="Grupo_1102064" data-name="Grupo 1102064" transform="translate(53.976 35.923)" style="mix-blend-mode: multiply;isolation: isolate">
          <g id="Grupo_1102063" data-name="Grupo 1102063">
            <g id="Grupo_1102062" data-name="Grupo 1102062" clip-path="url(#clip-path-15)">
              <path id="Trazado_878196" data-name="Trazado 878196" d="M107.568,71.591c1.769,4.055,4.473,5.087,4.03,1.647-2.974.172-4.03-1.647-4.03-1.647" transform="translate(-107.568 -71.591)" fill="#a1a1a1"/>
            </g>
          </g>
        </g>
        <path id="Trazado_878197" data-name="Trazado 878197" d="M108.282,56.331c2.783.516,1.954-.3,2.894-.221s1.954,2.359,1.88,3.392.737,1.659.166,3.668-.719,2.765-2.506,2.765-4.405-.258-5.106-3.908c.442-1.991.7-1.88.461-2.968s.792-2.93,2.212-2.728" transform="translate(-52.616 -27.952)" fill="#ba593c"/>
        <path id="Trazado_878198" data-name="Trazado 878198" d="M111.978,63.559h0a.359.359,0,0,1-.411-.3l-.03-.186a.356.356,0,0,1,.088-.3.359.359,0,0,1,.621.183l.03.187a.359.359,0,0,1-.3.411" transform="translate(-55.567 -31.218)" fill="#1f0d08"/>
        <path id="Trazado_878199" data-name="Trazado 878199" d="M112.577,62.454a.634.634,0,0,1-.2.2.625.625,0,0,1-.277.1H112.1a.131.131,0,1,1-.028-.261h.025a.386.386,0,0,0,.18-.028.444.444,0,0,0,.159-.113l0,0a.087.087,0,0,1,.139.1" transform="translate(-55.777 -31.05)" fill="#1f0d08"/>
        <path id="Trazado_878200" data-name="Trazado 878200" d="M111.672,64.578a.544.544,0,0,1-.52-.351.044.044,0,0,1,.025-.057.044.044,0,0,1,.056.025.465.465,0,0,0,.519.289.044.044,0,0,1,.014.086.647.647,0,0,1-.094.008" transform="translate(-55.376 -31.969)" fill="#ab472a"/>
        <path id="Trazado_878201" data-name="Trazado 878201" d="M118.461,63.1h0a.36.36,0,0,1-.412-.3l-.03-.186a.359.359,0,0,1,.709-.115l.03.186a.359.359,0,0,1-.3.411" transform="translate(-58.797 -30.989)" fill="#1f0d08"/>
        <path id="Trazado_878202" data-name="Trazado 878202" d="M119.06,62a.634.634,0,0,1-.2.2.627.627,0,0,1-.277.1h-.006a.131.131,0,0,1-.028-.261h.025a.386.386,0,0,0,.18-.028.444.444,0,0,0,.159-.113l0,0a.087.087,0,0,1,.14.1" transform="translate(-59.007 -30.821)" fill="#1f0d08"/>
        <path id="Trazado_878203" data-name="Trazado 878203" d="M116.107,64.658c.316.445.52.585.437.834s-.288.232-.451.434c-.626.357-1.515.457-1.519-.04s.517-.659.854-.714.151-1.174.679-.514" transform="translate(-57.082 -32.11)" fill="#ab472a"/>
        <path id="Trazado_878204" data-name="Trazado 878204" d="M117.511,66.036a.044.044,0,0,1-.031-.079l.345-.249a.226.226,0,0,0,.082-.268.159.159,0,0,0-.011-.021,5.193,5.193,0,0,0-.468-.675.044.044,0,0,1,.067-.056,5.311,5.311,0,0,1,.476.687.268.268,0,0,1,.015.029.313.313,0,0,1-.111.374l-.345.249a.045.045,0,0,1-.021.008" transform="translate(-58.5 -32.221)" fill="#1f0d08"/>
        <path id="Trazado_878205" data-name="Trazado 878205" d="M116.981,63.555a.044.044,0,0,1-.045-.027.724.724,0,0,1,.014-.544.044.044,0,1,1,.083.026.643.643,0,0,0-.017.486.044.044,0,0,1-.024.057l-.012,0" transform="translate(-58.235 -31.364)" fill="#1f0d08"/>
        <path id="Trazado_878206" data-name="Trazado 878206" d="M115.888,67.258a.042.042,0,0,1-.037-.014.043.043,0,0,1,0-.061.472.472,0,0,1,.369-.138.154.154,0,0,1,.114.074.044.044,0,1,1-.077.041.071.071,0,0,0-.052-.03.391.391,0,0,0-.3.116.044.044,0,0,1-.025.011" transform="translate(-57.713 -33.401)" fill="#1f0d08"/>
        <g id="Grupo_1102067" data-name="Grupo 1102067" transform="translate(57.572 33.441)" style="mix-blend-mode: multiply;isolation: isolate">
          <g id="Grupo_1102066" data-name="Grupo 1102066">
            <g id="Grupo_1102065" data-name="Grupo 1102065" clip-path="url(#clip-path-16)">
              <path id="Trazado_878207" data-name="Trazado 878207" d="M115.152,67.277a.37.37,0,0,1-.362-.18.391.391,0,0,1,.018-.434.044.044,0,0,1,.071.051.3.3,0,0,0-.015.338.287.287,0,0,0,.285.137.042.042,0,0,1,.049.037.044.044,0,0,1-.037.049h-.01" transform="translate(-114.734 -66.644)" fill="#a1a1a1"/>
            </g>
          </g>
        </g>
        <path id="Trazado_878208" data-name="Trazado 878208" d="M110.6,66.1a1.5,1.5,0,1,1-1.627-1.073A1.387,1.387,0,0,1,110.6,66.1" transform="translate(-53.635 -32.392)" fill="#ab472a"/>
        <path id="Trazado_878209" data-name="Trazado 878209" d="M119.866,64.562a1.288,1.288,0,0,0-.792,1.288,1.266,1.266,0,0,0,.97,1.027,4.425,4.425,0,0,0-.178-2.315" transform="translate(-59.32 -32.166)" fill="#ab472a"/>
        <path id="Trazado_878210" data-name="Trazado 878210" d="M116.793,73.182a1.9,1.9,0,0,1-.539-.045.063.063,0,0,1-.039-.069c0-.033.024-.056.048-.051a1.214,1.214,0,0,0,.847-.04c.021-.014.047,0,.058.03a.071.071,0,0,1-.018.08.791.791,0,0,1-.356.094" transform="translate(-57.9 -36.356)" fill="#ab472a"/>
        <path id="Trazado_878211" data-name="Trazado 878211" d="M113.807,69.108c.87-.335,1.4-.577,1.6-.424.381.291.435-.111.7,0s.447.633.447.633c-.154.865-.747,2.331-2.748-.206" transform="translate(-56.7 -34.196)" fill="#a82c1d"/>
        <path id="Trazado_878212" data-name="Trazado 878212" d="M109.115,60.934a3.083,3.083,0,0,1,2.9-.359,1.566,1.566,0,0,0-2.9.359" transform="translate(-54.363 -29.763)" fill="#1f0d08"/>
        <path id="Trazado_878213" data-name="Trazado 878213" d="M117.455,60.788a1.2,1.2,0,0,1,1.437-.077c-.314-.792-1.237-.88-1.437.077" transform="translate(-58.518 -29.94)" fill="#1f0d08"/>
        <path id="Trazado_878214" data-name="Trazado 878214" d="M116.065,47.292a1.093,1.093,0,1,1-1.093-1.093,1.093,1.093,0,0,1,1.093,1.093" transform="translate(-56.736 -23.017)" fill="#1f0d08"/>
        <path id="Trazado_878215" data-name="Trazado 878215" d="M118.979,50.27a.454.454,0,1,1-.454-.454.454.454,0,0,1,.454.454" transform="translate(-58.825 -24.819)" fill="#1f0d08"/>
        <path id="Trazado_878216" data-name="Trazado 878216" d="M100.034,48.463a1.073,1.073,0,1,1-1.072-1.072,1.072,1.072,0,0,1,1.072,1.072" transform="translate(-48.77 -23.611)" fill="#1f0d08"/>
        <path id="Trazado_878217" data-name="Trazado 878217" d="M96.455,53.085a.681.681,0,1,1-.68-.68.68.68,0,0,1,.68.68" transform="translate(-47.377 -26.109)" fill="#1f0d08"/>
        <path id="Trazado_878218" data-name="Trazado 878218" d="M96.333,55.675a.722.722,0,1,1-.722-.722.722.722,0,0,1,.722.722" transform="translate(-47.275 -27.378)" fill="#1f0d08"/>
        <path id="Trazado_878219" data-name="Trazado 878219" d="M95.8,59.292a.722.722,0,1,1-.722-.722.722.722,0,0,1,.722.722" transform="translate(-47.009 -29.18)" fill="#1f0d08"/>
        <path id="Trazado_878220" data-name="Trazado 878220" d="M96.457,61.883A.887.887,0,1,1,95.57,61a.887.887,0,0,1,.887.887" transform="translate(-47.172 -30.389)" fill="#1f0d08"/>
        <path id="Trazado_878221" data-name="Trazado 878221" d="M97.852,67.594a.433.433,0,1,1-.433-.433.433.433,0,0,1,.433.433" transform="translate(-48.32 -33.461)" fill="#1f0d08"/>
        <path id="Trazado_878222" data-name="Trazado 878222" d="M99.62,69.137a.66.66,0,1,1-.66-.66.66.66,0,0,1,.66.66" transform="translate(-48.975 -34.116)" fill="#1f0d08"/>
        <path id="Trazado_878223" data-name="Trazado 878223" d="M102.086,71.438a.619.619,0,1,1-.619-.619.619.619,0,0,1,.619.619" transform="translate(-50.244 -35.283)" fill="#1f0d08"/>
        <path id="Trazado_878224" data-name="Trazado 878224" d="M106.525,45.461a.66.66,0,1,1-.66-.66.66.66,0,0,1,.66.66" transform="translate(-52.415 -22.321)" fill="#1f0d08"/>
        <path id="Trazado_878225" data-name="Trazado 878225" d="M109.813,45.3a.578.578,0,1,1-.578-.578.578.578,0,0,1,.578.578" transform="translate(-54.135 -22.28)" fill="#1f0d08"/>
        <path id="Trazado_878226" data-name="Trazado 878226" d="M112.074,45.749a.578.578,0,1,1-.578-.578.577.577,0,0,1,.578.578" transform="translate(-55.262 -22.505)" fill="#1f0d08"/>
        <path id="Trazado_878227" data-name="Trazado 878227" d="M122.39,56.97a.454.454,0,1,1-.454-.454.454.454,0,0,1,.454.454" transform="translate(-60.524 -28.157)" fill="#1f0d08"/>
        <path id="Trazado_878228" data-name="Trazado 878228" d="M122.761,58.963a.516.516,0,1,1-.516-.516.516.516,0,0,1,.516.516" transform="translate(-60.647 -29.119)" fill="#1f0d08"/>
        <path id="Trazado_878229" data-name="Trazado 878229" d="M117.344,49.17a.061.061,0,0,1-.043-.018.06.06,0,0,1,0-.085,1.353,1.353,0,0,0,.17-.467.418.418,0,0,0-.17-.424c-.092-.094-.187-.191-.138-.325.063-.172,0-.343-.5-.8-.346-.316-.358-.362-.293-.58a1.7,1.7,0,0,0,.068-.318c.035-.3-.079-.328-.354-.4a2.223,2.223,0,0,1-.522-.183,3.238,3.238,0,0,1-.329-.2c-.258-.173-.365-.244-.946-.065a.06.06,0,1,1-.035-.115c.635-.2.773-.1,1.048.081a3.22,3.22,0,0,0,.317.192,2.15,2.15,0,0,0,.5.173c.274.068.491.121.444.526a1.808,1.808,0,0,1-.072.338c-.049.164-.052.173.259.457.5.457.625.675.531.931-.022.06.025.112.111.2a.534.534,0,0,1,.2.537,1.263,1.263,0,0,1-.2.523.061.061,0,0,1-.043.018" transform="translate(-56.901 -22.463)" fill="#1f0d08"/>
        <path id="Trazado_878230" data-name="Trazado 878230" d="M107.058,57.82a.06.06,0,0,1-.031-.009.061.061,0,0,1-.021-.083l.011-.017c.055-.09.107-.175-.032-.417a.25.25,0,0,1-.039-.211c.035-.094.141-.132.264-.177a1.151,1.151,0,0,0,.267-.124.288.288,0,0,0,.122-.236.576.576,0,0,1,.313-.467,3.676,3.676,0,0,1,.422-.212c.34-.154.662-.3.77-.622a.06.06,0,0,1,.076-.038.06.06,0,0,1,.038.076c-.124.374-.486.537-.835.694a3.633,3.633,0,0,0-.407.2.457.457,0,0,0-.257.382.406.406,0,0,1-.173.317,1.243,1.243,0,0,1-.295.138c-.091.033-.177.064-.192.105a.161.161,0,0,0,.03.11c.174.3.094.435.03.539l-.01.017a.06.06,0,0,1-.052.029" transform="translate(-53.277 -27.503)" fill="#1f0d08"/>
        <path id="Trazado_878231" data-name="Trazado 878231" d="M106.3,62.421a.062.062,0,0,1-.043-.018.06.06,0,0,1,0-.085c.028-.028.093-.093-.073-.426l-.024-.047c-.119-.237-.127-.268.03-.438.029-.031.064-.069.105-.117a.252.252,0,0,0,.08-.178c-.01-.111-.156-.232-.359-.4l-.168-.141a.06.06,0,0,1,.078-.091l.166.139c.234.194.388.322.4.483a.365.365,0,0,1-.108.266c-.043.05-.079.089-.109.121-.1.113-.1.113-.01.3l.024.047c.146.291.16.455.051.565a.061.061,0,0,1-.043.018" transform="translate(-52.724 -30.125)" fill="#1f0d08"/>
        <path id="Trazado_878232" data-name="Trazado 878232" d="M122.677,56.664a.06.06,0,0,1-.053-.089,2.134,2.134,0,0,0,.117-.237c.036-.086.046-.093.163-.181l.046-.034a.171.171,0,0,0,.071-.12c.026-.2-.206-.524-.412-.785a.059.059,0,0,1,.01-.084.06.06,0,0,1,.085.01c.234.3.469.632.437.875a.289.289,0,0,1-.118.2l-.047.035c-.1.075-.1.075-.124.13a2.233,2.233,0,0,1-.122.249.06.06,0,0,1-.053.031" transform="translate(-61.079 -27.462)" fill="#1f0d08"/>
        <path id="Trazado_878233" data-name="Trazado 878233" d="M122.349,62.215a.06.06,0,0,1-.06-.06c0-.16-.023-.181-.072-.228a.654.654,0,0,1-.125-.153c-.138-.232-.111-.314.018-.593a.772.772,0,0,0-.234-.9.06.06,0,0,1,.082-.088.887.887,0,0,1,.261,1.039c-.122.264-.132.3-.024.48a.521.521,0,0,0,.1.128c.07.067.11.114.11.316a.06.06,0,0,1-.06.06" transform="translate(-60.711 -29.981)" fill="#1f0d08"/>
        <path id="Trazado_878234" data-name="Trazado 878234" d="M100.323,46.57a.131.131,0,0,1-.035,0c-.067-.018-.092-.081-.115-.136a.226.226,0,0,0-.213-.179.061.061,0,0,1-.054-.066.062.062,0,0,1,.066-.054.348.348,0,0,1,.313.253c.009.022.026.063.034.065s.049,0,.208-.12c.188-.147.157-.256.131-.344a.139.139,0,0,1,.01-.139c.048-.052.134-.048.464.018a1.712,1.712,0,0,0,.863.015.456.456,0,0,1,.255-.014,3.841,3.841,0,0,1,.5.189.06.06,0,0,1-.05.109,3.806,3.806,0,0,0-.486-.182.348.348,0,0,0-.195.014,1.82,1.82,0,0,1-.915-.013,2.147,2.147,0,0,0-.341-.051c0,.007,0,.015.006.022a.39.39,0,0,1-.173.472.531.531,0,0,1-.279.147" transform="translate(-49.775 -22.823)" fill="#1f0d08"/>
        <path id="Trazado_878235" data-name="Trazado 878235" d="M106.711,45.043a.061.061,0,0,1-.036-.012c-.018-.014-.035-.024-.052-.034a.727.727,0,0,1-.25-.247,1.2,1.2,0,0,1-.069-.113c-.076-.134-.115-.2-.5-.171a.061.061,0,0,1-.065-.055.06.06,0,0,1,.055-.065c.437-.035.513.06.61.232a1.139,1.139,0,0,0,.063.1.607.607,0,0,0,.213.214.654.654,0,0,1,.062.041.06.06,0,0,1-.036.108" transform="translate(-52.683 -22.09)" fill="#1f0d08"/>
        <path id="Trazado_878236" data-name="Trazado 878236" d="M94.952,51.815a.06.06,0,0,1-.06-.06c0-.2.065-.234.223-.327.043-.025.094-.055.156-.095a.83.83,0,0,1,.355-.118.417.417,0,0,0,.349-.195l.049-.075c.167-.255.242-.371.829-.547a.06.06,0,1,1,.035.115c-.545.164-.6.255-.763.5l-.05.076a.53.53,0,0,1-.431.247.726.726,0,0,0-.309.1c-.063.041-.115.072-.159.1-.151.089-.164.1-.164.223a.06.06,0,0,1-.06.06" transform="translate(-47.277 -25.108)" fill="#1f0d08"/>
        <path id="Trazado_878237" data-name="Trazado 878237" d="M94.1,57.119a.058.058,0,0,1-.039-.014c-.093-.079-.132-.138-.13-.2s.062-.118.132-.17a.793.793,0,0,0,.193-.187c.089-.128.07-.165-.014-.317a2.464,2.464,0,0,1-.22-.518.447.447,0,0,1,.015-.375.6.6,0,0,1,.446-.2c.106-.017.216-.034.25-.077a.059.059,0,0,1,.084-.011.06.06,0,0,1,.011.084.509.509,0,0,1-.325.122c-.149.024-.3.048-.363.145a.338.338,0,0,0,0,.276,2.287,2.287,0,0,0,.211.494c.086.159.139.254.008.444a.926.926,0,0,1-.221.215c-.035.026-.083.062-.083.077s0,.031.088.1a.06.06,0,0,1,.007.085.061.061,0,0,1-.046.022" transform="translate(-46.8 -27.421)" fill="#1f0d08"/>
        <path id="Trazado_878238" data-name="Trazado 878238" d="M94.339,62.4a.06.06,0,0,1-.059-.048c-.031-.141-.054-.157-.1-.187A.569.569,0,0,1,94,61.982a.273.273,0,0,1,.067-.371c.071-.078.085-.1.057-.145-.128-.193.084-.435.471-.875.073-.083.152-.173.235-.27a.06.06,0,1,1,.091.078c-.084.1-.164.188-.236.271-.313.356-.538.613-.461.729s0,.222-.068.293-.115.133-.056.223a.455.455,0,0,0,.147.15c.069.045.112.082.151.262a.06.06,0,0,1-.046.071l-.013,0" transform="translate(-46.808 -30.042)" fill="#1f0d08"/>
        <path id="Trazado_878239" data-name="Trazado 878239" d="M99.75,68.511a.064.064,0,0,1-.034-.01,2.582,2.582,0,0,1-.236-.173,2.03,2.03,0,0,0-.5-.086l-.14-.01c-.308-.02-.55-.044-.643-.156a1.652,1.652,0,0,1-.322-.915c.007-.043,0-.073-.011-.085s-.1-.006-.135.007a.061.061,0,0,1-.04,0,1.714,1.714,0,0,1-.752-.476c-.094-.13-.125-.129-.189-.129a.537.537,0,0,1-.331-.1,2.192,2.192,0,0,0-.244-.13.39.39,0,0,1-.277-.32.539.539,0,0,1,.01-.283.325.325,0,0,0-.044-.3l-.038-.065c-.153-.261-.192-.372.082-.763a.06.06,0,1,1,.1.069c-.243.348-.208.408-.076.633l.038.066a.441.441,0,0,1,.057.387.422.422,0,0,0-.009.227c.036.155.076.174.211.238a2.2,2.2,0,0,1,.257.137.421.421,0,0,0,.265.084c.1,0,.168.01.289.18a1.57,1.57,0,0,0,.672.425.267.267,0,0,1,.233.02.2.2,0,0,1,.054.2,1.559,1.559,0,0,0,.3.818c.067.081.363.1.558.113l.144.01a1.637,1.637,0,0,1,.574.12,2.57,2.57,0,0,0,.217.158.061.061,0,0,1,.017.084.061.061,0,0,1-.05.027" transform="translate(-47.681 -32.131)" fill="#1f0d08"/>
        <path id="Trazado_878240" data-name="Trazado 878240" d="M117.894,56.932l-.016,0c-.01,0-.251-.073-.631-.579a1.459,1.459,0,0,0-.172-.2.076.076,0,0,1-.056.036c-.046.007-.08-.027-.122-.079s-.065-.087-.1-.135a.84.84,0,0,0-.561-.441.06.06,0,0,1-.053-.066.059.059,0,0,1,.066-.053.946.946,0,0,1,.647.49c.033.047.064.091.095.13l.009.011a.081.081,0,0,1,.052-.027c.058-.006.118.034.291.265.349.465.564.534.567.535a.06.06,0,0,1,.041.074.059.059,0,0,1-.057.044" transform="translate(-57.885 -27.606)" fill="#1f0d08"/>
        <path id="Trazado_878241" data-name="Trazado 878241" d="M109.981,45.2a.055.055,0,0,1-.025-.006c-.178-.081-.214-.17-.286-.346-.032-.078-.071-.174-.134-.3-.1-.2-.123-.2-.16-.2a.379.379,0,0,1-.281-.137c-.046-.042-.084-.064-.107-.061-.039,0-.084.074-.137.155a1.249,1.249,0,0,1-.384.408.061.061,0,0,1-.083-.02.06.06,0,0,1,.02-.083,1.119,1.119,0,0,0,.347-.372c.072-.11.129-.2.223-.208a.259.259,0,0,1,.2.092c.112.1.159.1.2.1.1,0,.155.039.266.263.066.13.106.23.139.309.069.17.09.221.225.282a.06.06,0,0,1-.025.115" transform="translate(-53.994 -21.938)" fill="#1f0d08"/>
        <path id="Trazado_878242" data-name="Trazado 878242" d="M98.389,48.729a.064.064,0,0,1-.034-.01l-.309-.206a.725.725,0,0,1-.116-.1A2.1,2.1,0,0,0,97.189,48a.06.06,0,0,1,.048-.11,2.192,2.192,0,0,1,.778.439.62.62,0,0,0,.1.082l.309.206a.061.061,0,0,1,.017.084.061.061,0,0,1-.05.027" transform="translate(-48.403 -23.858)" fill="#1f0d08"/>
        <path id="Trazado_878243" data-name="Trazado 878243" d="M113.7,69.525a7.277,7.277,0,0,0,2.8.232c-.361.784-1.212.655-2.8-.232" transform="translate(-56.649 -34.638)" fill="#fff"/>
        <g id="Grupo_1102070" data-name="Grupo 1102070" transform="translate(54.982 31.917)" style="mix-blend-mode: screen;isolation: isolate">
          <g id="Grupo_1102069" data-name="Grupo 1102069">
            <g id="Grupo_1102068" data-name="Grupo 1102068" clip-path="url(#clip-path-17)">
              <path id="Trazado_878244" data-name="Trazado 878244" d="M109.572,63.619c0,.611.7,1.1,1.565,1.1s1.559-.5,1.556-1.113Z" transform="translate(-109.572 -63.606)" fill="#8f8f8f"/>
            </g>
          </g>
        </g>
        <g id="Grupo_1102073" data-name="Grupo 1102073" transform="translate(59.198 31.901)" style="mix-blend-mode: screen;isolation: isolate">
          <g id="Grupo_1102072" data-name="Grupo 1102072">
            <g id="Grupo_1102071" data-name="Grupo 1102071" clip-path="url(#clip-path-18)">
              <path id="Trazado_878245" data-name="Trazado 878245" d="M117.975,63.587a1.3,1.3,0,0,0,2.572-.011Z" transform="translate(-117.975 -63.576)" fill="#8f8f8f"/>
            </g>
          </g>
        </g>
        <path id="Trazado_878246" data-name="Trazado 878246" d="M111.085,64.72c-.89,0-1.616-.513-1.618-1.153a.053.053,0,0,1,.052-.053l3.122-.013a.053.053,0,0,1,.053.053c0,.639-.719,1.163-1.608,1.166m-1.511-1.1c.042.556.7,1,1.51,1s1.465-.451,1.5-1.008Z" transform="translate(-54.538 -31.637)" fill="#fff"/>
        <path id="Trazado_878247" data-name="Trazado 878247" d="M119.214,64.689a1.261,1.261,0,0,1-1.344-1.154.053.053,0,0,1,.053-.053l2.573-.011a.052.052,0,0,1,.053.053,1.261,1.261,0,0,1-1.334,1.165m-1.237-1.1a1.258,1.258,0,0,0,2.464-.011Z" transform="translate(-58.725 -31.622)" fill="#fff"/>
        <path id="Trazado_878248" data-name="Trazado 878248" d="M115.531,64.173a.053.053,0,0,1-.043-.022.052.052,0,0,1,.012-.073,1.016,1.016,0,0,1,1.351-.037.053.053,0,0,1-.009.074.053.053,0,0,1-.074-.009c-.2-.247-.714-.3-1.206.057a.054.054,0,0,1-.031.01" transform="translate(-57.533 -31.789)" fill="#fff"/>
        <path id="Trazado_878249" data-name="Trazado 878249" d="M105.319,64.309a.053.053,0,0,1-.017-.1l2.108-.675a.052.052,0,0,1,.066.034.053.053,0,0,1-.034.066l-2.108.675-.016,0" transform="translate(-52.445 -31.65)" fill="#fff"/>
        <path id="Trazado_878250" data-name="Trazado 878250" d="M103.906,64.958a1.33,1.33,0,1,1-1.525-1.1,1.33,1.33,0,0,1,1.525,1.1" transform="translate(-50.451 -31.806)" fill="#ab472a"/>
        <g id="Grupo_1102076" data-name="Grupo 1102076" transform="translate(51.49 32.526)" style="mix-blend-mode: multiply;isolation: isolate">
          <g id="Grupo_1102075" data-name="Grupo 1102075">
            <g id="Grupo_1102074" data-name="Grupo 1102074" clip-path="url(#clip-path-19)">
              <path id="Trazado_878251" data-name="Trazado 878251" d="M103.7,66.2l-.011,0a.331.331,0,0,1-.259-.336.406.406,0,0,1,.359-.367.719.719,0,0,0-.361-.512.821.821,0,0,0-.744.057.048.048,0,0,1-.064-.021.047.047,0,0,1,.021-.064.914.914,0,0,1,.829-.058.828.828,0,0,1,.421.627.047.047,0,0,1-.008.036.047.047,0,0,1-.031.02c-.235.038-.324.173-.328.286a.238.238,0,0,0,.186.24.048.048,0,0,1-.011.094" transform="translate(-102.613 -64.82)" fill="#a1a1a1"/>
            </g>
          </g>
        </g>
        <path id="Trazado_878252" data-name="Trazado 878252" d="M105.223,68.6a.509.509,0,1,1-.509-.509.509.509,0,0,1,.509.509" transform="translate(-51.916 -33.925)" fill="#fff"/>
        <path id="Trazado_878253" data-name="Trazado 878253" d="M91.318,77.615,89.4,79.643l-5.957,2.6a5.714,5.714,0,0,0-3.326,4.146c-2.32,11.917-2.6,35.387-2.6,35.387l1.223.076,6.7,1.575h7.81c3.3-4.62,4.73-19.91,2.86-25.96Z" transform="translate(-38.62 -38.669)" fill="#d1cee3"/>
        <path id="Trazado_878254" data-name="Trazado 878254" d="M78.168,169.038l5.943.54-.5,4.353a15.893,15.893,0,0,1,1.318,3.694,6.03,6.03,0,0,0-.039,3.529.661.661,0,0,1-.485.8.665.665,0,0,1-.316,0,.655.655,0,0,1-.4-.289,10.462,10.462,0,0,1-1.015-2.177l-3.6,5.537a.663.663,0,0,1-1,.127L78,185.079a.663.663,0,0,1-.156-.76l1.392-3.085-2.14,3.135a.663.663,0,0,1-1.154-.641l1.563-3.536-1.723,2.791a.586.586,0,0,1-.88.139.587.587,0,0,1-.139-.723l1.638-3.1-1.089,1.444a.52.52,0,0,1-.922-.2.533.533,0,0,1,.007-.257c.6-2.17,3.44-5.461,3.44-5.461Z" transform="translate(-37.056 -84.217)" fill="#ba593c"/>
        <g id="Grupo_1102079" data-name="Grupo 1102079" transform="translate(40.453 95.215)" style="mix-blend-mode: multiply;isolation: isolate">
          <g id="Grupo_1102078" data-name="Grupo 1102078">
            <g id="Grupo_1102077" data-name="Grupo 1102077" clip-path="url(#clip-path-20)">
              <path id="Trazado_878255" data-name="Trazado 878255" d="M80.733,190.371a.075.075,0,0,1-.106-.1l.268-.48a.075.075,0,1,1,.131.074l-.268.479a.075.075,0,0,1-.025.027" transform="translate(-80.618 -189.753)" fill="#a1a1a1"/>
            </g>
          </g>
        </g>
        <g id="Grupo_1102082" data-name="Grupo 1102082" transform="translate(42.246 96.507)" style="mix-blend-mode: multiply;isolation: isolate">
          <g id="Grupo_1102081" data-name="Grupo 1102081">
            <g id="Grupo_1102080" data-name="Grupo 1102080" clip-path="url(#clip-path-21)">
              <path id="Trazado_878256" data-name="Trazado 878256" d="M84.307,192.745a.075.075,0,0,1-.106-.1l.152-.278a.075.075,0,0,1,.131.074l-.152.277a.075.075,0,0,1-.025.027" transform="translate(-84.192 -192.328)" fill="#a1a1a1"/>
            </g>
          </g>
        </g>
        <g id="Grupo_1102085" data-name="Grupo 1102085" transform="translate(42.526 95.791)" style="mix-blend-mode: multiply;isolation: isolate">
          <g id="Grupo_1102084" data-name="Grupo 1102084">
            <g id="Grupo_1102083" data-name="Grupo 1102083" clip-path="url(#clip-path-20)">
              <path id="Trazado_878257" data-name="Trazado 878257" d="M84.864,191.519a.075.075,0,0,1-.106-.1l.268-.48a.075.075,0,1,1,.131.074l-.268.479a.075.075,0,0,1-.025.027" transform="translate(-84.749 -190.901)" fill="#a1a1a1"/>
            </g>
          </g>
        </g>
        <path id="Trazado_878258" data-name="Trazado 878258" d="M87.538,189.444a.411.411,0,0,1-.362.113.556.556,0,0,1-.395-.473.075.075,0,1,1,.147-.034c.047.2.148.334.277.359a.268.268,0,0,0,.269-.121.075.075,0,1,1,.123.086.5.5,0,0,1-.06.07" transform="translate(-43.235 -94.159)" fill="#ab472a"/>
        <path id="Trazado_878259" data-name="Trazado 878259" d="M85.081,187.85a.411.411,0,0,1-.362.113.557.557,0,0,1-.395-.473.076.076,0,0,1,.057-.09.075.075,0,0,1,.09.057c.047.2.148.334.277.359a.268.268,0,0,0,.269-.121.075.075,0,0,1,.123.086.5.5,0,0,1-.06.07" transform="translate(-42.011 -93.365)" fill="#ab472a"/>
        <path id="Trazado_878260" data-name="Trazado 878260" d="M82.116,186.281a.41.41,0,0,1-.361.113.556.556,0,0,1-.4-.473.075.075,0,1,1,.147-.034c.047.2.148.334.277.359a.268.268,0,0,0,.269-.121.075.075,0,0,1,.123.086.5.5,0,0,1-.06.07" transform="translate(-40.533 -92.583)" fill="#ab472a"/>
        <path id="Trazado_878261" data-name="Trazado 878261" d="M80.038,185.089a.411.411,0,0,1-.362.113.557.557,0,0,1-.395-.473.076.076,0,0,1,.057-.09.075.075,0,0,1,.09.057c.047.2.148.334.277.359a.268.268,0,0,0,.269-.121.075.075,0,1,1,.123.086.5.5,0,0,1-.06.07" transform="translate(-39.498 -91.989)" fill="#ab472a"/>
        <g id="Grupo_1102088" data-name="Grupo 1102088" transform="translate(40.99 84.821)" style="mix-blend-mode: multiply;isolation: isolate">
          <g id="Grupo_1102087" data-name="Grupo 1102087">
            <g id="Grupo_1102086" data-name="Grupo 1102086" clip-path="url(#clip-path-23)">
              <path id="Trazado_878262" data-name="Trazado 878262" d="M87.754,169.578l-5.943-.54-.123,2.136c.943-.444,3.741-1.625,6.021-1.2Z" transform="translate(-81.688 -169.038)" fill="#a1a1a1"/>
            </g>
          </g>
        </g>
        <rect id="Rectángulo_402625" data-name="Rectángulo 402625" width="7.48" height="2.365" transform="translate(40.12 83.18)" fill="#fff"/>
        <path id="Trazado_878263" data-name="Trazado 878263" d="M137.64,105.469a15.183,15.183,0,0,1-2.783,8.8l-3.732,5.279-4.951-5.942a44.046,44.046,0,0,1-3.959-16.28l-4.66-18.878,2.13,1.168,4.508,1.548a9.171,9.171,0,0,1,5.212,4.52l6.586,12.941a15.177,15.177,0,0,1,1.649,6.844" transform="translate(-58.568 -39.084)" fill="#d1cee3"/>
        <g id="Grupo_1102091" data-name="Grupo 1102091" transform="translate(43.341 45.969)" style="mix-blend-mode: multiply;isolation: isolate">
          <g id="Grupo_1102090" data-name="Grupo 1102090">
            <g id="Grupo_1102089" data-name="Grupo 1102089" clip-path="url(#clip-path-24)">
              <path id="Trazado_878264" data-name="Trazado 878264" d="M90.069,126.776h0a.12.12,0,0,1-.119-.121c0-.173.165-17.379.165-22.109,0-4.907-1.688-8.682-3.727-12.761a.12.12,0,1,1,.215-.108c2.053,4.107,3.753,7.91,3.753,12.869,0,4.731-.164,21.938-.165,22.111a.121.121,0,0,1-.12.119" transform="translate(-86.374 -91.611)" fill="#ababab"/>
            </g>
          </g>
        </g>
        <path id="Trazado_878265" data-name="Trazado 878265" d="M110.873,113.3a.12.12,0,0,1-.105-.062l-2.99-5.446a.12.12,0,0,1,.211-.115l2.99,5.446a.12.12,0,0,1-.048.163.114.114,0,0,1-.058.015" transform="translate(-53.689 -53.614)" fill="#fff"/>
        <path id="Trazado_878266" data-name="Trazado 878266" d="M101.51,92.264a.12.12,0,0,1-.105-.062l-2.217-4.039a.12.12,0,0,1,0-.12l1.188-1.98-1.911-1.831a.12.12,0,0,1-.007-.167l1.237-1.4a.12.12,0,1,1,.181.159l-1.161,1.316,1.9,1.817a.12.12,0,0,1,.02.149l-1.2,2,2.184,3.978a.121.121,0,0,1-.105.178" transform="translate(-49.039 -41.164)" fill="#fff"/>
        <path id="Trazado_878267" data-name="Trazado 878267" d="M124.373,97.717a.12.12,0,0,1-.12-.119l-.082-11.484-2.42-1.532a.122.122,0,0,1-.056-.094.12.12,0,0,1,.043-.1l1.381-1.151-1.469-1.392a.12.12,0,1,1,.166-.175l1.568,1.485a.12.12,0,0,1-.006.18l-1.358,1.132,2.335,1.479a.119.119,0,0,1,.056.1l.082,11.55a.12.12,0,0,1-.119.121Z" transform="translate(-60.59 -40.672)" fill="#fff"/>
        <g id="Grupo_1102094" data-name="Grupo 1102094" transform="translate(68.118 53.504)" style="mix-blend-mode: multiply;isolation: isolate">
          <g id="Grupo_1102093" data-name="Grupo 1102093">
            <g id="Grupo_1102092" data-name="Grupo 1102092" clip-path="url(#clip-path-25)">
              <path id="Trazado_878268" data-name="Trazado 878268" d="M136.45,127.823a.124.124,0,0,1-.027,0,.121.121,0,0,1-.09-.145l2.155-9.273a8.4,8.4,0,0,0-.271-4.735l-2.457-6.879a.12.12,0,0,1,.227-.081l2.457,6.879a8.638,8.638,0,0,1,.28,4.87l-2.155,9.273a.121.121,0,0,1-.117.093" transform="translate(-135.752 -106.627)" fill="#ababab"/>
            </g>
          </g>
        </g>
        <g id="Grupo_1102097" data-name="Grupo 1102097" transform="translate(71.831 62.824)" style="mix-blend-mode: multiply;isolation: isolate">
          <g id="Grupo_1102096" data-name="Grupo 1102096">
            <g id="Grupo_1102095" data-name="Grupo 1102095" clip-path="url(#clip-path-26)">
              <path id="Trazado_878269" data-name="Trazado 878269" d="M149.376,129.4a.12.12,0,0,1-.117-.093,6.1,6.1,0,0,0-5.823-3.869l-.162,0a.124.124,0,0,1-.123-.117.12.12,0,0,1,.117-.123l.167,0a6.36,6.36,0,0,1,6.058,4.055.12.12,0,0,1-.089.145.129.129,0,0,1-.028,0" transform="translate(-143.151 -125.202)" fill="#ababab"/>
            </g>
          </g>
        </g>
        <g id="Grupo_1102100" data-name="Grupo 1102100" transform="translate(71.749 61.147)" style="mix-blend-mode: multiply;isolation: isolate">
          <g id="Grupo_1102099" data-name="Grupo 1102099">
            <g id="Grupo_1102098" data-name="Grupo 1102098" clip-path="url(#clip-path-27)">
              <path id="Trazado_878270" data-name="Trazado 878270" d="M148.084,123.366a.12.12,0,0,1-.1-.058,3.244,3.244,0,0,0-4.786-.284.12.12,0,1,1-.177-.163,3.2,3.2,0,0,1,2.762-.983,3.25,3.25,0,0,1,2.407,1.306.12.12,0,0,1-.1.182" transform="translate(-142.987 -121.858)" fill="#ababab"/>
            </g>
          </g>
        </g>
        <path id="Trazado_878271" data-name="Trazado 878271" d="M140.255,153.407l-3.715-2.145a1.485,1.485,0,0,1,1.485-2.572l3.716,2.145a1.485,1.485,0,0,1-1.485,2.572" transform="translate(-67.656 -73.98)" fill="#fff"/>
        <path id="Trazado_878272" data-name="Trazado 878272" d="M134.4,153.083c-.165-1.622,2.667-4.455,2.667-4.455l3.975,2.275c.04,1.9-2.93,7.1-2.93,7.1a12.074,12.074,0,0,1-3.713-4.923" transform="translate(-66.955 -74.049)" fill="#ba593c"/>
        <g id="Grupo_1102103" data-name="Grupo 1102103" transform="translate(57.366 68.024)" style="mix-blend-mode: multiply;isolation: isolate">
          <g id="Grupo_1102102" data-name="Grupo 1102102">
            <g id="Grupo_1102101" data-name="Grupo 1102101" clip-path="url(#clip-path-28)">
              <path id="Trazado_878273" data-name="Trazado 878273" d="M114.444,152.194l-.018,0a.12.12,0,0,1-.1-.136l1.43-9.68a.122.122,0,0,1,.075-.094l1.029-.411.326-6.193a.118.118,0,0,1,.126-.114.12.12,0,0,1,.113.126l-.33,6.27a.121.121,0,0,1-.075.105l-1.036.414-1.42,9.612a.121.121,0,0,1-.119.1" transform="translate(-114.324 -135.564)" fill="#ababab"/>
            </g>
          </g>
        </g>
        <g id="Grupo_1102106" data-name="Grupo 1102106" transform="translate(59.731 75.499)" style="mix-blend-mode: multiply;isolation: isolate">
          <g id="Grupo_1102105" data-name="Grupo 1102105">
            <g id="Grupo_1102104" data-name="Grupo 1102104" clip-path="url(#clip-path-29)">
              <path id="Trazado_878274" data-name="Trazado 878274" d="M125.482,151.586a.119.119,0,0,1-.052-.012,10.665,10.665,0,0,0-6.246-.651.121.121,0,0,1-.055-.235,10.924,10.924,0,0,1,6.4.668.12.12,0,0,1-.052.229" transform="translate(-119.037 -150.46)" fill="#ababab"/>
            </g>
          </g>
        </g>
        <g id="Grupo_1102109" data-name="Grupo 1102109" transform="translate(59.346 76.219)" style="mix-blend-mode: multiply;isolation: isolate">
          <g id="Grupo_1102108" data-name="Grupo 1102108">
            <g id="Grupo_1102107" data-name="Grupo 1102107" clip-path="url(#clip-path-30)">
              <path id="Trazado_878275" data-name="Trazado 878275" d="M121.415,153.346a.123.123,0,0,1-.068-.021,12.867,12.867,0,0,0-2.992-1.194.12.12,0,0,1,.071-.23,12.694,12.694,0,0,1,3.058,1.226.12.12,0,0,1-.069.219" transform="translate(-118.27 -151.895)" fill="#ababab"/>
            </g>
          </g>
        </g>
        <path id="Trazado_878276" data-name="Trazado 878276" d="M137.918,161.148a.119.119,0,0,1-.039-.007c-1.847-.635-4.308-3.474-5.028-6.688a.12.12,0,0,1,.235-.053c.692,3.089,3.123,5.912,4.872,6.513a.12.12,0,0,1-.039.234" transform="translate(-66.186 -76.878)" fill="#353f4f"/>
        <path id="Trazado_878277" data-name="Trazado 878277" d="M355.48,265.675h-5.087a.361.361,0,1,1,0-.722h5.087a.361.361,0,1,1,0,.722" transform="translate(-174.391 -132.004)" fill="#947675"/>
        <path id="Trazado_878278" data-name="Trazado 878278" d="M325.237,257.257h-10.11a.361.361,0,0,1-.27-.121l-7.536-8.478a.361.361,0,0,1,.54-.48l7.428,8.357h9.948a.361.361,0,1,1,0,.722" transform="translate(-153.066 -123.586)" fill="#947675"/>
        <path id="Trazado_878279" data-name="Trazado 878279" d="M217.291,147.216a.36.36,0,0,1-.255-.106l-5.864-5.864a.361.361,0,1,1,.511-.51l5.864,5.864a.361.361,0,0,1-.255.616" transform="translate(-105.156 -70.064)" fill="#947675"/>
        <path id="Trazado_878280" data-name="Trazado 878280" d="M186.653,135.657a.36.36,0,0,1-.255-.106l-2.037-2.037H165.293a.361.361,0,1,1,0-.722H184.51a.361.361,0,0,1,.255.106l2.143,2.143a.361.361,0,0,1-.255.616" transform="translate(-82.172 -66.159)" fill="#947675"/>
        <path id="Trazado_878281" data-name="Trazado 878281" d="M171.3,124.447a2.261,2.261,0,1,1-2.261-2.261,2.261,2.261,0,0,1,2.261,2.261" transform="translate(-83.091 -60.875)" fill="#ffc894"/>
        <path id="Trazado_878282" data-name="Trazado 878282" d="M188.4,126.7h-7.065a1.319,1.319,0,1,1,0-2.637H188.4a1.319,1.319,0,1,1,0,2.637" transform="translate(-89.685 -61.81)" fill="#ffc894"/>
        <rect id="Rectángulo_402633" data-name="Rectángulo 402633" width="2.01" height="2.01" transform="translate(83.499 71.139)" fill="#fff"/>
        <path id="Trazado_878283" data-name="Trazado 878283" d="M178.291,143.781h-3.156a.848.848,0,0,1,0-1.7h3.156a.848.848,0,1,1,0,1.7" transform="translate(-86.833 -70.789)" fill="#fff"/>
        <path id="Trazado_878284" data-name="Trazado 878284" d="M192.052,143.781h-5.778a.847.847,0,0,1-.848-.848h0a.847.847,0,0,1,.848-.848h5.778a.848.848,0,0,1,.848.848h0a.848.848,0,0,1-.848.848" transform="translate(-92.383 -70.789)" fill="#fff"/>
        <path id="Trazado_878285" data-name="Trazado 878285" d="M348.674,247.012h-10.45a1.2,1.2,0,0,1,0-2.4h10.45a1.2,1.2,0,0,1,0,2.4" transform="translate(-167.91 -121.867)" fill="#fff"/>
        <path id="Trazado_878286" data-name="Trazado 878286" d="M356.475,258.63h-18.25a1.2,1.2,0,1,1,0-2.4h18.25a1.2,1.2,0,0,1,0,2.4" transform="translate(-167.91 -127.656)" fill="#fff"/>
        <path id="Trazado_878287" data-name="Trazado 878287" d="M372.219,250.947h-1.949a.122.122,0,1,1,0-.245h1.949a.122.122,0,0,1,0,.245" transform="translate(-184.413 -124.903)" fill="#947675"/>
        <path id="Trazado_878288" data-name="Trazado 878288" d="M352.295,250.947H338.809a.122.122,0,1,1,0-.245h13.485a.122.122,0,0,1,0,.245" transform="translate(-168.739 -124.903)" fill="#947675"/>
        <path id="Trazado_878289" data-name="Trazado 878289" d="M330.486,272.248a1.319,1.319,0,1,1-1.319-1.319,1.319,1.319,0,0,1,1.319,1.319" transform="translate(-163.339 -134.981)" fill="#ffc894"/>
        <path id="Trazado_878290" data-name="Trazado 878290" d="M341.049,273.563H338.38a.958.958,0,0,1,0-1.915h2.669a.958.958,0,1,1,0,1.915" transform="translate(-168.109 -135.339)" fill="#fff"/>
        <path id="Trazado_878291" data-name="Trazado 878291" d="M330.486,282.322A1.319,1.319,0,1,1,329.168,281a1.319,1.319,0,0,1,1.319,1.319" transform="translate(-163.339 -140)" fill="#ffc894"/>
        <path id="Trazado_878292" data-name="Trazado 878292" d="M347.455,283.638h-9.074a.958.958,0,1,1,0-1.915h9.074a.958.958,0,1,1,0,1.915" transform="translate(-168.109 -140.359)" fill="#fff"/>
        <path id="Trazado_878293" data-name="Trazado 878293" d="M327.22,252.88h-3.5a1.12,1.12,0,0,1-1.118-1.118v-3.5a1.12,1.12,0,0,1,1.118-1.118h3.5a1.119,1.119,0,0,1,1.118,1.118v3.5a1.119,1.119,0,0,1-1.118,1.118m-3.5-5.369a.752.752,0,0,0-.751.751v3.5a.752.752,0,0,0,.751.751h3.5a.752.752,0,0,0,.751-.751v-3.5a.752.752,0,0,0-.751-.751Z" transform="translate(-160.725 -123.131)" fill="#ffc894"/>
        <path id="Trazado_878294" data-name="Trazado 878294" d="M326.42,252.271a.184.184,0,0,1-.13-.054l-1.246-1.246a.184.184,0,1,1,.259-.26l1.116,1.116,1.716-1.716a.184.184,0,0,1,.26.26l-1.846,1.846a.183.183,0,0,1-.13.054" transform="translate(-161.915 -124.583)" fill="#e05745"/>
      </g>
    </g>
  </g>
</svg>
