<svg xmlns="http://www.w3.org/2000/svg" xmlns:xlink="http://www.w3.org/1999/xlink" width="82" height="82" viewBox="0 0 82 82">
  <defs>
    <clipPath id="clip-path">
      <rect id="Rectángulo_402573" data-name="Rectángulo 402573" width="48" height="48" transform="translate(0 0.477)" fill="none"/>
    </clipPath>
    <clipPath id="clip-path-3">
      <rect id="Rectángulo_402566" data-name="Rectángulo 402566" width="11.075" height="27.528" fill="none"/>
    </clipPath>
    <clipPath id="clip-path-4">
      <rect id="Rectángulo_402568" data-name="Rectángulo 402568" width="13.106" height="27.528" fill="none"/>
    </clipPath>
    <clipPath id="clip-path-5">
      <rect id="Rectángulo_402569" data-name="Rectángulo 402569" width="4.566" height="15.087" fill="none"/>
    </clipPath>
    <clipPath id="clip-path-6">
      <rect id="Rectángulo_402571" data-name="Rectángulo 402571" width="2.117" height="12.371" fill="none"/>
    </clipPath>
  </defs>
  <g id="Grupo_1102022" data-name="Grupo 1102022" transform="translate(-767.051 -4919.309)">
    <g id="Grupo_1099651" data-name="Grupo 1099651" transform="translate(-181.282 4477.31)">
      <circle id="Elipse_11497" data-name="Elipse 11497" cx="41" cy="41" r="41" transform="translate(948.333 441.999)" fill="#fff"/>
    </g>
    <g id="Grupo_1101947" data-name="Grupo 1101947" transform="translate(784.051 4935.523)">
      <g id="Grupo_1101946" data-name="Grupo 1101946" clip-path="url(#clip-path)">
        <g id="Grupo_1101945" data-name="Grupo 1101945">
          <g id="Grupo_1101944" data-name="Grupo 1101944" clip-path="url(#clip-path)">
            <path id="Trazado_877887" data-name="Trazado 877887" d="M71.453,58.5a10.045,10.045,0,1,0-17.146-7.1c0,.068,0,.133,0,.2L52.368,54.87a.681.681,0,0,0,.5,1.023l1.295.154V57.6a.44.44,0,0,0,.438.441v.363a1.2,1.2,0,0,0,.264.749l.483.59-.177.645a1.492,1.492,0,0,0,1.438,1.887h2.972v6.6h10.34V59.755A10.077,10.077,0,0,0,71.453,58.5" transform="translate(-26.415 -20.896)" fill="#e4e8eb"/>
            <path id="Trazado_877888" data-name="Trazado 877888" d="M3.944,58.5A10.045,10.045,0,1,1,21.09,51.4c0,.068,0,.133,0,.2l1.942,3.273a.681.681,0,0,1-.5,1.023l-1.295.154V57.6a.44.44,0,0,1-.438.441v.363a1.2,1.2,0,0,1-.264.749l-.483.59.177.645a1.492,1.492,0,0,1-1.438,1.887H15.813v6.6H5.473V59.755A10.077,10.077,0,0,1,3.944,58.5" transform="translate(-0.505 -20.896)" fill="#e4e8eb"/>
            <g id="Grupo_1101934" data-name="Grupo 1101934" transform="translate(36.906 20.454)" opacity="0.1">
              <g id="Grupo_1101933" data-name="Grupo 1101933">
                <g id="Grupo_1101932" data-name="Grupo 1101932" clip-path="url(#clip-path-3)">
                  <path id="Trazado_877889" data-name="Trazado 877889" d="M85.685,51.4a10.007,10.007,0,0,1-2.943,7.1,10.645,10.645,0,0,1-1.528,1.256v9.122H79.146V59.756A10.38,10.38,0,0,0,80.675,58.5,10.049,10.049,0,0,0,74.61,41.4c.341-.03.683-.049,1.029-.049A10.045,10.045,0,0,1,85.685,51.4" transform="translate(-74.61 -41.35)"/>
                </g>
              </g>
            </g>
            <g id="Grupo_1101937" data-name="Grupo 1101937" transform="translate(9.512 20.454)" opacity="0.1">
              <g id="Grupo_1101936" data-name="Grupo 1101936">
                <g id="Grupo_1101935" data-name="Grupo 1101935" clip-path="url(#clip-path-4)">
                  <rect id="Rectángulo_402567" data-name="Rectángulo 402567" width="2.068" height="6.599" transform="translate(3.73 20.929)"/>
                  <path id="Trazado_877890" data-name="Trazado 877890" d="M31.74,55.893l-1.3.153V57.6a.441.441,0,0,1-.44.44v.361a1.208,1.208,0,0,1-.262.752l-.485.589.178.643A1.493,1.493,0,0,1,28,62.279H25.933a1.5,1.5,0,0,0,1.439-1.89l-.178-.643.48-.589a1.184,1.184,0,0,0,.267-.752v-.361a.437.437,0,0,0,.435-.44V56.046l1.3-.153a.682.682,0,0,0,.5-1.024l-1.944-3.275c0-.064,0-.129,0-.2a10.054,10.054,0,0,0-9.008-10c.341-.03.683-.049,1.029-.049A10.044,10.044,0,0,1,30.3,51.4v.2l1.939,3.275a.68.68,0,0,1-.5,1.024" transform="translate(-19.23 -41.35)"/>
                </g>
              </g>
            </g>
            <path id="Trazado_877891" data-name="Trazado 877891" d="M69.419,68.868H59.079a.494.494,0,0,1-.495-.495v-6.1H56.106a1.986,1.986,0,0,1-1.914-2.513l.109-.4-.321-.392A1.7,1.7,0,0,1,53.6,57.9v-.01a.937.937,0,0,1-.438-.793V55.981l-.859-.1a1.176,1.176,0,0,1-.87-1.766l1.87-3.152v-.069A10.538,10.538,0,1,1,69.913,59.51v8.863a.494.494,0,0,1-.495.495m-9.845-.989h9.351V59.25a.5.5,0,0,1,.22-.412A9.592,9.592,0,0,0,70.6,57.645a9.55,9.55,0,1,0-16.3-6.754c0,.062,0,.121,0,.184a.492.492,0,0,1-.069.27l-1.942,3.273a.179.179,0,0,0-.007.176.182.182,0,0,0,.145.1l1.293.154a.494.494,0,0,1,.436.491v1.508a.5.5,0,0,1,.438.492V57.9a.709.709,0,0,0,.155.44l.48.586a.494.494,0,0,1,.094.445l-.177.645a1,1,0,0,0,.961,1.261h2.973a.494.494,0,0,1,.495.495Zm11.375-9.883h0Z" transform="translate(-25.91 -20.391)"/>
            <path id="Trazado_877892" data-name="Trazado 877892" d="M15.308,68.868H4.968a.494.494,0,0,1-.495-.495V59.51a10.589,10.589,0,0,1-1.385-1.165,10.54,10.54,0,1,1,17.991-7.454v.069l1.87,3.152a1.175,1.175,0,0,1-.869,1.765l-.861.1V57.1a.935.935,0,0,1-.438.793V57.9a1.7,1.7,0,0,1-.372,1.058l-.324.4.109.4a1.986,1.986,0,0,1-1.914,2.513H15.8v6.1a.494.494,0,0,1-.495.495m-9.845-.989h9.351v-6.1a.5.5,0,0,1,.495-.495h2.973a1,1,0,0,0,.961-1.261l-.177-.644a.5.5,0,0,1,.094-.445l.483-.59a.7.7,0,0,0,.151-.435v-.363a.5.5,0,0,1,.438-.492V55.541a.5.5,0,0,1,.436-.492l1.295-.154a.184.184,0,0,0,.144-.1.181.181,0,0,0-.007-.177l-1.942-3.273a.494.494,0,0,1-.069-.27c0-.062,0-.122,0-.184A9.549,9.549,0,1,0,5.243,58.838a.5.5,0,0,1,.22.412Z" transform="translate(0 -20.391)"/>
            <path id="Trazado_877893" data-name="Trazado 877893" d="M58.634,9.628V21.993H56.478v2.723l-2.717-2.723H41.452V17.731h7.467v-8.1Z" transform="translate(-20.947 -4.866)" fill="#fbd277"/>
            <g id="Grupo_1101940" data-name="Grupo 1101940" transform="translate(33.122 4.763)" opacity="0.1">
              <g id="Grupo_1101939" data-name="Grupo 1101939">
                <g id="Grupo_1101938" data-name="Grupo 1101938" clip-path="url(#clip-path-5)">
                  <path id="Trazado_877894" data-name="Trazado 877894" d="M71.526,9.63V22H69.369v2.721L66.96,22.3V22h2.152V9.63Z" transform="translate(-66.96 -9.63)"/>
                </g>
              </g>
            </g>
            <path id="Trazado_877895" data-name="Trazado 877895" d="M55.973,24.706a.494.494,0,0,1-.35-.145L53.05,21.982h-12.1a.494.494,0,0,1-.495-.495V17.226a.494.494,0,0,1,.495-.495h6.973V9.123a.494.494,0,0,1,.495-.495h9.715a.494.494,0,0,1,.495.495V21.488a.494.494,0,0,1-.495.495H56.468v2.229a.495.495,0,0,1-.495.495M41.44,20.993H53.256a.494.494,0,0,1,.35.145l1.872,1.877V21.488a.494.494,0,0,1,.495-.495h1.661V9.617H48.908v7.608a.5.5,0,0,1-.495.495H41.44Z" transform="translate(-20.442 -4.36)"/>
            <path id="Trazado_877896" data-name="Trazado 877896" d="M38.995,1V13.371H26.685l-2.717,2.717V13.371H21.812V1Z" transform="translate(-11.023 -0.505)" fill="#61ddbc"/>
            <g id="Grupo_1101943" data-name="Grupo 1101943" transform="translate(25.856 0.495)" opacity="0.1">
              <g id="Grupo_1101942" data-name="Grupo 1101942">
                <g id="Grupo_1101941" data-name="Grupo 1101941" clip-path="url(#clip-path-6)">
                  <rect id="Rectángulo_402570" data-name="Rectángulo 402570" width="2.117" height="12.371" transform="translate(0 0)"/>
                </g>
              </g>
            </g>
            <path id="Trazado_877897" data-name="Trazado 877897" d="M23.462,16.077a.486.486,0,0,1-.189-.038.5.5,0,0,1-.306-.457V13.36H21.307a.494.494,0,0,1-.495-.495V.495A.494.494,0,0,1,21.307,0H38.489a.494.494,0,0,1,.495.495V12.866a.494.494,0,0,1-.495.495H26.384l-2.573,2.572a.492.492,0,0,1-.349.145M21.8,12.371h1.661a.494.494,0,0,1,.495.495v1.523l1.873-1.873a.492.492,0,0,1,.35-.145H37.994V.989H21.8Z" transform="translate(-10.517)"/>
            <path id="Trazado_877898" data-name="Trazado 877898" d="M38.556,10.107H27.579a.495.495,0,1,1,0-.989H38.556a.495.495,0,0,1,0,.989" transform="translate(-13.687 -4.608)"/>
            <path id="Trazado_877899" data-name="Trazado 877899" d="M32.451,17.307H27.579a.495.495,0,1,1,0-.989h4.872a.495.495,0,1,1,0,.989" transform="translate(-13.687 -8.246)"/>
          </g>
        </g>
      </g>
    </g>
  </g>
</svg>
