<svg xmlns="http://www.w3.org/2000/svg" xmlns:xlink="http://www.w3.org/1999/xlink" width="82" height="82" viewBox="0 0 82 82">
  <defs>
    <clipPath id="clip-path">
      <rect id="Rectángulo_402599" data-name="Rectángulo 402599" width="52.117" height="51.464" fill="none"/>
    </clipPath>
    <clipPath id="clip-path-3">
      <rect id="Rectángulo_402595" data-name="Rectángulo 402595" width="13.252" height="13.003" fill="none"/>
    </clipPath>
    <clipPath id="clip-path-4">
      <rect id="Rectángulo_402596" data-name="Rectángulo 402596" width="11.994" height="22.108" fill="none"/>
    </clipPath>
    <clipPath id="clip-path-5">
      <rect id="Rectángulo_402597" data-name="Rectángulo 402597" width="15.993" height="19.059" fill="none"/>
    </clipPath>
  </defs>
  <g id="Grupo_1102021" data-name="Grupo 1102021" transform="translate(-1095.051 -4919)">
    <g id="Grupo_1099619" data-name="Grupo 1099619" transform="translate(146.718 4477.001)">
      <circle id="Elipse_11497" data-name="Elipse 11497" cx="41" cy="41" r="41" transform="translate(948.333 441.999)" fill="#fff"/>
    </g>
    <g id="Grupo_1102020" data-name="Grupo 1102020" transform="translate(1114.051 4932)">
      <g id="Grupo_1102019" data-name="Grupo 1102019" clip-path="url(#clip-path)">
        <g id="Grupo_1102018" data-name="Grupo 1102018" transform="translate(0 0)">
          <g id="Grupo_1102017" data-name="Grupo 1102017" clip-path="url(#clip-path)">
            <path id="Trazado_878004" data-name="Trazado 878004" d="M42.956,69.381v7.363H1V69.381A14.918,14.918,0,0,1,12.994,54.637l-2.552,2.706,3.218,1.638-1.178,3.16,9.5,5.5,9.5-5.5L30.3,58.981l3.218-1.638-2.553-2.706A14.916,14.916,0,0,1,42.956,69.381" transform="translate(-0.472 -25.808)" fill="#66d4f1"/>
            <g id="Grupo_1102010" data-name="Grupo 1102010" transform="translate(6.272 28.828)" opacity="0.1">
              <g id="Grupo_1102009" data-name="Grupo 1102009">
                <g id="Grupo_1102008" data-name="Grupo 1102008" clip-path="url(#clip-path-3)">
                  <path id="Trazado_878005" data-name="Trazado 878005" d="M17.626,62.138l7.513,4.347-1.99,1.153-9.5-5.5,1.176-3.155-2.938-1.5a14.477,14.477,0,0,1,6.249-2.85l-2.551,2.706L18.8,58.983Z" transform="translate(-11.887 -54.636)"/>
                </g>
              </g>
            </g>
            <g id="Grupo_1102013" data-name="Grupo 1102013" transform="translate(30.492 28.828)" opacity="0.1">
              <g id="Grupo_1102012" data-name="Grupo 1102012">
                <g id="Grupo_1102011" data-name="Grupo 1102011" clip-path="url(#clip-path-4)">
                  <path id="Trazado_878006" data-name="Trazado 878006" d="M69.783,69.379v7.363H65.807V69.379a15.081,15.081,0,0,0-5.745-11.894l.278-.144-2.551-2.706A14.916,14.916,0,0,1,69.783,69.379" transform="translate(-57.789 -54.635)"/>
                </g>
              </g>
            </g>
            <path id="Trazado_878007" data-name="Trazado 878007" d="M42.484,76.8H.528A.527.527,0,0,1,0,76.271V68.908A15.43,15.43,0,0,1,12.424,53.646a.528.528,0,0,1,.482.881L10.836,56.72l2.59,1.318a.53.53,0,0,1,.255.655l-1.022,2.741,8.85,5.124,8.849-5.123-1.028-2.741a.528.528,0,0,1,.254-.656l2.591-1.318-2.069-2.193a.528.528,0,0,1,.482-.881A15.428,15.428,0,0,1,43.012,68.908v7.363a.528.528,0,0,1-.528.528M1.055,75.743h40.9V68.908a14.432,14.432,0,0,0-9.835-13.783l1.305,1.384a.529.529,0,0,1-.145.833l-2.8,1.424L31.5,61.483a.528.528,0,0,1-.23.642l-9.5,5.5a.526.526,0,0,1-.529,0l-9.5-5.5a.528.528,0,0,1-.231-.641l1.014-2.718-2.8-1.424a.528.528,0,0,1-.144-.833l1.3-1.383A14.432,14.432,0,0,0,1.055,68.908Z" transform="translate(0 -25.335)"/>
            <path id="Trazado_878008" data-name="Trazado 878008" d="M40.762,65.377l6.592-15.53L52.3,55.081l-3.217,1.636,1.181,3.162Z" transform="translate(-19.254 -23.545)" fill="#434a54"/>
            <path id="Trazado_878009" data-name="Trazado 878009" d="M40.29,65.433A.528.528,0,0,1,39.8,64.7L46.4,49.169a.527.527,0,0,1,.869-.156l4.944,5.234a.527.527,0,0,1-.144.833l-2.8,1.421,1.016,2.721a.527.527,0,0,1-.23.641l-9.5,5.5a.526.526,0,0,1-.264.071m6.762-15.109-5.66,13.333,7.747-4.484-1.025-2.744a.527.527,0,0,1,.255-.655l2.588-1.315Z" transform="translate(-18.782 -23.073)"/>
            <path id="Trazado_878010" data-name="Trazado 878010" d="M30.436,65.377l-6.592-15.53L18.9,55.081l3.217,1.636-1.181,3.162Z" transform="translate(-8.928 -23.545)" fill="#434a54"/>
            <path id="Trazado_878011" data-name="Trazado 878011" d="M29.963,65.432a.531.531,0,0,1-.264-.071l-9.5-5.5a.528.528,0,0,1-.23-.641L20.985,56.5l-2.8-1.422a.527.527,0,0,1-.144-.833l4.943-5.234a.527.527,0,0,1,.869.156L30.449,64.7a.528.528,0,0,1-.486.733m-8.85-6.259,7.747,4.483L23.2,50.323l-3.9,4.134,2.588,1.316a.527.527,0,0,1,.255.655Z" transform="translate(-8.455 -23.072)"/>
            <path id="Trazado_878012" data-name="Trazado 878012" d="M41.448,49.842,34.859,65.376l-6.6-15.534h.1a9.539,9.539,0,0,0,12.989,0Z" transform="translate(-13.349 -23.543)" fill="#e4e8eb"/>
            <path id="Trazado_878013" data-name="Trazado 878013" d="M34.387,65.431a.527.527,0,0,1-.485-.322L27.3,49.576a.528.528,0,0,1,.485-.734h.1a.529.529,0,0,1,.359.141,9.011,9.011,0,0,0,12.271,0,.527.527,0,0,1,.359-.141h.095a.528.528,0,0,1,.486.734L34.873,65.109a.528.528,0,0,1-.486.322M29.01,50.894l5.376,12.659L39.754,50.9a10.066,10.066,0,0,1-10.744-.006" transform="translate(-12.877 -23.071)"/>
            <path id="Trazado_878014" data-name="Trazado 878014" d="M40.291,88.436a.527.527,0,0,1-.528-.528v-9.1a.528.528,0,1,1,1.055,0v9.1a.527.527,0,0,1-.528.528" transform="translate(-18.782 -36.975)"/>
            <path id="Trazado_878015" data-name="Trazado 878015" d="M41.762,23v4.373a9.527,9.527,0,0,1-16.016,6.97c-.08-.081-.16-.154-.241-.234a9.514,9.514,0,0,1-2.787-6.735V23s.03-3.818,1.938-5.492a2.134,2.134,0,0,1,2.457-.168,11.7,11.7,0,0,0,5.127.863,11.676,11.676,0,0,0,5.127-.863,2.134,2.134,0,0,1,2.457.168C41.733,19.185,41.762,23,41.762,23" transform="translate(-10.731 -8.046)" fill="#f4d0b5"/>
            <path id="Trazado_878016" data-name="Trazado 878016" d="M31.768,36.948a10.052,10.052,0,0,1-6.853-2.693l-.256-.248A10.012,10.012,0,0,1,21.718,26.9V22.525c0-.169.055-4.079,2.118-5.889A2.638,2.638,0,0,1,26.9,16.4a10.964,10.964,0,0,0,4.87.8,10.937,10.937,0,0,0,4.87-.8,2.636,2.636,0,0,1,3.063.233c2.062,1.809,2.116,5.719,2.117,5.884V26.9a10.038,10.038,0,0,1-10.05,10.05M25.484,17.082a1.423,1.423,0,0,0-.952.347c-1.707,1.5-1.759,5.065-1.759,5.1V26.9a8.965,8.965,0,0,0,2.633,6.364l.24.232a8.994,8.994,0,0,0,15.116-6.6v-4.37c0-.086-.065-3.612-1.758-5.1a1.6,1.6,0,0,0-1.854-.1,11.675,11.675,0,0,1-5.383.929,11.707,11.707,0,0,1-5.383-.929,1.859,1.859,0,0,0-.9-.244" transform="translate(-10.258 -7.569)"/>
            <path id="Trazado_878017" data-name="Trazado 878017" d="M41.912,7.942v2.2a10.616,10.616,0,0,1-.366,2.739,8.515,8.515,0,0,1-.321.965,2.764,2.764,0,0,0-.743-.1v1.669c0,.005-.006.005-.006.011s-.027-3.815-1.935-5.49a2.127,2.127,0,0,0-2.457-.172,11.7,11.7,0,0,1-5.129.865,11.726,11.726,0,0,1-5.129-.865,2.127,2.127,0,0,0-2.457.172c-1.907,1.675-1.935,5.49-1.935,5.49s-.006-.006-.006-.011V13.748a2.577,2.577,0,0,0-.748.105A10.411,10.411,0,0,1,20,10.144v-2.2A6.947,6.947,0,0,1,26.947,1h8.018a6.943,6.943,0,0,1,6.948,6.942" transform="translate(-9.446 -0.472)" fill="#434a54"/>
            <path id="Trazado_878018" data-name="Trazado 878018" d="M20.963,15.483h0a.528.528,0,0,1-.484-.321.536.536,0,0,1-.047-.218V13.866l-.07.02a.528.528,0,0,1-.645-.318A10.924,10.924,0,0,1,19,9.671v-2.2A7.481,7.481,0,0,1,26.475,0h8.018a7.481,7.481,0,0,1,7.475,7.469v2.2a11.15,11.15,0,0,1-.384,2.875,9.209,9.209,0,0,1-.342,1.026.527.527,0,0,1-.631.311l-.074-.02v1.08a.537.537,0,0,1-.056.237.529.529,0,0,1-.474.3h0a.528.528,0,0,1-.528-.523c0-.036-.051-3.6-1.756-5.1a1.593,1.593,0,0,0-1.851-.107,11.678,11.678,0,0,1-5.386.931A11.731,11.731,0,0,1,25.1,9.756a1.6,1.6,0,0,0-1.852.1c-1.712,1.5-1.758,5.063-1.758,5.1a.528.528,0,0,1-.528.524M26.475,1.055a6.425,6.425,0,0,0-6.42,6.414v2.2a9.858,9.858,0,0,0,.5,3.1c.046-.006.092-.01.139-.014A6.765,6.765,0,0,1,22.55,9.069a2.633,2.633,0,0,1,3.061-.236,10.983,10.983,0,0,0,4.873.8,10.929,10.929,0,0,0,4.872-.8,2.632,2.632,0,0,1,3.064.237,6.76,6.76,0,0,1,1.856,3.687c.046,0,.093.008.139.014.054-.161.1-.327.151-.5a10.078,10.078,0,0,0,.347-2.6v-2.2a6.424,6.424,0,0,0-6.42-6.414Z" transform="translate(-8.974 0)"/>
            <path id="Trazado_878019" data-name="Trazado 878019" d="M61.68,28.021a2.864,2.864,0,0,1-2.861,2.861V25.16a2.764,2.764,0,0,1,.743.1,2.862,2.862,0,0,1,2.118,2.761" transform="translate(-27.783 -11.884)" fill="#efc7a4"/>
            <path id="Trazado_878020" data-name="Trazado 878020" d="M58.346,30.937a.528.528,0,0,1-.528-.528V24.687a.527.527,0,0,1,.528-.528,3.3,3.3,0,0,1,.885.119,3.388,3.388,0,0,1-.885,6.658m.528-5.661v4.545a2.332,2.332,0,0,0,.079-4.525l-.079-.02" transform="translate(-27.31 -11.412)"/>
            <path id="Trazado_878021" data-name="Trazado 878021" d="M20.15,25.159v5.722a2.858,2.858,0,0,1-.749-5.617,2.566,2.566,0,0,1,.749-.106" transform="translate(-8.166 -11.884)" fill="#efc7a4"/>
            <path id="Trazado_878022" data-name="Trazado 878022" d="M19.677,30.937a3.386,3.386,0,0,1-.883-6.655,3.094,3.094,0,0,1,.883-.122.527.527,0,0,1,.528.528v5.722a.528.528,0,0,1-.528.528m-.528-5.659-.07.02a2.33,2.33,0,0,0,.07,4.524Z" transform="translate(-7.694 -11.412)"/>
            <path id="Trazado_878023" data-name="Trazado 878023" d="M80.6,70.971l.095-3.519-1.8-.364a7.77,7.77,0,0,0-.733-1.9l1.093-1.477-2.438-2.549-1.525,1.029a7.719,7.719,0,0,0-1.863-.818l-.275-1.815-3.525-.069-.369,1.8a1.234,1.234,0,0,0-.132.042,7.036,7.036,0,0,0-1.383.507,3.692,3.692,0,0,0-.38.2l-1.477-1.082-2.554,2.432,1.008,1.525a6.6,6.6,0,0,0-.4.749,7.31,7.31,0,0,0-.423,1.119l-1.815.285-.1,3.525,1.805.359a7.9,7.9,0,0,0,.722,1.894l-1.087,1.483,2.432,2.549,1.535-1.034a7.472,7.472,0,0,0,1.858.823l.274,1.889h3.525l.37-1.8a7.981,7.981,0,0,0,1.9-.739l1.239.913.043.021.2.142,2.548-2.432-1.013-1.535a7.438,7.438,0,0,0,.823-1.857Zm-6.633.992a4.1,4.1,0,0,1-3.218,1.119,4.049,4.049,0,0,1-2.1-.828.559.559,0,0,1-.063-.053,3.674,3.674,0,0,1-.4-.354,4.016,4.016,0,0,1-1.044-2.021,4.07,4.07,0,0,1,.522-2.923,3.849,3.849,0,0,1,.67-.828l.005-.005a4.072,4.072,0,1,1,5.62,5.894" transform="translate(-29.102 -28.1)" fill="#f76c82"/>
            <g id="Grupo_1102016" data-name="Grupo 1102016" transform="translate(35.596 31.389)" opacity="0.1">
              <g id="Grupo_1102015" data-name="Grupo 1102015">
                <g id="Grupo_1102014" data-name="Grupo 1102014" clip-path="url(#clip-path-5)">
                  <path id="Trazado_878024" data-name="Trazado 878024" d="M83.359,70.971l.095-3.519-1.8-.364a7.813,7.813,0,0,0-.733-1.9l1.092-1.477-2.438-2.549-1.224.828L80,63.71l-1.092,1.477a7.791,7.791,0,0,1,.733,1.9l1.8.364-.095,3.519-1.815.285a7.477,7.477,0,0,1-.823,1.857l1.013,1.535-1.678,1.6.908.67.042.021.2.142,2.549-2.432-1.013-1.535a7.477,7.477,0,0,0,.823-1.857Zm-7.171-9.6-.274-1.815-3.525-.069-.011.037,1.52.032.274,1.815a7.719,7.719,0,0,1,1.863.818l.85-.575a6.394,6.394,0,0,0-.7-.243M75.692,76a7.964,7.964,0,0,1-1.9.739l-.369,1.8h2.016l.369-1.8a5.772,5.772,0,0,0,.633-.19ZM71.35,72.2a3.576,3.576,0,0,1-.4-.354,4.017,4.017,0,0,1-1.045-2.021,4.135,4.135,0,0,1,.016-1.652,4.092,4.092,0,0,1,.295-.881,4,4,0,0,1,.211-.39,3.817,3.817,0,0,1,.67-.828l.005-.005a4.037,4.037,0,0,1,1.81-1,4.069,4.069,0,0,0-3.825,1l-.005.005a3.817,3.817,0,0,0-.67.828,4,4,0,0,0-.211.39,4.131,4.131,0,0,0-.311,2.533,4.017,4.017,0,0,0,1.045,2.021,3.576,3.576,0,0,0,.4.354.56.56,0,0,0,.063.053,4.047,4.047,0,0,0,2.095.828,4.132,4.132,0,0,0,1.393-.111,3.986,3.986,0,0,1-1.472-.718.56.56,0,0,1-.063-.053m-3.583,3.636-.306.206.786.828.681-.459a7.2,7.2,0,0,1-1.161-.575" transform="translate(-67.461 -59.489)"/>
                </g>
              </g>
            </g>
            <path id="Trazado_878025" data-name="Trazado 878025" d="M72.2,78.6H68.679a.527.527,0,0,1-.522-.452l-.227-1.56a8.1,8.1,0,0,1-1.363-.605l-1.261.848a.526.526,0,0,1-.676-.073L62.2,74.213a.529.529,0,0,1-.044-.676l.894-1.22a8.451,8.451,0,0,1-.533-1.391l-1.479-.295a.528.528,0,0,1-.425-.532l.1-3.524a.528.528,0,0,1,.445-.507l1.492-.234a7.674,7.674,0,0,1,.352-.876c.083-.182.167-.348.251-.5L62.419,63.2a.528.528,0,0,1,.077-.673L65.049,60.1a.527.527,0,0,1,.675-.043l1.209.886.123-.056a7.508,7.508,0,0,1,1.275-.484l.306-1.487a.526.526,0,0,1,.516-.422h.011l3.524.069a.527.527,0,0,1,.511.449l.226,1.489a8.234,8.234,0,0,1,1.369.6l1.251-.844a.529.529,0,0,1,.676.073l2.437,2.549a.527.527,0,0,1,.043.679l-.9,1.213a8.3,8.3,0,0,1,.54,1.4l1.477.3a.527.527,0,0,1,.423.532l-.095,3.519a.528.528,0,0,1-.445.507l-1.492.234a8.114,8.114,0,0,1-.606,1.371l.831,1.261a.528.528,0,0,1-.076.672l-2.549,2.432a.531.531,0,0,1-.675.045l-.167-.122c-.027-.015-.058-.033-.073-.044l-.976-.719a8.451,8.451,0,0,1-1.4.546l-.3,1.485a.529.529,0,0,1-.517.422m-3.068-1.055h2.637l.283-1.383a.529.529,0,0,1,.394-.407,7.418,7.418,0,0,0,1.773-.69.528.528,0,0,1,.563.039l1.114.82L77.815,74.1l-.77-1.168a.526.526,0,0,1-.007-.569,7.024,7.024,0,0,0,.764-1.728.53.53,0,0,1,.425-.373l1.382-.216.071-2.637-1.365-.276a.529.529,0,0,1-.408-.393,7.22,7.22,0,0,0-.683-1.771.531.531,0,0,1,.039-.568l.828-1.12-1.822-1.906-1.157.78a.53.53,0,0,1-.57.013,7.165,7.165,0,0,0-1.734-.761.528.528,0,0,1-.375-.428L72.223,59.6l-2.64-.052-.282,1.37a.528.528,0,0,1-.392.406.736.736,0,0,0-.071.023.494.494,0,0,1-.06.018,6.437,6.437,0,0,0-1.277.469,3.171,3.171,0,0,0-.345.177.525.525,0,0,1-.578-.03l-1.121-.821-1.915,1.824.765,1.156a.528.528,0,0,1,.008.569,6.318,6.318,0,0,0-.365.692,6.86,6.86,0,0,0-.395,1.046.526.526,0,0,1-.425.374l-1.381.216-.072,2.641,1.369.273a.527.527,0,0,1,.411.4,7.267,7.267,0,0,0,.675,1.766.528.528,0,0,1-.04.561L63.267,73.8l1.819,1.906,1.166-.785a.524.524,0,0,1,.57-.013,6.959,6.959,0,0,0,1.728.765.529.529,0,0,1,.377.432ZM80.123,70.5h0Zm-9.47,2.656q-.214,0-.43-.02a4.579,4.579,0,0,1-2.37-.938.854.854,0,0,1-.08-.065,4.289,4.289,0,0,1-.428-.385,4.559,4.559,0,0,1-1.19-2.294,4.708,4.708,0,0,1,.019-1.862,4.6,4.6,0,0,1,.332-.993,4.448,4.448,0,0,1,.242-.449,4.351,4.351,0,0,1,.755-.933,4.6,4.6,0,1,1,6.351,6.655h0a4.64,4.64,0,0,1-3.2,1.282m.046-8.162a3.555,3.555,0,0,0-2.463.987,3.291,3.291,0,0,0-.586.722,3.58,3.58,0,0,0-.458,2.552A3.5,3.5,0,0,0,68.1,71.01a3.011,3.011,0,0,0,.329.294.6.6,0,0,1,.059.051A3.563,3.563,0,1,0,70.7,64.992m2.792,6.5h0Z" transform="translate(-28.629 -27.627)"/>
          </g>
        </g>
      </g>
    </g>
  </g>
</svg>
