<svg xmlns="http://www.w3.org/2000/svg" xmlns:xlink="http://www.w3.org/1999/xlink" width="82" height="82" viewBox="0 0 82 82">
  <defs>
    <clipPath id="clip-path">
      <rect id="Rectángulo_402584" data-name="Rectángulo 402584" width="45.781" height="57.908" fill="none"/>
    </clipPath>
    <clipPath id="clip-path-3">
      <rect id="Rectángulo_402578" data-name="Rectángulo 402578" width="10.705" height="43.453" fill="none"/>
    </clipPath>
    <clipPath id="clip-path-4">
      <rect id="Rectángulo_402579" data-name="Rectángulo 402579" width="4.731" height="22.484" fill="none"/>
    </clipPath>
    <clipPath id="clip-path-5">
      <rect id="Rectángulo_402580" data-name="Rectángulo 402580" width="9.039" height="23.612" fill="none"/>
    </clipPath>
  </defs>
  <g id="Grupo_1101988" data-name="Grupo 1101988" transform="translate(6908 6688.691)">
    <g id="Grupo_1101927" data-name="Grupo 1101927" transform="translate(-7856.333 -7130.69)">
      <circle id="Elipse_11497" data-name="Elipse 11497" cx="41" cy="41" r="41" transform="translate(948.333 441.999)" fill="#fff"/>
    </g>
    <g id="Grupo_1101976" data-name="Grupo 1101976" transform="translate(-6891.685 -6676.645)">
      <g id="Grupo_1101975" data-name="Grupo 1101975" clip-path="url(#clip-path)">
        <g id="Grupo_1101974" data-name="Grupo 1101974" transform="translate(0 0)">
          <g id="Grupo_1101973" data-name="Grupo 1101973" clip-path="url(#clip-path)">
            <path id="Trazado_877915" data-name="Trazado 877915" d="M7.034,22.954H25.252a6.038,6.038,0,0,0-5.992,5.329l-.042,34.9a3.232,3.232,0,0,1-3.228,3.228h-.006a3.221,3.221,0,0,1-3.21-3.228,3.232,3.232,0,0,1-3.228,3.228H9.538a3.221,3.221,0,0,1-3.216-3.223V43.911a2.662,2.662,0,0,1-2.667,2.655H3.649A2.644,2.644,0,0,1,1,43.923V28.995a6.038,6.038,0,0,1,6.034-6.041" transform="translate(-0.397 -9.103)" fill="#f76c82"/>
            <g id="Grupo_1101960" data-name="Grupo 1101960" transform="translate(14.147 13.851)" opacity="0.1">
              <g id="Grupo_1101959" data-name="Grupo 1101959">
                <g id="Grupo_1101958" data-name="Grupo 1101958" clip-path="url(#clip-path-3)">
                  <path id="Trazado_877916" data-name="Trazado 877916" d="M34.15,22.954a6.032,6.032,0,0,0-5.986,5.329l-.048,34.9a3.227,3.227,0,0,1-3.222,3.228h-.006a3.136,3.136,0,0,1-1.442-.351,3.229,3.229,0,0,0,1.774-2.878l.042-34.9a6.038,6.038,0,0,1,5.992-5.329Z" transform="translate(-23.445 -22.954)"/>
                </g>
              </g>
            </g>
            <path id="Trazado_877917" data-name="Trazado 877917" d="M15.593,66.614a3.815,3.815,0,0,1-3.217-1.768,3.827,3.827,0,0,1-7.053-2.058V46.041A3.262,3.262,0,0,1,0,43.527V28.6a6.649,6.649,0,0,1,6.638-6.644H24.855a.6.6,0,0,1,0,1.207,5.435,5.435,0,0,0-5.389,4.762l-.042,34.86a3.836,3.836,0,0,1-3.832,3.832M12.98,62.782a2.619,2.619,0,1,0,5.238,0l.042-34.9a.538.538,0,0,1,0-.07,6.638,6.638,0,0,1,2.777-4.654H6.638A5.44,5.44,0,0,0,1.207,28.6V43.527a2.058,2.058,0,0,0,4.115-.012.6.6,0,0,1,1.207,0V62.788a2.622,2.622,0,1,0,5.244-.007.6.6,0,1,1,1.207,0" transform="translate(0 -8.706)"/>
            <path id="Trazado_877918" data-name="Trazado 877918" d="M9.425,52.143a.6.6,0,0,1-.6-.6V42.8a.6.6,0,1,1,1.207,0v8.737a.6.6,0,0,1-.6.6" transform="translate(-3.499 -16.735)"/>
            <path id="Trazado_877919" data-name="Trazado 877919" d="M22.415,6.562A5.562,5.562,0,1,1,16.853,1a5.565,5.565,0,0,1,5.562,5.562" transform="translate(-4.478 -0.396)" fill="#f4d0b5"/>
            <path id="Trazado_877920" data-name="Trazado 877920" d="M16.456,12.336a6.168,6.168,0,1,1,6.165-6.17,6.175,6.175,0,0,1-6.165,6.17m0-11.129a4.961,4.961,0,1,0,4.958,4.959,4.965,4.965,0,0,0-4.958-4.959" transform="translate(-4.081 0)"/>
            <path id="Trazado_877921" data-name="Trazado 877921" d="M20.111,79.446a.6.6,0,0,1-.6-.6v-15.8a.6.6,0,0,1,1.207,0v15.8a.6.6,0,0,1-.6.6" transform="translate(-7.736 -24.762)"/>
            <path id="Trazado_877922" data-name="Trazado 877922" d="M69.052,25.621v.006a2.662,2.662,0,0,1-2.667,2.656h-.193A6.034,6.034,0,0,0,60.2,22.954h6.185a2.672,2.672,0,0,1,2.667,2.667" transform="translate(-23.874 -9.103)" fill="#f76c82"/>
            <path id="Trazado_877923" data-name="Trazado 877923" d="M65.988,28.489H65.8a.6.6,0,0,1-.6-.533A5.427,5.427,0,0,0,59.8,23.161a.6.6,0,0,1,0-1.207h6.185a3.275,3.275,0,0,1,3.271,3.271v.006a3.268,3.268,0,0,1-3.271,3.258M63.62,23.161a6.619,6.619,0,0,1,2.685,4.1,2.059,2.059,0,0,0,1.746-2.027v-.006a2.066,2.066,0,0,0-2.064-2.064Z" transform="translate(-23.477 -8.706)"/>
            <path id="Trazado_877924" data-name="Trazado 877924" d="M54.73,28.988V43.911a2.662,2.662,0,0,1-2.667,2.655h-.006a2.644,2.644,0,0,1-2.649-2.643V63.178a3.24,3.24,0,0,1-3.228,3.228h-.006a3.22,3.22,0,0,1-3.21-3.228,3.226,3.226,0,0,1-6.451.006V43.911a2.662,2.662,0,0,1-2.673,2.655h-.007a2.642,2.642,0,0,1-2.642-2.643V28.994a5.385,5.385,0,0,1,.042-.711,6.037,6.037,0,0,1,5.991-5.329H48.7a6.035,6.035,0,0,1,5.992,5.329,5.4,5.4,0,0,1,.042.705" transform="translate(-12.369 -9.103)" fill="#fbd277"/>
            <g id="Grupo_1101963" data-name="Grupo 1101963" transform="translate(32.31 34.821)" opacity="0.1">
              <g id="Grupo_1101962" data-name="Grupo 1101962">
                <g id="Grupo_1101961" data-name="Grupo 1101961" clip-path="url(#clip-path-4)">
                  <path id="Trazado_877925" data-name="Trazado 877925" d="M57.92,60.347a2.3,2.3,0,0,0,.356-.024V76.959a3.244,3.244,0,0,1-3.228,3.228h-.006a3.127,3.127,0,0,1-1.5-.374,3.243,3.243,0,0,0,1.72-2.854V57.7a2.644,2.644,0,0,0,2.649,2.643Z" transform="translate(-53.545 -57.704)"/>
                </g>
              </g>
            </g>
            <g id="Grupo_1101966" data-name="Grupo 1101966" transform="translate(33.318 13.851)" opacity="0.1">
              <g id="Grupo_1101965" data-name="Grupo 1101965">
                <g id="Grupo_1101964" data-name="Grupo 1101964" clip-path="url(#clip-path-5)">
                  <path id="Trazado_877926" data-name="Trazado 877926" d="M64.254,28.988V43.911a2.66,2.66,0,0,1-2.661,2.655h-.006a2.617,2.617,0,0,1-1.5-.465,2.652,2.652,0,0,0,1.159-2.19V28.988a5.4,5.4,0,0,0-.042-.705,6.034,6.034,0,0,0-5.992-5.329H58.22a6.035,6.035,0,0,1,6,5.329,6.721,6.721,0,0,1,.036.705" transform="translate(-55.215 -22.954)"/>
                </g>
              </g>
            </g>
            <path id="Trazado_877927" data-name="Trazado 877927" d="M45.782,66.614a3.817,3.817,0,0,1-3.217-1.767,3.887,3.887,0,0,1-.519.643,3.824,3.824,0,0,1-6.533-2.7V46.039a3.261,3.261,0,0,1-5.323-2.513V28.6a6.173,6.173,0,0,1,.048-.791,6.64,6.64,0,0,1,6.59-5.853H48.3a6.634,6.634,0,0,1,6.592,5.862,5.936,5.936,0,0,1,.046.776V43.514a3.269,3.269,0,0,1-5.322,2.534V62.782a3.837,3.837,0,0,1-3.832,3.832m-2.613-3.832a2.619,2.619,0,1,0,5.238,0V43.527a.6.6,0,1,1,1.207,0,2.057,2.057,0,0,0,4.115-.012V28.592a4.815,4.815,0,0,0-.037-.628,5.43,5.43,0,0,0-5.394-4.8H36.827a5.434,5.434,0,0,0-5.392,4.8,4.923,4.923,0,0,0-.039.642V43.527a2.043,2.043,0,0,0,2.04,2.04,2.065,2.065,0,0,0,2.076-2.052.6.6,0,0,1,1.207,0V62.788a2.622,2.622,0,0,0,5.243-.007.6.6,0,0,1,1.207,0" transform="translate(-11.972 -8.706)"/>
            <path id="Trazado_877928" data-name="Trazado 877928" d="M39.614,52.143a.6.6,0,0,1-.6-.6V42.8a.6.6,0,1,1,1.207,0v8.737a.6.6,0,0,1-.6.6" transform="translate(-15.471 -16.735)"/>
            <path id="Trazado_877929" data-name="Trazado 877929" d="M52.6,6.562A5.562,5.562,0,1,1,47.041,1,5.565,5.565,0,0,1,52.6,6.562" transform="translate(-16.449 -0.396)" fill="#f4d0b5"/>
            <path id="Trazado_877930" data-name="Trazado 877930" d="M46.644,12.336a6.168,6.168,0,1,1,6.165-6.17,6.175,6.175,0,0,1-6.165,6.17m0-11.129A4.961,4.961,0,1,0,51.6,6.166a4.965,4.965,0,0,0-4.958-4.959" transform="translate(-16.052 0)"/>
            <path id="Trazado_877931" data-name="Trazado 877931" d="M50.3,79.446a.6.6,0,0,1-.6-.6v-15.8a.6.6,0,0,1,1.207,0v15.8a.6.6,0,0,1-.6.6" transform="translate(-19.708 -24.762)"/>
            <path id="Trazado_877932" data-name="Trazado 877932" d="M60.983,52.157a.6.6,0,0,1-.6-.6V42.8a.6.6,0,1,1,1.207,0v8.751a.6.6,0,0,1-.6.6" transform="translate(-23.945 -16.735)"/>
            <path id="Trazado_877933" data-name="Trazado 877933" d="M54.73,28.988V43.911a2.662,2.662,0,0,1-2.667,2.655h-.006a2.644,2.644,0,0,1-2.649-2.643V63.178a3.24,3.24,0,0,1-3.228,3.228h-.006a3.22,3.22,0,0,1-3.21-3.228,3.226,3.226,0,0,1-6.451.006V43.911a2.662,2.662,0,0,1-2.673,2.655h-.007a2.642,2.642,0,0,1-2.642-2.643V28.994a5.385,5.385,0,0,1,.042-.711,6.037,6.037,0,0,1,5.991-5.329H48.7a6.035,6.035,0,0,1,5.992,5.329,5.4,5.4,0,0,1,.042.705" transform="translate(-12.369 -9.103)" fill="#fbd277"/>
            <g id="Grupo_1101969" data-name="Grupo 1101969" transform="translate(32.31 34.821)" opacity="0.1">
              <g id="Grupo_1101968" data-name="Grupo 1101968">
                <g id="Grupo_1101967" data-name="Grupo 1101967" clip-path="url(#clip-path-4)">
                  <path id="Trazado_877934" data-name="Trazado 877934" d="M57.92,60.347a2.3,2.3,0,0,0,.356-.024V76.959a3.244,3.244,0,0,1-3.228,3.228h-.006a3.127,3.127,0,0,1-1.5-.374,3.243,3.243,0,0,0,1.72-2.854V57.7a2.644,2.644,0,0,0,2.649,2.643Z" transform="translate(-53.545 -57.704)"/>
                </g>
              </g>
            </g>
            <g id="Grupo_1101972" data-name="Grupo 1101972" transform="translate(33.318 13.851)" opacity="0.1">
              <g id="Grupo_1101971" data-name="Grupo 1101971">
                <g id="Grupo_1101970" data-name="Grupo 1101970" clip-path="url(#clip-path-5)">
                  <path id="Trazado_877935" data-name="Trazado 877935" d="M64.254,28.988V43.911a2.66,2.66,0,0,1-2.661,2.655h-.006a2.617,2.617,0,0,1-1.5-.465,2.652,2.652,0,0,0,1.159-2.19V28.988a5.4,5.4,0,0,0-.042-.705,6.034,6.034,0,0,0-5.992-5.329H58.22a6.035,6.035,0,0,1,6,5.329,6.721,6.721,0,0,1,.036.705" transform="translate(-55.215 -22.954)"/>
                </g>
              </g>
            </g>
            <path id="Trazado_877936" data-name="Trazado 877936" d="M45.782,66.614a3.817,3.817,0,0,1-3.217-1.767,3.887,3.887,0,0,1-.519.643,3.824,3.824,0,0,1-6.533-2.7V46.039a3.261,3.261,0,0,1-5.323-2.513V28.6a6.173,6.173,0,0,1,.048-.791,6.64,6.64,0,0,1,6.59-5.853H48.3a6.634,6.634,0,0,1,6.592,5.862,5.936,5.936,0,0,1,.046.776V43.514a3.269,3.269,0,0,1-5.322,2.534V62.782a3.837,3.837,0,0,1-3.832,3.832m-2.613-3.832a2.619,2.619,0,1,0,5.238,0V43.527a.6.6,0,1,1,1.207,0,2.057,2.057,0,0,0,4.115-.012V28.592a4.815,4.815,0,0,0-.037-.628,5.43,5.43,0,0,0-5.394-4.8H36.827a5.434,5.434,0,0,0-5.392,4.8,4.923,4.923,0,0,0-.039.642V43.527a2.043,2.043,0,0,0,2.04,2.04,2.065,2.065,0,0,0,2.076-2.052.6.6,0,0,1,1.207,0V62.788a2.622,2.622,0,0,0,5.243-.007.6.6,0,0,1,1.207,0" transform="translate(-11.972 -8.706)"/>
            <path id="Trazado_877937" data-name="Trazado 877937" d="M39.614,52.143a.6.6,0,0,1-.6-.6V42.8a.6.6,0,1,1,1.207,0v8.737a.6.6,0,0,1-.6.6" transform="translate(-15.471 -16.735)"/>
            <path id="Trazado_877938" data-name="Trazado 877938" d="M52.6,6.562A5.562,5.562,0,1,1,47.041,1,5.565,5.565,0,0,1,52.6,6.562" transform="translate(-16.449 -0.396)" fill="#f4d0b5"/>
            <path id="Trazado_877939" data-name="Trazado 877939" d="M46.644,12.336a6.168,6.168,0,1,1,6.165-6.17,6.175,6.175,0,0,1-6.165,6.17m0-11.129A4.961,4.961,0,1,0,51.6,6.166a4.965,4.965,0,0,0-4.958-4.959" transform="translate(-16.052 0)"/>
            <path id="Trazado_877940" data-name="Trazado 877940" d="M50.3,79.446a.6.6,0,0,1-.6-.6v-15.8a.6.6,0,0,1,1.207,0v15.8a.6.6,0,0,1-.6.6" transform="translate(-19.708 -24.762)"/>
            <path id="Trazado_877941" data-name="Trazado 877941" d="M60.983,52.157a.6.6,0,0,1-.6-.6V42.8a.6.6,0,1,1,1.207,0v8.751a.6.6,0,0,1-.6.6" transform="translate(-23.945 -16.735)"/>
          </g>
        </g>
      </g>
    </g>
  </g>
</svg>
