<svg xmlns="http://www.w3.org/2000/svg" xmlns:xlink="http://www.w3.org/1999/xlink" width="82" height="82" viewBox="0 0 82 82">
  <defs>
    <clipPath id="clip-path">
      <rect id="Rectángulo_402588" data-name="Rectángulo 402588" width="62" height="62" fill="none"/>
    </clipPath>
    <clipPath id="clip-path-3">
      <rect id="Rectángulo_402585" data-name="Rectángulo 402585" width="18.198" height="31.744" fill="none"/>
    </clipPath>
    <clipPath id="clip-path-4">
      <rect id="Rectángulo_402586" data-name="Rectángulo 402586" width="6.022" height="8.472" fill="none"/>
    </clipPath>
  </defs>
  <g id="Grupo_1101987" data-name="Grupo 1101987" transform="translate(6580 6688.691)">
    <g id="Grupo_1101926" data-name="Grupo 1101926" transform="translate(-7528.333 -7130.69)">
      <circle id="Elipse_11497" data-name="Elipse 11497" cx="41" cy="41" r="41" transform="translate(948.333 441.999)" fill="#fff"/>
    </g>
    <g id="Grupo_1101986" data-name="Grupo 1101986" transform="translate(-6569 -6678)">
      <g id="Grupo_1101985" data-name="Grupo 1101985" clip-path="url(#clip-path)">
        <g id="Grupo_1101984" data-name="Grupo 1101984">
          <g id="Grupo_1101983" data-name="Grupo 1101983" clip-path="url(#clip-path)">
            <path id="Trazado_877942" data-name="Trazado 877942" d="M55.634,39.762A15.812,15.812,0,0,1,51.355,50.6a14.8,14.8,0,0,1-1.245,1.195,15.851,15.851,0,0,1-20.695,0A14.8,14.8,0,0,1,28.169,50.6,15.87,15.87,0,1,1,55.634,39.762" transform="translate(-8.789 -8.789)" fill="#e4e8eb"/>
            <g id="Grupo_1101979" data-name="Grupo 1101979" transform="translate(28.647 15.1)" opacity="0.1">
              <g id="Grupo_1101978" data-name="Grupo 1101978">
                <g id="Grupo_1101977" data-name="Grupo 1101977" clip-path="url(#clip-path-3)">
                  <path id="Trazado_877943" data-name="Trazado 877943" d="M63.518,39.762A15.812,15.812,0,0,1,59.239,50.6a14.8,14.8,0,0,1-1.245,1.195,15.777,15.777,0,0,1-10.347,3.843,14.874,14.874,0,0,1-2.326-.177,15.685,15.685,0,0,0,8.021-3.666A14.8,14.8,0,0,0,54.587,50.6,15.867,15.867,0,0,0,45.32,24.061a15.682,15.682,0,0,1,2.326-.171A15.878,15.878,0,0,1,63.518,39.762" transform="translate(-45.32 -23.89)"/>
                </g>
              </g>
            </g>
            <path id="Trazado_877944" data-name="Trazado 877944" d="M39.394,55.9a16.463,16.463,0,0,1-10.76-4,15.509,15.509,0,0,1-1.3-1.243,16.5,16.5,0,1,1,24.111,0,15.522,15.522,0,0,1-1.3,1.242,16.463,16.463,0,0,1-10.758,4m0-31.744A15.234,15.234,0,0,0,28.263,49.8a14.178,14.178,0,0,0,1.194,1.147,15.22,15.22,0,0,0,19.871,0A14.3,14.3,0,0,0,50.523,49.8,15.234,15.234,0,0,0,39.394,24.154" transform="translate(-8.421 -8.421)"/>
            <path id="Trazado_877945" data-name="Trazado 877945" d="M50.366,4.268a1.022,1.022,0,0,1-.013.2,3.261,3.261,0,0,1-6.511,0,1.021,1.021,0,0,1-.013-.2,3.268,3.268,0,1,1,6.536,0" transform="translate(-16.125 -0.368)" fill="#73b0f4"/>
            <path id="Trazado_877946" data-name="Trazado 877946" d="M46.73,7.8a3.89,3.89,0,0,1-3.884-3.634A1.9,1.9,0,0,1,42.83,3.9a3.9,3.9,0,1,1,7.8,0,1.9,1.9,0,0,1-.016.266A3.89,3.89,0,0,1,46.73,7.8m0-6.536A2.639,2.639,0,0,0,44.094,3.9a.662.662,0,0,0,0,.079c0,.013.009.068.01.082a2.628,2.628,0,0,0,5.248,0,.726.726,0,0,1,.011-.09c0-.018,0-.046,0-.071A2.639,2.639,0,0,0,46.73,1.264" transform="translate(-15.757)"/>
            <path id="Trazado_877947" data-name="Trazado 877947" d="M50.366,89.928a3.268,3.268,0,0,1-6.536,0,1.021,1.021,0,0,1,.013-.2,3.261,3.261,0,0,1,6.511,0,1.022,1.022,0,0,1,.013.2" transform="translate(-16.125 -31.883)" fill="#73b0f4"/>
            <path id="Trazado_877948" data-name="Trazado 877948" d="M46.73,93.46a3.9,3.9,0,0,1-3.9-3.9,1.814,1.814,0,0,1,.016-.267,3.893,3.893,0,0,1,7.768,0,1.814,1.814,0,0,1,.016.267,3.9,3.9,0,0,1-3.9,3.9m0-6.536A2.624,2.624,0,0,0,44.106,89.4a.691.691,0,0,1-.011.088c0,.02,0,.047,0,.073a2.636,2.636,0,0,0,5.272,0,.674.674,0,0,0,0-.08c0-.014-.009-.068-.01-.082a2.624,2.624,0,0,0-2.624-2.475" transform="translate(-15.757 -31.515)"/>
            <path id="Trazado_877949" data-name="Trazado 877949" d="M19.123,19.123a3.255,3.255,0,0,1-4.469.133,1.424,1.424,0,0,1-.152-.133A3.267,3.267,0,0,1,19.123,14.5c.051.051.095.1.139.152a3.261,3.261,0,0,1-.139,4.469" transform="translate(-4.983 -4.983)" fill="#73b0f4"/>
            <path id="Trazado_877950" data-name="Trazado 877950" d="M16.448,20.348a3.863,3.863,0,0,1-2.584-.989,1.642,1.642,0,0,1-.176-.157A3.9,3.9,0,1,1,19.2,13.689c.06.059.114.121.168.182a3.9,3.9,0,0,1-2.923,6.476m0-6.538a2.635,2.635,0,0,0-1.864,4.5.936.936,0,0,0,.088.078,2.63,2.63,0,0,0,3.638-.075l0,0a2.62,2.62,0,0,0,.113-3.6c-.039-.045-.074-.085-.114-.125a2.611,2.611,0,0,0-1.863-.772" transform="translate(-4.615 -4.615)"/>
            <path id="Trazado_877951" data-name="Trazado 877951" d="M79.693,79.693a3.266,3.266,0,0,1-4.621,0,1.448,1.448,0,0,1-.133-.145,3.264,3.264,0,0,1,4.608-4.608,1.448,1.448,0,0,1,.145.133,3.266,3.266,0,0,1,0,4.621" transform="translate(-27.267 -27.267)" fill="#73b0f4"/>
            <path id="Trazado_877952" data-name="Trazado 877952" d="M77.012,80.915a3.877,3.877,0,0,1-2.759-1.143,1.943,1.943,0,0,1-.192-.213A3.895,3.895,0,0,1,79.6,74.1a1.684,1.684,0,0,1,.172.158,3.9,3.9,0,0,1-2.751,6.656ZM77,74.382a2.63,2.63,0,0,0-1.961,4.375,1.141,1.141,0,0,0,.107.118,2.623,2.623,0,0,0,1.867.775h0a2.609,2.609,0,0,0,1.856-.772l0,0a2.633,2.633,0,0,0,0-3.724.841.841,0,0,0-.078-.074,2.69,2.69,0,0,0-1.8-.7" transform="translate(-26.894 -26.899)"/>
            <path id="Trazado_877953" data-name="Trazado 877953" d="M7.536,47.1a3.258,3.258,0,0,1-3.072,3.255,1.022,1.022,0,0,1-.2.013,3.268,3.268,0,1,1,0-6.536,1.021,1.021,0,0,1,.2.013A3.258,3.258,0,0,1,7.536,47.1" transform="translate(-0.368 -16.125)" fill="#73b0f4"/>
            <path id="Trazado_877954" data-name="Trazado 877954" d="M3.9,50.63a3.9,3.9,0,1,1,0-7.8,1.991,1.991,0,0,1,.265.015,3.893,3.893,0,0,1,0,7.768,1.684,1.684,0,0,1-.27.016m.046-6.536H3.9a2.636,2.636,0,1,0,0,5.272.533.533,0,0,0,.078,0l.083-.01a2.629,2.629,0,0,0,0-5.248.561.561,0,0,1-.086-.011H3.946" transform="translate(0 -15.757)"/>
            <path id="Trazado_877955" data-name="Trazado 877955" d="M93.2,47.1a3.272,3.272,0,0,1-3.268,3.268,1.022,1.022,0,0,1-.2-.013,3.261,3.261,0,0,1,0-6.511,1.021,1.021,0,0,1,.2-.013A3.272,3.272,0,0,1,93.2,47.1" transform="translate(-31.883 -16.125)" fill="#73b0f4"/>
            <path id="Trazado_877956" data-name="Trazado 877956" d="M89.561,50.63a1.684,1.684,0,0,1-.27-.016,3.893,3.893,0,0,1,0-7.768,1.98,1.98,0,0,1,.265-.015,3.9,3.9,0,0,1,0,7.8m-.039-6.536a.317.317,0,0,0-.042,0c-.014,0-.066.009-.08.009a2.629,2.629,0,0,0,0,5.248.569.569,0,0,1,.092.012c.018,0,.044,0,.07,0a2.636,2.636,0,0,0,0-5.272h-.039" transform="translate(-31.515 -15.757)"/>
            <path id="Trazado_877957" data-name="Trazado 877957" d="M19.256,79.547a1.447,1.447,0,0,1-.133.145A3.267,3.267,0,0,1,14.5,75.072a1.449,1.449,0,0,1,.145-.133,3.264,3.264,0,0,1,4.608,4.608" transform="translate(-4.983 -27.267)" fill="#73b0f4"/>
            <path id="Trazado_877958" data-name="Trazado 877958" d="M16.444,80.91h0a3.9,3.9,0,0,1-2.755-6.658,1.962,1.962,0,0,1,.214-.192,3.9,3.9,0,0,1,5.471,5.52,2.154,2.154,0,0,1-.173.189,3.863,3.863,0,0,1-2.756,1.142m0-6.54a2.6,2.6,0,0,0-1.743.667,1.009,1.009,0,0,0-.119.107,2.635,2.635,0,1,0,3.724,3.729.969.969,0,0,0,.075-.079c.01-.013.024-.03.035-.042a2.637,2.637,0,0,0-1.973-4.383" transform="translate(-4.615 -26.894)"/>
            <path id="Trazado_877959" data-name="Trazado 877959" d="M79.693,19.123a1.447,1.447,0,0,1-.145.133,3.264,3.264,0,0,1-4.608-4.608,1.449,1.449,0,0,1,.133-.145,3.267,3.267,0,0,1,4.621,4.621" transform="translate(-27.267 -4.983)" fill="#73b0f4"/>
            <path id="Trazado_877960" data-name="Trazado 877960" d="M77.03,20.351A3.9,3.9,0,0,1,74.1,13.858a1.663,1.663,0,0,1,.151-.166,3.884,3.884,0,0,1,2.765-1.147h.005a3.9,3.9,0,0,1,2.75,6.657v0l-.446-.449.442.452a2.05,2.05,0,0,1-.206.185,3.774,3.774,0,0,1-2.53.958m-.013-6.542a2.622,2.622,0,0,0-1.866.772.946.946,0,0,0-.074.078,2.633,2.633,0,0,0,3.681,3.757,1.181,1.181,0,0,0,.118-.107l.449.445-.447-.447a2.636,2.636,0,0,0-1.858-4.5Z" transform="translate(-26.899 -4.615)"/>
            <path id="Trazado_877961" data-name="Trazado 877961" d="M22.222,15.123a.632.632,0,0,1-.391-1.129q.508-.4,1.035-.776a.632.632,0,1,1,.734,1.028q-.5.359-.988.741a.631.631,0,0,1-.391.135" transform="translate(-7.943 -4.82)"/>
            <path id="Trazado_877962" data-name="Trazado 877962" d="M27.062,10.636a.632.632,0,0,1-.32-1.178c.718-.42,1.461-.812,2.209-1.163a.632.632,0,0,1,.537,1.145c-.714.335-1.423.709-2.108,1.11a.633.633,0,0,1-.319.086m4.411-2.072a.632.632,0,0,1-.216-1.226c.777-.282,1.579-.532,2.383-.743a.632.632,0,1,1,.322,1.222c-.767.2-1.532.441-2.274.71a.643.643,0,0,1-.216.038" transform="translate(-9.723 -2.418)"/>
            <path id="Trazado_877963" data-name="Trazado 877963" d="M41.5,6.923a.632.632,0,0,1-.1-1.255q.635-.107,1.281-.183a.632.632,0,0,1,.149,1.255q-.615.073-1.222.174a.593.593,0,0,1-.1.009" transform="translate(-15.036 -2.016)"/>
            <path id="Trazado_877964" data-name="Trazado 877964" d="M6.112,43.385a.611.611,0,0,1-.076,0,.632.632,0,0,1-.553-.7c.051-.43.113-.858.183-1.281a.632.632,0,1,1,1.247.209q-.1.6-.174,1.221a.633.633,0,0,1-.627.558" transform="translate(-2.016 -15.036)"/>
            <path id="Trazado_877965" data-name="Trazado 877965" d="M7.206,34.432a.645.645,0,0,1-.161-.021.632.632,0,0,1-.451-.772c.21-.8.461-1.6.744-2.384a.632.632,0,1,1,1.188.43c-.27.745-.509,1.509-.71,2.275a.632.632,0,0,1-.611.472m1.661-4.585a.622.622,0,0,1-.268-.06.632.632,0,0,1-.3-.841c.353-.75.743-1.494,1.164-2.21a.632.632,0,1,1,1.09.638c-.4.684-.774,1.394-1.109,2.109a.634.634,0,0,1-.573.363" transform="translate(-2.418 -9.721)"/>
            <path id="Trazado_877966" data-name="Trazado 877966" d="M13.732,23.856a.633.633,0,0,1-.514-1q.376-.527.776-1.035a.632.632,0,1,1,.994.782q-.381.484-.74.987a.632.632,0,0,1-.515.265" transform="translate(-4.82 -7.94)"/>
            <path id="Trazado_877967" data-name="Trazado 877967" d="M14.481,75.1a.63.63,0,0,1-.5-.242q-.4-.508-.774-1.035a.632.632,0,1,1,1.028-.734c.24.336.486.665.74.989a.632.632,0,0,1-.5,1.022" transform="translate(-4.816 -26.791)"/>
            <path id="Trazado_877968" data-name="Trazado 877968" d="M10,66.916a.63.63,0,0,1-.546-.313c-.42-.717-.81-1.461-1.162-2.21a.632.632,0,1,1,1.144-.537c.336.714.709,1.425,1.109,2.109a.631.631,0,0,1-.545.951M7.931,62.5a.632.632,0,0,1-.594-.417C7.054,61.3,6.8,60.5,6.594,59.7a.632.632,0,0,1,1.222-.32c.2.764.439,1.529.709,2.274a.632.632,0,0,1-.379.81.639.639,0,0,1-.215.038" transform="translate(-2.418 -21.673)"/>
            <path id="Trazado_877969" data-name="Trazado 877969" d="M6.29,55.665a.632.632,0,0,1-.623-.528q-.106-.636-.183-1.281a.632.632,0,1,1,1.255-.15q.073.616.174,1.222a.632.632,0,0,1-.519.728.593.593,0,0,1-.1.009" transform="translate(-2.016 -19.553)"/>
            <path id="Trazado_877970" data-name="Trazado 877970" d="M42.755,91.679a.611.611,0,0,1-.076,0q-.645-.077-1.281-.183a.632.632,0,1,1,.208-1.247c.4.068.812.127,1.222.175a.632.632,0,0,1-.074,1.26" transform="translate(-15.036 -33.198)"/>
            <path id="Trazado_877971" data-name="Trazado 877971" d="M33.8,89.065a.669.669,0,0,1-.161-.02c-.8-.21-1.6-.461-2.385-.743a.632.632,0,0,1,.43-1.189c.745.27,1.51.509,2.275.709a.632.632,0,0,1-.16,1.244M29.216,87.4a.624.624,0,0,1-.268-.06c-.751-.351-1.495-.743-2.211-1.162a.632.632,0,0,1,.638-1.091c.683.4,1.393.772,2.109,1.109a.632.632,0,0,1-.269,1.2" transform="translate(-9.722 -31.274)"/>
            <path id="Trazado_877972" data-name="Trazado 877972" d="M23.224,83.731a.628.628,0,0,1-.367-.118q-.526-.375-1.035-.774a.632.632,0,0,1,.781-.995q.485.381.989.741a.632.632,0,0,1-.368,1.146" transform="translate(-7.94 -30.061)"/>
            <path id="Trazado_877973" data-name="Trazado 877973" d="M73.452,83.731a.632.632,0,0,1-.368-1.146q.5-.359.989-.741a.632.632,0,0,1,.781.995q-.508.4-1.035.774a.628.628,0,0,1-.367.118" transform="translate(-26.79 -30.061)"/>
            <path id="Trazado_877974" data-name="Trazado 877974" d="M59.542,89.064a.632.632,0,0,1-.16-1.244c.763-.2,1.528-.437,2.274-.708a.632.632,0,1,1,.43,1.189c-.782.283-1.585.533-2.385.743a.668.668,0,0,1-.16.02m4.584-1.66a.632.632,0,0,1-.269-1.2c.716-.336,1.426-.709,2.109-1.109a.632.632,0,1,1,.638,1.091c-.716.419-1.46.81-2.21,1.162a.624.624,0,0,1-.268.06" transform="translate(-21.673 -31.274)"/>
            <path id="Trazado_877975" data-name="Trazado 877975" d="M53.78,91.679a.632.632,0,0,1-.074-1.26c.411-.048.818-.107,1.222-.175a.632.632,0,1,1,.208,1.247q-.635.106-1.281.183a.611.611,0,0,1-.076,0" transform="translate(-19.554 -33.198)"/>
            <path id="Trazado_877976" data-name="Trazado 877976" d="M90.87,55.665a.593.593,0,0,1-.1-.009.632.632,0,0,1-.519-.728q.1-.607.174-1.222a.632.632,0,1,1,1.255.15q-.077.645-.183,1.281a.632.632,0,0,1-.623.528" transform="translate(-33.199 -19.553)"/>
            <path id="Trazado_877977" data-name="Trazado 877977" d="M85.638,66.914a.632.632,0,0,1-.546-.951c.4-.685.774-1.4,1.109-2.109a.632.632,0,1,1,1.144.537c-.35.748-.741,1.492-1.161,2.21a.631.631,0,0,1-.546.313m2.07-4.414a.624.624,0,0,1-.215-.038.631.631,0,0,1-.379-.809c.27-.746.508-1.511.708-2.275a.632.632,0,0,1,1.223.32c-.21.8-.46,1.6-.743,2.384a.632.632,0,0,1-.594.417" transform="translate(-31.274 -21.672)"/>
            <path id="Trazado_877978" data-name="Trazado 877978" d="M82.342,75.1a.632.632,0,0,1-.5-1.022c.254-.324.5-.653.74-.989a.632.632,0,0,1,1.029.734q-.376.526-.775,1.035a.631.631,0,0,1-.5.242" transform="translate(-30.062 -26.791)"/>
            <path id="Trazado_877979" data-name="Trazado 877979" d="M83.1,23.856a.632.632,0,0,1-.515-.265c-.239-.335-.485-.666-.74-.988a.632.632,0,1,1,.994-.782q.4.508.775,1.035a.632.632,0,0,1-.514,1" transform="translate(-30.061 -7.94)"/>
            <path id="Trazado_877980" data-name="Trazado 877980" d="M88.432,34.43a.632.632,0,0,1-.611-.472c-.2-.764-.439-1.53-.709-2.274a.632.632,0,0,1,1.189-.43c.283.781.532,1.582.743,2.384a.632.632,0,0,1-.451.772.64.64,0,0,1-.161.021m-1.659-4.583a.633.633,0,0,1-.573-.363c-.336-.715-.708-1.425-1.109-2.109a.632.632,0,0,1,1.092-.638c.419.717.81,1.461,1.162,2.21a.632.632,0,0,1-.3.841.622.622,0,0,1-.268.06" transform="translate(-31.274 -9.721)"/>
            <path id="Trazado_877981" data-name="Trazado 877981" d="M91.047,43.385a.633.633,0,0,1-.627-.558q-.073-.615-.174-1.221a.632.632,0,1,1,1.247-.209c.07.424.132.851.183,1.281a.632.632,0,0,1-.553.7.61.61,0,0,1-.076,0" transform="translate(-33.199 -15.036)"/>
            <path id="Trazado_877982" data-name="Trazado 877982" d="M55.034,6.923a.593.593,0,0,1-.1-.009q-.606-.1-1.222-.174a.632.632,0,0,1,.149-1.255q.646.077,1.281.183a.632.632,0,0,1-.1,1.255" transform="translate(-19.554 -2.016)"/>
            <path id="Trazado_877983" data-name="Trazado 877983" d="M66.282,10.632a.635.635,0,0,1-.319-.086c-.683-.4-1.393-.773-2.109-1.109a.632.632,0,0,1,.536-1.145c.752.352,1.495.743,2.211,1.162a.632.632,0,0,1-.32,1.178m-4.413-2.07a.624.624,0,0,1-.215-.038c-.747-.269-1.512-.508-2.275-.708a.632.632,0,0,1,.32-1.223c.8.21,1.6.46,2.385.743a.632.632,0,0,1-.215,1.226" transform="translate(-21.672 -2.418)"/>
            <path id="Trazado_877984" data-name="Trazado 877984" d="M74.462,15.113a.63.63,0,0,1-.391-.135q-.484-.381-.987-.74a.632.632,0,1,1,.733-1.03q.527.375,1.036.776a.632.632,0,0,1-.391,1.129" transform="translate(-26.79 -4.816)"/>
            <path id="Trazado_877985" data-name="Trazado 877985" d="M52.258,53.375v3.648h-15.6V53.375a4.822,4.822,0,0,1,4.822-4.822h5.951a4.822,4.822,0,0,1,4.822,4.822" transform="translate(-13.488 -17.863)" fill="#f76c82"/>
            <g id="Grupo_1101982" data-name="Grupo 1101982" transform="translate(32.749 30.688)" opacity="0.1">
              <g id="Grupo_1101981" data-name="Grupo 1101981">
                <g id="Grupo_1101980" data-name="Grupo 1101980" clip-path="url(#clip-path-4)">
                  <path id="Trazado_877986" data-name="Trazado 877986" d="M57.833,53.374v3.648H54.739V51.478a2.929,2.929,0,0,0-2.928-2.928h1.2a4.824,4.824,0,0,1,4.824,4.824" transform="translate(-51.81 -48.55)"/>
                </g>
              </g>
            </g>
            <path id="Trazado_877987" data-name="Trazado 877987" d="M51.89,57.287H36.3a.632.632,0,0,1-.632-.632V53.007a5.46,5.46,0,0,1,5.454-5.454h5.951a5.46,5.46,0,0,1,5.454,5.454v3.648a.632.632,0,0,1-.632.632M36.927,56.022H51.258V53.007a4.194,4.194,0,0,0-4.19-4.19H41.117a4.194,4.194,0,0,0-4.19,4.19Z" transform="translate(-13.121 -17.495)"/>
            <path id="Trazado_877988" data-name="Trazado 877988" d="M50.664,36.93a3.983,3.983,0,1,1-3.983-3.983,3.985,3.985,0,0,1,3.983,3.983" transform="translate(-15.709 -12.121)" fill="#f4d0b5"/>
            <path id="Trazado_877989" data-name="Trazado 877989" d="M46.313,41.176a4.615,4.615,0,1,1,4.614-4.616,4.62,4.62,0,0,1-4.614,4.616m0-7.966a3.351,3.351,0,1,0,3.35,3.351,3.355,3.355,0,0,0-3.35-3.351" transform="translate(-15.341 -11.753)"/>
          </g>
        </g>
      </g>
    </g>
  </g>
</svg>
