<svg xmlns="http://www.w3.org/2000/svg" xmlns:xlink="http://www.w3.org/1999/xlink" width="67" height="67" viewBox="0 0 67 67">
  <defs>
    <clipPath id="clip-path">
      <rect id="Rectángulo_402637" data-name="Rectángulo 402637" width="47.718" height="41.269" fill="#fff"/>
    </clipPath>
  </defs>
  <g id="Grupo_1102114" data-name="Grupo 1102114" transform="translate(-351.051 -4468)">
    <circle id="Elipse_11560" data-name="Elipse 11560" cx="33.5" cy="33.5" r="33.5" transform="translate(351.051 4468)" fill="#2436b1"/>
    <g id="Grupo_1102116" data-name="Grupo 1102116" transform="translate(361.051 4481)">
      <g id="Grupo_1102115" data-name="Grupo 1102115" clip-path="url(#clip-path)">
        <path id="Trazado_878295" data-name="Trazado 878295" d="M13.9,111.7a.423.423,0,0,1-.423-.423v-4.046a.423.423,0,0,1,.423-.423h4.9a.515.515,0,0,0,.388-.13.771.771,0,0,0,.164-.5v-5.67a.423.423,0,0,1,.423-.423H21.6a2.547,2.547,0,0,0,.41-.027.438.438,0,0,1-.065-.074l-2.519-3.631a.422.422,0,0,1-.075-.241v-.34C19.353,90.164,15.2,85.6,10.1,85.6S.845,90.164.845,95.773c0,2.387,1.288,4.9,3.827,7.477a.423.423,0,0,1,.122.3v7.728a.423.423,0,0,1-.845,0v-7.555C1.328,101.023,0,98.35,0,95.773,0,89.7,4.53,84.756,10.1,84.756S20.2,89.7,20.2,95.773v.208l2.418,3.485a.906.906,0,0,1,.3.92c-.184.489-.839.546-1.315.546H20.2v5.222a1.61,1.61,0,0,1-.395,1.1,1.332,1.332,0,0,1-1,.394H14.322v3.623a.423.423,0,0,1-.423.423" transform="translate(0 -70.428)" fill="#fff"/>
        <path id="Trazado_878296" data-name="Trazado 878296" d="M165.04,111.7a.423.423,0,0,1-.423-.423v-7.728a.422.422,0,0,1,.122-.3c2.539-2.574,3.827-5.09,3.827-7.477,0-5.608-4.151-10.171-9.254-10.171s-9.253,4.563-9.253,10.171v.34a.422.422,0,0,1-.075.241l-2.52,3.631a.436.436,0,0,1-.065.074,2.544,2.544,0,0,0,.41.027h1.828a.423.423,0,0,1,.423.423v5.653c0,.007,0,.014,0,.02a.77.77,0,0,0,.164.494.514.514,0,0,0,.388.13h4.9a.423.423,0,0,1,.423.423v4.046a.423.423,0,0,1-.845,0v-3.623H150.61a1.331,1.331,0,0,1-1-.394,1.609,1.609,0,0,1-.395-1.1v-5.222h-1.4c-.476,0-1.131-.057-1.315-.546a.906.906,0,0,1,.3-.92l2.418-3.485v-.208c0-6.075,4.53-11.017,10.1-11.017s10.1,4.942,10.1,11.017c0,2.578-1.328,5.251-3.948,7.946v7.555a.423.423,0,0,1-.423.423" transform="translate(-121.693 -70.428)" fill="#fff"/>
        <path id="Trazado_878297" data-name="Trazado 878297" d="M66.112,10.177a.423.423,0,0,1-.423-.423V4.275A4.28,4.28,0,0,1,69.964,0H87.221A4.279,4.279,0,0,1,91.5,4.275V9.667a.423.423,0,0,1-.845,0V4.275A3.433,3.433,0,0,0,87.221.845H69.964a3.433,3.433,0,0,0-3.429,3.429V9.754a.423.423,0,0,1-.423.423" transform="translate(-54.584)" fill="#fff"/>
        <path id="Trazado_878298" data-name="Trazado 878298" d="M194.621,42.843a.422.422,0,0,1-.3-.124l-3.809-3.809a.423.423,0,0,1,.6-.6l3.517,3.517,3.692-3.524a.423.423,0,0,1,.584.611l-3.99,3.809a.423.423,0,0,1-.292.117" transform="translate(-158.203 -31.733)" fill="#fff"/>
        <path id="Trazado_878299" data-name="Trazado 878299" d="M116.875,34.566a2.813,2.813,0,0,1-2.809-2.809V29.7a5.38,5.38,0,1,1,5.619,0v2.057a2.813,2.813,0,0,1-2.809,2.809m0-13.988a4.534,4.534,0,0,0-2.183,8.508.422.422,0,0,1,.219.37v2.3a1.964,1.964,0,1,0,3.928,0v-2.3a.422.422,0,0,1,.219-.37,4.534,4.534,0,0,0-2.183-8.508" transform="translate(-92.646 -16.396)" fill="#fff"/>
        <path id="Trazado_878300" data-name="Trazado 878300" d="M131.9,82.031h-4.774a.423.423,0,0,1,0-.845H131.9a.423.423,0,1,1,0,.845" transform="translate(-105.28 -67.461)" fill="#fff"/>
        <path id="Trazado_878301" data-name="Trazado 878301" d="M132.3,55.109a.423.423,0,0,1-.423-.423V51.351l-1.7-1.8a.423.423,0,0,1,.613-.582l1.819,1.918a.422.422,0,0,1,.116.291v3.5a.423.423,0,0,1-.423.423" transform="translate(-108.07 -40.585)" fill="#fff"/>
        <path id="Trazado_878302" data-name="Trazado 878302" d="M141.24,50.483a.423.423,0,0,1-.318-.7l1.881-2.146a.423.423,0,1,1,.636.557l-1.881,2.146a.422.422,0,0,1-.318.144" transform="translate(-117.012 -39.463)" fill="#fff"/>
      </g>
    </g>
  </g>
</svg>
