<svg id="Grupo_1101707" data-name="Grupo 1101707" xmlns="http://www.w3.org/2000/svg" xmlns:xlink="http://www.w3.org/1999/xlink" width="271.139" height="172.365" viewBox="0 0 271.139 172.365">
  <defs>
    <clipPath id="clip-path">
      <rect id="Rectángulo_402448" data-name="Rectángulo 402448" width="271.139" height="172.365" fill="none"/>
    </clipPath>
    <clipPath id="clip-path-3">
      <rect id="Rectángulo_402412" data-name="Rectángulo 402412" width="16.264" height="32.623" fill="none"/>
    </clipPath>
    <clipPath id="clip-path-4">
      <rect id="Rectángulo_402413" data-name="Rectángulo 402413" width="9.722" height="1.657" fill="none"/>
    </clipPath>
    <clipPath id="clip-path-5">
      <rect id="Rectángulo_402414" data-name="Rectángulo 402414" width="4.827" height="0.498" fill="none"/>
    </clipPath>
    <clipPath id="clip-path-6">
      <rect id="Rectángulo_402415" data-name="Rectángulo 402415" width="5.433" height="0.745" fill="none"/>
    </clipPath>
    <clipPath id="clip-path-7">
      <rect id="Rectángulo_402416" data-name="Rectángulo 402416" width="11.128" height="34.895" fill="none"/>
    </clipPath>
    <clipPath id="clip-path-8">
      <rect id="Rectángulo_402417" data-name="Rectángulo 402417" width="1.447" height="0.91" fill="none"/>
    </clipPath>
    <clipPath id="clip-path-9">
      <rect id="Rectángulo_402418" data-name="Rectángulo 402418" width="2.206" height="2.376" fill="none"/>
    </clipPath>
    <clipPath id="clip-path-10">
      <rect id="Rectángulo_402419" data-name="Rectángulo 402419" width="7.168" height="7.553" fill="none"/>
    </clipPath>
    <clipPath id="clip-path-11">
      <rect id="Rectángulo_402420" data-name="Rectángulo 402420" width="42.128" height="13.121" fill="none"/>
    </clipPath>
    <clipPath id="clip-path-12">
      <rect id="Rectángulo_402421" data-name="Rectángulo 402421" width="5.582" height="6.11" fill="none"/>
    </clipPath>
    <clipPath id="clip-path-13">
      <rect id="Rectángulo_402422" data-name="Rectángulo 402422" width="2.194" height="1.99" fill="none"/>
    </clipPath>
    <clipPath id="clip-path-14">
      <rect id="Rectángulo_402423" data-name="Rectángulo 402423" width="0.929" height="0.458" fill="none"/>
    </clipPath>
    <clipPath id="clip-path-15">
      <rect id="Rectángulo_402424" data-name="Rectángulo 402424" width="0.82" height="1.019" fill="none"/>
    </clipPath>
    <clipPath id="clip-path-16">
      <rect id="Rectángulo_402425" data-name="Rectángulo 402425" width="7.259" height="27.041" fill="none"/>
    </clipPath>
    <clipPath id="clip-path-17">
      <rect id="Rectángulo_402426" data-name="Rectángulo 402426" width="3.268" height="9.863" fill="none"/>
    </clipPath>
    <clipPath id="clip-path-18">
      <rect id="Rectángulo_402427" data-name="Rectángulo 402427" width="17.498" height="2.508" fill="none"/>
    </clipPath>
    <clipPath id="clip-path-19">
      <rect id="Rectángulo_402428" data-name="Rectángulo 402428" width="5.264" height="7.78" fill="none"/>
    </clipPath>
    <clipPath id="clip-path-20">
      <rect id="Rectángulo_402429" data-name="Rectángulo 402429" width="2.921" height="4.83" fill="none"/>
    </clipPath>
    <clipPath id="clip-path-21">
      <rect id="Rectángulo_402430" data-name="Rectángulo 402430" width="5.524" height="43.874" fill="none"/>
    </clipPath>
    <clipPath id="clip-path-22">
      <rect id="Rectángulo_402431" data-name="Rectángulo 402431" width="1.565" height="1.791" fill="none"/>
    </clipPath>
    <clipPath id="clip-path-23">
      <rect id="Rectángulo_402433" data-name="Rectángulo 402433" width="2.533" height="33.332" fill="none"/>
    </clipPath>
    <clipPath id="clip-path-25">
      <rect id="Rectángulo_402435" data-name="Rectángulo 402435" width="6.134" height="28.78" fill="none"/>
    </clipPath>
    <clipPath id="clip-path-27">
      <rect id="Rectángulo_402437" data-name="Rectángulo 402437" width="33.018" height="23.485" fill="none"/>
    </clipPath>
    <clipPath id="clip-path-29">
      <rect id="Rectángulo_402439" data-name="Rectángulo 402439" width="1.837" height="16.022" fill="none"/>
    </clipPath>
    <clipPath id="clip-path-31">
      <rect id="Rectángulo_402441" data-name="Rectángulo 402441" width="8.604" height="2.878" fill="none"/>
    </clipPath>
    <clipPath id="clip-path-33">
      <rect id="Rectángulo_402444" data-name="Rectángulo 402444" width="14.504" height="19.667" fill="none"/>
    </clipPath>
    <clipPath id="clip-path-34">
      <rect id="Rectángulo_402445" data-name="Rectángulo 402445" width="6.859" height="4.691" fill="none"/>
    </clipPath>
    <clipPath id="clip-path-35">
      <rect id="Rectángulo_402446" data-name="Rectángulo 402446" width="28.4" height="38.116" fill="none"/>
    </clipPath>
  </defs>
  <g id="Grupo_1101706" data-name="Grupo 1101706" clip-path="url(#clip-path)">
    <g id="Grupo_1101705" data-name="Grupo 1101705">
      <g id="Grupo_1101704" data-name="Grupo 1101704" clip-path="url(#clip-path)">
        <path id="Trazado_877183" data-name="Trazado 877183" d="M433.642,109.461c-27.982,15.882-17.005,31.228-2.782,42.668s32.464-10.2,28.445-27.827-14.222-21.334-25.662-14.841" transform="translate(-191.719 -49.037)" fill="#fcf3e5"/>
        <path id="Trazado_877184" data-name="Trazado 877184" d="M215.892,10.028c-38.56,26.931,1.855,63.383,25.662,45.45s57.2,7.421,57.818-15.459-44.523-57.2-83.481-29.991" transform="translate(-92.079 0)" fill="#fcf3e5"/>
        <path id="Trazado_877185" data-name="Trazado 877185" d="M9.1,188.506c-29.353,4.193,21.334,55.963,25.044,34.938s-3.4-38.03-25.044-34.938" transform="translate(0 -86.649)" fill="#fcf3e5"/>
        <path id="Trazado_877186" data-name="Trazado 877186" d="M32.948,112.3C22.619,59.711,75.8,38.8,95.653,75.086a107.225,107.225,0,0,0,10.914,16.675c15.616,18.967,31.505,16.941,59.641,9.4,34.629-9.275,80.389,15.769,82.862,52.253s-19.788,43.9-19.788,43.9L95.713,196.4c-55.963-34.938-55.963-49.47-62.765-84.1" transform="translate(-14.568 -26.209)" fill="#fcf3e5"/>
        <path id="Trazado_877187" data-name="Trazado 877187" d="M440.071,267.246a.169.169,0,0,1-.123-.135,37.255,37.255,0,0,1,.011-9.546A46.337,46.337,0,0,1,447.9,236.6a.17.17,0,0,1,.279.193,46,46,0,0,0-7.882,20.8,36.914,36.914,0,0,0-.016,9.462.17.17,0,0,1-.139.2.174.174,0,0,1-.073,0" transform="translate(-202.488 -108.935)" fill="#523d3c"/>
        <path id="Trazado_877188" data-name="Trazado 877188" d="M451.754,237.623a.168.168,0,0,1-.12-.124,4.534,4.534,0,0,1,.451-3.254,4.792,4.792,0,0,1,1.514-1.476,1.372,1.372,0,0,1,1.458-.125,1.066,1.066,0,0,1,.428.745.17.17,0,1,1-.335.053.726.726,0,0,0-.284-.517,1.084,1.084,0,0,0-1.1.139,4.435,4.435,0,0,0-1.4,1.371,4.113,4.113,0,0,0-.434,2.826,4.108,4.108,0,0,0,2.463-1.453,5.658,5.658,0,0,0,.3-.489.17.17,0,0,1,.3.16,5.8,5.8,0,0,1-.314.519,4.537,4.537,0,0,1-2.853,1.628.169.169,0,0,1-.068,0" transform="translate(-207.946 -107.073)" fill="#7b8c76"/>
        <path id="Trazado_877189" data-name="Trazado 877189" d="M444.672,246.634l-.028-.01a3.4,3.4,0,0,1-1.686-1.8,3.6,3.6,0,0,1-.148-1.576,1.058,1.058,0,0,1,.637-.933.832.832,0,0,1,.662.1.17.17,0,1,1-.169.295.5.5,0,0,0-.394-.073c-.2.059-.341.3-.4.662a3.253,3.253,0,0,0,.139,1.422,1.124,1.124,0,1,0,1.646-.5,4.126,4.126,0,0,0-.142-.392.169.169,0,1,1,.312-.133,4.286,4.286,0,0,1,.155.426,3.4,3.4,0,0,1-.392,2.433.17.17,0,0,1-.19.077" transform="translate(-203.923 -111.587)" fill="#7b8c76"/>
        <path id="Trazado_877190" data-name="Trazado 877190" d="M445.683,248.805a.17.17,0,0,1-.121-.124,26.717,26.717,0,0,0-1.063-3.4.17.17,0,0,1,.312-.134,26.58,26.58,0,0,1,1.081,3.454.17.17,0,0,1-.209.2" transform="translate(-204.71 -112.857)" fill="#523d3c"/>
        <path id="Trazado_877191" data-name="Trazado 877191" d="M445.858,243.8a.171.171,0,0,1-.1-.079,2.756,2.756,0,0,0-.417-.52.17.17,0,1,1,.238-.242,3.076,3.076,0,0,1,.474.593.17.17,0,0,1-.192.248" transform="translate(-205.079 -111.875)" fill="#7b8c76"/>
        <path id="Trazado_877192" data-name="Trazado 877192" d="M436.369,271.309a2.954,2.954,0,0,1-1.561-.948,3.581,3.581,0,0,1-.706-1.417,1.056,1.056,0,0,1,.257-1.1.832.832,0,0,1,.655-.142.17.17,0,0,1-.051.336.5.5,0,0,0-.394.074c-.16.126-.209.4-.134.762a3.235,3.235,0,0,0,.641,1.277,1.124,1.124,0,1,0,1.355-1.064,4.089,4.089,0,0,0-.275-.315.17.17,0,0,1,.244-.236,4.351,4.351,0,0,1,.3.341,3.4,3.4,0,0,1,.511,2.41.17.17,0,0,1-.18.141,3.711,3.711,0,0,1-.66-.121" transform="translate(-199.909 -123.286)" fill="#7b8c76"/>
        <path id="Trazado_877193" data-name="Trazado 877193" d="M438.476,273.338a.169.169,0,0,1-.095-.067,26.908,26.908,0,0,0-2.216-2.788.17.17,0,1,1,.242-.237,26.485,26.485,0,0,1,2.253,2.833.17.17,0,0,1-.184.26" transform="translate(-200.856 -124.439)" fill="#523d3c"/>
        <path id="Trazado_877194" data-name="Trazado 877194" d="M436.838,268.61a.172.172,0,0,1-.063-.032,2.749,2.749,0,0,0-.576-.335.17.17,0,1,1,.135-.311,3.077,3.077,0,0,1,.655.382.17.17,0,0,1-.152.3" transform="translate(-200.847 -123.391)" fill="#7b8c76"/>
        <path id="Trazado_877195" data-name="Trazado 877195" d="M445.277,259.629a3.67,3.67,0,0,1-.566-.2.17.17,0,0,1-.087-.21,3.4,3.4,0,0,1,1.628-1.851,4.331,4.331,0,0,1,.427-.152.17.17,0,0,1,.1.325,4.124,4.124,0,0,0-.393.14,2.947,2.947,0,0,0-1.376,1.5,2.959,2.959,0,0,0,2.035.089,3.243,3.243,0,0,0,1.185-.8c.241-.275.334-.542.256-.73a.5.5,0,0,0-.307-.258.17.17,0,1,1,.12-.317.832.832,0,0,1,.5.445,1.056,1.056,0,0,1-.314,1.084,3.59,3.59,0,0,1-1.31.888,3,3,0,0,1-1.893.043" transform="translate(-204.769 -118.435)" fill="#7b8c76"/>
        <path id="Trazado_877196" data-name="Trazado 877196" d="M443.187,260.69a.169.169,0,0,1-.03-.316,26.622,26.622,0,0,1,3.352-1.365.17.17,0,1,1,.095.326,26.74,26.74,0,0,0-3.3,1.344.169.169,0,0,1-.119.011" transform="translate(-204.054 -119.285)" fill="#523d3c"/>
        <path id="Trazado_877197" data-name="Trazado 877197" d="M449.164,257.358a.17.17,0,0,1,.016-.331,3.057,3.057,0,0,1,.758-.012.17.17,0,1,1-.035.338,2.734,2.734,0,0,0-.667.009.171.171,0,0,1-.072,0" transform="translate(-206.807 -118.362)" fill="#7b8c76"/>
        <path id="Trazado_877198" data-name="Trazado 877198" d="M471.971,247.787a.214.214,0,0,1-.1-.053.219.219,0,0,1-.014-.31c1.733-1.9,4.366-4.319,7.2-3.483a4.867,4.867,0,0,1,3.235,2.844.22.22,0,0,1-.406.169,4.384,4.384,0,0,0-2.954-2.592c-2.6-.768-5.094,1.549-6.747,3.358a.22.22,0,0,1-.207.067" transform="translate(-217.288 -112.27)" fill="#7b8c76"/>
        <path id="Trazado_877199" data-name="Trazado 877199" d="M449.708,293.407h0l-7.324-1.582a.22.22,0,0,1,.091-.43h0l7.3,1.577c.295-.005,3.964-.168,6.151-4.9,1.417-3.065.439-3.618-.347-4.063-.487-.276-1.04-.588-.758-1.4.3-.864,2.054-2.088,4.089-3.505,2.384-1.66,5.085-3.543,5.8-5.1a4.832,4.832,0,0,0,.389-2.6c-.08-1.3-.15-2.43,2.4-4.249a7.86,7.86,0,0,0,2.262-2.633.22.22,0,1,1,.385.212,8.291,8.291,0,0,1-2.392,2.779c-2.355,1.677-2.3,2.642-2.22,3.863a5.271,5.271,0,0,1-.428,2.81c-.762,1.666-3.516,3.585-5.945,5.277-1.889,1.316-3.674,2.56-3.925,3.287-.155.452.046.588.559.878,1.116.631,2,1.46.53,4.63-2.395,5.179-6.536,5.155-6.579,5.154a.2.2,0,0,1-.039,0" transform="translate(-203.661 -121.774)" fill="#7b8c76"/>
        <path id="Trazado_877200" data-name="Trazado 877200" d="M428.2,285.745c-6.415-10.995-.734-17.679,3.866-16.5s3.783-7.033,5.689-10.625,5.546-5.442,7.932-2.514c1.127,1.383,5.817-8.959,10.97-7.435s3.769,9.048.021,11.716-1.31,3.635-2.583,6.42-8.8,6.473-9.379,8.151,3.284.36,1.042,5.21-6.053,4.772-6.053,4.772Z" transform="translate(-195.886 -114.455)" fill="#a5b1a3"/>
        <path id="Trazado_877201" data-name="Trazado 877201" d="M442.465,288.894a.22.22,0,0,1-.173-.251c1.568-9.441,6.98-17.267,11.244-22.169a59.718,59.718,0,0,1,8.966-8.461.22.22,0,1,1,.257.357,59.313,59.313,0,0,0-8.9,8.4c-4.223,4.858-9.584,12.608-11.135,21.944a.22.22,0,0,1-.253.181l-.008,0" transform="translate(-203.699 -118.81)" fill="#523d3c"/>
        <path id="Trazado_877202" data-name="Trazado 877202" d="M450.312,288.694a.216.216,0,0,1-.116-.065.22.22,0,0,1,.01-.311c.158-.148,3.906-3.641,7.961-4.727a.22.22,0,0,1,.114.425c-3.946,1.057-7.736,4.586-7.773,4.622a.219.219,0,0,1-.195.055" transform="translate(-207.313 -130.606)" fill="#523d3c"/>
        <path id="Trazado_877203" data-name="Trazado 877203" d="M467.914,265.372a.181.181,0,0,1-.032-.009.22.22,0,0,1-.131-.282,12.805,12.805,0,0,0,.754-3.667.22.22,0,1,1,.44-.009,13.019,13.019,0,0,1-.781,3.827.22.22,0,0,1-.25.14" transform="translate(-215.419 -120.292)" fill="#523d3c"/>
        <path id="Trazado_877204" data-name="Trazado 877204" d="M73.782,288.1a.164.164,0,0,0,.174-.036,36.265,36.265,0,0,0,5.471-7.506,45.09,45.09,0,0,0,5.794-21.029.165.165,0,1,0-.33-.008,44.768,44.768,0,0,1-5.745,20.863,35.955,35.955,0,0,1-5.42,7.443.165.165,0,0,0,0,.233.163.163,0,0,0,.059.039" transform="translate(-33.932 -119.45)" fill="#523d3c"/>
        <path id="Trazado_877205" data-name="Trazado 877205" d="M93.184,260.625a.165.165,0,0,0,.166-.028,4.416,4.416,0,0,0,1.513-2.815,4.646,4.646,0,0,0-.342-2.028c-.264-.588-.646-.92-1.074-.935a1.036,1.036,0,0,0-.764.339.165.165,0,1,0,.232.235.708.708,0,0,1,.519-.244c.292.011.578.281.785.741a4.321,4.321,0,0,1,.313,1.881,3.993,3.993,0,0,1-1.281,2.469,4,4,0,0,1-1.1-2.555,5.478,5.478,0,0,1,.049-.553.165.165,0,1,0-.327-.046,5.672,5.672,0,0,0-.051.587,4.415,4.415,0,0,0,1.307,2.917.168.168,0,0,0,.056.036" transform="translate(-42.288 -117.357)" fill="#7b8c76"/>
        <path id="Trazado_877206" data-name="Trazado 877206" d="M93.927,272.836l.028.008a3.312,3.312,0,0,0,2.357-.444,3.494,3.494,0,0,0,1.021-1.153,1.028,1.028,0,0,0,.036-1.1.811.811,0,0,0-.579-.3.165.165,0,0,0-.037.328.485.485,0,0,1,.352.169.743.743,0,0,1-.066.75,3.156,3.156,0,0,1-.925,1.038,2.869,2.869,0,0,1-1.94.406,2.874,2.874,0,0,1,.935-1.747,3.8,3.8,0,0,1,.337-.227.165.165,0,0,0-.169-.284,4.245,4.245,0,0,0-.366.246,3.308,3.308,0,0,0-1.089,2.136.165.165,0,0,0,.105.169" transform="translate(-43.21 -124.28)" fill="#7b8c76"/>
        <path id="Trazado_877207" data-name="Trazado 877207" d="M92.642,274.415a.165.165,0,0,0,.166-.028,26.036,26.036,0,0,1,2.786-2.061.165.165,0,1,0-.168-.284,25.781,25.781,0,0,0-2.832,2.093.165.165,0,0,0-.02.233.176.176,0,0,0,.067.047" transform="translate(-42.618 -125.28)" fill="#523d3c"/>
        <path id="Trazado_877208" data-name="Trazado 877208" d="M97.2,270.386a.165.165,0,0,0,.126,0,2.675,2.675,0,0,1,.626-.169.165.165,0,0,0-.048-.327,2.961,2.961,0,0,0-.713.194.165.165,0,0,0,.008.3" transform="translate(-44.718 -124.297)" fill="#7b8c76"/>
        <path id="Trazado_877209" data-name="Trazado 877209" d="M85.887,296.973a2.874,2.874,0,0,0,1.77.152,3.49,3.49,0,0,0,1.368-.708,1.028,1.028,0,0,0,.429-1.011.808.808,0,0,0-.433-.488.165.165,0,0,0-.153.293.486.486,0,0,1,.268.284c.053.191-.067.438-.332.676a3.146,3.146,0,0,1-1.237.635,2.876,2.876,0,0,1-1.955-.32,2.875,2.875,0,0,1,1.5-1.293,3.753,3.753,0,0,1,.4-.09.165.165,0,0,0-.056-.326,4.142,4.142,0,0,0-.43.1,3.309,3.309,0,0,0-1.786,1.6.166.166,0,0,0,.06.214,3.648,3.648,0,0,0,.588.284" transform="translate(-39.249 -135.76)" fill="#7b8c76"/>
        <path id="Trazado_877210" data-name="Trazado 877210" d="M83.743,297.826a.163.163,0,0,0,.113,0,26.089,26.089,0,0,1,3.341-.918.165.165,0,1,0-.054-.326,25.9,25.9,0,0,0-3.4.932.165.165,0,0,0-.1.21.162.162,0,0,0,.1.1" transform="translate(-38.519 -136.592)" fill="#523d3c"/>
        <path id="Trazado_877211" data-name="Trazado 877211" d="M90.031,294.99A.166.166,0,0,0,90.1,295a2.679,2.679,0,0,1,.645.068.165.165,0,0,0,.073-.322,3,3,0,0,0-.735-.076.165.165,0,0,0-.051.319" transform="translate(-41.415 -135.712)" fill="#7b8c76"/>
        <path id="Trazado_877212" data-name="Trazado 877212" d="M86.129,281.433a3.569,3.569,0,0,0,.56.168.165.165,0,0,0,.189-.115,3.309,3.309,0,0,0-.216-2.388,4.194,4.194,0,0,0-.248-.364.165.165,0,1,0-.263.2,3.814,3.814,0,0,1,.229.336,2.867,2.867,0,0,1,.218,1.97,2.875,2.875,0,0,1-1.65-1.1,3.145,3.145,0,0,1-.472-1.307c-.031-.355.048-.618.218-.721a.485.485,0,0,1,.389-.026.165.165,0,0,0,.088-.318.81.81,0,0,0-.649.062,1.029,1.029,0,0,0-.375,1.033,3.487,3.487,0,0,0,.519,1.45,2.917,2.917,0,0,0,1.462,1.12" transform="translate(-38.751 -127.909)" fill="#7b8c76"/>
        <path id="Trazado_877213" data-name="Trazado 877213" d="M87.948,283.555a.164.164,0,0,0,.136-.008.166.166,0,0,0,.069-.223,25.941,25.941,0,0,0-1.85-3,.165.165,0,1,0-.262.2,26.09,26.09,0,0,1,1.82,2.949.166.166,0,0,0,.087.077" transform="translate(-39.611 -129.077)" fill="#523d3c"/>
        <path id="Trazado_877214" data-name="Trazado 877214" d="M86.91,278.8a.165.165,0,0,0,.178-.269,3.039,3.039,0,0,0-.589-.445.165.165,0,0,0-.167.285,2.693,2.693,0,0,1,.519.39.16.16,0,0,0,.059.039" transform="translate(-39.723 -128.063)" fill="#7b8c76"/>
        <path id="Trazado_877215" data-name="Trazado 877215" d="M30.722,254.257a.207.207,0,0,0,.092-.064.211.211,0,0,0-.025-.3c-1.886-1.586-4.692-3.56-7.28-2.411a4.668,4.668,0,0,0-2.721,3.11.211.211,0,1,0,.407.11,4.206,4.206,0,0,1,2.485-2.834c2.374-1.056,5.038.835,6.837,2.348a.212.212,0,0,0,.2.038" transform="translate(-9.571 -115.665)" fill="#7b8c76"/>
        <path id="Trazado_877216" data-name="Trazado 877216" d="M52.645,261.228a.211.211,0,0,0,0-.4,3.779,3.779,0,0,0-3.936.569.211.211,0,1,0,.276.319,3.372,3.372,0,0,1,3.513-.493.21.21,0,0,0,.142,0" transform="translate(-22.402 -119.988)" fill="#7b8c76"/>
        <path id="Trazado_877217" data-name="Trazado 877217" d="M43.121,297.2h0l6.766-2.421a.211.211,0,0,0-.14-.4h0L43,296.793c-.281.032-3.791.336-6.463-3.889-1.731-2.737-.871-3.386-.179-3.907.428-.323.914-.689.545-1.43-.391-.784-2.215-1.728-4.327-2.822-2.474-1.281-5.279-2.732-6.151-4.124a4.637,4.637,0,0,1-.695-2.424c-.087-1.25-.162-2.33-2.819-3.739a7.531,7.531,0,0,1-2.48-2.22.211.211,0,1,0-.34.25,7.953,7.953,0,0,0,2.623,2.343c2.45,1.3,2.514,2.225,2.6,3.4a5.049,5.049,0,0,0,.758,2.619c.933,1.489,3.792,2.969,6.314,4.275,1.962,1.015,3.814,1.974,4.144,2.635.2.41.03.565-.421.9-.982.74-1.714,1.638.076,4.469,2.925,4.625,6.861,4.084,6.9,4.078a.22.22,0,0,0,.037-.009" transform="translate(-9.235 -125.341)" fill="#7b8c76"/>
        <path id="Trazado_877218" data-name="Trazado 877218" d="M53.64,288.19c4.724-11.259,2.463-17.629-1.765-15.934s-4.477-6.215-6.74-9.392-5.955-4.482-7.858-1.4c-.9,1.457-6.652-7.792-11.363-5.7s-2.451,9.076,1.446,11.144,1.7,3.293,3.26,5.782,9.18,5.055,9.94,6.578-3.078.753-.338,5.085,6.353,3.782,6.353,3.782Z" transform="translate(-10.716 -117.652)" fill="#a5b1a3"/>
        <path id="Trazado_877219" data-name="Trazado 877219" d="M55.456,291.21a.21.21,0,0,0,.133-.261c-2.673-8.782-8.8-15.547-13.467-19.675a57.288,57.288,0,0,0-9.585-6.924.211.211,0,0,0-.2.372A56.893,56.893,0,0,1,41.85,271.6c4.624,4.091,10.692,10.791,13.335,19.475a.211.211,0,0,0,.263.141l.008,0" transform="translate(-14.841 -121.736)" fill="#523d3c"/>
        <path id="Trazado_877220" data-name="Trazado 877220" d="M57.918,290.691a.207.207,0,0,0,.1-.076.21.21,0,0,0-.048-.295c-.168-.121-4.17-2.973-8.162-3.5a.211.211,0,1,0-.055.418c3.885.511,7.93,3.394,7.971,3.423a.211.211,0,0,0,.192.028" transform="translate(-22.83 -132.097)" fill="#523d3c"/>
        <path id="Trazado_877221" data-name="Trazado 877221" d="M44.024,269.959l.029-.012a.211.211,0,0,0,.089-.285,12.3,12.3,0,0,1-1.175-3.393.211.211,0,0,0-.42.047,12.479,12.479,0,0,0,1.221,3.541.211.211,0,0,0,.256.1" transform="translate(-19.595 -122.545)" fill="#523d3c"/>
        <path id="Trazado_877222" data-name="Trazado 877222" d="M239.454,60.228h-15.64a9.959,9.959,0,0,0-9.439,13.114,9.828,9.828,0,0,0,8.309,6.516l1.964.215a10.043,10.043,0,0,0,1.088.059h13.718a9.952,9.952,0,0,0,0-19.9" transform="translate(-98.495 -27.738)" fill="#fff"/>
        <path id="Trazado_877223" data-name="Trazado 877223" d="M256.2,77.467H241.613a9.285,9.285,0,0,0,0,18.57H254.92a7.874,7.874,0,0,0,4.6,1.6.64.64,0,0,0,.638-.593.61.61,0,0,0-.229-.536,4.179,4.179,0,0,1-.85-.924A9.285,9.285,0,0,0,256.2,77.467" transform="translate(-107 -35.678)" fill="#ffc894"/>
        <path id="Trazado_877224" data-name="Trazado 877224" d="M242.077,88.066h9.386a1.553,1.553,0,0,0,1.553-1.553v-.322a1.553,1.553,0,0,0-1.553-1.553h-9.386a1.553,1.553,0,0,0-1.553,1.553v.322a1.553,1.553,0,0,0,1.553,1.553" transform="translate(-110.775 -38.981)" fill="#fcf3e5"/>
        <path id="Trazado_877225" data-name="Trazado 877225" d="M242.077,99.586h20.218a1.552,1.552,0,0,0,1.552-1.553v-.322a1.552,1.552,0,0,0-1.552-1.553H242.077a1.553,1.553,0,0,0-1.553,1.553v.322a1.553,1.553,0,0,0,1.553,1.553" transform="translate(-110.775 -44.286)" fill="#fcf3e5"/>
        <path id="Trazado_877226" data-name="Trazado 877226" d="M68.965,151.533H65.2a1.2,1.2,0,0,1-1.2-1.2v-3.762a1.2,1.2,0,0,1,1.2-1.2h3.762a1.2,1.2,0,0,1,1.2,1.2v3.762a1.2,1.2,0,0,1-1.2,1.2M65.2,145.762a.808.808,0,0,0-.808.808v3.762a.809.809,0,0,0,.808.808h3.762a.808.808,0,0,0,.808-.808v-3.762a.808.808,0,0,0-.808-.808Z" transform="translate(-29.476 -66.949)" fill="#ffc894"/>
        <path id="Trazado_877227" data-name="Trazado 877227" d="M67.926,150.66a.2.2,0,0,1-.14-.058l-1.34-1.34a.2.2,0,1,1,.279-.279l1.2,1.2,1.844-1.844a.2.2,0,0,1,.279.279L68.066,150.6a.2.2,0,0,1-.14.058" transform="translate(-30.576 -68.291)" fill="#ffc894"/>
        <path id="Trazado_877228" data-name="Trazado 877228" d="M296.349,43.4h-3.762a1.2,1.2,0,0,1-1.2-1.2V38.438a1.2,1.2,0,0,1,1.2-1.2h3.762a1.2,1.2,0,0,1,1.2,1.2V42.2a1.2,1.2,0,0,1-1.2,1.2m-3.762-5.772a.808.808,0,0,0-.808.808V42.2a.809.809,0,0,0,.808.808h3.762a.808.808,0,0,0,.807-.808V38.438a.808.808,0,0,0-.807-.808Z" transform="translate(-134.198 -17.149)" fill="#ffc894"/>
        <path id="Trazado_877229" data-name="Trazado 877229" d="M295.309,42.529a.2.2,0,0,1-.14-.058l-1.34-1.34a.2.2,0,0,1,.279-.279l1.2,1.2,1.844-1.844a.2.2,0,1,1,.279.279l-1.984,1.984a.2.2,0,0,1-.14.058" transform="translate(-135.298 -18.491)" fill="#ffc894"/>
        <path id="Trazado_877230" data-name="Trazado 877230" d="M237.468,279.234a.2.2,0,0,1-.14-.058l-.947-.947a4.119,4.119,0,1,1,1.284-.816v1.624a.2.2,0,0,1-.122.183.2.2,0,0,1-.076.015m-1.041-1.436a.2.2,0,0,1,.14.058l.7.7v-1.234a.2.2,0,0,1,.066-.147,3.714,3.714,0,1,0-.989.636.194.194,0,0,1,.079-.017" transform="translate(-106.27 -124.485)" fill="#ffc894"/>
        <path id="Trazado_877231" data-name="Trazado 877231" d="M238.179,277.55a.387.387,0,1,1-.387-.386.386.386,0,0,1,.387.386" transform="translate(-109.338 -127.649)" fill="#ffc894"/>
        <path id="Trazado_877232" data-name="Trazado 877232" d="M240.864,277.55a.387.387,0,1,1-.387-.386.386.386,0,0,1,.387.386" transform="translate(-110.575 -127.649)" fill="#ffc894"/>
        <path id="Trazado_877233" data-name="Trazado 877233" d="M235.737,277.55a.387.387,0,1,1-.386-.386.386.386,0,0,1,.386.386" transform="translate(-108.214 -127.649)" fill="#ffc894"/>
        <path id="Trazado_877234" data-name="Trazado 877234" d="M43.282,219.542a.2.2,0,0,1-.14-.058l-.947-.947a4.118,4.118,0,1,1,1.284-.816v1.624a.2.2,0,0,1-.122.183.2.2,0,0,1-.076.015m-1.041-1.436a.2.2,0,0,1,.14.058l.7.7v-1.234a.2.2,0,0,1,.066-.147,3.714,3.714,0,1,0-.989.636.2.2,0,0,1,.079-.017" transform="translate(-16.837 -96.994)" fill="#ffc894"/>
        <path id="Trazado_877235" data-name="Trazado 877235" d="M43.993,217.858a.387.387,0,1,1-.386-.386.386.386,0,0,1,.386.386" transform="translate(-19.905 -100.158)" fill="#ffc894"/>
        <path id="Trazado_877236" data-name="Trazado 877236" d="M46.678,217.858a.387.387,0,1,1-.386-.386.386.386,0,0,1,.386.386" transform="translate(-21.142 -100.158)" fill="#ffc894"/>
        <path id="Trazado_877237" data-name="Trazado 877237" d="M41.551,217.858a.387.387,0,1,1-.387-.386.386.386,0,0,1,.387.386" transform="translate(-18.781 -100.158)" fill="#ffc894"/>
        <path id="Trazado_877238" data-name="Trazado 877238" d="M418.758,68.87h-1.305a.2.2,0,0,1,0-.395h1.305a1.35,1.35,0,0,0,1.349-1.349V64.034a1.35,1.35,0,0,0-1.349-1.348h-6.7a1.35,1.35,0,0,0-1.349,1.348.2.2,0,1,1-.395,0,1.745,1.745,0,0,1,1.743-1.743h6.7a1.745,1.745,0,0,1,1.743,1.743v3.092a1.746,1.746,0,0,1-1.743,1.743" transform="translate(-188.973 -28.688)" fill="#ffc894"/>
        <path id="Trazado_877239" data-name="Trazado 877239" d="M411.243,73.137h-6.7a1.746,1.746,0,0,1-1.743-1.743V68.3a1.745,1.745,0,0,1,1.743-1.743h6.7a1.745,1.745,0,0,1,1.744,1.743v3.092a1.745,1.745,0,0,1-1.744,1.743m-6.7-6.184A1.35,1.35,0,0,0,403.2,68.3v3.092a1.35,1.35,0,0,0,1.349,1.349h6.7a1.35,1.35,0,0,0,1.349-1.349V68.3a1.35,1.35,0,0,0-1.349-1.349Z" transform="translate(-185.512 -30.654)" fill="#ffc894"/>
        <path id="Trazado_877240" data-name="Trazado 877240" d="M411.945,72.474a.361.361,0,1,1-.361-.361.361.361,0,0,1,.361.361" transform="translate(-189.391 -33.212)" fill="#ffc894"/>
        <path id="Trazado_877241" data-name="Trazado 877241" d="M416.1,72.474a.361.361,0,1,1-.361-.361.361.361,0,0,1,.361.361" transform="translate(-191.303 -33.212)" fill="#ffc894"/>
        <path id="Trazado_877242" data-name="Trazado 877242" d="M407.8,72.474a.361.361,0,1,1-.361-.361.361.361,0,0,1,.361.361" transform="translate(-187.48 -33.212)" fill="#ffc894"/>
        <path id="Trazado_877243" data-name="Trazado 877243" d="M279.922,177.949s-2.343-64.813,17.57-61.169c10.021,31.5,7.678,53.62,7.678,53.62L280.7,177.949Z" transform="translate(-128.88 -53.716)" fill="#e3e2ed"/>
        <path id="Trazado_877244" data-name="Trazado 877244" d="M366.871,248.595l-30.758-7.96L312.5,242.3v24.675c.536,2.553-1.951,7.351-.926,13.563l62.483.009Z" transform="translate(-143.38 -110.826)" fill="#704a49"/>
        <g id="Grupo_1101607" data-name="Grupo 1101607" transform="translate(179.066 137.094)" style="mix-blend-mode: multiply;isolation: isolate">
          <g id="Grupo_1101606" data-name="Grupo 1101606">
            <g id="Grupo_1101605" data-name="Grupo 1101605" clip-path="url(#clip-path-3)">
              <path id="Trazado_877245" data-name="Trazado 877245" d="M338.972,268.173a.194.194,0,0,0-.173-.107h-2.921c-3.064-4.912-3.542-13.655-3.546-13.743a.2.2,0,0,0-.2-.183.193.193,0,0,0-.183.2c0,.09.494,9.04,3.663,14.021a.193.193,0,0,0,.163.09h2.908l9.1,18.309h.432Z" transform="translate(-331.945 -254.139)" fill="#404040"/>
            </g>
          </g>
        </g>
        <g id="Grupo_1101610" data-name="Grupo 1101610" transform="translate(174.625 152.173)" style="mix-blend-mode: multiply;isolation: isolate">
          <g id="Grupo_1101609" data-name="Grupo 1101609">
            <g id="Grupo_1101608" data-name="Grupo 1101608" clip-path="url(#clip-path-4)">
              <path id="Trazado_877246" data-name="Trazado 877246" d="M323.907,283.749a.194.194,0,0,1-.062-.377,30.339,30.339,0,0,1,9.405-1.271.193.193,0,0,1-.016.386,29.919,29.919,0,0,0-9.266,1.252.191.191,0,0,1-.061.01" transform="translate(-323.713 -282.092)" fill="#404040"/>
            </g>
          </g>
        </g>
        <g id="Grupo_1101613" data-name="Grupo 1101613" transform="translate(176.896 151.263)" style="mix-blend-mode: multiply;isolation: isolate">
          <g id="Grupo_1101612" data-name="Grupo 1101612">
            <g id="Grupo_1101611" data-name="Grupo 1101611" clip-path="url(#clip-path-5)">
              <path id="Trazado_877247" data-name="Trazado 877247" d="M332.556,280.9h-.021a41.194,41.194,0,0,0-4.416-.1.193.193,0,1,1-.006-.387,40.561,40.561,0,0,1,4.464.1.193.193,0,0,1-.021.386" transform="translate(-327.922 -280.404)" fill="#404040"/>
            </g>
          </g>
        </g>
        <g id="Grupo_1101616" data-name="Grupo 1101616" transform="translate(187.139 151.521)" style="mix-blend-mode: multiply;isolation: isolate">
          <g id="Grupo_1101615" data-name="Grupo 1101615">
            <g id="Grupo_1101614" data-name="Grupo 1101614" clip-path="url(#clip-path-6)">
              <path id="Trazado_877248" data-name="Trazado 877248" d="M352.151,281.627a.2.2,0,0,1-.1-.025c-.026-.013-.8-.375-4.948-.328a.193.193,0,0,1,0-.387c4.269-.05,5.068.334,5.144.379a.193.193,0,0,1-.1.361" transform="translate(-346.911 -280.883)" fill="#404040"/>
            </g>
          </g>
        </g>
        <g id="Grupo_1101619" data-name="Grupo 1101619" transform="translate(212.117 134.826)" style="mix-blend-mode: multiply;isolation: isolate">
          <g id="Grupo_1101618" data-name="Grupo 1101618">
            <g id="Grupo_1101617" data-name="Grupo 1101617" clip-path="url(#clip-path-7)">
              <path id="Trazado_877249" data-name="Trazado 877249" d="M403.938,284.83h.4l-10.689-34.781-.44-.113Z" transform="translate(-393.214 -249.935)" fill="#404040"/>
            </g>
          </g>
        </g>
        <path id="Trazado_877250" data-name="Trazado 877250" d="M328.3,96.167c-1.3.391-2.863,2.473-2.863,2.473s-14.446,5.336-17.049,6.768c-7.288,21.994-4.555,38.523-3.514,52.319s.868,23.687,2.169,24.728,58.219,1.3,58.219,1.3c4.165-16.138-7.548-78.088-7.809-78.869-2.6-3.123-14.186-8.329-14.186-8.329a23.4,23.4,0,0,0-3.189-4.62Z" transform="translate(-139.781 -42.342)" fill="#e3e2ed"/>
        <path id="Trazado_877251" data-name="Trazado 877251" d="M337.336,122.7c-5.987,19-10.549,48.325-10.549,48.325.781,9.5,8.857,34.318,8.857,34.318l6.333-32.6c-5.206-31.886-1-50.046-1-50.046Z" transform="translate(-150.503 -56.509)" fill="#e05745"/>
        <path id="Trazado_877252" data-name="Trazado 877252" d="M349.063,106.774l-3.123,3.9.217,4.685H349.8l1.345-3.991Z" transform="translate(-159.324 -49.175)" fill="#f56351"/>
        <path id="Trazado_877253" data-name="Trazado 877253" d="M329.011,214.386l12.845-12.845q-.106-.812-.2-1.61L328.686,212.9q.155.73.325,1.489" transform="translate(-151.378 -92.079)" fill="#f58c7f"/>
        <path id="Trazado_877254" data-name="Trazado 877254" d="M343.234,209.193l-12.579,12.579q.177.72.363,1.451l12.454-12.454q-.123-.794-.238-1.576" transform="translate(-152.285 -96.345)" fill="#f58c7f"/>
        <path id="Trazado_877255" data-name="Trazado 877255" d="M348.439,121.317l.545-1.616-5.3,5.3c-.238.827-.473,1.669-.706,2.519l5.269-5.269c.114-.614.187-.929.187-.929" transform="translate(-157.962 -55.129)" fill="#f58c7f"/>
        <path id="Trazado_877256" data-name="Trazado 877256" d="M343.805,145.353l-7.312,7.312q-.259,1.166-.509,2.322l7.732-7.732c.026-.655.055-1.29.088-1.9" transform="translate(-154.74 -66.943)" fill="#f58c7f"/>
        <path id="Trazado_877257" data-name="Trazado 877257" d="M346.168,115.654l4.334-4.334-.565-1.249-3.849,3.849Z" transform="translate(-159.392 -50.694)" fill="#f58c7f"/>
        <path id="Trazado_877258" data-name="Trazado 877258" d="M341.079,168.413l-10.344,10.343c-.143.765-.281,1.509-.412,2.226l10.818-10.818q-.036-.89-.061-1.752" transform="translate(-152.132 -77.563)" fill="#f58c7f"/>
        <path id="Trazado_877259" data-name="Trazado 877259" d="M340.378,190.8c-.057-.557-.109-1.107-.16-1.654l-13.283,13.283q.085.752.216,1.6Z" transform="translate(-150.572 -87.111)" fill="#f58c7f"/>
        <path id="Trazado_877260" data-name="Trazado 877260" d="M345.516,135.937c.064-.719.132-1.389.2-2.014L339.639,140q-.294,1.193-.579,2.394Z" transform="translate(-156.156 -61.679)" fill="#f58c7f"/>
        <path id="Trazado_877261" data-name="Trazado 877261" d="M343.543,236.062l.438-2.252-8.671,8.672q.2.712.4,1.409Z" transform="translate(-154.428 -107.682)" fill="#f58c7f"/>
        <path id="Trazado_877262" data-name="Trazado 877262" d="M343.857,223.014l.438-2.252-11.272,11.272q.193.714.388,1.426Z" transform="translate(-153.375 -101.673)" fill="#f58c7f"/>
        <path id="Trazado_877263" data-name="Trazado 877263" d="M340.348,181.1c-.043-.573-.081-1.138-.117-1.7l-11.992,11.992c-.139.8-.263,1.534-.373,2.187Z" transform="translate(-151 -82.624)" fill="#f58c7f"/>
        <path id="Trazado_877264" data-name="Trazado 877264" d="M342.141,159.85q-.006-.925,0-1.811l-8.9,8.9q-.231,1.149-.451,2.266Z" transform="translate(-153.266 -72.786)" fill="#f58c7f"/>
        <path id="Trazado_877265" data-name="Trazado 877265" d="M272.206,250.05h34.151l-27.008-40.177H245.2Z" transform="translate(-112.927 -96.658)" fill="#6f669c"/>
        <path id="Trazado_877266" data-name="Trazado 877266" d="M269.562,250.05h34.151l-27.008-40.177H242.554Z" transform="translate(-111.71 -96.658)" fill="#59527d"/>
        <path id="Trazado_877267" data-name="Trazado 877267" d="M243.012,233.532c-10.267-13.839-9.449-22.916-3.943-23.66h31.658c-5.506.744-6.324,9.821,3.943,23.66,10.944,14.751,5.952,29.612-4.762,32.737H238.25c10.714-3.124,15.706-17.986,4.762-32.737" transform="translate(-108.261 -96.658)" fill="#fff"/>
        <path id="Trazado_877268" data-name="Trazado 877268" d="M358.673,54.626c3.25,1.444,3.049,5.817,1.2,8.585s-2.888,4.252-2.608,5.255-.4,1.4-2.006.722-9.307-4.694-9.628-5.135-4.373-6.1-4.373-6.1c-2.127-1.364-1.324-7.261,2.287-7.462s14.923-2.848,15.124,4.132" transform="translate(-156.634 -22.952)" fill="#452116"/>
        <path id="Trazado_877269" data-name="Trazado 877269" d="M343.005,56.752c-2.942,2.514-3.5,5.055-3.477,5.884s.241,1.23.026,1.845-1.685.936-1.257,1.926,1.311.32.883,1.471.187,3.931-.107,4.493a2.194,2.194,0,0,0,1.631,3c2.086.669,2.166.268,2.781,1.551a4.59,4.59,0,0,1-.133,3.129c-.08.963.535,2.889,2.38,2.728s9.949-6.258,10.35-7.007a12.045,12.045,0,0,1-1.2-5.082,2.8,2.8,0,0,1-1.685-2.434l-1.31-2.139c-.909.053-1.23-1.123-1.257-3.075s-1.766-2.568-1.337-3.423,1.391-2.327-.08-1.926-4.2-1.23-6.2-.936" transform="translate(-155.769 -26.121)" fill="#ff8762"/>
        <path id="Trazado_877270" data-name="Trazado 877270" d="M354.546,75.243a2.666,2.666,0,1,1-2.637-2.276,2.477,2.477,0,0,1,2.637,2.276" transform="translate(-160.858 -33.605)" fill="#ff7557"/>
        <path id="Trazado_877271" data-name="Trazado 877271" d="M348.219,69.236h0a.794.794,0,0,0,.912-.658l.067-.411a.795.795,0,1,0-1.569-.255l-.067.412a.795.795,0,0,0,.658.912" transform="translate(-160.066 -30.97)" fill="#452116"/>
        <g id="Grupo_1101622" data-name="Grupo 1101622" transform="translate(188.118 37.949)" style="mix-blend-mode: multiply;isolation: isolate">
          <g id="Grupo_1101621" data-name="Grupo 1101621">
            <g id="Grupo_1101620" data-name="Grupo 1101620" clip-path="url(#clip-path-8)">
              <path id="Trazado_877272" data-name="Trazado 877272" d="M349.015,71.259a1.268,1.268,0,0,1-.209-.017.1.1,0,0,1,.031-.19,1.031,1.031,0,0,0,1.15-.641.1.1,0,0,1,.18.07,1.2,1.2,0,0,1-1.151.778" transform="translate(-348.725 -70.349)" fill="#a1a1a1"/>
            </g>
          </g>
        </g>
        <path id="Trazado_877273" data-name="Trazado 877273" d="M361.951,74.03a2.3,2.3,0,1,0,2.634-1.9,2.3,2.3,0,0,0-2.634,1.9" transform="translate(-166.685 -33.206)" fill="#ff7557"/>
        <g id="Grupo_1101625" data-name="Grupo 1101625" transform="translate(196.454 39.744)" style="mix-blend-mode: multiply;isolation: isolate">
          <g id="Grupo_1101624" data-name="Grupo 1101624">
            <g id="Grupo_1101623" data-name="Grupo 1101623" clip-path="url(#clip-path-9)">
              <path id="Trazado_877274" data-name="Trazado 877274" d="M364.512,76.051a.082.082,0,0,1-.019-.162.41.41,0,0,0,.321-.414c-.008-.2-.16-.427-.566-.493a.083.083,0,0,1-.068-.1,1.43,1.43,0,0,1,.727-1.083,1.581,1.581,0,0,1,1.432.1.082.082,0,1,1-.075.147,1.42,1.42,0,0,0-1.284-.1,1.239,1.239,0,0,0-.623.885.7.7,0,0,1,.62.632.572.572,0,0,1-.447.58l-.019,0" transform="translate(-364.178 -73.675)" fill="#a1a1a1"/>
            </g>
          </g>
        </g>
        <g id="Grupo_1101628" data-name="Grupo 1101628" transform="translate(187.691 45.019)" style="mix-blend-mode: multiply;isolation: isolate">
          <g id="Grupo_1101627" data-name="Grupo 1101627">
            <g id="Grupo_1101626" data-name="Grupo 1101626" clip-path="url(#clip-path-10)">
              <path id="Trazado_877275" data-name="Trazado 877275" d="M347.933,87.921c5.188-.4,6.793-2.862,7.168-4.466-.535,3.637-3.022,8.612-4.975,7.354a4.614,4.614,0,0,1-2.193-2.888" transform="translate(-347.933 -83.455)" fill="#8c8c8c"/>
            </g>
          </g>
        </g>
        <path id="Trazado_877276" data-name="Trazado 877276" d="M340.926,69.653a.077.077,0,0,0,.063-.033l.776-1.11a.077.077,0,0,0-.126-.088l-.776,1.11a.077.077,0,0,0,.019.107.075.075,0,0,0,.044.014" transform="translate(-156.98 -31.497)" fill="#452116"/>
        <path id="Trazado_877277" data-name="Trazado 877277" d="M341.811,75.737a.077.077,0,0,0,.054-.023.33.33,0,0,0,.056-.365c-.066-.15-.286-.4-1.023-.367a.077.077,0,1,0,.006.153c.689-.028.845.2.876.276a.175.175,0,0,1-.024.195.077.077,0,0,0,.054.131" transform="translate(-156.969 -34.532)" fill="#452116"/>
        <path id="Trazado_877278" data-name="Trazado 877278" d="M343.628,75.843a.08.08,0,0,0,.029-.006,1.188,1.188,0,0,0,.7-.617.833.833,0,0,0-.028-.663.077.077,0,0,0-.14.064.681.681,0,0,1,.025.543,1.046,1.046,0,0,1-.613.531.077.077,0,0,0,.029.148" transform="translate(-158.224 -34.317)" fill="#452116"/>
        <path id="Trazado_877279" data-name="Trazado 877279" d="M344.029,80.27a9.938,9.938,0,0,0-4.012.2,4.82,4.82,0,0,0,.1,1.324c.642.321,2.668-.6,3.912-1.524" transform="translate(-156.592 -36.922)" fill="#fff"/>
        <path id="Trazado_877280" data-name="Trazado 877280" d="M340.017,80.728a1.59,1.59,0,0,0,.441.7,3.6,3.6,0,0,0-.341.622,4.82,4.82,0,0,1-.1-1.324" transform="translate(-156.592 -37.18)" fill="#633d2a"/>
        <path id="Trazado_877281" data-name="Trazado 877281" d="M345.463,80.745a.081.081,0,0,0,.022,0c.365-.108.62-.191.623-.192a.077.077,0,1,0-.047-.146s-.256.083-.619.191a.077.077,0,0,0-.052.1.078.078,0,0,0,.074.055" transform="translate(-159.069 -37.029)" fill="#452116"/>
        <path id="Trazado_877282" data-name="Trazado 877282" d="M341.539,81.544h.011a14.442,14.442,0,0,0,1.663-.388.077.077,0,1,0-.042-.148,14.474,14.474,0,0,1-1.644.385.077.077,0,0,0,.011.153" transform="translate(-157.262 -37.307)" fill="#452116"/>
        <path id="Trazado_877283" data-name="Trazado 877283" d="M340.788,84.285a3.175,3.175,0,0,0,1.435-.505.077.077,0,0,0-.075-.134c-1.143.637-1.533.486-1.625.425a.077.077,0,1,0-.085.128.62.62,0,0,0,.35.087" transform="translate(-156.774 -38.519)" fill="#452116"/>
        <path id="Trazado_877284" data-name="Trazado 877284" d="M348.839,63.98c-2.608-.722-3.831-.04-3.831-.04,1.223-1.465,3.571-1.024,3.831.04" transform="translate(-158.895 -29.017)" fill="#452116"/>
        <path id="Trazado_877285" data-name="Trazado 877285" d="M341.477,64.693a1.661,1.661,0,0,0-.535.107c.295-.883.535-.107.535-.107" transform="translate(-157.023 -29.649)" fill="#452116"/>
        <path id="Trazado_877286" data-name="Trazado 877286" d="M233.836,115.621l-18.02,17.7-25.695-23.43a12.323,12.323,0,0,0-1.09-.876,11.164,11.164,0,1,0-12.864,18.249l34.723,24.476.451.319a8.464,8.464,0,0,0,10.959-1.038l20.028-21.153Z" transform="translate(-78.955 -49.27)" fill="#59527d"/>
        <path id="Trazado_877287" data-name="Trazado 877287" d="M129.353,203.922c-6.247,6.768-12.06,16.572-13.448,35.313s-1.735,24.294-1.735,24.294H172.3c1.562-23.947-9.718-59.607-9.718-59.607Z" transform="translate(-52.581 -93.917)" fill="#ff9b6a"/>
        <g id="Grupo_1101631" data-name="Grupo 1101631" transform="translate(67.622 113.804)" style="mix-blend-mode: multiply;isolation: isolate">
          <g id="Grupo_1101630" data-name="Grupo 1101630">
            <g id="Grupo_1101629" data-name="Grupo 1101629" clip-path="url(#clip-path-11)">
              <path id="Trazado_877288" data-name="Trazado 877288" d="M125.355,221.092s9.519,11.342,42.128-10.127c-26.33,6.279-42.128,10.127-42.128,10.127" transform="translate(-125.355 -210.965)" fill="#787878"/>
            </g>
          </g>
        </g>
        <path id="Trazado_877289" data-name="Trazado 877289" d="M167.064,155.356l-31.756-.174s3.3-6.594-3.471-17.526-7.462-24.121-6.42-29.847c0-.521,9.2-3.645,15.791-4.251l15.01.173c1.822.607,9.11,2.517,9.11,2.517,1.389,7.635,6.941,16.659,7.462,19.956s-.867,6.074-3.991,11.626-1.735,17.527-1.735,17.527" transform="translate(-57.582 -47.694)" fill="#59527d"/>
        <path id="Trazado_877290" data-name="Trazado 877290" d="M158.437,155.234l20.22.111c6.406-39.281-8.624-51.613-8.624-51.613l-15.01-.174c5.88,13.885,4.571,38.975,3.414,51.676" transform="translate(-71.397 -47.694)" fill="#fff"/>
        <path id="Trazado_877291" data-name="Trazado 877291" d="M152.833,147.164l-36.026,8.61,7.983-32.795a11.391,11.391,0,0,0,.229-1.242c.772-6.115-1.069-12.1-7.184-12.868s-11.516,2.392-12.287,8.507l-8.559,48.208-.067.518a8.476,8.476,0,0,0,10.311,9.283l49.158-10.608Z" transform="translate(-44.609 -50.087)" fill="#59527d"/>
        <path id="Trazado_877292" data-name="Trazado 877292" d="M145.484,54.5c4.555-2.277,13.535-2.928,13.926.521s-1.3,4.035.2,7.028,3.123,5.6,1.626,8.85,2.755,7.483-2.3,9.371-15.01-.174-15.01-.174c1.952,1.736,2.343,5.7,1.3,8.177s-.391,4.685,1.5,7.028,2.668,3.97,1.3,5.791l-13.861-.129c-2.863-1.106-4.555-8.265-1.952-11.454a14.934,14.934,0,0,0,2.95-7.332S132.123,54.758,145.484,54.5" transform="translate(-60.296 -24.23)" fill="#8c4632"/>
        <path id="Trazado_877293" data-name="Trazado 877293" d="M158.493,85.222c2.69,10.672-3.471,9.891-3.471,9.891,6.942,4.425,13.188,12.147,13.188,12.147,3.9-3.9,1.822-11.974,1.822-11.974-4.772-.694-3.471-6.68-3.471-6.68Z" transform="translate(-71.396 -39.249)" fill="#ff8762"/>
        <g id="Grupo_1101634" data-name="Grupo 1101634" transform="translate(88.832 47.577)" style="mix-blend-mode: multiply;isolation: isolate">
          <g id="Grupo_1101633" data-name="Grupo 1101633">
            <g id="Grupo_1101632" data-name="Grupo 1101632" clip-path="url(#clip-path-12)">
              <path id="Trazado_877294" data-name="Trazado 877294" d="M164.673,88.2c3.807,8.264,5.791,7.288,5.564,2.148a40.963,40.963,0,0,1-5.564-2.148" transform="translate(-164.673 -88.197)" fill="#a1a1a1"/>
            </g>
          </g>
        </g>
        <path id="Trazado_877295" data-name="Trazado 877295" d="M184.041,81.784a1.181,1.181,0,1,1-1.292-1.059,1.182,1.182,0,0,1,1.292,1.059" transform="translate(-83.676 -37.176)" fill="#fff"/>
        <path id="Trazado_877296" data-name="Trazado 877296" d="M170.706,77.8c-1.075.9-3.209.594-5.477.386S160.738,76.9,158.089,71c2.416-.789.873-2.874,2.162-3.915s-.011-3.235,1.918-4.046,5.084-.939,5.441-2.2c3.639,2.011,3.8,4.621,3.776,6.153s1.007,2.9,1,5.338-.981,4.877-1.677,5.463" transform="translate(-72.809 -28.022)" fill="#ff8762"/>
        <path id="Trazado_877297" data-name="Trazado 877297" d="M177.062,76.016c.6.682,1,1.332.844,1.819s-.782,1.44-2.641,1.188.783-1.615,1.039-2.373.462-.971.758-.634" transform="translate(-80.416 -34.938)" fill="#ff7557"/>
        <path id="Trazado_877298" data-name="Trazado 877298" d="M169.3,78.585a2.31,2.31,0,1,1-2.656-1.4,2.136,2.136,0,0,1,2.656,1.4" transform="translate(-75.901 -35.519)" fill="#ff7557"/>
        <path id="Trazado_877299" data-name="Trazado 877299" d="M182.352,76.022a2.04,2.04,0,0,0-1.283,2.233,1.993,1.993,0,0,0,1.868,1.453c.005-.127.01-.255.01-.382a10.4,10.4,0,0,0-.6-3.3" transform="translate(-83.373 -35.012)" fill="#ff7557"/>
        <path id="Trazado_877300" data-name="Trazado 877300" d="M170.793,74.964h0a.6.6,0,0,1-.766-.38l-.1-.3a.6.6,0,1,1,1.146-.386l.1.3a.6.6,0,0,1-.38.766" transform="translate(-78.246 -33.844)" fill="#1f0d08"/>
        <path id="Trazado_877301" data-name="Trazado 877301" d="M171.434,72.971a1.076,1.076,0,0,1-.269.391,1.059,1.059,0,0,1-.433.24l-.009,0a.221.221,0,0,1-.118-.427.28.28,0,0,1,.042-.008.648.648,0,0,0,.291-.1.753.753,0,0,0,.233-.232l0-.005a.147.147,0,0,1,.261.134" transform="translate(-78.498 -33.514)" fill="#1f0d08"/>
        <path id="Trazado_877302" data-name="Trazado 877302" d="M170.514,76.639a.915.915,0,0,1-.961-.441.074.074,0,0,1,.126-.076.784.784,0,0,0,.942.339.073.073,0,0,1,.093.046.074.074,0,0,1-.046.093.97.97,0,0,1-.155.038" transform="translate(-78.084 -35.042)" fill="#ff7557"/>
        <path id="Trazado_877303" data-name="Trazado 877303" d="M180.119,73.808h0a.606.606,0,0,1-.766-.38l-.1-.3a.6.6,0,0,1,1.146-.387l.1.3a.6.6,0,0,1-.38.766" transform="translate(-82.541 -33.312)" fill="#1f0d08"/>
        <path id="Trazado_877304" data-name="Trazado 877304" d="M180.76,71.815a1.076,1.076,0,0,1-.269.391,1.059,1.059,0,0,1-.433.24l-.009,0a.221.221,0,1,1-.118-.427.279.279,0,0,1,.042-.008.655.655,0,0,0,.291-.1.753.753,0,0,0,.233-.232l0-.005a.147.147,0,0,1,.261.134" transform="translate(-82.793 -32.982)" fill="#1f0d08"/>
        <path id="Trazado_877305" data-name="Trazado 877305" d="M158.717,79.79a2.135,2.135,0,1,1-2.779-1.181,2.135,2.135,0,0,1,2.779,1.181" transform="translate(-71.202 -36.132)" fill="#ff7557"/>
        <g id="Grupo_1101637" data-name="Grupo 1101637" transform="translate(84.275 43.158)" style="mix-blend-mode: multiply;isolation: isolate">
          <g id="Grupo_1101636" data-name="Grupo 1101636">
            <g id="Grupo_1101635" data-name="Grupo 1101635" clip-path="url(#clip-path-13)">
              <path id="Trazado_877306" data-name="Trazado 877306" d="M158.353,81.992a.05.05,0,0,1-.018,0,.532.532,0,0,1-.525-.434.651.651,0,0,1,.433-.7,1.152,1.152,0,0,0-.747-.674,1.32,1.32,0,0,0-1.144.353.076.076,0,1,1-.1-.117,1.468,1.468,0,0,1,1.278-.385,1.328,1.328,0,0,1,.883.832.079.079,0,0,1,0,.059.077.077,0,0,1-.042.042c-.354.143-.445.385-.412.563a.38.38,0,0,0,.376.31.076.076,0,0,1,.016.151" transform="translate(-156.226 -80.004)" fill="#a1a1a1"/>
            </g>
          </g>
        </g>
        <path id="Trazado_877307" data-name="Trazado 877307" d="M167.457,71.075a8.606,8.606,0,0,1,3.443-.592.2.2,0,0,0,.115-.354,2.882,2.882,0,0,0-3.781.639.193.193,0,0,0,.223.307" transform="translate(-76.996 -32.085)" fill="#8c4632"/>
        <path id="Trazado_877308" data-name="Trazado 877308" d="M179.1,70.463a2.652,2.652,0,0,1,1.773-.262c-.393-.968-1.542-.607-1.773.262" transform="translate(-82.485 -32.066)" fill="#8c4632"/>
        <path id="Trazado_877309" data-name="Trazado 877309" d="M179.418,78.866a.092.092,0,0,1-.066-.163c.194-.156.675-.634.569-.973a3.57,3.57,0,0,0-.29-.535c-.138-.228-.308-.512-.466-.823a.092.092,0,0,1,.164-.083c.155.3.324.586.46.812a3.391,3.391,0,0,1,.308.575c.165.529-.6,1.145-.63,1.172a.089.089,0,0,1-.048.019" transform="translate(-82.511 -35.112)" fill="#1f0d08"/>
        <path id="Trazado_877310" data-name="Trazado 877310" d="M178.365,73.218a.092.092,0,0,1-.1-.074,2.479,2.479,0,0,1,.012-1.1.092.092,0,1,1,.177.045,2.3,2.3,0,0,0-.009,1.018.092.092,0,0,1-.072.108h-.009" transform="translate(-82.076 -33.149)" fill="#1f0d08"/>
        <g id="Grupo_1101640" data-name="Grupo 1101640" transform="translate(95.357 43.331)" style="mix-blend-mode: multiply;isolation: isolate">
          <g id="Grupo_1101639" data-name="Grupo 1101639">
            <g id="Grupo_1101638" data-name="Grupo 1101638" clip-path="url(#clip-path-14)">
              <path id="Trazado_877311" data-name="Trazado 877311" d="M176.869,80.783a.091.091,0,0,1-.074-.026.092.092,0,0,1,0-.13.85.85,0,0,1,.768-.281.193.193,0,0,1,.134.171.092.092,0,0,1-.083.1h0a.092.092,0,0,1-.1-.085c0-.006-.016-.016-.051-.019a.769.769,0,0,0-.537.247.093.093,0,0,1-.056.026" transform="translate(-176.768 -80.326)" fill="#8c8c8c"/>
            </g>
          </g>
        </g>
        <g id="Grupo_1101643" data-name="Grupo 1101643" transform="translate(94.635 43.066)" style="mix-blend-mode: multiply;isolation: isolate">
          <g id="Grupo_1101642" data-name="Grupo 1101642">
            <g id="Grupo_1101641" data-name="Grupo 1101641" clip-path="url(#clip-path-15)">
              <path id="Trazado_877312" data-name="Trazado 877312" d="M176.168,80.852h-.013a.748.748,0,0,1-.648-.362.618.618,0,0,1,.008-.611.092.092,0,1,1,.159.091.432.432,0,0,0-.007.43.569.569,0,0,0,.5.267.092.092,0,0,1,.005.183" transform="translate(-175.431 -79.834)" fill="#8c8c8c"/>
            </g>
          </g>
        </g>
        <path id="Trazado_877313" data-name="Trazado 877313" d="M161.093,84.492a1.181,1.181,0,1,1-1.293-1.059,1.181,1.181,0,0,1,1.293,1.059" transform="translate(-73.107 -38.423)" fill="#fff"/>
        <path id="Trazado_877314" data-name="Trazado 877314" d="M171.613,83.918c3.443-1.244,4.652-1.34,5.56-.5.076,1.294-.387,1.867-2.047,1.935a6.474,6.474,0,0,1-3.512-1.439" transform="translate(-79.037 -38.167)" fill="#a1281b"/>
        <path id="Trazado_877315" data-name="Trazado 877315" d="M171.613,84.389a26.437,26.437,0,0,0,3.238-.206c1.254-.137,2.321-.29,2.321-.29-.389,1.44-2.146,1.842-5.56.5" transform="translate(-79.037 -38.637)" fill="#fff"/>
        <path id="Trazado_877316" data-name="Trazado 877316" d="M178.661,88.005a3.083,3.083,0,0,1-1.124-.013.062.062,0,0,1,.022-.122c1.038.183,1.644-.105,1.848-.408a.062.062,0,0,1,.1.069,1.3,1.3,0,0,1-.849.475" transform="translate(-81.742 -40.268)" fill="#ff7557"/>
        <path id="Trazado_877317" data-name="Trazado 877317" d="M179.322,83.9h0c-.011,0-1.082.154-2.323.29-.22.024-.446.047-.673.07a.062.062,0,0,1-.067-.056.061.061,0,0,1,.056-.067c.227-.022.452-.046.672-.07,1.239-.135,2.309-.288,2.32-.289a.062.062,0,0,1,.02.122" transform="translate(-81.175 -38.584)" fill="#1f0d08"/>
        <path id="Trazado_877318" data-name="Trazado 877318" d="M173.369,84.694h-.007a16.539,16.539,0,0,1-1.8.069.062.062,0,1,1,0-.124,16.582,16.582,0,0,0,1.79-.069.062.062,0,0,1,.017.123" transform="translate(-78.984 -38.949)" fill="#1f0d08"/>
        <path id="Trazado_877319" data-name="Trazado 877319" d="M200.54,167.4l3.209-2.338,4.168-8.5a4.14,4.14,0,0,1,1.158-1.431l7.988-6.276a1.617,1.617,0,0,1,2.273,2.268l-4.632,5.92.266.127a2.193,2.193,0,0,1,1.218,2.355l-.063.36a.909.909,0,0,1,.807.486l.393.743a.909.909,0,0,1,.069.687l-.261.88a1.448,1.448,0,0,1,.776,1.025l.136.713a1.448,1.448,0,0,1-.154.971c-.762,1.376-3.048,5.275-3.92,4.213-2.109,3.85-4.63,5.729-5.638,6.05a46.182,46.182,0,0,0-5.088,3.117Z" transform="translate(-92.36 -68.396)" fill="#ff8762"/>
        <path id="Trazado_877320" data-name="Trazado 877320" d="M216.749,164.972h-.015a.166.166,0,0,1-.151-.181c.048-.532-.029-.892-.223-1.041a.764.764,0,0,0-.726.008.166.166,0,1,1-.115-.312,1.056,1.056,0,0,1,1.043.04,1.446,1.446,0,0,1,.352,1.335.166.166,0,0,1-.166.151" transform="translate(-99.209 -75.224)" fill="#ff7557"/>
        <path id="Trazado_877321" data-name="Trazado 877321" d="M219.886,170.22h-.015a.166.166,0,0,1-.151-.18c.048-.532-.029-.892-.223-1.041a.765.765,0,0,0-.726.007.166.166,0,1,1-.115-.311,1.056,1.056,0,0,1,1.043.04,1.446,1.446,0,0,1,.352,1.335.166.166,0,0,1-.166.151" transform="translate(-100.653 -77.64)" fill="#ff7557"/>
        <path id="Trazado_877322" data-name="Trazado 877322" d="M222.721,174.924h-.015a.166.166,0,0,1-.151-.181c.048-.532-.029-.892-.223-1.041a.764.764,0,0,0-.726.008.166.166,0,0,1-.115-.312,1.056,1.056,0,0,1,1.043.04,1.445,1.445,0,0,1,.352,1.334.166.166,0,0,1-.166.152" transform="translate(-101.959 -79.807)" fill="#ff7557"/>
        <path id="Trazado_877323" data-name="Trazado 877323" d="M225.314,180.413H225.3a.166.166,0,0,1-.15-.181c.048-.532-.029-.892-.223-1.041a.764.764,0,0,0-.726.008.166.166,0,0,1-.115-.312,1.056,1.056,0,0,1,1.043.04,1.446,1.446,0,0,1,.352,1.335.166.166,0,0,1-.166.151" transform="translate(-103.153 -82.335)" fill="#ff7557"/>
        <path id="Trazado_877324" data-name="Trazado 877324" d="M201.31,182.492l-.77.561,2.7,11.368s3.315-2.272,4.707-2.955c-1.882-1.579-5.385-4.943-6.642-8.974" transform="translate(-92.36 -84.048)" fill="#ff7557"/>
        <path id="Trazado_877325" data-name="Trazado 877325" d="M292.058,120.7c.26-.174,7.375-8.069,8.416-8.59s12.494-3.731,12.494-3.731c.261.521-5.987,4.685-6.767,5.292.225,1.24,2.428,1.784,3.944,2.014a1.482,1.482,0,0,1-.348,2.942c-2.423-.216-5.118-.712-6.2.945-1.3,2-1.822,4.859-6.768,6.16a7.864,7.864,0,0,1-1.128,1.214Z" transform="translate(-134.509 -49.916)" fill="#ff8762"/>
        <path id="Trazado_877326" data-name="Trazado 877326" d="M292.639,130.119c-.329.35-.539.568-.58.6l3.644,6.247a7.9,7.9,0,0,0,1.128-1.215l.1-.028a10.235,10.235,0,0,1-4.29-5.6" transform="translate(-134.509 -59.927)" fill="#ff7557"/>
        <path id="Trazado_877327" data-name="Trazado 877327" d="M129.044,115.195a.166.166,0,0,1-.127-.059c-5.449-6.456-1.762-10.965,1.2-14.589q.227-.277.446-.547c2.875-3.551,3.615-7.789,2.827-16.191a.166.166,0,0,1,.331-.031c.8,8.5.038,12.8-2.9,16.432q-.218.271-.447.549c-2.885,3.528-6.476,7.918-1.2,14.163a.166.166,0,0,1-.127.273" transform="translate(-58.085 -38.515)" fill="#8c4632"/>
        <path id="Trazado_877328" data-name="Trazado 877328" d="M161.6,129.518a.164.164,0,0,1-.064-.013.166.166,0,0,1-.09-.217c.836-2.008.76-3.356-1.883-6.51-2.716-3.242-3.171-4.32-2.292-9.419a.166.166,0,1,1,.328.056c-.861,4.991-.454,5.959,2.219,9.149,2.754,3.287,2.826,4.712,1.935,6.852a.166.166,0,0,1-.154.1" transform="translate(-72.243 -52.144)" fill="#8c4632"/>
        <path id="Trazado_877329" data-name="Trazado 877329" d="M162.816,125.32a.164.164,0,0,1-.094-.03c-1.135-.785-4.254-3.777-3.714-7.1a.166.166,0,1,1,.328.053c-.474,2.923,2.2,5.829,3.575,6.778a.166.166,0,0,1-.095.3" transform="translate(-73.203 -54.367)" fill="#8c4632"/>
        <path id="Trazado_877330" data-name="Trazado 877330" d="M122.039,110.361a.165.165,0,0,1-.155-.108c-2.02-5.357,1.291-8.727,5.167-11.986,3.645-3.065,3.852-7.634,3.758-14.794a.166.166,0,0,1,.164-.168.169.169,0,0,1,.169.164c.094,7.258-.12,11.893-3.877,15.053-3.926,3.3-7.017,6.453-5.071,11.614a.166.166,0,0,1-.1.214.174.174,0,0,1-.059.011" transform="translate(-55.853 -38.367)" fill="#8c4632"/>
        <path id="Trazado_877331" data-name="Trazado 877331" d="M186.351,75.322a.17.17,0,0,1-.072-.016.167.167,0,0,1-.078-.222c1.48-3.083.946-4.8-.9-7.735-1.8-2.853-1.9-3.5-1.585-5.537a.166.166,0,1,1,.328.05c-.3,1.964-.211,2.535,1.538,5.309,1.88,2.98,2.459,4.851.92,8.056a.166.166,0,0,1-.15.094" transform="translate(-84.547 -28.403)" fill="#8c4632"/>
        <path id="Trazado_877332" data-name="Trazado 877332" d="M162.842,63.915a.166.166,0,0,1-.074-.315,7.955,7.955,0,0,1,1.781-.491c1.655-.34,3.715-.762,4.208-2.443a.166.166,0,0,1,.319.093c-.549,1.873-2.718,2.318-4.46,2.676a7.831,7.831,0,0,0-1.7.463.161.161,0,0,1-.074.018" transform="translate(-74.921 -27.885)" fill="#8c4632"/>
        <g id="Grupo_1101646" data-name="Grupo 1101646" transform="translate(108.195 60.91)" style="mix-blend-mode: multiply;isolation: isolate">
          <g id="Grupo_1101645" data-name="Grupo 1101645">
            <g id="Grupo_1101644" data-name="Grupo 1101644" clip-path="url(#clip-path-16)">
              <path id="Trazado_877333" data-name="Trazado 877333" d="M204.891,139.954a.333.333,0,0,1-.273-.523,16.22,16.22,0,0,0,2.543-8.313c0-2.414-1.283-5.036-2.769-8.071a45.69,45.69,0,0,1-3.816-9.726.333.333,0,0,1,.647-.153,45.146,45.146,0,0,0,3.766,9.586c1.522,3.11,2.837,5.8,2.837,8.364a16.6,16.6,0,0,1-2.663,8.693.332.332,0,0,1-.273.142" transform="translate(-200.567 -112.913)" fill="#b0b0b0"/>
            </g>
          </g>
        </g>
        <g id="Grupo_1101649" data-name="Grupo 1101649" transform="translate(75.571 81.647)" style="mix-blend-mode: multiply;isolation: isolate">
          <g id="Grupo_1101648" data-name="Grupo 1101648">
            <g id="Grupo_1101647" data-name="Grupo 1101647" clip-path="url(#clip-path-17)">
              <path id="Trazado_877334" data-name="Trazado 877334" d="M140.424,161.216a.353.353,0,0,1-.091-.012.333.333,0,0,1-.229-.411l2.6-9.2a.332.332,0,1,1,.64.181l-2.6,9.2a.333.333,0,0,1-.32.242" transform="translate(-140.091 -151.353)" fill="#b0b0b0"/>
            </g>
          </g>
        </g>
        <g id="Grupo_1101652" data-name="Grupo 1101652" transform="translate(80.43 90.757)" style="mix-blend-mode: multiply;isolation: isolate">
          <g id="Grupo_1101651" data-name="Grupo 1101651">
            <g id="Grupo_1101650" data-name="Grupo 1101650" clip-path="url(#clip-path-18)">
              <path id="Trazado_877335" data-name="Trazado 877335" d="M158.529,170.749a22.543,22.543,0,0,1-9.235-1.872.333.333,0,0,1,.274-.606c7.285,3.3,15.086,1.285,16.529.449a.333.333,0,1,1,.333.576,18.575,18.575,0,0,1-7.9,1.453" transform="translate(-149.098 -168.241)" fill="#b0b0b0"/>
            </g>
          </g>
        </g>
        <g id="Grupo_1101655" data-name="Grupo 1101655" transform="translate(66.461 106.115)" style="mix-blend-mode: multiply;isolation: isolate">
          <g id="Grupo_1101654" data-name="Grupo 1101654">
            <g id="Grupo_1101653" data-name="Grupo 1101653" clip-path="url(#clip-path-19)">
              <path id="Trazado_877336" data-name="Trazado 877336" d="M123.535,204.491a.333.333,0,0,1-.3-.476,37.484,37.484,0,0,1,3.8-6.117l-2.066.925a.333.333,0,0,1-.272-.607l3.3-1.475a.333.333,0,0,1,.391.518,38.136,38.136,0,0,0-4.553,7.044.333.333,0,0,1-.3.189" transform="translate(-123.203 -196.711)" fill="#b0b0b0"/>
            </g>
          </g>
        </g>
        <g id="Grupo_1101658" data-name="Grupo 1101658" transform="translate(134.745 84.684)" style="mix-blend-mode: multiply;isolation: isolate">
          <g id="Grupo_1101657" data-name="Grupo 1101657">
            <g id="Grupo_1101656" data-name="Grupo 1101656" clip-path="url(#clip-path-20)">
              <path id="Trazado_877337" data-name="Trazado 877337" d="M250.118,161.813a.345.345,0,0,1-.066-.006.333.333,0,0,1-.261-.392,40.346,40.346,0,0,1,1.671-4.235.332.332,0,0,1,.6-.022l.607,1.128a.333.333,0,1,1-.586.315l-.284-.529a30.912,30.912,0,0,0-1.352,3.473.333.333,0,0,1-.326.268" transform="translate(-249.784 -156.983)" fill="#b0b0b0"/>
            </g>
          </g>
        </g>
        <path id="Trazado_877338" data-name="Trazado 877338" d="M196.612,198.417a.332.332,0,0,1-.325-.265l-2.95-14.229a.333.333,0,0,1,.652-.135l2.95,14.229a.332.332,0,0,1-.258.393.323.323,0,0,1-.068.007" transform="translate(-89.039 -84.522)" fill="#fff"/>
        <path id="Trazado_877339" data-name="Trazado 877339" d="M289.091,142.736a.334.334,0,0,1-.283-.156l-7.288-11.627a.332.332,0,1,1,.563-.353l7.289,11.627a.333.333,0,0,1-.282.509" transform="translate(-129.632 -60.077)" fill="#fff"/>
        <path id="Trazado_877340" data-name="Trazado 877340" d="M174.9,125.591h-.018a.334.334,0,0,1-.236-.117c-.029-.034-2.883-3.4-5.191-5.8a.332.332,0,1,1,.478-.462c1.94,2.012,4.261,4.705,4.99,5.558a12.826,12.826,0,0,0,3.722-7.538.333.333,0,0,1,.657.106,13.606,13.606,0,0,1-4.173,8.158.333.333,0,0,1-.229.092" transform="translate(-78.001 -53.865)" fill="#e3e2ed"/>
        <g id="Grupo_1101661" data-name="Grupo 1101661" transform="translate(68.023 123.988)" style="mix-blend-mode: multiply;isolation: isolate">
          <g id="Grupo_1101660" data-name="Grupo 1101660">
            <g id="Grupo_1101659" data-name="Grupo 1101659" clip-path="url(#clip-path-21)">
              <path id="Trazado_877341" data-name="Trazado 877341" d="M126.431,273.717h-.011a.333.333,0,0,1-.322-.344c.009-.262.915-26.431,4.867-43.274a.333.333,0,0,1,.648.152c-3.938,16.78-4.842,42.882-4.85,43.144a.333.333,0,0,1-.332.322" transform="translate(-126.098 -229.843)" fill="#595959"/>
            </g>
          </g>
        </g>
        <path id="Trazado_877342" data-name="Trazado 877342" d="M140.88,237.184a.911.911,0,1,1-.911-.911.911.911,0,0,1,.911.911" transform="translate(-64.044 -108.817)" fill="#f58d7f"/>
        <path id="Trazado_877343" data-name="Trazado 877343" d="M137.182,261.971a.911.911,0,1,1-.911-.911.911.911,0,0,1,.911.911" transform="translate(-62.341 -120.232)" fill="#f58d7f"/>
        <path id="Trazado_877344" data-name="Trazado 877344" d="M134.89,289.354a.911.911,0,1,1-.911-.911.911.911,0,0,1,.911.911" transform="translate(-61.285 -132.844)" fill="#f58d7f"/>
        <path id="Trazado_877345" data-name="Trazado 877345" d="M307.565,246.816a1.163,1.163,0,0,1-.917-1.878,38.879,38.879,0,0,1,4.2-4.47s-1.487.419-3.866,2.78a.905.905,0,0,1-.822.245.892.892,0,0,1-.578-.4.9.9,0,0,1,.012-.989c1.181-1.752,5.373-7.7,9.5-10.357,1.485-1.783-1.831-4.415-2.695-7.575a1.223,1.223,0,0,1,0-.632,1.309,1.309,0,0,1,.193-.42,1.288,1.288,0,0,1,2.078-.054,11.1,11.1,0,0,0,3.25,3.133c1.736.737,2.409.333,5.251,2.063l9.338-1.07.326,13.015s-7.45-2.206-9.678-.262c-2.15,1.877-6.72,7.281-8.895,8.157a.594.594,0,0,1-.248.042.587.587,0,0,1-.171-.034.586.586,0,0,1-.187-.995,22.724,22.724,0,0,0,1.879-1.806,41.747,41.747,0,0,1-5.44,2.83,1.036,1.036,0,0,1-.66,0,1.027,1.027,0,0,1-.448-1.653l1.369-1.555-2.084,1.631a1.159,1.159,0,0,1-.716.247" transform="translate(-140.674 -102.505)" fill="#ff8762"/>
        <path id="Trazado_877346" data-name="Trazado 877346" d="M317.777,259.347a.17.17,0,0,0-.279-.172l-2.031,1.882a.17.17,0,0,0,.231.25l2.03-1.882a.169.169,0,0,0,.048-.078" transform="translate(-145.265 -119.343)" fill="#ff7557"/>
        <g id="Grupo_1101664" data-name="Grupo 1101664" transform="translate(199.916 54.663)" style="mix-blend-mode: multiply;isolation: isolate">
          <g id="Grupo_1101663" data-name="Grupo 1101663">
            <g id="Grupo_1101662" data-name="Grupo 1101662" clip-path="url(#clip-path-22)">
              <path id="Trazado_877347" data-name="Trazado 877347" d="M370.928,103.124a.328.328,0,0,1-.214-.078.332.332,0,0,1-.041-.468c.557-.663.884-1.105.887-1.11a.333.333,0,0,1,.536.394c-.014.019-.341.462-.913,1.143a.332.332,0,0,1-.255.119" transform="translate(-370.596 -101.332)" fill="#e3e2ed"/>
            </g>
          </g>
        </g>
        <path id="Trazado_877348" data-name="Trazado 877348" d="M350.367,111.435a.333.333,0,0,1-.3-.189l-2.182-4.539L344.7,110.6a.333.333,0,0,1-.569-.094,12.2,12.2,0,0,1-.606-4.763.333.333,0,0,1,.664.051,11.871,11.871,0,0,0,.389,3.9l3.121-3.815a.333.333,0,0,1,.557.067l2.276,4.737a17.631,17.631,0,0,0,5.577-3.96.332.332,0,1,1,.467.473,17.413,17.413,0,0,1-6.1,4.218.331.331,0,0,1-.111.019" transform="translate(-158.199 -48.558)" fill="#c8c5e3"/>
        <path id="Trazado_877349" data-name="Trazado 877349" d="M408.32,169.405l-.162-.455L389.425,116.5c-.136-.379-.3-.769-.474-1.14A12.156,12.156,0,1,0,367,125.818l19.008,39.9-32.352,5.767,1.4,19.2,46.308-9.022a10.062,10.062,0,0,0,1.319-.364,9.3,9.3,0,0,0,5.631-11.889" transform="translate(-162.88 -49.939)" fill="#e3e2ed"/>
        <g id="Grupo_1101670" data-name="Grupo 1101670" transform="translate(163.548 76.658)" style="mix-blend-mode: multiply;isolation: isolate">
          <g id="Grupo_1101669" data-name="Grupo 1101669">
            <g id="Grupo_1101668" data-name="Grupo 1101668" clip-path="url(#clip-path-23)">
              <g id="Grupo_1101667" data-name="Grupo 1101667" style="mix-blend-mode: multiply;isolation: isolate">
                <g id="Grupo_1101666" data-name="Grupo 1101666">
                  <g id="Grupo_1101665" data-name="Grupo 1101665" clip-path="url(#clip-path-23)">
                    <path id="Trazado_877350" data-name="Trazado 877350" d="M303.557,175.438a.333.333,0,0,1-.332-.32,224.759,224.759,0,0,1,1.824-32.721.333.333,0,0,1,.66.085,224.17,224.17,0,0,0-1.82,32.612.332.332,0,0,1-.32.345h-.012" transform="translate(-303.178 -142.106)" fill="#f0f0f0"/>
                  </g>
                </g>
              </g>
            </g>
          </g>
        </g>
        <g id="Grupo_1101676" data-name="Grupo 1101676" transform="translate(204.068 59.345)" style="mix-blend-mode: multiply;isolation: isolate">
          <g id="Grupo_1101675" data-name="Grupo 1101675">
            <g id="Grupo_1101674" data-name="Grupo 1101674" clip-path="url(#clip-path-25)">
              <g id="Grupo_1101673" data-name="Grupo 1101673" style="mix-blend-mode: multiply;isolation: isolate">
                <g id="Grupo_1101672" data-name="Grupo 1101672">
                  <g id="Grupo_1101671" data-name="Grupo 1101671" clip-path="url(#clip-path-25)">
                    <path id="Trazado_877351" data-name="Trazado 877351" d="M383.442,138.791l-.039,0c-1.841-.215-3.269-1.481-4.131-3.663-2.466-6.242-.033-19.558,4.567-25a.333.333,0,1,1,.508.429c-4.481,5.3-6.855,18.255-4.457,24.324.777,1.967,1.985,3.06,3.589,3.247a.333.333,0,0,1-.038.663" transform="translate(-378.293 -110.011)" fill="#f0f0f0"/>
                  </g>
                </g>
              </g>
            </g>
          </g>
        </g>
        <g id="Grupo_1101682" data-name="Grupo 1101682" transform="translate(190.447 98.392)" style="mix-blend-mode: multiply;isolation: isolate">
          <g id="Grupo_1101681" data-name="Grupo 1101681">
            <g id="Grupo_1101680" data-name="Grupo 1101680" clip-path="url(#clip-path-27)">
              <g id="Grupo_1101679" data-name="Grupo 1101679" style="mix-blend-mode: multiply;isolation: isolate">
                <g id="Grupo_1101678" data-name="Grupo 1101678">
                  <g id="Grupo_1101677" data-name="Grupo 1101677" clip-path="url(#clip-path-27)">
                    <path id="Trazado_877352" data-name="Trazado 877352" d="M353.375,205.88a.333.333,0,0,1-.058-.66l31.927-5.691L377.5,182.868a.333.333,0,1,1,.6-.281l7.928,17.052a.332.332,0,0,1-.243.468l-32.353,5.767a.314.314,0,0,1-.059.005" transform="translate(-353.043 -182.395)" fill="#f0f0f0"/>
                  </g>
                </g>
              </g>
            </g>
          </g>
        </g>
        <g id="Grupo_1101688" data-name="Grupo 1101688" transform="translate(195.089 122.209)" style="mix-blend-mode: multiply;isolation: isolate">
          <g id="Grupo_1101687" data-name="Grupo 1101687">
            <g id="Grupo_1101686" data-name="Grupo 1101686" clip-path="url(#clip-path-29)">
              <g id="Grupo_1101685" data-name="Grupo 1101685" style="mix-blend-mode: multiply;isolation: isolate">
                <g id="Grupo_1101684" data-name="Grupo 1101684">
                  <g id="Grupo_1101683" data-name="Grupo 1101683" clip-path="url(#clip-path-29)">
                    <path id="Trazado_877353" data-name="Trazado 877353" d="M363.153,242.569a.333.333,0,0,1-.331-.307L361.65,226.9a.332.332,0,1,1,.663-.051l1.172,15.357a.333.333,0,0,1-.306.357h-.026" transform="translate(-361.649 -226.546)" fill="#f0f0f0"/>
                  </g>
                </g>
              </g>
            </g>
          </g>
        </g>
        <g id="Grupo_1101694" data-name="Grupo 1101694" transform="translate(224.503 116.223)" style="mix-blend-mode: multiply;isolation: isolate">
          <g id="Grupo_1101693" data-name="Grupo 1101693">
            <g id="Grupo_1101692" data-name="Grupo 1101692" clip-path="url(#clip-path-31)">
              <g id="Grupo_1101691" data-name="Grupo 1101691" style="mix-blend-mode: multiply;isolation: isolate">
                <g id="Grupo_1101690" data-name="Grupo 1101690">
                  <g id="Grupo_1101689" data-name="Grupo 1101689" clip-path="url(#clip-path-31)">
                    <path id="Trazado_877354" data-name="Trazado 877354" d="M417.286,218.326a.332.332,0,0,1-.313-.222l-.781-2.212a.333.333,0,0,1,.384-.436,62.156,62.156,0,0,1,8,2.231.333.333,0,1,1-.258.613,56.41,56.41,0,0,0-7.3-2.064l.581,1.647a.332.332,0,0,1-.313.443" transform="translate(-416.173 -215.449)" fill="#f0f0f0"/>
                  </g>
                </g>
              </g>
            </g>
          </g>
        </g>
        <path id="Trazado_877355" data-name="Trazado 877355" d="M72.225,89.117a.262.262,0,0,1-.07-.01,17.123,17.123,0,0,1,4.651-33.6.259.259,0,1,1,0,.517,16.605,16.605,0,0,0-4.511,32.586.259.259,0,0,1-.07.508" transform="translate(-27.487 -25.563)" fill="#947675"/>
        <path id="Trazado_877356" data-name="Trazado 877356" d="M91.085,117.972a.259.259,0,1,1,0-.518,2.341,2.341,0,0,0,2.175-1.5l2.387-6.243a.258.258,0,0,1,.169-.156,16.717,16.717,0,0,0,10.085-8.333.259.259,0,1,1,.46.238,17.237,17.237,0,0,1-10.276,8.555l-2.341,6.124a2.863,2.863,0,0,1-2.659,1.83" transform="translate(-41.83 -46.555)" fill="#947675"/>
        <path id="Trazado_877357" data-name="Trazado 877357" d="M120.728,80.428a.259.259,0,0,1-.259-.259,16.6,16.6,0,0,0-2.007-7.909.259.259,0,0,1,.455-.247,17.119,17.119,0,0,1,2.07,8.156.259.259,0,0,1-.259.259" transform="translate(-54.544 -33.104)" fill="#947675"/>
        <path id="Trazado_877358" data-name="Trazado 877358" d="M93.513,75.059A14.277,14.277,0,1,0,76.646,89.1l2.526,7.468,2.87-7.506a14.3,14.3,0,0,0,11.472-14" transform="translate(-29.917 -27.993)" fill="#fff"/>
        <path id="Trazado_877359" data-name="Trazado 877359" d="M92.731,84a7.784,7.784,0,1,1-7.784-7.784A7.784,7.784,0,0,1,92.731,84" transform="translate(-35.538 -35.103)" fill="#ffc894"/>
        <path id="Trazado_877360" data-name="Trazado 877360" d="M84.492,91.682a7.971,7.971,0,1,1,7.971-7.971,7.98,7.98,0,0,1-7.971,7.971m0-15.568a7.6,7.6,0,1,0,7.6,7.6,7.606,7.606,0,0,0-7.6-7.6" transform="translate(-35.242 -34.882)" fill="#947675"/>
        <path id="Trazado_877361" data-name="Trazado 877361" d="M84.613,88.04a1.572,1.572,0,1,1,1.571-1.572,1.573,1.573,0,0,1-1.571,1.572m0-2.77a1.2,1.2,0,1,0,1.2,1.2,1.2,1.2,0,0,0-1.2-1.2" transform="translate(-38.245 -39.1)" fill="#947675"/>
        <path id="Trazado_877362" data-name="Trazado 877362" d="M95.782,88.04a1.572,1.572,0,1,1,1.571-1.572,1.573,1.573,0,0,1-1.571,1.572m0-2.77a1.2,1.2,0,1,0,1.2,1.2,1.2,1.2,0,0,0-1.2-1.2" transform="translate(-43.389 -39.1)" fill="#947675"/>
        <path id="Trazado_877363" data-name="Trazado 877363" d="M86.92,96.038a5.444,5.444,0,0,1-5.24-3.882.187.187,0,0,1,.358-.109,5.1,5.1,0,0,0,9.81-.155.187.187,0,1,1,.361.1,5.483,5.483,0,0,1-5.288,4.049" transform="translate(-37.614 -42.258)" fill="#947675"/>
        <path id="Trazado_877364" data-name="Trazado 877364" d="M85.249,70.726c-1.27,0-7.606-.091-7.606-1.885s6.336-1.885,7.606-1.885,7.607.091,7.607,1.885-6.336,1.885-7.607,1.885M78.8,68.841c.606.34,2.8.85,6.452.85s5.847-.509,6.453-.85c-.607-.34-2.8-.85-6.453-.85s-5.846.509-6.452.85" transform="translate(-35.759 -30.837)" fill="#ffc894"/>
        <path id="Trazado_877365" data-name="Trazado 877365" d="M479.286,128.61v4.779a5.7,5.7,0,0,1-5.7,5.7H457.756l-5.807,5.807V128.61a5.7,5.7,0,0,1,5.7-5.7h15.947a5.7,5.7,0,0,1,5.7,5.7" transform="translate(-208.147 -56.609)" fill="#fff"/>
        <path id="Trazado_877366" data-name="Trazado 877366" d="M475.573,133.181v4.779a5.7,5.7,0,0,1-5.7,5.7H454.043l-5.807,5.807V133.181a5.7,5.7,0,0,1,5.7-5.7h15.947a5.7,5.7,0,0,1,5.7,5.7" transform="translate(-206.437 -58.714)" fill="#ffc894"/>
        <rect id="Rectángulo_402442" data-name="Rectángulo 402442" width="3.082" height="7.058" transform="translate(248.991 74.579)" fill="#fcf3e5"/>
        <path id="Trazado_877367" data-name="Trazado 877367" d="M470.018,141.79h-1.256v-7.058h1.256c1.847-.415,2.331-2.245,2.487-3.443a.774.774,0,0,1,1.445-.277,2.534,2.534,0,0,1,.282,1.129c.045,1.25.045,2.1.045,2.1h.648a2.747,2.747,0,0,1,2.747,2.747v2.132a2.747,2.747,0,0,1-2.635,2.745Z" transform="translate(-215.891 -60.154)" fill="#fcf3e5"/>
        <path id="Trazado_877368" data-name="Trazado 877368" d="M286.7,316.993H54.691a1.266,1.266,0,0,1-1.266-1.266V315.3a1.266,1.266,0,0,1,1.266-1.266H286.7a1.266,1.266,0,0,1,1.266,1.266v.431a1.266,1.266,0,0,1-1.266,1.266" transform="translate(-24.605 -144.628)" fill="#523d3c"/>
        <path id="Trazado_877369" data-name="Trazado 877369" d="M134.5,289.07l33.752-14.656,2.413,5.558-33.752,14.656a2.589,2.589,0,0,1-3.406-1.344l-.351-.808a2.59,2.59,0,0,1,1.344-3.406" transform="translate(-61.227 -126.383)" fill="#4e688d"/>
        <rect id="Rectángulo_402443" data-name="Rectángulo 402443" width="6.059" height="8.71" transform="translate(100.939 149.229) rotate(-23.473)" fill="#3f5573"/>
        <path id="Trazado_877370" data-name="Trazado 877370" d="M195.778,253.381a23.1,23.1,0,1,1,30.391,11.989,23.1,23.1,0,0,1-30.391-11.989" transform="translate(-89.284 -101.816)" fill="#4e688d"/>
        <path id="Trazado_877371" data-name="Trazado 877371" d="M201.816,254.933a19.693,19.693,0,1,1,25.907,10.22,19.693,19.693,0,0,1-25.907-10.22" transform="translate(-92.194 -104.726)" fill="#e3e2ed"/>
        <g id="Grupo_1101697" data-name="Grupo 1101697" transform="translate(111.557 138.905)" style="mix-blend-mode: screen;isolation: isolate">
          <g id="Grupo_1101696" data-name="Grupo 1101696">
            <g id="Grupo_1101695" data-name="Grupo 1101695" clip-path="url(#clip-path-33)">
              <path id="Trazado_877372" data-name="Trazado 877372" d="M208.346,257.652a1.893,1.893,0,0,1,2.587,2.207,10.986,10.986,0,0,0,8.8,13.543,1.894,1.894,0,0,1-.641,3.732,14.774,14.774,0,0,1-11.824-18.215,1.892,1.892,0,0,1,1.082-1.268" transform="translate(-206.799 -257.496)" fill="#584666"/>
            </g>
          </g>
        </g>
        <g id="Grupo_1101700" data-name="Grupo 1101700" transform="translate(126.498 153.901)" style="mix-blend-mode: screen;isolation: isolate">
          <g id="Grupo_1101699" data-name="Grupo 1101699">
            <g id="Grupo_1101698" data-name="Grupo 1101698" clip-path="url(#clip-path-34)">
              <path id="Trazado_877373" data-name="Trazado 877373" d="M235.635,286.355a1.889,1.889,0,0,1,.452-.132,11.056,11.056,0,0,0,2.621-.771,1.893,1.893,0,1,1,1.508,3.473,14.8,14.8,0,0,1-3.521,1.035,1.894,1.894,0,0,1-1.059-3.606" transform="translate(-234.497 -285.294)" fill="#584666"/>
            </g>
          </g>
        </g>
        <g id="Grupo_1101703" data-name="Grupo 1101703" transform="translate(118.982 122.666)" style="mix-blend-mode: screen;isolation: isolate">
          <g id="Grupo_1101702" data-name="Grupo 1101702">
            <g id="Grupo_1101701" data-name="Grupo 1101701" clip-path="url(#clip-path-35)">
              <path id="Trazado_877374" data-name="Trazado 877374" d="M245.592,240a19.693,19.693,0,0,1-9.361,25.508c.294-.112.587-.229.878-.355a19.693,19.693,0,1,0-15.688-36.127c-.291.126-.577.261-.859.4A19.692,19.692,0,0,1,245.592,240" transform="translate(-220.564 -227.392)" fill="#584666"/>
            </g>
          </g>
        </g>
        <path id="Trazado_877375" data-name="Trazado 877375" d="M253.565,260.1H249.89a.868.868,0,1,1,0-1.736h3.675a.868.868,0,1,1,0,1.736" transform="translate(-114.688 -118.992)" fill="#fff"/>
        <path id="Trazado_877376" data-name="Trazado 877376" d="M244.339,260.1H242.71a.868.868,0,0,1,0-1.736h1.629a.868.868,0,0,1,0,1.736" transform="translate(-111.382 -118.992)" fill="#fff"/>
        <path id="Trazado_877377" data-name="Trazado 877377" d="M249.342,267.25H242a.868.868,0,1,1,0-1.736h7.337a.868.868,0,1,1,0,1.736" transform="translate(-111.057 -122.284)" fill="#fff"/>
        <path id="Trazado_877378" data-name="Trazado 877378" d="M222.293,258.005a.869.869,0,0,1-.614-.254l-4.562-4.562a.868.868,0,1,1,1.228-1.227l3.935,3.935,7.55-7.87a.868.868,0,0,1,1.253,1.2l-8.163,8.509a.869.869,0,0,1-.617.267h-.009" transform="translate(-99.877 -114.107)" fill="#fe9c41"/>
      </g>
    </g>
  </g>
</svg>
