<svg xmlns="http://www.w3.org/2000/svg" xmlns:xlink="http://www.w3.org/1999/xlink" width="82" height="82" viewBox="0 0 82 82">
  <defs>
    <clipPath id="clip-path">
      <rect id="Rectángulo_402655" data-name="Rectángulo 402655" width="57.932" height="54.049" fill="none"/>
    </clipPath>
  </defs>
  <g id="Grupo_1102152" data-name="Grupo 1102152" transform="translate(-338.127 -2039)">
    <g id="Grupo_1102146" data-name="Grupo 1102146" transform="translate(-0.25)">
      <g id="Grupo_1102141" data-name="Grupo 1102141" transform="translate(-609.956 1597.001)">
        <circle id="Elipse_11497" data-name="Elipse 11497" cx="41" cy="41" r="41" transform="translate(948.333 441.999)" fill="#2436b1"/>
      </g>
    </g>
    <g id="Grupo_1102151" data-name="Grupo 1102151" transform="translate(350.127 2053)">
      <g id="Grupo_1102150" data-name="Grupo 1102150" clip-path="url(#clip-path)">
        <path id="Trazado_878386" data-name="Trazado 878386" d="M261.416,85.323l6.146-1.394a.51.51,0,0,1,.623.5v21.632a.51.51,0,0,1-.56.508l-2.951-.289a.439.439,0,0,1-.385-.356l-3.2-20.13a.422.422,0,0,1,.327-.469" transform="translate(-210.253 -67.579)" fill="#fff"/>
        <path id="Trazado_878387" data-name="Trazado 878387" d="M6.77,100.656.623,99.262a.51.51,0,0,0-.623.5v21.632a.51.51,0,0,0,.56.508l2.951-.289a.439.439,0,0,0,.385-.356l3.2-20.13a.422.422,0,0,0-.327-.469" transform="translate(0 -79.926)" fill="#fff"/>
        <path id="Trazado_878388" data-name="Trazado 878388" d="M69.592,132.71l-5.663-3.888-11.868-8.029a14.521,14.521,0,0,1-2.471.763,32.492,32.492,0,0,1-2.3,3.571,6.26,6.26,0,0,1-4.828,1.919h0c-.226,0-.46-.008-.7-.024a2.756,2.756,0,0,1-2.385-3.741l2.482-6.434-.161-.25H34.9a.55.55,0,0,0-.543.463L31.6,134.789l19.418,12.849a1.849,1.849,0,0,0,2.042-3.082l-5.04-3.341a.925.925,0,0,1-.407-.608.885.885,0,0,1,.172-.7,1,1,0,0,1,.649-.381,1.046,1.046,0,0,1,.748.16l7.853,5.218a2.153,2.153,0,0,0,2.813-.378,1.82,1.82,0,0,0,.419-1.465,1.9,1.9,0,0,0-.845-1.294l-7.243-4.8a.922.922,0,0,1-.408-.607.89.89,0,0,1,.169-.7,1.012,1.012,0,0,1,.651-.382,1.048,1.048,0,0,1,.749.161l9.253,6.139a2.418,2.418,0,0,0,3.156-.426,2.041,2.041,0,0,0,.471-1.644,2.125,2.125,0,0,0-.948-1.453l-10.443-6.933a.9.9,0,0,1-.41-.988,1.016,1.016,0,0,1,1.006-.723h.289l.263.172L66.549,136.6a2.7,2.7,0,0,0,3.521-.474,2.282,2.282,0,0,0,.53-1.8,2.366,2.366,0,0,0-1.008-1.615" transform="translate(-25.444 -93.896)" fill="#fff"/>
        <path id="Trazado_878389" data-name="Trazado 878389" d="M79.721,100.618a1,1,0,0,0,.867,1.361,4.88,4.88,0,0,0,4.114-1.331c.508-.553,2.482-3.965,2.482-3.965A12.505,12.505,0,0,0,92.2,94.761a1.066,1.066,0,0,1,1.406.173.9.9,0,0,1-.186,1.316c-.194.139-.423.3-.677.473L113.82,110.98l2.146.074-2.882-17.639a.55.55,0,0,0-.386-.438L95.634,87.9a5.546,5.546,0,0,0-4.11.385l-8.63,4.491a.55.55,0,0,0-.259.29Z" transform="translate(-64.147 -70.603)" fill="#fff"/>
        <path id="Trazado_878390" data-name="Trazado 878390" d="M145.857,11.7a1.279,1.279,0,0,1-1.279-1.279V1.279a1.279,1.279,0,1,1,2.557,0v9.139a1.279,1.279,0,0,1-1.279,1.279" transform="translate(-116.43)" fill="#ff9b6a"/>
        <path id="Trazado_878391" data-name="Trazado 878391" d="M173.252,29.34a1.28,1.28,0,0,1-1.2-1.72l1.992-5.43a1.279,1.279,0,0,1,2.4.881l-1.992,5.43a1.279,1.279,0,0,1-1.2.839" transform="translate(-138.492 -17.194)" fill="#ff9b6a"/>
        <path id="Trazado_878392" data-name="Trazado 878392" d="M194.289,45.816a1.279,1.279,0,0,1-.924-2.162l5.28-5.524a1.279,1.279,0,0,1,1.849,1.767l-5.28,5.524a1.275,1.275,0,0,1-.925.4" transform="translate(-155.433 -30.388)" fill="#ff9b6a"/>
        <path id="Trazado_878393" data-name="Trazado 878393" d="M109.356,29.339a1.279,1.279,0,0,1-1.2-.839l-1.992-5.43a1.279,1.279,0,1,1,2.4-.881l1.992,5.43a1.28,1.28,0,0,1-1.2,1.719" transform="translate(-85.431 -17.194)" fill="#ff9b6a"/>
        <path id="Trazado_878394" data-name="Trazado 878394" d="M74.723,45.816a1.276,1.276,0,0,1-.925-.4L68.518,39.9a1.279,1.279,0,1,1,1.849-1.767l5.28,5.524a1.279,1.279,0,0,1-.924,2.162" transform="translate(-54.893 -30.388)" fill="#ff9b6a"/>
      </g>
    </g>
  </g>
</svg>
