<svg xmlns="http://www.w3.org/2000/svg" xmlns:xlink="http://www.w3.org/1999/xlink" width="82" height="82" viewBox="0 0 82 82">
  <defs>
    <clipPath id="clip-path">
      <rect id="Rectángulo_402654" data-name="Rectángulo 402654" width="58.251" height="57.173" fill="none"/>
    </clipPath>
  </defs>
  <g id="Grupo_1102153" data-name="Grupo 1102153" transform="translate(-758.377 -2039)">
    <g id="Grupo_1102142" data-name="Grupo 1102142" transform="translate(-189.956 1597.001)">
      <circle id="Elipse_11497" data-name="Elipse 11497" cx="41" cy="41" r="41" transform="translate(948.333 441.999)" fill="#2436b1"/>
    </g>
    <g id="Grupo_1102148" data-name="Grupo 1102148" transform="translate(770.875 2051.413)">
      <g id="Grupo_1102147" data-name="Grupo 1102147" clip-path="url(#clip-path)">
        <path id="Trazado_878378" data-name="Trazado 878378" d="M115.153,5.039A5.039,5.039,0,1,0,120.192,0a5.039,5.039,0,0,0-5.039,5.039" transform="translate(-91.067)" fill="#fff"/>
        <path id="Trazado_878379" data-name="Trazado 878379" d="M69.548,56.617h-17.4a5.4,5.4,0,0,1-7.487,0h-17.4a2.679,2.679,0,1,0,0,5.358H38.729a2.765,2.765,0,0,1,2.748,2.765v1.291h.008V98.9a3.051,3.051,0,1,0,6.1,0V81.864a.837.837,0,0,1,.734-.845.814.814,0,0,1,.894.81V98.817a3.116,3.116,0,0,0,3.109,3.131A3.051,3.051,0,0,0,55.318,98.9V64.669a2.763,2.763,0,0,1,2.517-2.693H69.548a2.679,2.679,0,0,0,0-5.358" transform="translate(-19.436 -44.775)" fill="#fff"/>
        <path id="Trazado_878380" data-name="Trazado 878380" d="M37.946,95.642l4.879,11.883a.209.209,0,0,0,.193.129h1.669a.208.208,0,0,0,.193-.288L38.9,92.8l-.016-.039c-.01-.025-.023-.051-.034-.075l0-.006a.4.4,0,0,0-.027-.047c-.009-.014-.017-.027-.026-.038a.292.292,0,0,0-.024-.033.659.659,0,0,0-.044-.053c-.016-.018-.033-.034-.05-.051a.925.925,0,0,0-.2-.144l-.043-.023a.834.834,0,0,0-.085-.037c-.018-.008-.038-.015-.058-.021s-.049-.015-.074-.022l-.013,0-.041-.009a.254.254,0,0,0-.043-.008l-.037-.005-.048-.005q-.043,0-.085,0t-.085,0a.659.659,0,0,0-.085.01,1.03,1.03,0,0,0-.171.041c-.028.009-.057.02-.084.03l-.007,0a.489.489,0,0,0-.052.024l-.043.023a.336.336,0,0,0-.037.022c-.02.012-.04.025-.06.039s-.038.029-.057.045a.855.855,0,0,0-.162.176c-.009.012-.017.024-.026.038a.678.678,0,0,0-.041.076c-.008.016-.017.034-.024.052S37,92.784,37,92.8a.8.8,0,0,0,.015.57Z" transform="translate(-29.222 -72.895)" fill="#ff9b6a"/>
        <path id="Trazado_878381" data-name="Trazado 878381" d="M10.362,107.654a.208.208,0,0,0,.193-.129l4.879-11.883.935-2.276a.8.8,0,0,0,.016-.57l-.016-.039c-.007-.018-.016-.035-.024-.052a.493.493,0,0,0-.041-.076c-.009-.014-.017-.027-.026-.038a.289.289,0,0,0-.024-.033.668.668,0,0,0-.044-.053c-.016-.018-.033-.034-.05-.051s-.028-.027-.044-.039-.037-.03-.057-.044-.04-.027-.06-.039a.377.377,0,0,0-.037-.022l-.042-.023a.83.83,0,0,0-.085-.037c-.019-.008-.038-.015-.058-.022s-.056-.017-.084-.024h0a.827.827,0,0,0-.084-.017.66.66,0,0,0-.085-.01c-.028,0-.057,0-.086,0s-.057,0-.085,0a.652.652,0,0,0-.085.01.82.82,0,0,0-.084.017h0c-.028.008-.057.015-.084.024s-.04.014-.058.022a.646.646,0,0,0-.085.037l-.043.023-.037.022c-.02.012-.04.025-.06.039s-.038.029-.057.044-.03.025-.044.039-.034.033-.05.051-.03.035-.044.053a.29.29,0,0,0-.024.033c-.008.012-.017.024-.026.038a.68.68,0,0,0-.041.076c-.008.017-.017.034-.024.052s-.012.027-.016.039L8.5,107.367a.208.208,0,0,0,.193.288Z" transform="translate(-6.71 -72.895)" fill="#ff9b6a"/>
        <path id="Trazado_878382" data-name="Trazado 878382" d="M0,175.02a7.3,7.3,0,0,0,.1,1.075c.633,3.79,4.255,6.694,8.627,6.694s8-2.9,8.631-6.694v0a7.305,7.305,0,0,0,.1-1.073l-.04-.107H.04Z" transform="translate(0 -138.326)" fill="#ff9b6a"/>
        <path id="Trazado_878383" data-name="Trazado 878383" d="M210.507,95.642l-4.879,11.883a.209.209,0,0,1-.193.129h-1.669a.208.208,0,0,1-.193-.288l5.983-14.57.016-.039c.01-.025.023-.051.034-.075l0-.006a.373.373,0,0,1,.027-.047.444.444,0,0,1,.026-.038.291.291,0,0,1,.024-.033.657.657,0,0,1,.044-.053c.016-.018.033-.034.05-.051a.925.925,0,0,1,.2-.144l.043-.023a.835.835,0,0,1,.085-.037l.058-.021c.024-.008.048-.015.074-.022l.013,0,.041-.009a.254.254,0,0,1,.043-.008l.037-.005.048-.005q.043,0,.085,0t.085,0a.659.659,0,0,1,.085.01,1.03,1.03,0,0,1,.171.041c.028.009.057.02.084.03l.007,0a.47.47,0,0,1,.053.024l.043.023a.332.332,0,0,1,.037.022c.02.012.04.025.06.039s.038.029.057.045a.857.857,0,0,1,.162.176c.008.012.017.024.026.038a.678.678,0,0,1,.041.076.563.563,0,0,1,.024.052c.006.013.011.027.016.039a.8.8,0,0,1-.016.57Z" transform="translate(-160.98 -72.895)" fill="#ff9b6a"/>
        <path id="Trazado_878384" data-name="Trazado 878384" d="M238.09,107.654a.208.208,0,0,1-.193-.129l-4.879-11.883-.935-2.276a.8.8,0,0,1-.016-.57l.016-.039c.007-.018.016-.035.024-.052a.493.493,0,0,1,.041-.076c.009-.014.017-.027.026-.038a.289.289,0,0,1,.024-.033.668.668,0,0,1,.044-.053c.016-.018.033-.034.05-.051s.028-.027.044-.039.037-.03.057-.044.04-.027.06-.039l.037-.022.043-.023a.829.829,0,0,1,.085-.037c.019-.008.038-.015.058-.022s.055-.017.084-.024h0a.82.82,0,0,1,.084-.017.656.656,0,0,1,.085-.01c.028,0,.057,0,.085,0s.057,0,.086,0a.66.66,0,0,1,.085.01.828.828,0,0,1,.084.017h0c.028.008.057.015.084.024s.04.014.058.022a.623.623,0,0,1,.085.037l.043.023.037.022c.02.012.04.025.06.039s.038.029.057.044.03.025.044.039.034.033.05.051.03.035.044.053a.289.289,0,0,1,.024.033c.009.012.017.024.026.038a.678.678,0,0,1,.041.076c.008.017.017.034.024.052s.011.027.016.039l5.983,14.57a.208.208,0,0,1-.193.288Z" transform="translate(-183.491 -72.895)" fill="#ff9b6a"/>
        <path id="Trazado_878385" data-name="Trazado 878385" d="M212.521,175.02a7.3,7.3,0,0,1-.1,1.075c-.633,3.79-4.255,6.694-8.627,6.694s-8-2.9-8.631-6.694v0a7.306,7.306,0,0,1-.1-1.073l.04-.107h17.369Z" transform="translate(-154.27 -138.326)" fill="#ff9b6a"/>
      </g>
    </g>
  </g>
</svg>
