<svg id="Grupo_1101600" data-name="Grupo 1101600" xmlns="http://www.w3.org/2000/svg" xmlns:xlink="http://www.w3.org/1999/xlink" width="181.789" height="116.852" viewBox="0 0 181.789 116.852">
  <defs>
    <clipPath id="clip-path">
      <rect id="Rectángulo_402408" data-name="Rectángulo 402408" width="181.789" height="116.852" fill="none"/>
    </clipPath>
    <clipPath id="clip-path-3">
      <rect id="Rectángulo_402359" data-name="Rectángulo 402359" width="4.749" height="5.891" fill="none"/>
    </clipPath>
    <clipPath id="clip-path-4">
      <rect id="Rectángulo_402360" data-name="Rectángulo 402360" width="1.492" height="0.748" fill="none"/>
    </clipPath>
    <clipPath id="clip-path-5">
      <rect id="Rectángulo_402361" data-name="Rectángulo 402361" width="0.928" height="0.479" fill="none"/>
    </clipPath>
    <clipPath id="clip-path-6">
      <rect id="Rectángulo_402362" data-name="Rectángulo 402362" width="2.307" height="0.608" fill="none"/>
    </clipPath>
    <clipPath id="clip-path-7">
      <rect id="Rectángulo_402364" data-name="Rectángulo 402364" width="1.432" height="1.613" fill="none"/>
    </clipPath>
    <clipPath id="clip-path-8">
      <rect id="Rectángulo_402365" data-name="Rectángulo 402365" width="21.427" height="6.903" fill="none"/>
    </clipPath>
    <clipPath id="clip-path-9">
      <rect id="Rectángulo_402366" data-name="Rectángulo 402366" width="6.989" height="2.563" fill="none"/>
    </clipPath>
    <clipPath id="clip-path-10">
      <rect id="Rectángulo_402368" data-name="Rectángulo 402368" width="3.294" height="3.01" fill="none"/>
    </clipPath>
    <clipPath id="clip-path-11">
      <rect id="Rectángulo_402369" data-name="Rectángulo 402369" width="1.197" height="1.289" fill="none"/>
    </clipPath>
    <clipPath id="clip-path-12">
      <rect id="Rectángulo_402370" data-name="Rectángulo 402370" width="1.495" height="0.294" fill="none"/>
    </clipPath>
    <clipPath id="clip-path-13">
      <rect id="Rectángulo_402371" data-name="Rectángulo 402371" width="6.347" height="26.469" fill="none"/>
    </clipPath>
    <clipPath id="clip-path-14">
      <rect id="Rectángulo_402372" data-name="Rectángulo 402372" width="5.298" height="15.348" fill="none"/>
    </clipPath>
    <clipPath id="clip-path-15">
      <rect id="Rectángulo_402373" data-name="Rectángulo 402373" width="0.547" height="3.517" fill="none"/>
    </clipPath>
    <clipPath id="clip-path-16">
      <rect id="Rectángulo_402374" data-name="Rectángulo 402374" width="7.814" height="1.321" fill="none"/>
    </clipPath>
    <clipPath id="clip-path-17">
      <rect id="Rectángulo_402375" data-name="Rectángulo 402375" width="5.788" height="0.907" fill="none"/>
    </clipPath>
    <clipPath id="clip-path-18">
      <rect id="Rectángulo_402376" data-name="Rectángulo 402376" width="1.491" height="5.962" fill="none"/>
    </clipPath>
    <clipPath id="clip-path-19">
      <rect id="Rectángulo_402377" data-name="Rectángulo 402377" width="1.578" height="2.643" fill="none"/>
    </clipPath>
    <clipPath id="clip-path-20">
      <rect id="Rectángulo_402378" data-name="Rectángulo 402378" width="4.122" height="16.547" fill="none"/>
    </clipPath>
    <clipPath id="clip-path-21">
      <rect id="Rectángulo_402379" data-name="Rectángulo 402379" width="3.376" height="14.032" fill="none"/>
    </clipPath>
    <clipPath id="clip-path-22">
      <rect id="Rectángulo_402380" data-name="Rectángulo 402380" width="1.63" height="1.49" fill="none"/>
    </clipPath>
    <clipPath id="clip-path-23">
      <rect id="Rectángulo_402381" data-name="Rectángulo 402381" width="1.759" height="6.826" fill="none"/>
    </clipPath>
    <clipPath id="clip-path-24">
      <rect id="Rectángulo_402383" data-name="Rectángulo 402383" width="23.743" height="14.42" fill="none"/>
    </clipPath>
    <clipPath id="clip-path-25">
      <rect id="Rectángulo_402384" data-name="Rectángulo 402384" width="16.396" height="10.48" fill="none"/>
    </clipPath>
    <clipPath id="clip-path-26">
      <rect id="Rectángulo_402385" data-name="Rectángulo 402385" width="34.015" height="33.386" fill="none"/>
    </clipPath>
    <clipPath id="clip-path-27">
      <rect id="Rectángulo_402387" data-name="Rectángulo 402387" width="0.67" height="0.421" fill="none"/>
    </clipPath>
    <clipPath id="clip-path-29">
      <rect id="Rectángulo_402389" data-name="Rectángulo 402389" width="2.981" height="3.018" fill="none"/>
    </clipPath>
    <clipPath id="clip-path-30">
      <rect id="Rectángulo_402390" data-name="Rectángulo 402390" width="1.389" height="0.388" fill="none"/>
    </clipPath>
    <clipPath id="clip-path-31">
      <rect id="Rectángulo_402391" data-name="Rectángulo 402391" width="0.865" height="0.146" fill="none"/>
    </clipPath>
    <clipPath id="clip-path-32">
      <rect id="Rectángulo_402392" data-name="Rectángulo 402392" width="0.465" height="0.326" fill="none"/>
    </clipPath>
    <clipPath id="clip-path-33">
      <rect id="Rectángulo_402393" data-name="Rectángulo 402393" width="1.958" height="0.545" fill="none"/>
    </clipPath>
    <clipPath id="clip-path-34">
      <rect id="Rectángulo_402394" data-name="Rectángulo 402394" width="5.392" height="6.689" fill="none"/>
    </clipPath>
    <clipPath id="clip-path-35">
      <rect id="Rectángulo_402395" data-name="Rectángulo 402395" width="1.611" height="0.947" fill="none"/>
    </clipPath>
    <clipPath id="clip-path-36">
      <rect id="Rectángulo_402396" data-name="Rectángulo 402396" width="0.974" height="0.635" fill="none"/>
    </clipPath>
    <clipPath id="clip-path-37">
      <rect id="Rectángulo_402397" data-name="Rectángulo 402397" width="2.06" height="1.772" fill="none"/>
    </clipPath>
    <clipPath id="clip-path-38">
      <rect id="Rectángulo_402399" data-name="Rectángulo 402399" width="3.482" height="11.237" fill="none"/>
    </clipPath>
    <clipPath id="clip-path-39">
      <rect id="Rectángulo_402400" data-name="Rectángulo 402400" width="8.047" height="5.857" fill="none"/>
    </clipPath>
    <clipPath id="clip-path-40">
      <rect id="Rectángulo_402401" data-name="Rectángulo 402401" width="3.109" height="1.036" fill="none"/>
    </clipPath>
    <clipPath id="clip-path-41">
      <rect id="Rectángulo_402402" data-name="Rectángulo 402402" width="4.72" height="11.936" fill="none"/>
    </clipPath>
    <clipPath id="clip-path-42">
      <rect id="Rectángulo_402403" data-name="Rectángulo 402403" width="11.366" height="6.885" fill="none"/>
    </clipPath>
    <clipPath id="clip-path-43">
      <rect id="Rectángulo_402404" data-name="Rectángulo 402404" width="0.897" height="2.491" fill="none"/>
    </clipPath>
    <clipPath id="clip-path-44">
      <rect id="Rectángulo_402405" data-name="Rectángulo 402405" width="5.006" height="2.05" fill="none"/>
    </clipPath>
    <clipPath id="clip-path-45">
      <rect id="Rectángulo_402406" data-name="Rectángulo 402406" width="14.133" height="5.485" fill="none"/>
    </clipPath>
  </defs>
  <g id="Grupo_1101599" data-name="Grupo 1101599" clip-path="url(#clip-path)">
    <g id="Grupo_1101598" data-name="Grupo 1101598">
      <g id="Grupo_1101597" data-name="Grupo 1101597" clip-path="url(#clip-path)">
        <path id="Trazado_876951" data-name="Trazado 876951" d="M988.952,251.963c-18.97,10.767-11.529,21.171-1.887,28.926s22.009-6.917,19.284-18.865-9.642-14.463-17.4-10.061" transform="translate(-824.944 -210.999)" fill="#fcf3e5"/>
        <path id="Trazado_876952" data-name="Trazado 876952" d="M480.141,6.8C454,25.055,481.4,49.767,497.538,37.61s38.778,5.031,39.2-10.48S506.552-11.648,480.141,6.8" transform="translate(-396.203 0)" fill="#fcf3e5"/>
        <path id="Trazado_876953" data-name="Trazado 876953" d="M6.173,441.892c-19.9,2.843,14.463,37.939,16.978,23.686S20.846,439.8,6.173,441.892" transform="translate(0 -372.84)" fill="#fcf3e5"/>
        <path id="Trazado_876954" data-name="Trazado 876954" d="M75.144,171.134c-7-35.65,29.054-49.824,42.51-25.226s24.355,23.968,47.832,17.68,54.5,10.69,56.175,35.424-13.415,29.764-13.415,29.764l-90.551-.629c-37.939-23.686-37.939-33.538-42.551-57.014" transform="translate(-62.683 -112.772)" fill="#fcf3e5"/>
        <path id="Trazado_876955" data-name="Trazado 876955" d="M883.761,53.39a.133.133,0,0,1-.093-.038,1.567,1.567,0,0,0-1.094-.442h-3a.134.134,0,0,1,0-.268h3a1.833,1.833,0,0,1,1.28.517.134.134,0,0,1-.093.23" transform="translate(-742.43 -44.442)" fill="#947675"/>
        <path id="Trazado_876956" data-name="Trazado 876956" d="M675.961,64.286a.134.134,0,0,1-.134-.134V54.484a1.829,1.829,0,0,1,.363-1.1,1.852,1.852,0,0,1,1.48-.744h27.138a.134.134,0,1,1,0,.268H677.669a1.574,1.574,0,0,0-1.574,1.575v9.667a.134.134,0,0,1-.134.134" transform="translate(-570.539 -44.441)" fill="#947675"/>
        <path id="Trazado_876957" data-name="Trazado 876957" d="M675.961,158.577a.134.134,0,0,1-.134-.134v-4.028a.134.134,0,1,1,.268,0v4.028a.134.134,0,0,1-.134.134" transform="translate(-570.539 -130.245)" fill="#947675"/>
        <path id="Trazado_876958" data-name="Trazado 876958" d="M691.769,67.945h33.013a1.709,1.709,0,0,1,1.709,1.708V82.071a1.709,1.709,0,0,1-1.709,1.708H694.439l-3.335,4.38a.581.581,0,0,1-1.043-.352V69.653a1.708,1.708,0,0,1,1.708-1.708" transform="translate(-582.555 -57.36)" fill="#fff"/>
        <path id="Trazado_876959" data-name="Trazado 876959" d="M917.287,166.689a.134.134,0,1,1,0-.268,1.575,1.575,0,0,0,1.574-1.575.134.134,0,0,1,.268,0,1.842,1.842,0,0,1-1.842,1.842" transform="translate(-774.268 -139.052)" fill="#947675"/>
        <path id="Trazado_876960" data-name="Trazado 876960" d="M842.321,87.831h3.167a1.25,1.25,0,1,0,0-2.5h-3.167a1.25,1.25,0,1,0,0,2.5" transform="translate(-710.039 -72.037)" fill="#ffc894"/>
        <path id="Trazado_876961" data-name="Trazado 876961" d="M875.892,141.86h2.892a1.11,1.11,0,0,0,.913-.5,1.347,1.347,0,0,0,0-1.493,1.112,1.112,0,0,0-.918-.507h-2.892a1.085,1.085,0,0,0-.77.327,1.3,1.3,0,0,0-.372.923,1.324,1.324,0,0,0,.228.75,1.11,1.11,0,0,0,.913.5" transform="translate(-738.472 -117.649)" fill="#ffc894"/>
        <path id="Trazado_876962" data-name="Trazado 876962" d="M851.415,115.856h6.362a1.25,1.25,0,1,0,0-2.5h-6.362a1.25,1.25,0,1,0,0,2.5" transform="translate(-717.716 -95.696)" fill="#ffc894"/>
        <path id="Trazado_876963" data-name="Trazado 876963" d="M719.821,115.856h17.159a1.11,1.11,0,0,0,.913-.5,1.347,1.347,0,0,0,0-1.493,1.111,1.111,0,0,0-.918-.507H719.821a1.085,1.085,0,0,0-.77.327,1.3,1.3,0,0,0-.372.923,1.325,1.325,0,0,0,.228.75,1.111,1.111,0,0,0,.913.5" transform="translate(-606.715 -95.696)" fill="#ffc894"/>
        <path id="Trazado_876964" data-name="Trazado 876964" d="M719.99,87.831h5.963a1.25,1.25,0,1,0,0-2.5H719.99a1.25,1.25,0,1,0,0,2.5" transform="translate(-606.766 -72.037)" fill="#ffc894"/>
        <path id="Trazado_876965" data-name="Trazado 876965" d="M781.307,87.831h5.963a1.25,1.25,0,1,0,0-2.5h-5.963a1.25,1.25,0,1,0,0,2.5" transform="translate(-658.53 -72.037)" fill="#ffc894"/>
        <path id="Trazado_876966" data-name="Trazado 876966" d="M444.4,151.882H427.026a1.13,1.13,0,0,0-1.13,1.13v8.212a1.13,1.13,0,0,0,1.13,1.13h15.6l2.24.765a.384.384,0,0,0,.69-.233v-2.664l-.035-7.211a1.13,1.13,0,0,0-1.13-1.13" transform="translate(-359.545 -128.22)" fill="#ffc894"/>
        <path id="Trazado_876967" data-name="Trazado 876967" d="M452.468,158.759H435.1a1.13,1.13,0,0,0-1.13,1.13V168.1a1.13,1.13,0,0,0,1.13,1.13h15.6l2.205,2.9a.384.384,0,0,0,.69-.233V159.889a1.13,1.13,0,0,0-1.13-1.13" transform="translate(-366.36 -134.026)" fill="#fff"/>
        <path id="Trazado_876968" data-name="Trazado 876968" d="M449,171.91H446.9a.827.827,0,1,1,0-1.653H449a.827.827,0,1,1,0,1.653" transform="translate(-376.581 -143.732)" fill="#fcf3e5"/>
        <path id="Trazado_876969" data-name="Trazado 876969" d="M450.147,196.947H445.94a.827.827,0,1,1,0-1.653h4.207a.827.827,0,1,1,0,1.653" transform="translate(-375.768 -164.869)" fill="#fcf3e5"/>
        <path id="Trazado_876970" data-name="Trazado 876970" d="M498.158,196.947h-5.8a.827.827,0,1,1,0-1.653h5.8a.827.827,0,1,1,0,1.653" transform="translate(-414.954 -164.869)" fill="#fcf3e5"/>
        <path id="Trazado_876971" data-name="Trazado 876971" d="M482.245,171.91H478.3a.827.827,0,1,1,0-1.653h3.943a.827.827,0,1,1,0,1.653" transform="translate(-403.088 -143.732)" fill="#fcf3e5"/>
        <path id="Trazado_876972" data-name="Trazado 876972" d="M1090.12,582.776a.132.132,0,0,1-.068-.019.134.134,0,0,1-.046-.184c.8-1.343,2.077-3.109,3.868-2.957a2.964,2.964,0,0,1,2.277,1.3.134.134,0,1,1-.222.151,2.669,2.669,0,0,0-2.079-1.185c-1.644-.141-2.85,1.546-3.616,2.827a.133.133,0,0,1-.115.065" transform="translate(-920.175 -489.309)" fill="#7b8c76"/>
        <path id="Trazado_876973" data-name="Trazado 876973" d="M1058.624,617.494a.134.134,0,0,1-.085-.238,2.4,2.4,0,0,1,2.479-.475.134.134,0,0,1-.1.249,2.141,2.141,0,0,0-2.211.434.134.134,0,0,1-.085.03" transform="translate(-893.586 -520.553)" fill="#7b8c76"/>
        <path id="Trazado_876974" data-name="Trazado 876974" d="M1016.48,700.664a.133.133,0,0,1-.109-.056c-1.625-2.266-2.287-4.023-1.914-5.08a.134.134,0,1,1,.252.089c-.338.957.33,2.674,1.879,4.835a.134.134,0,0,1-.109.212" transform="translate(-856.328 -587.095)" fill="#7b8c76"/>
        <path id="Trazado_876975" data-name="Trazado 876975" d="M1060.641,637.85h0l-4.562-.049a.134.134,0,0,1,0-.268h0l4.548.049c.175-.039,2.344-.585,3.071-3.674.471-2-.18-2.212-.7-2.381-.324-.1-.692-.224-.624-.745.072-.552.971-1.5,2.011-2.591,1.219-1.282,2.6-2.734,2.835-3.75a2.944,2.944,0,0,0-.086-1.6c-.207-.768-.386-1.431.915-2.828a4.782,4.782,0,0,0,1.028-1.847.134.134,0,0,1,.256.079,5.059,5.059,0,0,1-1.088,1.95c-1.2,1.288-1.047,1.857-.853,2.576a3.212,3.212,0,0,1,.088,1.729c-.251,1.087-1.66,2.568-2.9,3.875a8.424,8.424,0,0,0-1.94,2.441c-.037.289.1.345.441.456.742.24,1.369.627.882,2.7-.8,3.382-3.27,3.874-3.295,3.878l-.024,0" transform="translate(-891.437 -521.782)" fill="#7b8c76"/>
        <path id="Trazado_876976" data-name="Trazado 876976" d="M1026.414,613.8c-5.17-5.776-5.031-8.524-2.143-8.384s1.4-4.658,2.1-7.033,2.644-3.924,4.425-2.469c.841.687,2.375-6.055,5.636-5.776s3.354,4.938,1.444,6.987-.338,2.329-.757,4.145-4.46,4.938-4.6,6.009,2-.186,1.258,2.981-3.028,3.587-3.028,3.587Z" transform="translate(-863.012 -498.192)" fill="#a5b1a3"/>
        <path id="Trazado_876977" data-name="Trazado 876977" d="M1056.194,631.466a.134.134,0,0,1-.134-.129c-.218-5.824,2.055-11.154,4-14.6a36.373,36.373,0,0,1,4.315-6.143.134.134,0,1,1,.2.182,36.112,36.112,0,0,0-4.282,6.1c-1.926,3.414-4.177,8.693-3.962,14.452a.134.134,0,0,1-.129.139h-.005" transform="translate(-891.522 -515.433)" fill="#523d3c"/>
        <path id="Trazado_876978" data-name="Trazado 876978" d="M1063.074,673.769a.134.134,0,0,1-.109-.211,13.453,13.453,0,0,1,4.172-3.792.134.134,0,1,1,.12.24,13.451,13.451,0,0,0-4.073,3.707.134.134,0,0,1-.11.057" transform="translate(-897.342 -565.409)" fill="#523d3c"/>
        <path id="Trazado_876979" data-name="Trazado 876979" d="M1089.236,624.211l-.02,0a.134.134,0,0,1-.112-.152,7.816,7.816,0,0,0,0-2.28.134.134,0,0,1,.261-.059,7.924,7.924,0,0,1,0,2.378.134.134,0,0,1-.132.114" transform="translate(-919.429 -524.772)" fill="#523d3c"/>
        <path id="Trazado_876980" data-name="Trazado 876980" d="M984.287,691.595c-1.607-.017-1.205,1.729-.576,2.218s.8.507.262,1.048-.594,1.258.786,1.886a26.951,26.951,0,0,1,3.214,1.887l1.066.018c-.122-1.485.506-3.389-.664-3.354-.459.014-1.135-.559-1.537-1.991s-2.149-2.987-2.55-1.712" transform="translate(-829.991 -583.451)" fill="#a5b1a3"/>
        <path id="Trazado_876981" data-name="Trazado 876981" d="M997.118,709a.134.134,0,0,1-.118-.071,19.472,19.472,0,0,0-3.973-5.456.134.134,0,1,1,.171-.206,19.715,19.715,0,0,1,4.039,5.537.134.134,0,0,1-.118.2" transform="translate(-838.28 -593.679)" fill="#523d3c"/>
        <path id="Trazado_876982" data-name="Trazado 876982" d="M1001.879,705.209a.134.134,0,0,1-.134-.131,7.133,7.133,0,0,0-.2-1.52.134.134,0,1,1,.257-.075,7.269,7.269,0,0,1,.215,1.589.134.134,0,0,1-.131.137h0" transform="translate(-845.505 -593.805)" fill="#523d3c"/>
        <path id="Trazado_876983" data-name="Trazado 876983" d="M1004.416,725.5a.13.13,0,0,1-.036-.005,5.356,5.356,0,0,1-1.675-.8.134.134,0,1,1,.173-.2,5.185,5.185,0,0,0,1.574.742.134.134,0,0,1-.036.263" transform="translate(-846.451 -611.6)" fill="#523d3c"/>
        <path id="Trazado_876984" data-name="Trazado 876984" d="M978.659,693.406a.133.133,0,0,1-.092-.036,1.692,1.692,0,0,1-.521-1.626,1.537,1.537,0,0,1,1.064-1.132.134.134,0,1,1,.077.256,1.272,1.272,0,0,0-.88.937,1.427,1.427,0,0,0,.444,1.37.134.134,0,0,1-.092.231" transform="translate(-825.638 -583.015)" fill="#7b8c76"/>
        <path id="Trazado_876985" data-name="Trazado 876985" d="M471.722,662.186c2.767-.03,2.075,2.978.993,3.82s-1.384.872-.451,1.8,1.023,2.166-1.354,3.249a46.4,46.4,0,0,0-5.535,3.249l-1.835.03c.211-2.557-.872-5.836,1.143-5.775.791.024,1.955-.963,2.647-3.429s3.7-5.144,4.392-2.948" transform="translate(-391.235 -558.335)" fill="#a5b1a3"/>
        <path id="Trazado_876986" data-name="Trazado 876986" d="M524.91,665.305a.229.229,0,0,0,.158-.063,2.914,2.914,0,0,0,.9-2.8,2.648,2.648,0,0,0-1.832-1.949.231.231,0,0,0-.132.442,2.191,2.191,0,0,1,1.515,1.614,2.457,2.457,0,0,1-.765,2.359.231.231,0,0,0,.158.4" transform="translate(-442.227 -557.585)" fill="#7b8c76"/>
        <path id="Trazado_876987" data-name="Trazado 876987" d="M465.662,692.407a.142.142,0,0,1-.125-.209,43.333,43.333,0,0,1,4.219-6.549l.031-.039-.017-.047a.139.139,0,0,1-.009-.05,12.532,12.532,0,0,1,.367-2.714.142.142,0,0,1,.136-.1.144.144,0,0,1,.039.006.141.141,0,0,1,.1.175,10.786,10.786,0,0,0-.33,2.124l-.019.277.177-.214a20.268,20.268,0,0,1,2.261-2.4.14.14,0,0,1,.091-.033.142.142,0,0,1,.091.251,29.349,29.349,0,0,0-5.2,6.528l-.132.212.237-.08a7.849,7.849,0,0,0,2.3-1.155.139.139,0,0,1,.091-.033.141.141,0,0,1,.091.249,9.117,9.117,0,0,1-2.851,1.352.124.124,0,0,1-.026,0l-.046,0-.026.04c-.453.75-.9,1.534-1.318,2.33a.142.142,0,0,1-.126.076" transform="translate(-392.996 -576.283)" fill="#523d3c"/>
        <path id="Trazado_876988" data-name="Trazado 876988" d="M1036.93,604.5a.133.133,0,0,1-.121-.078,29.387,29.387,0,0,1-1.962-7.274,36.574,36.574,0,0,1,1.724-17.608.134.134,0,0,1,.252.09,36.308,36.308,0,0,0-1.713,17.468,29.141,29.141,0,0,0,1.941,7.211.134.134,0,0,1-.121.19" transform="translate(-873.294 -489.182)" fill="#523d3c"/>
        <path id="Trazado_876989" data-name="Trazado 876989" d="M1040.9,571.8a.134.134,0,0,1-.117-.069,3.579,3.579,0,0,1-.328-2.572,3.774,3.774,0,0,1,.848-1.437,1.083,1.083,0,0,1,1.085-.4.841.841,0,0,1,.48.479.134.134,0,1,1-.244.11.575.575,0,0,0-.323-.336c-.224-.077-.519.044-.81.333a3.509,3.509,0,0,0-.783,1.333,1.248,1.248,0,1,0,1.828.627,4.307,4.307,0,0,0,.124-.433.134.134,0,0,1,.261.06,4.668,4.668,0,0,1-.132.46,3.58,3.58,0,0,1-1.837,1.829.133.133,0,0,1-.053.011" transform="translate(-878.249 -478.91)" fill="#7b8c76"/>
        <path id="Trazado_876990" data-name="Trazado 876990" d="M1023.491,605.377l-.023,0a2.685,2.685,0,0,1-1.655-1.021,2.83,2.83,0,0,1-.438-1.17.833.833,0,0,1,.292-.842.656.656,0,0,1,.526-.058.134.134,0,0,1-.068.259.393.393,0,0,0-.315.026c-.137.086-.2.3-.168.587a2.562,2.562,0,0,0,.4,1.055.887.887,0,1,0,1.151-.724,3.159,3.159,0,0,0-.19-.27.134.134,0,1,1,.21-.166,3.428,3.428,0,0,1,.206.292,2.684,2.684,0,0,1,.2,1.934.134.134,0,0,1-.129.1" transform="translate(-862.245 -508.429)" fill="#7b8c76"/>
        <path id="Trazado_876991" data-name="Trazado 876991" d="M1028.315,612a.134.134,0,0,1-.118-.07,21.14,21.14,0,0,0-1.511-2.37.134.134,0,1,1,.21-.167,20.97,20.97,0,0,1,1.536,2.408.134.134,0,0,1-.117.2" transform="translate(-866.713 -514.414)" fill="#523d3c"/>
        <path id="Trazado_876992" data-name="Trazado 876992" d="M1027.837,603.751a.133.133,0,0,1-.095-.039,2.185,2.185,0,0,0-.425-.31.134.134,0,0,1,.131-.233,2.413,2.413,0,0,1,.483.354.134.134,0,0,1-.095.229" transform="translate(-867.212 -509.185)" fill="#7b8c76"/>
        <path id="Trazado_876993" data-name="Trazado 876993" d="M1018.445,678.046a2.331,2.331,0,0,1-1.384-.4,2.827,2.827,0,0,1-.83-.933.833.833,0,0,1-.031-.89.656.656,0,0,1,.469-.244.134.134,0,0,1,.03.266.393.393,0,0,0-.285.138.6.6,0,0,0,.055.608,2.555,2.555,0,0,0,.752.84.887.887,0,1,0,.812-1.09,3.165,3.165,0,0,0-.274-.183.134.134,0,0,1,.137-.23,3.405,3.405,0,0,1,.3.2,2.683,2.683,0,0,1,.887,1.731.134.134,0,0,1-.107.144,2.959,2.959,0,0,1-.528.044" transform="translate(-857.787 -570.329)" fill="#7b8c76"/>
        <path id="Trazado_876994" data-name="Trazado 876994" d="M1024.974,683.612a.133.133,0,0,1-.086-.032,21.152,21.152,0,0,0-2.264-1.666.134.134,0,1,1,.136-.231,20.963,20.963,0,0,1,2.3,1.693.134.134,0,0,1-.087.236" transform="translate(-863.251 -575.467)" fill="#523d3c"/>
        <path id="Trazado_876995" data-name="Trazado 876995" d="M1021.555,676.087a.134.134,0,0,1-.054-.012,2.187,2.187,0,0,0-.508-.136.134.134,0,1,1,.038-.265,2.42,2.42,0,0,1,.578.156.134.134,0,0,1-.054.256" transform="translate(-861.833 -570.408)" fill="#7b8c76"/>
        <path id="Trazado_876996" data-name="Trazado 876996" d="M1038.817,639.128a2.914,2.914,0,0,1-.473-.036.134.134,0,0,1-.11-.142,2.682,2.682,0,0,1,.858-1.745,3.412,3.412,0,0,1,.294-.2.134.134,0,1,1,.141.228,3.1,3.1,0,0,0-.271.188.887.887,0,1,0,.831,1.076,2.554,2.554,0,0,0,.737-.853.6.6,0,0,0,.044-.609.393.393,0,0,0-.287-.133.134.134,0,1,1,.026-.267.656.656,0,0,1,.473.236.833.833,0,0,1-.016.891,2.825,2.825,0,0,1-.814.947,2.365,2.365,0,0,1-1.433.424" transform="translate(-876.486 -537.448)" fill="#7b8c76"/>
        <path id="Trazado_876997" data-name="Trazado 876997" d="M1034.8,644.758a.134.134,0,0,1-.088-.235,20.949,20.949,0,0,1,2.272-1.731.134.134,0,1,1,.14.229,21.15,21.15,0,0,0-2.235,1.7.133.133,0,0,1-.088.033" transform="translate(-873.477 -542.634)" fill="#523d3c"/>
        <path id="Trazado_876998" data-name="Trazado 876998" d="M1047.377,637.178a.134.134,0,0,1-.057-.255,2.408,2.408,0,0,1,.576-.166.134.134,0,1,1,.043.264,2.186,2.186,0,0,0-.506.145.133.133,0,0,1-.056.012" transform="translate(-884.091 -537.553)" fill="#7b8c76"/>
        <path id="Trazado_876999" data-name="Trazado 876999" d="M74.4,624.62a.134.134,0,0,1-.1-.047c-.757-.9-1.907-2.054-3.156-1.738a2.085,2.085,0,0,0-1.454,1.176.134.134,0,0,1-.243-.113,2.372,2.372,0,0,1,1.631-1.323c1.395-.352,2.624.873,3.426,1.825a.134.134,0,0,1-.1.22" transform="translate(-58.618 -525.53)" fill="#7b8c76"/>
        <path id="Trazado_877000" data-name="Trazado 877000" d="M117.8,646.367a.133.133,0,0,1-.067-.018,1.668,1.668,0,0,0-1.753-.057.134.134,0,1,1-.138-.229,1.926,1.926,0,0,1,2.026.054.134.134,0,0,1-.067.25" transform="translate(-97.742 -545.19)" fill="#7b8c76"/>
        <path id="Trazado_877001" data-name="Trazado 877001" d="M73.089,670.637h0c-.083,0-2.034-.069-3.093-2.626-.653-1.575-.182-1.978.357-2.255.254-.131.332-.181.272-.379-.1-.347-.975-1.007-1.817-1.645-1.14-.864-2.432-1.844-2.77-2.668a2.565,2.565,0,0,1-.154-1.375c.059-.578.106-1.035-.984-1.878a4.028,4.028,0,0,1-1.106-1.394.134.134,0,0,1,.24-.119,3.758,3.758,0,0,0,1.031,1.3c1.207.935,1.148,1.509,1.086,2.117a2.305,2.305,0,0,0,.135,1.246,9.269,9.269,0,0,0,2.684,2.556c1,.755,1.782,1.351,1.911,1.781s-.169.572-.406.694c-.4.2-.846.435-.232,1.914.959,2.313,2.664,2.452,2.839,2.46l3.543-.618a.134.134,0,1,1,.046.264l-3.557.62-.023,0" transform="translate(-53.841 -553.989)" fill="#7b8c76"/>
        <path id="Trazado_877002" data-name="Trazado 877002" d="M84.3,647.973c3.3-5.171,2.842-7.3.6-6.822s-1.686-3.46-2.534-5.226-2.565-2.728-3.771-1.364c-.569.644-2.628-4.427-5.139-3.792s-1.99,4.284-.237,5.641.561,1.776,1.12,3.141,4.113,3.287,4.359,4.106-1.588.11-.6,2.489a3.425,3.425,0,0,0,2.822,2.415Z" transform="translate(-60.568 -532.454)" fill="#a5b1a3"/>
        <path id="Trazado_877003" data-name="Trazado 877003" d="M96.2,661.743a.134.134,0,0,1-.133-.117,22.275,22.275,0,0,0-4.931-10.767,28.544,28.544,0,0,0-4.119-4.214.134.134,0,0,1,.165-.211,28.813,28.813,0,0,1,4.159,4.252,22.543,22.543,0,0,1,4.992,10.906.134.134,0,0,1-.116.15H96.2" transform="translate(-73.415 -545.701)" fill="#523d3c"/>
        <path id="Trazado_877004" data-name="Trazado 877004" d="M113.876,692.777a.133.133,0,0,1-.1-.04,10.617,10.617,0,0,0-3.642-2.369.134.134,0,1,1,.08-.256,10.678,10.678,0,0,1,3.754,2.437.134.134,0,0,1-.1.228" transform="translate(-92.9 -582.593)" fill="#523d3c"/>
        <path id="Trazado_877005" data-name="Trazado 877005" d="M104.546,654.558a.134.134,0,0,1-.127-.093,6.3,6.3,0,0,1-.3-1.868.134.134,0,0,1,.267.016,6.143,6.143,0,0,0,.291,1.77.134.134,0,0,1-.128.175" transform="translate(-87.892 -550.821)" fill="#523d3c"/>
        <path id="Trazado_877006" data-name="Trazado 877006" d="M140.368,580.9a.13.13,0,0,1-.036-.005.134.134,0,0,1-.093-.165,35.3,35.3,0,0,0,.913-9,43.994,43.994,0,0,0-5.46-20.558.134.134,0,1,1,.234-.129,44.262,44.262,0,0,1,5.494,20.694,35.562,35.562,0,0,1-.923,9.068.134.134,0,0,1-.129.1" transform="translate(-114.538 -465.136)" fill="#523d3c"/>
        <path id="Trazado_877007" data-name="Trazado 877007" d="M128.556,542.1a.126.126,0,0,1-.032,0,4.3,4.3,0,0,1-2.535-1.813,5.556,5.556,0,0,1-.246-.521.134.134,0,1,1,.248-.1,5.288,5.288,0,0,0,.234.5,3.977,3.977,0,0,0,2.243,1.645,3.977,3.977,0,0,0-.13-2.778,4.274,4.274,0,0,0-1.205-1.45,1.061,1.061,0,0,0-1.063-.242.725.725,0,0,0-.334.482.134.134,0,0,1-.259-.069.991.991,0,0,1,.466-.648,1.287,1.287,0,0,1,1.345.26,4.546,4.546,0,0,1,1.286,1.542,4.3,4.3,0,0,1,.109,3.115.134.134,0,0,1-.126.089" transform="translate(-105.925 -453.338)" fill="#7b8c76"/>
        <path id="Trazado_877008" data-name="Trazado 877008" d="M158.782,577.553a.134.134,0,0,1-.122-.077,3.221,3.221,0,0,1-.133-2.329,4.194,4.194,0,0,1,.187-.387.134.134,0,0,1,.235.129,3.862,3.862,0,0,0-.175.362,2.877,2.877,0,0,0,.081,1.994,2.877,2.877,0,0,0,1.487-1.331c.433-1.025.318-1.885-.06-2.044a.5.5,0,0,0-.4.031.134.134,0,1,1-.108-.245.767.767,0,0,1,.617-.033c.578.244.667,1.3.2,2.4a3.221,3.221,0,0,1-1.762,1.528.137.137,0,0,1-.044.007" transform="translate(-133.684 -484.214)" fill="#7b8c76"/>
        <path id="Trazado_877009" data-name="Trazado 877009" d="M158.444,585.948a.136.136,0,0,1-.045-.008.134.134,0,0,1-.082-.171,25.937,25.937,0,0,1,1.364-3.173.134.134,0,1,1,.234.13,25.629,25.629,0,0,0-1.345,3.132.134.134,0,0,1-.126.089" transform="translate(-133.647 -491.775)" fill="#523d3c"/>
        <path id="Trazado_877010" data-name="Trazado 877010" d="M162.157,576a.134.134,0,0,1-.109-.212,2.888,2.888,0,0,1,.5-.512.134.134,0,1,1,.167.209,2.679,2.679,0,0,0-.453.459.133.133,0,0,1-.109.056" transform="translate(-136.781 -485.624)" fill="#7b8c76"/>
        <path id="Trazado_877011" data-name="Trazado 877011" d="M174.511,663.487h-.048a.134.134,0,0,1-.129-.125,3.22,3.22,0,0,1,.714-2.22,4.17,4.17,0,0,1,.314-.293.134.134,0,0,1,.172.205,3.8,3.8,0,0,0-.294.274,2.875,2.875,0,0,0-.642,1.889,2.877,2.877,0,0,0,1.866-.706c.773-.8.976-1.643.68-1.929a.5.5,0,0,0-.388-.117.134.134,0,0,1-.013-.268.767.767,0,0,1,.588.192c.451.436.155,1.45-.674,2.308a3.173,3.173,0,0,1-2.147.79" transform="translate(-147.171 -557.342)" fill="#7b8c76"/>
        <path id="Trazado_877012" data-name="Trazado 877012" d="M171.085,670.893a.134.134,0,0,1-.1-.219,22.084,22.084,0,0,1,2.366-2.485.134.134,0,1,1,.171.206,22.248,22.248,0,0,0-2.33,2.448.134.134,0,0,1-.1.049" transform="translate(-144.318 -564.065)" fill="#523d3c"/>
        <path id="Trazado_877013" data-name="Trazado 877013" d="M183.01,661.219a.134.134,0,0,1-.073-.246,2.89,2.89,0,0,1,.654-.3.134.134,0,1,1,.081.255,2.671,2.671,0,0,0-.588.265.133.133,0,0,1-.073.022" transform="translate(-154.386 -557.744)" fill="#7b8c76"/>
        <path id="Trazado_877014" data-name="Trazado 877014" d="M140.936,622.819a2.488,2.488,0,0,1-1.186-.273,3.4,3.4,0,0,1-1.149-.965.983.983,0,0,1-.191-1.031.767.767,0,0,1,.5-.36.134.134,0,0,1,.068.259.5.5,0,0,0-.335.229.754.754,0,0,0,.174.749,3.127,3.127,0,0,0,1.057.884,2.876,2.876,0,0,0,1.993.109,2.876,2.876,0,0,0-1.183-1.607,3.862,3.862,0,0,0-.363-.173.134.134,0,1,1,.1-.248,4.12,4.12,0,0,1,.388.185,3.22,3.22,0,0,1,1.352,1.9.134.134,0,0,1-.086.158,3.767,3.767,0,0,1-1.145.183" transform="translate(-116.781 -523.565)" fill="#7b8c76"/>
        <path id="Trazado_877015" data-name="Trazado 877015" d="M149.83,628.747a.133.133,0,0,1-.071-.02,25.628,25.628,0,0,0-3.008-1.6.134.134,0,1,1,.1-.248A25.9,25.9,0,0,1,149.9,628.5a.134.134,0,0,1-.071.248" transform="translate(-123.818 -529.205)" fill="#523d3c"/>
        <path id="Trazado_877016" data-name="Trazado 877016" d="M144.417,620.33a.135.135,0,0,1-.036,0,2.669,2.669,0,0,0-.637-.075h0a.134.134,0,1,1,0-.268,2.877,2.877,0,0,1,.709.085.134.134,0,0,1-.036.263" transform="translate(-121.234 -523.394)" fill="#7b8c76"/>
        <path id="Trazado_877017" data-name="Trazado 877017" d="M517.885,519.894H509.61a.73.73,0,0,1-.73-.73v-7.483a.73.73,0,0,1,.73-.73h8.275a.73.73,0,0,1,.73.73v7.483a.73.73,0,0,1-.73.73" transform="translate(-429.601 -431.349)" fill="#ffc894"/>
        <path id="Trazado_877018" data-name="Trazado 877018" d="M399.25,216.788a3.314,3.314,0,0,0-.44-1.46,13.877,13.877,0,0,1-1.2-4.341.875.875,0,0,0-1.72-.049,13.784,13.784,0,0,0-.249,2.764,24,24,0,0,0-7.759-2.878,1,1,0,0,0-.617,1.879l3.286,1.572a23.662,23.662,0,0,0-3.552-.457,1.053,1.053,0,0,0-.428,2.036l.447.169a.544.544,0,0,0-.488.74,1.117,1.117,0,0,0,.64.641c1.2.466,3.542,1.242,3.542,1.242l-1.721-.141a.658.658,0,0,0-.324,1.255c1.429.645,3.423,1.01,3.959,1.5a6.015,6.015,0,0,0,3.458,1.684c1.846.062,2.54.155,2.54.155l1.713,1.127,3.746-5.158-.71-.543-.323-.189Z" transform="translate(-325.773 -177.491)" fill="#ff8762"/>
        <g id="Grupo_1101470" data-name="Grupo 1101470" transform="translate(72.851 40.847)" style="mix-blend-mode: multiply;isolation: isolate">
          <g id="Grupo_1101469" data-name="Grupo 1101469">
            <g id="Grupo_1101468" data-name="Grupo 1101468" clip-path="url(#clip-path-3)">
              <path id="Trazado_877019" data-name="Trazado 877019" d="M469.334,268.078l3.035-5.7-.323-.189a21.286,21.286,0,0,1-4.426,4.764c.9.549,1.713,1.127,1.713,1.127" transform="translate(-467.621 -262.187)" fill="#a1a1a1"/>
            </g>
          </g>
        </g>
        <g id="Grupo_1101473" data-name="Grupo 1101473" transform="translate(65.072 36.797)" style="mix-blend-mode: multiply;isolation: isolate">
          <g id="Grupo_1101472" data-name="Grupo 1101472">
            <g id="Grupo_1101471" data-name="Grupo 1101471" clip-path="url(#clip-path-4)">
              <path id="Trazado_877020" data-name="Trazado 877020" d="M419.09,236.945a.09.09,0,0,1-.035-.007l-1.313-.57a.089.089,0,0,1,.071-.164l1.313.57a.089.089,0,0,1-.036.171" transform="translate(-417.687 -236.196)" fill="#a1a1a1"/>
            </g>
          </g>
        </g>
        <g id="Grupo_1101476" data-name="Grupo 1101476" transform="translate(64.668 39.166)" style="mix-blend-mode: multiply;isolation: isolate">
          <g id="Grupo_1101475" data-name="Grupo 1101475">
            <g id="Grupo_1101474" data-name="Grupo 1101474" clip-path="url(#clip-path-5)">
              <path id="Trazado_877021" data-name="Trazado 877021" d="M415.93,251.877a.091.091,0,0,1-.037-.008s-.289-.131-.744-.3a.089.089,0,1,1,.062-.167c.461.17.753.3.756.3a.089.089,0,0,1-.037.171" transform="translate(-415.091 -251.398)" fill="#a1a1a1"/>
            </g>
          </g>
        </g>
        <g id="Grupo_1101479" data-name="Grupo 1101479" transform="translate(61.513 38.397)" style="mix-blend-mode: multiply;isolation: isolate">
          <g id="Grupo_1101478" data-name="Grupo 1101478">
            <g id="Grupo_1101477" data-name="Grupo 1101477" clip-path="url(#clip-path-6)">
              <path id="Trazado_877022" data-name="Trazado 877022" d="M397.056,247.069a.088.088,0,0,1-.025,0,11.431,11.431,0,0,0-2.112-.427.089.089,0,1,1,.017-.178,11.588,11.588,0,0,1,2.145.433.089.089,0,0,1-.025.175" transform="translate(-394.838 -246.46)" fill="#a1a1a1"/>
            </g>
          </g>
        </g>
        <rect id="Rectángulo_402363" data-name="Rectángulo 402363" width="7.979" height="3.774" transform="translate(73.958 47.715) rotate(-62.372)" fill="#fff"/>
        <path id="Trazado_877023" data-name="Trazado 877023" d="M483.219,301.264a.508.508,0,1,1-.508-.508.508.508,0,0,1,.508.508" transform="translate(-407.08 -253.901)" fill="#737e91"/>
        <path id="Trazado_877024" data-name="Trazado 877024" d="M435.859,245.094a2.265,2.265,0,0,0,0,.631,4.08,4.08,0,0,0,.138.628,6.2,6.2,0,0,0,.217.611c.082.2.173.4.271.585h0l0,0a.179.179,0,0,1-.175.253,4.771,4.771,0,0,0-.906.006,4.373,4.373,0,0,0-.892.183,4.606,4.606,0,0,0-.845.354,4.17,4.17,0,0,0-.757.512l0,0a.089.089,0,0,1-.12-.132,4.339,4.339,0,0,1,.772-.578,4.833,4.833,0,0,1,.87-.414,4.642,4.642,0,0,1,.938-.239,5.1,5.1,0,0,1,.972-.052l-.173.258c-.1-.213-.172-.421-.245-.636a6.5,6.5,0,0,1-.183-.653,4.305,4.305,0,0,1-.1-.674,2.451,2.451,0,0,1,.047-.689.089.089,0,0,1,.175.034Z" transform="translate(-365.339 -206.821)" fill="#ff7557"/>
        <path id="Trazado_877025" data-name="Trazado 877025" d="M423.031,245.693h0a.089.089,0,0,1-.085-.094,6.589,6.589,0,0,1,.979-3.207.089.089,0,0,1,.151.095,6.412,6.412,0,0,0-.952,3.122.089.089,0,0,1-.089.085" transform="translate(-357.05 -204.593)" fill="#ff7557"/>
        <path id="Trazado_877026" data-name="Trazado 877026" d="M532.7,234.64a6.48,6.48,0,0,0-8.982-1.822L508.3,243.034l-16.819-5.945-4.052,9.782,19.643,7.335a5.459,5.459,0,0,0,4.447-.287l.248-.131,18.567-9.842c.182-.1.369-.208.544-.324a6.48,6.48,0,0,0,1.822-8.982" transform="translate(-411.491 -195.636)" fill="#515a69"/>
        <g id="Grupo_1101482" data-name="Grupo 1101482" transform="translate(96.706 47.59)" style="mix-blend-mode: multiply;isolation: isolate">
          <g id="Grupo_1101481" data-name="Grupo 1101481">
            <g id="Grupo_1101480" data-name="Grupo 1101480" clip-path="url(#clip-path-7)">
              <path id="Trazado_877027" data-name="Trazado 877027" d="M620.873,307.085h0a.134.134,0,0,1-.133-.134l.006-1.345a.134.134,0,0,1,.232-.091l1.159,1.252a.134.134,0,0,1-.2.182l-.928-1,0,1.005a.134.134,0,0,1-.134.133" transform="translate(-620.739 -305.473)" fill="#8c8c8c"/>
            </g>
          </g>
        </g>
        <path id="Trazado_877028" data-name="Trazado 877028" d="M190.069,493.882c-2.934,7.546-5.59,30.882-5.59,30.882h17.887l7.686-18.865,3.144,19.179H227.24c1.677-18.445-1.572-31.022-1.572-31.022l-4.4-7.127-11.633-1.991s-9.328,1.887-9.642,2.306-9.921,6.638-9.921,6.638" transform="translate(-155.739 -409.389)" fill="#4d3b47"/>
        <g id="Grupo_1101485" data-name="Grupo 1101485" transform="translate(44.857 77.506)" style="mix-blend-mode: multiply;isolation: isolate">
          <g id="Grupo_1101484" data-name="Grupo 1101484">
            <g id="Grupo_1101483" data-name="Grupo 1101483" clip-path="url(#clip-path-8)">
              <path id="Trazado_877029" data-name="Trazado 877029" d="M287.929,503.786c4.332,1.77,10.387-.7,14.253-2.189a10.012,10.012,0,0,1,7.173,0s-2.608-3.447-2.748-3.54-16.583-.559-16.583-.559Z" transform="translate(-287.929 -497.498)" fill="#404040"/>
            </g>
          </g>
        </g>
        <path id="Trazado_877030" data-name="Trazado 877030" d="M402.058,265.408l-15.788,1.19-12.18-17.162a6.061,6.061,0,0,0-.411-.511,5.456,5.456,0,1,0-8.077,7.337l15.491,17.054.187.206a4.034,4.034,0,0,0,3.19,1.3l17.8-.651Z" transform="translate(-307.447 -208.635)" fill="#fe9c41"/>
        <path id="Trazado_877031" data-name="Trazado 877031" d="M308.709,283.732c2.865,2.1,5.939.7,10.376-.21a9.637,9.637,0,0,1,7.336,1.258l-3.389-32.315s-.838-6.917-1.188-7.546-2.4-3.959-2.4-3.959l-6.964-.442-1.4,13.834Z" transform="translate(-260.615 -203.047)" fill="#fff"/>
        <path id="Trazado_877032" data-name="Trazado 877032" d="M326.249,284.642l-.071-.053a9.684,9.684,0,0,0-7.305-1.251c-.849.174-1.641.364-2.407.548-3.167.76-5.669,1.36-8-.345l-.018-.013,0-.022,2.376-29.38,1.4-13.872.037,0,6.984.444.011.017c.02.033,2.054,3.338,2.4,3.961s1.158,7.277,1.192,7.56Zm-17.719-1.151c2.3,1.668,4.778,1.072,7.918.319.766-.184,1.559-.374,2.409-.548a9.858,9.858,0,0,1,7.3,1.215l-3.38-32.23c-.008-.068-.841-6.916-1.183-7.531-.332-.6-2.228-3.681-2.387-3.941l-6.906-.439-1.394,13.8Z" transform="translate(-260.395 -202.824)"/>
        <path id="Trazado_877033" data-name="Trazado 877033" d="M58.724,189.474a36.272,36.272,0,0,0-3-6.568,10.23,10.23,0,0,0-3.7-6.218c-.32-.278-.589-.526-.806-.737a1.008,1.008,0,0,0-1.493,1.347,9.807,9.807,0,0,1,1.6,2.639c-4.255-1.926-9.361-1.321-11.036-1.046a.753.753,0,0,0-.626.659l-.014.126a.753.753,0,0,0,.749.838,19.936,19.936,0,0,1,5.093.612,30.046,30.046,0,0,0-6.857.763.754.754,0,0,0-.53.872l.041.2a.753.753,0,0,0,.876.592,41.235,41.235,0,0,1,6.12-.474,38,38,0,0,0-5.085,1.089.754.754,0,0,0-.5.94l.044.146a.753.753,0,0,0,.854.523,26.567,26.567,0,0,1,5.353-.322,21.963,21.963,0,0,0-3.9,1,.754.754,0,0,0,.418,1.441c4.788-.893,7.616-.742,8.557.692a18.106,18.106,0,0,1,1.677,3.633Z" transform="translate(-32.149 -148.3)" fill="#ba593c"/>
        <g id="Grupo_1101488" data-name="Grupo 1101488" transform="translate(19.288 40.304)" style="mix-blend-mode: multiply;isolation: isolate">
          <g id="Grupo_1101487" data-name="Grupo 1101487">
            <g id="Grupo_1101486" data-name="Grupo 1101486" clip-path="url(#clip-path-9)">
              <path id="Trazado_877034" data-name="Trazado 877034" d="M123.8,259.666c.291.563.538,1.135.725,1.6l6.264-2.5-.025-.065a22.5,22.5,0,0,1-6.964.959" transform="translate(-123.805 -258.707)" fill="#a1a1a1"/>
            </g>
          </g>
        </g>
        <rect id="Rectángulo_402367" data-name="Rectángulo 402367" width="7.608" height="2.702" transform="translate(19.393 42.879) rotate(-20.645)" fill="#ffbe80"/>
        <path id="Trazado_877035" data-name="Trazado 877035" d="M106.222,208.665a2.576,2.576,0,0,0,0,.72,4.62,4.62,0,0,0,.154.717,7.013,7.013,0,0,0,.244.7c.093.227.2.456.306.668l0,0a.18.18,0,0,1-.088.238.182.182,0,0,1-.086.016,5.43,5.43,0,0,0-1.034.01,5.034,5.034,0,0,0-.513.079c-.085.016-.168.041-.253.061l-.126.032-.124.04a5.235,5.235,0,0,0-.962.406,4.746,4.746,0,0,0-.861.586l0,0a.089.089,0,0,1-.12-.132,4.922,4.922,0,0,1,.876-.652,5.475,5.475,0,0,1,.986-.465l.128-.047.131-.039c.088-.025.174-.055.264-.076a5.4,5.4,0,0,1,.539-.106,5.77,5.77,0,0,1,1.1-.056l-.172.258h0c-.108-.24-.2-.475-.279-.719a7.325,7.325,0,0,1-.21-.738,4.881,4.881,0,0,1-.117-.762,2.773,2.773,0,0,1,.05-.779.089.089,0,0,1,.175.034Z" transform="translate(-86.722 -176.067)" fill="#ab472a"/>
        <path id="Trazado_877036" data-name="Trazado 877036" d="M86.768,211.482a.044.044,0,0,1-.044-.037,7.427,7.427,0,0,1,.234-3.772.045.045,0,0,1,.085.029,7.339,7.339,0,0,0-.231,3.727.045.045,0,0,1-.036.052h-.008" transform="translate(-73.096 -175.294)" fill="#ab472a"/>
        <path id="Trazado_877037" data-name="Trazado 877037" d="M133.715,251.113l5.322,12.1,9.008-13.655a5.456,5.456,0,1,1,9.108,6.009,6.107,6.107,0,0,1-.388.519l-15.047,17.791-.159.188a4.057,4.057,0,0,1-5.718.478A4.133,4.133,0,0,1,134.8,273.2l-9.3-19.148Z" transform="translate(-105.952 -208.612)" fill="#fe9c41"/>
        <path id="Trazado_877038" data-name="Trazado 877038" d="M287.534,167.545c-.978-1.991-3.039-2.62-2.725-1.956-3.389-.524-7.162,2.795-3.808,6.218.384,2.166,4.367,1.886,5.659.245.629,1.188,2.585.175,2.376-2.026s-1.5-2.48-1.5-2.48" transform="translate(-236.121 -139.577)" fill="#38190f"/>
        <path id="Trazado_877039" data-name="Trazado 877039" d="M331.553,174.292a1.14,1.14,0,1,1-1.14-1.14,1.14,1.14,0,0,1,1.14,1.14" transform="translate(-277.975 -146.176)" fill="#ffbe80"/>
        <path id="Trazado_877040" data-name="Trazado 877040" d="M335.981,148.039s-4.239.326-4.7-.279-1.537-3.447-.419-3.773c-.047-2.189.559-3.447,2.841-3.633s3.167-.7,3.587-.512a.371.371,0,0,1,.186.559c2.189-.512,2.7.14,2.422.466,1.118,1.863.466,4.611.186,5.357s-4.1,1.817-4.1,1.817" transform="translate(-278.896 -118.021)" fill="#38190f"/>
        <path id="Trazado_877041" data-name="Trazado 877041" d="M332.927,167.323c2.376-.373,1.886-5.223,1.869-5.764l-1.125-.679.32-1.373c.854-.115,1.062-1.163.957-2.538,2.264-.894,2.72-3.129,3.877-3.153,2.874.265,3.472,3.66,3.455,4.725s1.133,6.116-2.522,5.836c-.683,2.342-.381,3.25.132,3.39,1.3,3.866-.466,11.156-.466,11.156-1.956-7.965-6.5-11.6-6.5-11.6" transform="translate(-281.06 -129.852)" fill="#ba593c"/>
        <path id="Trazado_877042" data-name="Trazado 877042" d="M353.013,187a1.5,1.5,0,1,1-1.485-1.269A1.39,1.39,0,0,1,353.013,187" transform="translate(-295.51 -156.794)" fill="#ab472a"/>
        <path id="Trazado_877043" data-name="Trazado 877043" d="M385.7,190.008a1.084,1.084,0,0,0,1.158.99c.044,0,.087,0,.129-.006a15.732,15.732,0,0,0-.1-1.972h-.03a1.084,1.084,0,0,0-1.158.99" transform="translate(-325.613 -159.571)" fill="#ab472a"/>
        <path id="Trazado_877044" data-name="Trazado 877044" d="M380.9,184.307a.045.045,0,0,1-.022-.083l.38-.214a.231.231,0,0,0,.115-.264.2.2,0,0,0-.008-.022,5.332,5.332,0,0,0-.4-.742.045.045,0,1,1,.075-.049,5.393,5.393,0,0,1,.406.755.264.264,0,0,1,.012.032.32.32,0,0,1-.156.368l-.38.214a.044.044,0,0,1-.022.006" transform="translate(-321.522 -154.416)" fill="#1f0d08"/>
        <path id="Trazado_877045" data-name="Trazado 877045" d="M380.236,177.734a.045.045,0,0,1-.043-.033.74.74,0,0,1,.077-.553.045.045,0,0,1,.082.036.66.66,0,0,0-.073.493.045.045,0,0,1-.031.055l-.012,0" transform="translate(-320.941 -149.527)" fill="#1f0d08"/>
        <path id="Trazado_877046" data-name="Trazado 877046" d="M356.218,169.065a3.766,3.766,0,0,1,2.57-.3c-.843-.837-2.189-.84-2.57.3" transform="translate(-300.722 -141.969)" fill="#1f0d08"/>
        <path id="Trazado_877047" data-name="Trazado 877047" d="M383.8,172.2a1.438,1.438,0,0,1,1.283.438c-.427-.94-.924-1.009-1.283-.438" transform="translate(-324.008 -145.062)" fill="#1f0d08"/>
        <path id="Trazado_877048" data-name="Trazado 877048" d="M363.221,197.635c2.6-.4,3.463-.3,3.987.415-.125.923-.53,1.263-1.709,1.082a4.649,4.649,0,0,1-2.278-1.5" transform="translate(-306.634 -166.646)" fill="#a1281b"/>
        <path id="Trazado_877049" data-name="Trazado 877049" d="M363.221,198.913a18.987,18.987,0,0,0,2.311.3c.9.076,1.676.115,1.676.115-.472.961-1.766,1-3.987-.415" transform="translate(-306.634 -167.924)" fill="#fff"/>
        <path id="Trazado_877050" data-name="Trazado 877050" d="M334.533,185.34a1.246,1.246,0,1,1-1.429-1.031,1.246,1.246,0,0,1,1.429,1.031" transform="translate(-280.325 -155.582)" fill="#ab472a"/>
        <g id="Grupo_1101491" data-name="Grupo 1101491" transform="translate(54.971 33.136)" style="mix-blend-mode: multiply;isolation: isolate">
          <g id="Grupo_1101490" data-name="Grupo 1101490">
            <g id="Grupo_1101489" data-name="Grupo 1101489" clip-path="url(#clip-path-10)">
              <path id="Trazado_877051" data-name="Trazado 877051" d="M356.141,213.909a10.753,10.753,0,0,1-3.294-1.218c.828,3.033,2.614,4.336,3.294,1.218" transform="translate(-352.847 -212.691)" fill="#a1a1a1"/>
            </g>
          </g>
        </g>
        <path id="Trazado_877052" data-name="Trazado 877052" d="M363.3,178.338l-.412.067a.159.159,0,0,1-.182-.132l-.1-.6a.159.159,0,0,1,.132-.183l.412-.067a.159.159,0,0,1,.183.132l.1.6a.159.159,0,0,1-.132.183" transform="translate(-306.118 -149.778)" fill="#1f0d08"/>
        <path id="Trazado_877053" data-name="Trazado 877053" d="M364.839,176.635a.657.657,0,0,1-.2.208.642.642,0,0,1-.284.1h-.006a.135.135,0,1,1-.028-.268h.026a.4.4,0,0,0,.184-.029.454.454,0,0,0,.163-.116l0,0a.089.089,0,0,1,.143.106" transform="translate(-307.461 -149.002)" fill="#1f0d08"/>
        <path id="Trazado_877054" data-name="Trazado 877054" d="M362.082,183.011a.557.557,0,0,1-.533-.36.045.045,0,0,1,.083-.033.477.477,0,0,0,.532.3.045.045,0,0,1,.014.088.613.613,0,0,1-.1.008" transform="translate(-305.221 -154.144)" fill="#ab472a"/>
        <path id="Trazado_877055" data-name="Trazado 877055" d="M385.948,180.688l-.412.067a.159.159,0,0,1-.182-.132l-.1-.6a.159.159,0,0,1,.132-.183l.412-.067a.159.159,0,0,1,.182.132l.1.6a.159.159,0,0,1-.132.183" transform="translate(-325.234 -151.762)" fill="#1f0d08"/>
        <path id="Trazado_877056" data-name="Trazado 877056" d="M387.482,178.985a.656.656,0,0,1-.2.208.64.64,0,0,1-.284.1h-.006a.135.135,0,0,1-.028-.268h.025a.393.393,0,0,0,.185-.028.453.453,0,0,0,.163-.116l0,0a.089.089,0,0,1,.143.106" transform="translate(-326.576 -150.986)" fill="#1f0d08"/>
        <path id="Trazado_877057" data-name="Trazado 877057" d="M384.726,185.361a.557.557,0,0,1-.533-.36.045.045,0,0,1,.083-.033.477.477,0,0,0,.532.3.045.045,0,1,1,.014.088.614.614,0,0,1-.1.008" transform="translate(-324.336 -156.128)" fill="#ab472a"/>
        <g id="Grupo_1101494" data-name="Grupo 1101494" transform="translate(52.367 29.172)" style="mix-blend-mode: multiply;isolation: isolate">
          <g id="Grupo_1101493" data-name="Grupo 1101493">
            <g id="Grupo_1101492" data-name="Grupo 1101492" clip-path="url(#clip-path-11)">
              <path id="Trazado_877058" data-name="Trazado 877058" d="M337.148,188.54h-.01a.311.311,0,0,1-.243-.315.38.38,0,0,1,.337-.343.672.672,0,0,0-.338-.48.771.771,0,0,0-.7.053.045.045,0,0,1-.041-.079.857.857,0,0,1,.777-.054.774.774,0,0,1,.395.587.045.045,0,0,1-.037.052c-.22.036-.3.162-.307.267a.222.222,0,0,0,.174.225.045.045,0,0,1-.01.088" transform="translate(-336.132 -187.251)" fill="#a1a1a1"/>
            </g>
          </g>
        </g>
        <path id="Trazado_877059" data-name="Trazado 877059" d="M375.4,190.5a.045.045,0,0,1-.026-.081.487.487,0,0,1,.392-.1.157.157,0,0,1,.108.089.045.045,0,0,1-.083.033.073.073,0,0,0-.05-.036.4.4,0,0,0-.315.085.045.045,0,0,1-.026.008" transform="translate(-316.881 -160.658)" fill="#1f0d08"/>
        <path id="Trazado_877060" data-name="Trazado 877060" d="M372.194,189.119a.379.379,0,0,1-.348-.225.4.4,0,0,1,.068-.44.045.045,0,1,1,.067.06.312.312,0,0,0-.054.343.293.293,0,0,0,.274.172.043.043,0,0,1,.046.044.045.045,0,0,1-.043.046h-.01" transform="translate(-313.884 -159.082)" fill="#ab472a"/>
        <path id="Trazado_877061" data-name="Trazado 877061" d="M367.684,168.223a1.106,1.106,0,0,1,.809.571c.163-.472-.332-.594-.809-.571" transform="translate(-310.402 -142.013)" fill="#1f0d08"/>
        <path id="Trazado_877062" data-name="Trazado 877062" d="M383.862,171.3c-.279.07-.384.425-.384.425-.134-.349.117-.437.384-.425" transform="translate(-323.703 -144.61)" fill="#1f0d08"/>
        <path id="Trazado_877063" data-name="Trazado 877063" d="M336.711,198.735a1.14,1.14,0,1,1-1.14-1.14,1.14,1.14,0,0,1,1.14,1.14" transform="translate(-282.329 -166.811)" fill="#fe9c41"/>
        <g id="Grupo_1101497" data-name="Grupo 1101497" transform="translate(58.556 32.693)" style="mix-blend-mode: multiply;isolation: isolate">
          <g id="Grupo_1101496" data-name="Grupo 1101496">
            <g id="Grupo_1101495" data-name="Grupo 1101495" clip-path="url(#clip-path-12)">
              <path id="Trazado_877064" data-name="Trazado 877064" d="M376.681,210.141a2.221,2.221,0,0,1-.79-.164.045.045,0,1,1,.032-.083c.706.272,1.173.152,1.358-.034a.045.045,0,1,1,.063.063.933.933,0,0,1-.664.218" transform="translate(-375.862 -209.847)" fill="#a1a1a1"/>
            </g>
          </g>
        </g>
        <path id="Trazado_877065" data-name="Trazado 877065" d="M376.868,200.522h0c-.008,0-.784-.04-1.677-.116-.158-.013-.321-.028-.484-.044a.045.045,0,1,1,.009-.089l.483.043c.892.075,1.667.115,1.675.115a.045.045,0,0,1,0,.089" transform="translate(-316.294 -169.072)" fill="#1f0d08"/>
        <path id="Trazado_877066" data-name="Trazado 877066" d="M364.255,198.915h-.005a11.915,11.915,0,0,1-1.281-.2.045.045,0,0,1,.02-.087,11.845,11.845,0,0,0,1.271.2.045.045,0,0,1,0,.089" transform="translate(-306.392 -167.682)" fill="#1f0d08"/>
        <path id="Trazado_877067" data-name="Trazado 877067" d="M314.5,163.7a.045.045,0,0,1-.041-.027c-.4-.906-1.316-1.7-2.239-1.4a.045.045,0,0,1-.028-.085c.974-.324,1.937.5,2.349,1.445a.045.045,0,0,1-.041.062" transform="translate(-263.528 -136.866)" fill="#38190f"/>
        <path id="Trazado_877068" data-name="Trazado 877068" d="M279.319,190.554a.043.043,0,0,1-.022-.006,3.345,3.345,0,0,1-1.256-3.048.044.044,0,0,1,.049-.039.045.045,0,0,1,.039.049,3.3,3.3,0,0,0,1.212,2.961.045.045,0,0,1-.022.083" transform="translate(-234.706 -158.255)" fill="#38190f"/>
        <path id="Trazado_877069" data-name="Trazado 877069" d="M349.06,137.853c-.22,0-.365-.01-.384-.012a.045.045,0,0,1-.041-.048.044.044,0,0,1,.048-.041,5.276,5.276,0,0,0,2.259-.333c.994-.5,1.676-.528,2.214-.1a.045.045,0,0,1-.056.07c-.506-.4-1.16-.369-2.118.11a4.643,4.643,0,0,1-1.922.354" transform="translate(-294.321 -115.674)" fill="#38190f"/>
        <path id="Trazado_877070" data-name="Trazado 877070" d="M346.139,155.507a.045.045,0,0,1,0-.089,3.46,3.46,0,0,0,3.288-2.829.045.045,0,1,1,.087.019,3.548,3.548,0,0,1-3.373,2.9h0" transform="translate(-292.176 -128.787)" fill="#38190f"/>
        <path id="Trazado_877071" data-name="Trazado 877071" d="M380.349,275.906a22.925,22.925,0,0,0,2.331,10.576l1.7,3.471a3.965,3.965,0,0,0,3.561,2.221h2.634c-1.677-9.083-6.009-21.24-6.009-23.2s3.214-8.524,3.214-9.362S381.666,244,381.666,244l-4.041-.641c2.812,8.52,2.9,24.256,2.724,32.548" transform="translate(-318.794 -205.445)" fill="#fe9c41"/>
        <path id="Trazado_877072" data-name="Trazado 877072" d="M201.447,289.776a9,9,0,0,0,6.065-2.35l3.211-2.927a20.531,20.531,0,0,0,6.578-12.94c1.256-11.492.435-25.073-3.637-31.041l-5.52,1.013-3.459,14.952s1.991,9.432,1.991,10.061-10.41,12.192-15.022,23.232Z" transform="translate(-161.797 -203.047)" fill="#fe9c41"/>
        <g id="Grupo_1101500" data-name="Grupo 1101500" transform="translate(31.436 87.364)" style="mix-blend-mode: multiply;isolation: isolate">
          <g id="Grupo_1101499" data-name="Grupo 1101499">
            <g id="Grupo_1101498" data-name="Grupo 1101498" clip-path="url(#clip-path-13)">
              <path id="Trazado_877073" data-name="Trazado 877073" d="M201.917,587.239H201.9a.134.134,0,0,1-.114-.151,172.437,172.437,0,0,1,6.084-26.225.134.134,0,0,1,.254.085,172.155,172.155,0,0,0-6.073,26.177.134.134,0,0,1-.132.115" transform="translate(-201.783 -560.77)" fill="#787878"/>
            </g>
          </g>
        </g>
        <g id="Grupo_1101503" data-name="Grupo 1101503" transform="translate(54.388 80.551)" style="mix-blend-mode: multiply;isolation: isolate">
          <g id="Grupo_1101502" data-name="Grupo 1101502">
            <g id="Grupo_1101501" data-name="Grupo 1101501" clip-path="url(#clip-path-14)">
              <path id="Trazado_877074" data-name="Trazado 877074" d="M349.244,532.391a.134.134,0,0,1-.123-.187,23.182,23.182,0,0,0,2.19-9.257.134.134,0,0,1,.1-.135l2.217-.6.515-5.044a.134.134,0,0,1,.266.027l-.524,5.136a.134.134,0,0,1-.1.116l-2.2.6a24.077,24.077,0,0,1-2.214,9.268.134.134,0,0,1-.123.08" transform="translate(-349.11 -517.043)" fill="#787878"/>
            </g>
          </g>
        </g>
        <g id="Grupo_1101506" data-name="Grupo 1101506" transform="translate(57.637 81.215)" style="mix-blend-mode: multiply;isolation: isolate">
          <g id="Grupo_1101505" data-name="Grupo 1101505">
            <g id="Grupo_1101504" data-name="Grupo 1101504" clip-path="url(#clip-path-15)">
              <path id="Trazado_877075" data-name="Trazado 877075" d="M370.1,524.821h-.012a.134.134,0,0,1-.122-.145l.28-3.249a.134.134,0,0,1,.267.023l-.279,3.249a.134.134,0,0,1-.133.122" transform="translate(-369.964 -521.304)" fill="#787878"/>
            </g>
          </g>
        </g>
        <g id="Grupo_1101509" data-name="Grupo 1101509" transform="translate(48.1 85.857)" style="mix-blend-mode: multiply;isolation: isolate">
          <g id="Grupo_1101508" data-name="Grupo 1101508">
            <g id="Grupo_1101507" data-name="Grupo 1101507" clip-path="url(#clip-path-16)">
              <path id="Trazado_877076" data-name="Trazado 877076" d="M308.88,552.418a.134.134,0,0,1-.034-.263,32.5,32.5,0,0,1,6.814-.346,10.6,10.6,0,0,0-3.28-.439.134.134,0,0,1-.012-.268,9.866,9.866,0,0,1,4.117.747.134.134,0,0,1-.064.255c-.054,0-5.453-.237-7.505.31a.141.141,0,0,1-.035,0" transform="translate(-308.746 -551.097)" fill="#787878"/>
            </g>
          </g>
        </g>
        <g id="Grupo_1101512" data-name="Grupo 1101512" transform="translate(57.637 86.62)" style="mix-blend-mode: multiply;isolation: isolate">
          <g id="Grupo_1101511" data-name="Grupo 1101511">
            <g id="Grupo_1101510" data-name="Grupo 1101510" clip-path="url(#clip-path-17)">
              <path id="Trazado_877077" data-name="Trazado 877077" d="M375.618,556.9a.132.132,0,0,1-.038-.005,19.335,19.335,0,0,0-5.477-.623.134.134,0,0,1-.009-.268,19.6,19.6,0,0,1,5.562.634.134.134,0,0,1-.038.262" transform="translate(-369.964 -555.996)" fill="#787878"/>
            </g>
          </g>
        </g>
        <g id="Grupo_1101515" data-name="Grupo 1101515" transform="translate(32.973 54.769)" style="mix-blend-mode: multiply;isolation: isolate">
          <g id="Grupo_1101514" data-name="Grupo 1101514">
            <g id="Grupo_1101513" data-name="Grupo 1101513" clip-path="url(#clip-path-18)">
              <path id="Trazado_877078" data-name="Trazado 877078" d="M213.007,357.517h0a.134.134,0,0,1-.132-.135,16.1,16.1,0,0,0-1.212-5.64.134.134,0,0,1,.246-.107,16.4,16.4,0,0,1,1.234,5.749.134.134,0,0,1-.134.132" transform="translate(-211.651 -351.555)" fill="#baa38f"/>
            </g>
          </g>
        </g>
        <g id="Grupo_1101518" data-name="Grupo 1101518" transform="translate(33.235 54.927)" style="mix-blend-mode: multiply;isolation: isolate">
          <g id="Grupo_1101517" data-name="Grupo 1101517">
            <g id="Grupo_1101516" data-name="Grupo 1101516" clip-path="url(#clip-path-19)">
              <path id="Trazado_877079" data-name="Trazado 877079" d="M214.776,355.207a.134.134,0,0,1-.128-.094,8.071,8.071,0,0,0-1.287-2.332.134.134,0,1,1,.21-.167,8.186,8.186,0,0,1,1.333,2.419.134.134,0,0,1-.128.173" transform="translate(-213.332 -352.564)" fill="#baa38f"/>
            </g>
          </g>
        </g>
        <path id="Trazado_877080" data-name="Trazado 877080" d="M327.894,262.623a.045.045,0,0,1-.038-.021,36.62,36.62,0,0,1-5.216-11.746,12.157,12.157,0,0,1-.333-4.089.045.045,0,0,1,.026-.033l1.471-.668-1.76-1.4a.045.045,0,0,1-.016-.043l.772-4.193a.045.045,0,0,1,.036-.036l.882-.162a.045.045,0,0,1,.045.019c2.79,4.089,4.312,12.227,4.177,22.327a.045.045,0,0,1-.032.042l-.012,0" transform="translate(-271.857 -202.805)" fill="#ffbe80"/>
        <path id="Trazado_877081" data-name="Trazado 877081" d="M327.372,263.283a.089.089,0,0,1-.075-.041,45.775,45.775,0,0,1-3.662-6.908.089.089,0,0,1,.165-.069,45.609,45.609,0,0,0,3.648,6.88.089.089,0,0,1-.075.137M323,254.5a.089.089,0,0,1-.084-.06c-.092-.265-.18-.531-.261-.79-.237-.752-.432-1.488-.582-2.185a12.193,12.193,0,0,1-.334-4.123.133.133,0,0,1,.076-.1l1.338-.608-1.645-1.308a.134.134,0,0,1-.048-.129l.459-2.492a.089.089,0,1,1,.176.032l-.454,2.466,1.738,1.382a.089.089,0,0,1-.019.151l-1.449.659a12.494,12.494,0,0,0,.336,4.032c.148.692.342,1.421.578,2.169.081.258.168.522.26.785a.089.089,0,0,1-.084.119m-.864-12.4-.016,0a.089.089,0,0,1-.072-.1l.183-.993a.089.089,0,1,1,.176.032l-.183.993a.089.089,0,0,1-.088.073" transform="translate(-271.373 -203.397)" fill="#8a511e"/>
        <path id="Trazado_877082" data-name="Trazado 877082" d="M380.069,264.158h-.006a.045.045,0,0,1-.038-.043c-.285-9.393-1.188-16.454-2.684-20.985a.045.045,0,0,1,.008-.043.044.044,0,0,1,.041-.015l1.34.212a.045.045,0,0,1,.029.017,12.994,12.994,0,0,1,1.555,3.588.045.045,0,0,1-.009.04l-1.039,1.274,1.121.3a.045.045,0,0,1,.027.02c.775,1.275,1.182,3.754,1.119,6.8-.021,1.03-.1,2.081-.217,3.12-.1.849-.23,1.691-.39,2.507a26.95,26.95,0,0,1-.815,3.18.045.045,0,0,1-.042.031" transform="translate(-318.552 -205.203)" fill="#ffbe80"/>
        <g id="Grupo_1101521" data-name="Grupo 1101521" transform="translate(44.746 38.734)" style="mix-blend-mode: multiply;isolation: isolate">
          <g id="Grupo_1101520" data-name="Grupo 1101520">
            <g id="Grupo_1101519" data-name="Grupo 1101519" clip-path="url(#clip-path-20)">
              <path id="Trazado_877083" data-name="Trazado 877083" d="M287.353,265.175a.134.134,0,0,1-.106-.216c3.251-4.207,3.874-7.885,3.824-10.23a8.339,8.339,0,0,0-2.13-5.869.134.134,0,0,1,.179-.2,8.61,8.61,0,0,1,2.219,6.062c.051,2.388-.581,6.131-3.879,10.4a.134.134,0,0,1-.106.052" transform="translate(-287.219 -248.628)" fill="#baa38f"/>
            </g>
          </g>
        </g>
        <g id="Grupo_1101524" data-name="Grupo 1101524" transform="translate(65.288 43.555)" style="mix-blend-mode: multiply;isolation: isolate">
          <g id="Grupo_1101523" data-name="Grupo 1101523">
            <g id="Grupo_1101522" data-name="Grupo 1101522" clip-path="url(#clip-path-21)">
              <path id="Trazado_877084" data-name="Trazado 877084" d="M421.651,293.605a.134.134,0,0,1-.124-.184,9.6,9.6,0,0,0,.62-3.918,17.146,17.146,0,0,0-1.188-3.466c-.865-2.124-1.845-4.531-1.887-6.327a.134.134,0,1,1,.268-.006c.041,1.747,1.011,4.13,1.867,6.232a17.165,17.165,0,0,1,1.206,3.538,9.692,9.692,0,0,1-.638,4.047.134.134,0,0,1-.124.084" transform="translate(-419.072 -279.573)" fill="#baa38f"/>
            </g>
          </g>
        </g>
        <g id="Grupo_1101527" data-name="Grupo 1101527" transform="translate(77.201 58.018)" style="mix-blend-mode: multiply;isolation: isolate">
          <g id="Grupo_1101526" data-name="Grupo 1101526">
            <g id="Grupo_1101525" data-name="Grupo 1101525" clip-path="url(#clip-path-22)">
              <path id="Trazado_877085" data-name="Trazado 877085" d="M495.672,373.9a.134.134,0,0,1-.108-.212,6.231,6.231,0,0,1,1.4-1.257.134.134,0,0,1,.2.139l-.21,1.048a.134.134,0,1,1-.263-.053l.144-.718a5.234,5.234,0,0,0-1.057,1,.134.134,0,0,1-.109.055" transform="translate(-495.538 -372.408)" fill="#baa38f"/>
            </g>
          </g>
        </g>
        <path id="Trazado_877086" data-name="Trazado 877086" d="M629.284,342.037c1.458-.462,3.761-.159,7.15,1.357a.754.754,0,0,0,.739-1.3,21.969,21.969,0,0,0-3.556-1.883,26.557,26.557,0,0,1,5.133,1.566.751.751,0,0,0,.949-.31l.077-.132a.753.753,0,0,0-.269-1.031,37.968,37.968,0,0,0-4.689-2.248,41.206,41.206,0,0,1,5.84,1.892.753.753,0,0,0,.991-.371l.086-.187a.753.753,0,0,0-.311-.971,30.038,30.038,0,0,0-6.488-2.346,19.934,19.934,0,0,1,5.095.6.753.753,0,0,0,.924-.64l.015-.126a.752.752,0,0,0-.454-.786c-1.565-.659-6.388-2.441-10.975-1.563a9.817,9.817,0,0,1,2.178-2.195,1.008,1.008,0,0,0-1.141-1.655c-.261.154-.58.333-.956.528a10.231,10.231,0,0,0-5.055,5.18l-2.372.286.047,6.707,2.025.183,1.209.03a11.664,11.664,0,0,0,3.808-.576" transform="translate(-525.263 -278.216)" fill="#ba593c"/>
        <path id="Trazado_877087" data-name="Trazado 877087" d="M658.545,360.215a2.773,2.773,0,0,1-.133.769,4.892,4.892,0,0,1-.292.714,7.3,7.3,0,0,1-.377.669c-.137.217-.279.425-.44.633h0l-.108-.291a5.763,5.763,0,0,1,1.056.312,5.318,5.318,0,0,1,.5.229c.082.041.159.09.238.135l.118.069.114.076a5.479,5.479,0,0,1,.85.683,4.92,4.92,0,0,1,.7.839.089.089,0,0,1-.147.1l0-.005a4.743,4.743,0,0,0-.7-.771,5.224,5.224,0,0,0-.84-.619l-.111-.068-.115-.061c-.077-.039-.152-.083-.232-.119a5.045,5.045,0,0,0-.48-.2,5.454,5.454,0,0,0-1-.251.179.179,0,0,1-.111-.287l0,0c.157-.18.311-.378.454-.578a7.047,7.047,0,0,0,.4-.62,4.644,4.644,0,0,0,.317-.661,2.579,2.579,0,0,0,.166-.7v0a.089.089,0,0,1,.178.008" transform="translate(-554.635 -304.02)" fill="#ab472a"/>
        <path id="Trazado_877088" data-name="Trazado 877088" d="M696.644,371.3a.045.045,0,0,1-.041-.063,7.339,7.339,0,0,0,.647-3.678.045.045,0,1,1,.089-.008,7.424,7.424,0,0,1-.654,3.722.045.045,0,0,1-.041.026" transform="translate(-588.075 -310.252)" fill="#ab472a"/>
        <g id="Grupo_1101530" data-name="Grupo 1101530" transform="translate(97.246 57.541)" style="mix-blend-mode: multiply;isolation: isolate">
          <g id="Grupo_1101529" data-name="Grupo 1101529">
            <g id="Grupo_1101528" data-name="Grupo 1101528" clip-path="url(#clip-path-23)">
              <path id="Trazado_877089" data-name="Trazado 877089" d="M625.962,376.173c-.631-.062-1.254-.081-1.759-.082l.009-6.743h.07a22.5,22.5,0,0,0,1.68,6.826" transform="translate(-624.203 -369.347)" fill="#a1a1a1"/>
            </g>
          </g>
        </g>
        <rect id="Rectángulo_402382" data-name="Rectángulo 402382" width="2.702" height="7.608" transform="translate(94.628 57.307) rotate(-1.018)" fill="#ffbe80"/>
        <path id="Trazado_877090" data-name="Trazado 877090" d="M391.492,267.091A.089.089,0,0,1,391.4,267v-.416a13.775,13.775,0,0,0-1.091-6.5l-1.106-.305a.089.089,0,0,1-.046-.143l1.012-1.24a16.177,16.177,0,0,0-.441-1.593.089.089,0,0,1,.167-.063,16.689,16.689,0,0,1,.457,1.659.089.089,0,0,1-.018.076l-.952,1.168,1.015.28a.09.09,0,0,1,.058.05,13.9,13.9,0,0,1,1.123,6.607V267a.089.089,0,0,1-.089.089" transform="translate(-328.516 -216.698)" fill="#8a511e"/>
        <path id="Trazado_877091" data-name="Trazado 877091" d="M400.912,339.716H400.9a.089.089,0,0,1-.075-.1s.05-.33.326-2.42a.089.089,0,1,1,.177.023c-.276,2.1-.326,2.421-.326,2.424a.089.089,0,0,1-.088.076" transform="translate(-338.377 -284.595)" fill="#8a511e"/>
        <path id="Trazado_877092" data-name="Trazado 877092" d="M728.713,520.286a76.3,76.3,0,0,0,5.178,6.5h15.574l-5.031-22.847-20.227-16.978-16.349,1.153v17.083c2.2,10.48,5.66,21.59,5.66,21.59h17.166Z" transform="translate(-597.578 -411.094)" fill="#704a49"/>
        <g id="Grupo_1101533" data-name="Grupo 1101533" transform="translate(124.741 85.821)" style="mix-blend-mode: multiply;isolation: isolate">
          <g id="Grupo_1101532" data-name="Grupo 1101532">
            <g id="Grupo_1101531" data-name="Grupo 1101531" clip-path="url(#clip-path-24)">
              <path id="Trazado_877093" data-name="Trazado 877093" d="M822.806,557.889l-.006-.005-22.108-7.017c1.677,7.336,5.555,9.852,9.537,11.109,2.924.923,10.425,2.525,14.205,3.311Z" transform="translate(-800.692 -550.867)" fill="#404040"/>
            </g>
          </g>
        </g>
        <g id="Grupo_1101536" data-name="Grupo 1101536" transform="translate(109.65 79.323)" style="mix-blend-mode: multiply;isolation: isolate">
          <g id="Grupo_1101535" data-name="Grupo 1101535">
            <g id="Grupo_1101534" data-name="Grupo 1101534" clip-path="url(#clip-path-25)">
              <path id="Trazado_877094" data-name="Trazado 877094" d="M703.82,512.186c1.537-.047,7.406-.373,7.406-.373l.768,7.825s3.517-5.869,4.262-6.94,3.959-.373,3.959-.373l-.885-3.167-15.371,1.211Z" transform="translate(-703.82 -509.158)" fill="#404040"/>
            </g>
          </g>
        </g>
        <g id="Grupo_1101539" data-name="Grupo 1101539" transform="translate(114.092 81.075)" style="mix-blend-mode: multiply;isolation: isolate">
          <g id="Grupo_1101538" data-name="Grupo 1101538">
            <g id="Grupo_1101537" data-name="Grupo 1101537" clip-path="url(#clip-path-26)">
              <path id="Trazado_877095" data-name="Trazado 877095" d="M765.3,547.4a.134.134,0,0,1-.12-.074l-8.452-17.009h-2.013a.134.134,0,0,1-.113-.062c-2.194-3.448-2.533-9.645-2.536-9.707a.134.134,0,0,1,.268-.014c0,.061.334,6.114,2.455,9.515h2.022a.134.134,0,0,1,.12.074l8.489,17.083a.134.134,0,0,1-.12.193" transform="translate(-748.995 -520.407)" fill="#404040"/>
              <path id="Trazado_877096" data-name="Trazado 877096" d="M732.47,588.565a.134.134,0,0,1-.043-.261,21.012,21.012,0,0,1,6.511-.88.134.134,0,0,1-.011.268,20.716,20.716,0,0,0-6.415.866.135.135,0,0,1-.043.007" transform="translate(-732.336 -576.978)" fill="#404040"/>
              <path id="Trazado_877097" data-name="Trazado 877097" d="M745.634,583.717h-.014a28.528,28.528,0,0,0-3.058-.069.134.134,0,1,1,0-.268,28.086,28.086,0,0,1,3.091.071.134.134,0,0,1-.014.267" transform="translate(-740.854 -573.563)" fill="#404040"/>
              <path id="Trazado_877098" data-name="Trazado 877098" d="M791.574,585.036a.134.134,0,0,1-.066-.018c-.018-.009-.557-.26-3.425-.227a.134.134,0,1,1,0-.268c2.955-.034,3.508.232,3.561.262a.134.134,0,0,1-.067.25" transform="translate(-779.283 -574.532)" fill="#404040"/>
              <path id="Trazado_877099" data-name="Trazado 877099" d="M924.855,638.033a.134.134,0,0,1-.13-.1l-4.472-17.572a.134.134,0,1,1,.26-.066l4.472,17.572a.134.134,0,0,1-.1.163.135.135,0,0,1-.033,0" transform="translate(-890.974 -604.647)" fill="#404040"/>
            </g>
          </g>
        </g>
        <rect id="Rectángulo_402386" data-name="Rectángulo 402386" width="19.284" height="2.585" transform="translate(111.187 78.414)" fill="#fff"/>
        <path id="Trazado_877100" data-name="Trazado 877100" d="M732.8,505.742H713.438v-2.663H732.8Zm-19.284-.078h19.206v-2.508H713.516Z" transform="translate(-602.29 -424.703)"/>
        <path id="Trazado_877101" data-name="Trazado 877101" d="M729.079,200.44l-.891-.734-5.24,1.991-.943.14-1.258.734-8.908,14.952-3.983,29.765h19.074Z" transform="translate(-597.578 -168.594)" fill="#fff"/>
        <path id="Trazado_877102" data-name="Trazado 877102" d="M742.332,258.756c-2.143,3.167-9.281,28.53-8.967,39.43l3.563,10.061,4.4-9.957c-1.782-23.686,3.144-39.535,3.144-39.535Z" transform="translate(-619.104 -218.444)" fill="#e04734"/>
        <path id="Trazado_877103" data-name="Trazado 877103" d="M793.024,230.5l-1.747,1.514-.3,2.888h2.143l1.165-2.306Z" transform="translate(-667.747 -194.592)" fill="#e05745"/>
        <path id="Trazado_877104" data-name="Trazado 877104" d="M797.884,204.415l1.205,1.083,8.361,3.284,1,22.847s2.1,14.812,2.375,15.232c1.677,10.76,6.987,22.079,6.987,22.079l-17.2-.7a12.512,12.512,0,0,1-9.994-10.231,90.8,90.8,0,0,1,7.267-53.6" transform="translate(-666.383 -172.569)" fill="#515a69"/>
        <path id="Trazado_877105" data-name="Trazado 877105" d="M805.872,205.964l-1.184-.465-1.205-1.083a86.739,86.739,0,0,0-7.492,24.711c1.7-3.467,7-14.39,8.488-18.422l-1.258-1.362,3.284-1.281Z" transform="translate(-671.982 -172.57)" fill="#737e91"/>
        <path id="Trazado_877106" data-name="Trazado 877106" d="M795.642,114.558c-.052-1.956,2.975-2.515,3.255-2.469s.186.745.186.745c2.7.466,5.729,2.655,5.077,5.31a2.852,2.852,0,0,1-.664,3.785c-1.444.931-2.387,1.467-2.247,2.166s-.163.571-1,.571S796.8,122.1,796.8,122.1Z" transform="translate(-671.687 -94.625)" fill="#633020"/>
        <path id="Trazado_877107" data-name="Trazado 877107" d="M773.947,139.128c-1.817-1.4-2.1-4.4-2.1-4.4l-1.309.45a2.839,2.839,0,0,1-.539-.318,1.121,1.121,0,0,1-.407-1.167,6.814,6.814,0,0,0,.194-1.62c-.8-.21-.734-1.991.943-2.725a19.914,19.914,0,0,1-3.441-1.4,7.5,7.5,0,0,0-3.022,2.533,4.972,4.972,0,0,0,.053,1.153c0,.314-2.149,1.275-2.253,1.537s.664.943.8,1.135c.052.524-.291,1.188-.291,3.261s-.093,2.259,1.048,2.376a15.08,15.08,0,0,0,2.841-.116c1.677,1.747.664,1.712.664,1.712s1.118,2.1,1.572,2.061c1.607-.21,5.24-4.472,5.24-4.472" transform="translate(-643.337 -108.016)" fill="#ff8762"/>
        <path id="Trazado_877108" data-name="Trazado 877108" d="M785.106,164.548a1.719,1.719,0,1,1-1.7-1.467,1.6,1.6,0,0,1,1.7,1.467" transform="translate(-659.922 -137.674)" fill="#ff7557"/>
        <path id="Trazado_877109" data-name="Trazado 877109" d="M786.568,153.673l.57.092a.079.079,0,0,0,.091-.066l.123-.76a.079.079,0,0,0-.066-.091l-.57-.092a.079.079,0,0,0-.091.066l-.123.76a.08.08,0,0,0,.066.091" transform="translate(-663.971 -128.957)" fill="#452116"/>
        <g id="Grupo_1101542" data-name="Grupo 1101542" transform="translate(122.866 24.615)" style="mix-blend-mode: multiply;isolation: isolate">
          <g id="Grupo_1101541" data-name="Grupo 1101541">
            <g id="Grupo_1101540" data-name="Grupo 1101540" clip-path="url(#clip-path-27)">
              <path id="Trazado_877110" data-name="Trazado 877110" d="M788.79,158.423a.616.616,0,0,1-.1-.008.045.045,0,0,1-.037-.051.044.044,0,0,1,.051-.037.477.477,0,0,0,.532-.3.045.045,0,1,1,.083.033.557.557,0,0,1-.533.36" transform="translate(-788.656 -158.002)" fill="#a1a1a1"/>
            </g>
          </g>
        </g>
        <path id="Trazado_877111" data-name="Trazado 877111" d="M811.994,168.163a1.246,1.246,0,1,0,1.429-1.031,1.246,1.246,0,0,0-1.429,1.031" transform="translate(-685.478 -141.08)" fill="#ff7557"/>
        <g id="Grupo_1101545" data-name="Grupo 1101545" transform="translate(127.16 26.496)" style="mix-blend-mode: multiply;isolation: isolate">
          <g id="Grupo_1101544" data-name="Grupo 1101544">
            <g id="Grupo_1101543" data-name="Grupo 1101543" clip-path="url(#clip-path-11)">
              <path id="Trazado_877112" data-name="Trazado 877112" d="M816.4,171.363a.045.045,0,0,1-.01-.088.222.222,0,0,0,.174-.225c0-.106-.087-.232-.307-.267a.045.045,0,0,1-.037-.052.775.775,0,0,1,.395-.587.857.857,0,0,1,.777.054.045.045,0,0,1-.041.079.771.771,0,0,0-.7-.053.672.672,0,0,0-.338.48.38.38,0,0,1,.336.343.311.311,0,0,1-.242.315H816.4" transform="translate(-816.218 -170.073)" fill="#a1a1a1"/>
            </g>
          </g>
        </g>
        <g id="Grupo_1101548" data-name="Grupo 1101548" transform="translate(123.367 29.482)" style="mix-blend-mode: multiply;isolation: isolate">
          <g id="Grupo_1101547" data-name="Grupo 1101547">
            <g id="Grupo_1101546" data-name="Grupo 1101546" clip-path="url(#clip-path-29)">
              <path id="Trazado_877113" data-name="Trazado 877113" d="M791.872,191.408a5.313,5.313,0,0,0,2.981-2.166c-.932,3.051-1.444,3.82-2.981,2.166" transform="translate(-791.872 -189.242)" fill="#8c8c8c"/>
            </g>
          </g>
        </g>
        <g id="Grupo_1101551" data-name="Grupo 1101551" transform="translate(123.763 24.506)" style="mix-blend-mode: multiply;isolation: isolate">
          <g id="Grupo_1101550" data-name="Grupo 1101550">
            <g id="Grupo_1101549" data-name="Grupo 1101549" clip-path="url(#clip-path-30)">
              <path id="Trazado_877114" data-name="Trazado 877114" d="M794.413,157.312a7.484,7.484,0,0,1,1.389.376,2.2,2.2,0,0,0-1.389-.376" transform="translate(-794.413 -157.299)" fill="#a1a1a1"/>
            </g>
          </g>
        </g>
        <g id="Grupo_1101554" data-name="Grupo 1101554" transform="translate(123.816 24.18)" style="mix-blend-mode: multiply;isolation: isolate">
          <g id="Grupo_1101553" data-name="Grupo 1101553">
            <g id="Grupo_1101552" data-name="Grupo 1101552" clip-path="url(#clip-path-31)">
              <path id="Trazado_877115" data-name="Trazado 877115" d="M794.749,155.338a1.765,1.765,0,0,1,.865.017.748.748,0,0,0-.865-.017" transform="translate(-794.749 -155.209)" fill="#a1a1a1"/>
            </g>
          </g>
        </g>
        <g id="Grupo_1101557" data-name="Grupo 1101557" transform="translate(119.605 25.88)" style="mix-blend-mode: multiply;isolation: isolate">
          <g id="Grupo_1101556" data-name="Grupo 1101556">
            <g id="Grupo_1101555" data-name="Grupo 1101555" clip-path="url(#clip-path-32)">
              <path id="Trazado_877116" data-name="Trazado 877116" d="M768.142,166.443a.045.045,0,0,1-.044-.039c-.014-.1-.132-.2-.329-.2a.044.044,0,0,1-.047-.043.045.045,0,0,1,.043-.046.37.37,0,0,1,.422.275.045.045,0,0,1-.038.05h-.006" transform="translate(-767.722 -166.118)" fill="#a1a1a1"/>
            </g>
          </g>
        </g>
        <path id="Trazado_877117" data-name="Trazado 877117" d="M772.414,165.324l-.054,0a.045.045,0,0,1,.007-.089.289.289,0,0,0,.292-.108.528.528,0,0,0-.054-.506.045.045,0,0,1,.078-.044.606.606,0,0,1,.052.6.35.35,0,0,1-.32.152" transform="translate(-651.998 -138.915)" fill="#ff7557"/>
        <path id="Trazado_877118" data-name="Trazado 877118" d="M782.3,141.9a5.876,5.876,0,0,1,2.571.626.057.057,0,0,0,.069-.087c-1.349-1.588-2.552-1.258-2.64-.538" transform="translate(-660.427 -119.29)" fill="#452116"/>
        <path id="Trazado_877119" data-name="Trazado 877119" d="M781.669,141.037c-.341.144-.332.62-.332.62-.249-.38-.17-.694.332-.62" transform="translate(-659.496 -119.055)" fill="#452116"/>
        <path id="Trazado_877120" data-name="Trazado 877120" d="M771.387,176.161a6.8,6.8,0,0,1-3.546.437c.122,1.59,1.467,1.974,3.546-.437" transform="translate(-648.217 -148.717)" fill="#fff"/>
        <path id="Trazado_877121" data-name="Trazado 877121" d="M768.307,180.058a.993.993,0,0,1,.122-.564s-.489-.3-.588-.53a1.5,1.5,0,0,0,.466,1.094" transform="translate(-648.217 -151.083)" fill="#633020"/>
        <path id="Trazado_877122" data-name="Trazado 877122" d="M774.363,180.945a.045.045,0,0,1,0-.089,3.674,3.674,0,0,0,1.138-.194.045.045,0,0,1,.035.082,3.671,3.671,0,0,1-1.168.2h0" transform="translate(-653.686 -152.513)" fill="#633020"/>
        <path id="Trazado_877123" data-name="Trazado 877123" d="M784.781,176.268a.045.045,0,0,1-.01-.088,2.752,2.752,0,0,0,.852-.3.045.045,0,0,1,.053.072,2.775,2.775,0,0,1-.886.312h-.01" transform="translate(-662.481 -148.475)" fill="#633020"/>
        <path id="Trazado_877124" data-name="Trazado 877124" d="M768.515,178.6a7.928,7.928,0,0,1-.92-.053.045.045,0,0,1,.01-.089,8.368,8.368,0,0,0,2.161-.04.045.045,0,1,1,.013.088,8.687,8.687,0,0,1-1.264.093" transform="translate(-647.976 -150.622)" fill="#633020"/>
        <g id="Grupo_1101560" data-name="Grupo 1101560" transform="translate(119.788 29.164)" style="mix-blend-mode: multiply;isolation: isolate">
          <g id="Grupo_1101559" data-name="Grupo 1101559">
            <g id="Grupo_1101558" data-name="Grupo 1101558" clip-path="url(#clip-path-33)">
              <path id="Trazado_877125" data-name="Trazado 877125" d="M769.653,187.744a.891.891,0,0,1-.745-.352.045.045,0,1,1,.072-.053c.257.353.883.53,1.807-.132a.045.045,0,1,1,.052.073,2.094,2.094,0,0,1-1.186.464" transform="translate(-768.9 -187.199)" fill="#a1a1a1"/>
            </g>
          </g>
        </g>
        <path id="Trazado_877126" data-name="Trazado 877126" d="M795.876,113.292a.045.045,0,0,1-.043-.033,1.673,1.673,0,0,1,.116-1.322,2.876,2.876,0,0,1,1.89-1.091.045.045,0,0,1,.022.086,2.8,2.8,0,0,0-1.835,1.049,1.59,1.59,0,0,0-.106,1.254.045.045,0,0,1-.032.054h-.011" transform="translate(-671.781 -93.576)" fill="#633020"/>
        <path id="Trazado_877127" data-name="Trazado 877127" d="M833.211,184.743a.045.045,0,0,1-.027-.027c-.168-.472.11-.709.494-1.036l.024-.02a.045.045,0,0,1,.058.068l-.024.021c-.37.315-.615.524-.468.938a.045.045,0,0,1-.057.057" transform="translate(-703.338 -155.038)" fill="#633020"/>
        <path id="Trazado_877128" data-name="Trazado 877128" d="M849.842,136.775a.044.044,0,0,1-.034-.073,2.107,2.107,0,0,0-.21-2.388.045.045,0,0,1,.069-.057,2.171,2.171,0,0,1,.21,2.5.044.044,0,0,1-.034.016" transform="translate(-717.229 -113.327)" fill="#633020"/>
        <path id="Trazado_877129" data-name="Trazado 877129" d="M851.876,145.174a.045.045,0,0,1-.026-.081,1.114,1.114,0,0,0,.494-.944.045.045,0,1,1,.089,0,1.2,1.2,0,0,1-.531,1.012.044.044,0,0,1-.026.009" transform="translate(-719.123 -121.656)" fill="#633020"/>
        <path id="Trazado_877130" data-name="Trazado 877130" d="M809.534,165.971l-.014,0a.526.526,0,0,1-.315-.3.919.919,0,0,1,.051-.749.045.045,0,0,1,.081.039.829.829,0,0,0-.049.675.438.438,0,0,0,.261.254.045.045,0,0,1-.014.087" transform="translate(-683.089 -139.202)" fill="#633020"/>
        <path id="Trazado_877131" data-name="Trazado 877131" d="M808.289,170.21h0a.593.593,0,0,1-.507-.431.045.045,0,1,1,.086-.023.5.5,0,0,0,.427.365.045.045,0,0,1,0,.089" transform="translate(-681.932 -143.282)" fill="#633020"/>
        <path id="Trazado_877132" data-name="Trazado 877132" d="M807.691,172.594a.638.638,0,0,1-.366-.139.045.045,0,0,1,.057-.069.507.507,0,0,0,.382.11.045.045,0,1,1,.021.087.41.41,0,0,1-.094.011" transform="translate(-681.537 -145.521)" fill="#633020"/>
        <path id="Trazado_877133" data-name="Trazado 877133" d="M705.368,218.094l-1.5.8-5.962,1.269c-4.891,6.614-7,21.578-8.047,34.155s1.991,23.162,2.62,23.9c2.725-30.708,12.891-60.123,12.891-60.123" transform="translate(-582.199 -184.117)" fill="#515a69"/>
        <path id="Trazado_877134" data-name="Trazado 877134" d="M758.04,218.094l-1.5.8-1.307.278-1.022.758,1.025.978a9.536,9.536,0,0,0-1.444.838c-1.383,4.921-1.7,14.775-1.759,17.2,3.114-12.479,6.009-20.855,6.009-20.855" transform="translate(-634.871 -184.117)" fill="#737e91"/>
        <path id="Trazado_877135" data-name="Trazado 877135" d="M682.937,338.521l-4.611-2.7a14.164,14.164,0,0,0-2.582-2.251,3.76,3.76,0,0,0-1.61-.637,15.765,15.765,0,0,1-4.71-1.99.994.994,0,0,0-1.256,1.5,15.659,15.659,0,0,0,2.286,2.169,27.237,27.237,0,0,0-8.028,4.884,1.132,1.132,0,0,0,1.239,1.873l3.715-1.82a26.865,26.865,0,0,0-2.909,2.843,1.2,1.2,0,0,0,1.512,1.815l.465-.279a.618.618,0,0,0,.315.955,1.269,1.269,0,0,0,1.021-.119c1.263-.745,3.6-2.28,3.6-2.28l-1.338,1.434a.747.747,0,0,0,.89,1.173c1.581-.819,3.311-2.338,4.128-2.467.885-.14,4.425,2.376,4.425,2.376Z" transform="translate(-558.895 -279.274)" fill="#ff8762"/>
        <g id="Grupo_1101563" data-name="Grupo 1101563" transform="translate(118.65 59.032)" style="mix-blend-mode: multiply;isolation: isolate">
          <g id="Grupo_1101562" data-name="Grupo 1101562">
            <g id="Grupo_1101561" data-name="Grupo 1101561" clip-path="url(#clip-path-34)">
              <path id="Trazado_877136" data-name="Trazado 877136" d="M763.54,385.606l3.447-6.475-.366-.215a24.171,24.171,0,0,1-5.026,5.409c1.022.624,1.945,1.28,1.945,1.28" transform="translate(-761.595 -378.917)" fill="#8c8c8c"/>
            </g>
          </g>
        </g>
        <g id="Grupo_1101566" data-name="Grupo 1101566" transform="translate(108.757 59.146)" style="mix-blend-mode: multiply;isolation: isolate">
          <g id="Grupo_1101565" data-name="Grupo 1101565">
            <g id="Grupo_1101564" data-name="Grupo 1101564" clip-path="url(#clip-path-35)">
              <path id="Trazado_877137" data-name="Trazado 877137" d="M698.179,380.594a.089.089,0,0,1-.042-.168l1.432-.769a.089.089,0,1,1,.084.157l-1.432.769a.089.089,0,0,1-.042.011" transform="translate(-698.089 -379.647)" fill="#a1a1a1"/>
            </g>
          </g>
        </g>
        <g id="Grupo_1101569" data-name="Grupo 1101569" transform="translate(110.581 61.486)" style="mix-blend-mode: multiply;isolation: isolate">
          <g id="Grupo_1101568" data-name="Grupo 1101568">
            <g id="Grupo_1101567" data-name="Grupo 1101567" clip-path="url(#clip-path-36)">
              <path id="Trazado_877138" data-name="Trazado 877138" d="M709.891,395.305a.089.089,0,0,1-.047-.165c.475-.291.8-.458.8-.459a.089.089,0,1,1,.082.159s-.32.166-.79.453a.09.09,0,0,1-.047.013" transform="translate(-709.802 -394.67)" fill="#a1a1a1"/>
            </g>
          </g>
        </g>
        <g id="Grupo_1101572" data-name="Grupo 1101572" transform="translate(107.674 62.618)" style="mix-blend-mode: multiply;isolation: isolate">
          <g id="Grupo_1101571" data-name="Grupo 1101571">
            <g id="Grupo_1101570" data-name="Grupo 1101570" clip-path="url(#clip-path-37)">
              <path id="Trazado_877139" data-name="Trazado 877139" d="M691.227,403.708a.089.089,0,0,1-.065-.151,13.179,13.179,0,0,1,1.895-1.6.089.089,0,1,1,.1.146,12.991,12.991,0,0,0-1.869,1.582.089.089,0,0,1-.065.028" transform="translate(-691.138 -401.936)" fill="#a1a1a1"/>
            </g>
          </g>
        </g>
        <path id="Trazado_877140" data-name="Trazado 877140" d="M711.676,364.139a.489.489,0,0,1-.4-.2.661.661,0,0,1,.051-.73.089.089,0,1,1,.153.092.5.5,0,0,0-.058.535.319.319,0,0,0,.331.117.089.089,0,0,1,.035.175.561.561,0,0,1-.108.011" transform="translate(-600.388 -306.587)" fill="#ff7557"/>
        <path id="Trazado_877141" data-name="Trazado 877141" d="M717.73,379.387a.489.489,0,0,1-.4-.2.661.661,0,0,1,.051-.73.089.089,0,1,1,.153.092.5.5,0,0,0-.058.535.319.319,0,0,0,.331.117.089.089,0,0,1,.035.175.562.562,0,0,1-.108.011" transform="translate(-605.498 -319.459)" fill="#ff7557"/>
        <path id="Trazado_877142" data-name="Trazado 877142" d="M724.009,390.263a.489.489,0,0,1-.4-.2.661.661,0,0,1,.051-.73.089.089,0,0,1,.153.092.5.5,0,0,0-.058.535.319.319,0,0,0,.331.117.089.089,0,0,1,.035.175.559.559,0,0,1-.108.011" transform="translate(-610.799 -328.641)" fill="#ff7557"/>
        <path id="Trazado_877143" data-name="Trazado 877143" d="M730.736,400.241a.489.489,0,0,1-.4-.2.661.661,0,0,1,.051-.73.089.089,0,0,1,.153.092.5.5,0,0,0-.058.535.319.319,0,0,0,.331.117.089.089,0,0,1,.035.175.564.564,0,0,1-.109.011" transform="translate(-616.478 -337.065)" fill="#ff7557"/>
        <rect id="Rectángulo_402398" data-name="Rectángulo 402398" width="9.061" height="4.285" transform="translate(119.907 66.832) rotate(-62.371)" fill="#fff"/>
        <path id="Trazado_877144" data-name="Trazado 877144" d="M779.309,423.289a.576.576,0,1,1-.576-.576.577.577,0,0,1,.576.576" transform="translate(-656.925 -356.858)" fill="#737e91"/>
        <path id="Trazado_877145" data-name="Trazado 877145" d="M789.255,265.085l22.193,8.348a5.444,5.444,0,0,0,7.241-6.208l-.037-.178-6.338-30.426c-.028-.133-.064-.283-.1-.416a6.476,6.476,0,1,0-12.478,3.473l5.51,19.8-11.1-4.276Z" transform="translate(-666.295 -195.404)" fill="#515a69"/>
        <g id="Grupo_1101575" data-name="Grupo 1101575" transform="translate(110.144 39.363)" style="mix-blend-mode: multiply;isolation: isolate">
          <g id="Grupo_1101574" data-name="Grupo 1101574">
            <g id="Grupo_1101573" data-name="Grupo 1101573" clip-path="url(#clip-path-38)">
              <path id="Trazado_877146" data-name="Trazado 877146" d="M707.13,263.9h-.019a.134.134,0,0,1-.114-.151,46.17,46.17,0,0,1,3.225-11.006.134.134,0,1,1,.244.11,45.883,45.883,0,0,0-3.2,10.933.134.134,0,0,1-.132.115" transform="translate(-706.996 -252.664)" fill="#8c8c8c"/>
            </g>
          </g>
        </g>
        <g id="Grupo_1101578" data-name="Grupo 1101578" transform="translate(139.234 64.19)" style="mix-blend-mode: multiply;isolation: isolate">
          <g id="Grupo_1101577" data-name="Grupo 1101577">
            <g id="Grupo_1101576" data-name="Grupo 1101576" clip-path="url(#clip-path-39)">
              <path id="Trazado_877147" data-name="Trazado 877147" d="M901.627,417.882a.134.134,0,0,1-.1-.051c-2.1-2.648-7.679-5.525-7.735-5.554a.134.134,0,0,1,.122-.238c.231.118,5.686,2.932,7.823,5.625a.134.134,0,0,1-.1.217" transform="translate(-893.714 -412.024)" fill="#8c8c8c"/>
            </g>
          </g>
        </g>
        <g id="Grupo_1101581" data-name="Grupo 1101581" transform="translate(139.839 63.957)" style="mix-blend-mode: multiply;isolation: isolate">
          <g id="Grupo_1101580" data-name="Grupo 1101580">
            <g id="Grupo_1101579" data-name="Grupo 1101579" clip-path="url(#clip-path-40)">
              <path id="Trazado_877148" data-name="Trazado 877148" d="M900.576,411.565a.132.132,0,0,1-.052-.011,13.485,13.485,0,0,0-2.808-.759.134.134,0,1,1,.039-.265,13.5,13.5,0,0,1,2.874.778.134.134,0,0,1-.052.257" transform="translate(-897.601 -410.529)" fill="#8c8c8c"/>
            </g>
          </g>
        </g>
        <g id="Grupo_1101584" data-name="Grupo 1101584" transform="translate(133.57 36.149)" style="mix-blend-mode: multiply;isolation: isolate">
          <g id="Grupo_1101583" data-name="Grupo 1101583">
            <g id="Grupo_1101582" data-name="Grupo 1101582" clip-path="url(#clip-path-41)">
              <path id="Trazado_877149" data-name="Trazado 877149" d="M858.034,243.97a.134.134,0,0,1-.127-.093,12.814,12.814,0,0,1-.327-6.058,7.638,7.638,0,0,1,4.311-5.773.134.134,0,1,1,.112.243c-5.384,2.474-4.556,9.307-3.841,11.505a.134.134,0,0,1-.086.169.139.139,0,0,1-.041.007" transform="translate(-857.36 -232.034)" fill="#8c8c8c"/>
            </g>
          </g>
        </g>
        <g id="Grupo_1101587" data-name="Grupo 1101587" transform="translate(127.717 57.319)" style="mix-blend-mode: multiply;isolation: isolate">
          <g id="Grupo_1101586" data-name="Grupo 1101586">
            <g id="Grupo_1101585" data-name="Grupo 1101585" clip-path="url(#clip-path-42)">
              <path id="Trazado_877150" data-name="Trazado 877150" d="M831.021,374.8a.136.136,0,0,1-.048-.009l-11.1-4.276a.134.134,0,1,1,.1-.25l10.848,4.179-1.8-6.36a.134.134,0,1,1,.258-.073l1.872,6.617a.134.134,0,0,1-.129.17" transform="translate(-819.789 -367.917)" fill="#8c8c8c"/>
            </g>
          </g>
        </g>
        <g id="Grupo_1101590" data-name="Grupo 1101590" transform="translate(135.856 53.477)" style="mix-blend-mode: multiply;isolation: isolate">
          <g id="Grupo_1101589" data-name="Grupo 1101589">
            <g id="Grupo_1101588" data-name="Grupo 1101588" clip-path="url(#clip-path-43)">
              <path id="Trazado_877151" data-name="Trazado 877151" d="M872.8,345.749a.134.134,0,0,1-.129-.1l-.629-2.223a.134.134,0,1,1,.258-.073l.629,2.223a.134.134,0,0,1-.093.165.128.128,0,0,1-.036.005" transform="translate(-872.037 -343.258)" fill="#8c8c8c"/>
            </g>
          </g>
        </g>
        <g id="Grupo_1101593" data-name="Grupo 1101593" transform="translate(140.132 76.044)" style="mix-blend-mode: multiply;isolation: isolate">
          <g id="Grupo_1101592" data-name="Grupo 1101592">
            <g id="Grupo_1101591" data-name="Grupo 1101591" clip-path="url(#clip-path-44)">
              <path id="Trazado_877152" data-name="Trazado 877152" d="M904.352,490.161a.136.136,0,0,1-.047-.009l-4.738-1.783a.134.134,0,1,1,.094-.251L904.4,489.9a.134.134,0,0,1-.047.259" transform="translate(-899.481 -488.11)" fill="#8c8c8c"/>
            </g>
          </g>
        </g>
        <g id="Grupo_1101596" data-name="Grupo 1101596" transform="translate(123.979 69.966)" style="mix-blend-mode: multiply;isolation: isolate">
          <g id="Grupo_1101595" data-name="Grupo 1101595">
            <g id="Grupo_1101594" data-name="Grupo 1101594" clip-path="url(#clip-path-45)">
              <path id="Trazado_877153" data-name="Trazado 877153" d="M809.794,454.583a.135.135,0,0,1-.047-.009l-13.865-5.217a.134.134,0,0,1,.094-.251l13.865,5.217a.134.134,0,0,1-.047.259" transform="translate(-795.795 -449.098)" fill="#8c8c8c"/>
            </g>
          </g>
        </g>
        <path id="Trazado_877154" data-name="Trazado 877154" d="M790.893,232.232a.136.136,0,0,1-.033,0,.134.134,0,0,1-.083-.064l-1.389-2.481L787,231.642a.134.134,0,0,1-.218-.088l-.175-1.467a.134.134,0,1,1,.266-.032l.146,1.225,2.326-1.906a.134.134,0,0,1,.2.038l1.4,2.5,1.907-1.184a.134.134,0,0,1,.141.228l-2.026,1.258a.134.134,0,0,1-.071.02" transform="translate(-664.056 -193.614)" fill="#ced8e8"/>
        <path id="Trazado_877155" data-name="Trazado 877155" d="M535.589,534.851H527.53a.974.974,0,0,1-.972-.972v-7.266a.973.973,0,0,1,.972-.972h8.058a.973.973,0,0,1,.972.972v7.266a.974.974,0,0,1-.972.972m-8.058-8.943a.705.705,0,0,0-.7.7v7.266a.705.705,0,0,0,.7.7h8.058a.705.705,0,0,0,.7-.7v-7.266a.705.705,0,0,0-.7-.7Z" transform="translate(-444.524 -443.749)" fill="#947675"/>
        <path id="Trazado_877156" data-name="Trazado 877156" d="M605.3,551.3h-5.38a.443.443,0,1,1,0-.885h5.38a.443.443,0,1,1,0,.885" transform="translate(-506.081 -464.667)" fill="#fff"/>
        <path id="Trazado_877157" data-name="Trazado 877157" d="M606.81,569.068h-6.894a.443.443,0,1,1,0-.885h6.894a.443.443,0,1,1,0,.885" transform="translate(-506.081 -479.665)" fill="#fff"/>
        <path id="Trazado_877158" data-name="Trazado 877158" d="M658.3,569.068h-1.727a.443.443,0,1,1,0-.885H658.3a.443.443,0,1,1,0,.885" transform="translate(-553.911 -479.665)" fill="#fff"/>
        <path id="Trazado_877159" data-name="Trazado 877159" d="M996.869,316.07a5.59,5.59,0,1,1-5.59-5.59,5.59,5.59,0,0,1,5.59,5.59" transform="translate(-832.127 -262.111)" fill="#ffc894"/>
        <path id="Trazado_877160" data-name="Trazado 877160" d="M1094.466,353.356H1092.1a.446.446,0,0,1,0-.893h2.364a.446.446,0,0,1,0,.893" transform="translate(-921.585 -297.552)" fill="#fff"/>
        <path id="Trazado_877161" data-name="Trazado 877161" d="M1077.155,353.356h-1.048a.446.446,0,0,1,0-.893h1.048a.446.446,0,0,1,0,.893" transform="translate(-908.081 -297.552)" fill="#fff"/>
        <path id="Trazado_877162" data-name="Trazado 877162" d="M1082.781,369.278h-8.245a.446.446,0,0,1,0-.893h8.245a.446.446,0,0,1,0,.893" transform="translate(-906.755 -310.994)" fill="#fff"/>
        <path id="Trazado_877163" data-name="Trazado 877163" d="M251.907,739.169H93.338a.217.217,0,0,1-.217-.217v-1.575a.217.217,0,0,1,.217-.217h158.57a.217.217,0,0,1,.217.217v1.575a.217.217,0,0,1-.217.217" transform="translate(-78.613 -622.316)" fill="#523d3c"/>
        <path id="Trazado_877164" data-name="Trazado 877164" d="M995.038,332.729a5.723,5.723,0,1,1,5.723-5.723,5.73,5.73,0,0,1-5.723,5.723m0-11.179a5.456,5.456,0,1,0,5.456,5.456,5.462,5.462,0,0,0-5.456-5.456" transform="translate(-835.188 -271.229)" fill="#947675"/>
        <path id="Trazado_877165" data-name="Trazado 877165" d="M1009.6,327.889h0a.446.446,0,0,1-.316-.131l-2.935-2.935a.446.446,0,0,1,.631-.631l2.619,2.619,6.508-6.508a.446.446,0,0,1,.631.631l-6.824,6.824a.447.447,0,0,1-.316.131" transform="translate(-849.46 -270.292)" fill="#e05745"/>
        <path id="Trazado_877166" data-name="Trazado 877166" d="M254.8,222h-1.89a.446.446,0,1,1,0-.893h1.89a.446.446,0,0,1,0,.893" transform="translate(-213.13 -186.664)" fill="#fff"/>
        <path id="Trazado_877167" data-name="Trazado 877167" d="M240.957,222h-.838a.446.446,0,0,1,0-.893h.838a.446.446,0,0,1,0,.893" transform="translate(-202.334 -186.664)" fill="#fff"/>
        <path id="Trazado_877168" data-name="Trazado 877168" d="M242.638,234.733h-3.774a.446.446,0,0,1,0-.893h3.774a.446.446,0,0,1,0,.893" transform="translate(-201.274 -197.41)" fill="#fff"/>
        <path id="Trazado_877169" data-name="Trazado 877169" d="M186.948,207.492a.447.447,0,0,1-.316-.131l-2.346-2.346a.446.446,0,1,1,.631-.631l2.024,2.024,3.883-4.048a.446.446,0,0,1,.644.618l-4.2,4.377a.446.446,0,0,1-.318.137h0" transform="translate(-155.466 -170.718)" fill="#e05745"/>
        <path id="Trazado_877170" data-name="Trazado 877170" d="M564.663,205.387a.134.134,0,0,1-.134-.134v-5.077a.134.134,0,1,1,.268,0v5.077a.134.134,0,0,1-.134.134" transform="translate(-476.58 -168.877)" fill="#ffc894"/>
        <path id="Trazado_877171" data-name="Trazado 877171" d="M564.663,188.045a.134.134,0,0,1-.134-.134v-1.188a.134.134,0,0,1,.268,0v1.188a.134.134,0,0,1-.134.134" transform="translate(-476.58 -157.52)" fill="#ffc894"/>
        <path id="Trazado_877172" data-name="Trazado 877172" d="M993.129,204.6h-2.55a.816.816,0,0,1-.815-.815v-2.55a.816.816,0,0,1,.815-.815h2.55a.816.816,0,0,1,.815.815v2.55a.816.816,0,0,1-.815.815m-2.55-3.913a.548.548,0,0,0-.547.547v2.55a.548.548,0,0,0,.547.547h2.55a.548.548,0,0,0,.547-.547v-2.55a.548.548,0,0,0-.547-.547Z" transform="translate(-835.567 -169.194)" fill="#ffc894"/>
        <path id="Trazado_877173" data-name="Trazado 877173" d="M996.412,208.869a.134.134,0,0,1-.095-.039l-.908-.908a.134.134,0,0,1,.189-.189l.814.814,1.25-1.25a.134.134,0,0,1,.189.189l-1.345,1.345a.133.133,0,0,1-.095.039" transform="translate(-840.299 -174.967)" fill="#ffc894"/>
        <path id="Trazado_877174" data-name="Trazado 877174" d="M497.256,67.15a.134.134,0,0,1-.095-.039l-.642-.642a2.792,2.792,0,1,1,.871-.553v1.1a.134.134,0,0,1-.134.134m-.706-.974a.134.134,0,0,1,.095.039l.477.477v-.837a.134.134,0,0,1,.044-.1,2.516,2.516,0,1,0-.67.431.134.134,0,0,1,.054-.011" transform="translate(-415.939 -51.572)" fill="#ffc894"/>
        <path id="Trazado_877175" data-name="Trazado 877175" d="M508.862,77.477a.262.262,0,1,1-.262-.262.262.262,0,0,1,.262.262" transform="translate(-429.143 -65.186)" fill="#ffc894"/>
        <path id="Trazado_877176" data-name="Trazado 877176" d="M515.166,77.477a.262.262,0,1,1-.262-.262.262.262,0,0,1,.262.262" transform="translate(-434.465 -65.186)" fill="#ffc894"/>
        <path id="Trazado_877177" data-name="Trazado 877177" d="M503.132,77.477a.262.262,0,1,1-.262-.262.262.262,0,0,1,.262.262" transform="translate(-424.306 -65.186)" fill="#ffc894"/>
        <path id="Trazado_877178" data-name="Trazado 877178" d="M133.507,451.092h-.885a.134.134,0,0,1,0-.268h.885a.915.915,0,0,0,.914-.914v-2.1a.915.915,0,0,0-.914-.914h-4.541a.915.915,0,0,0-.914.914.134.134,0,0,1-.268,0,1.183,1.183,0,0,1,1.182-1.182h4.541a1.183,1.183,0,0,1,1.182,1.182v2.1a1.183,1.183,0,0,1-1.182,1.182" transform="translate(-107.876 -377.05)" fill="#ffc894"/>
        <path id="Trazado_877179" data-name="Trazado 877179" d="M115.867,461.109h-4.541a1.183,1.183,0,0,1-1.182-1.182v-2.1a1.183,1.183,0,0,1,1.182-1.182h4.541a1.183,1.183,0,0,1,1.182,1.182v2.1a1.183,1.183,0,0,1-1.182,1.182m-4.541-4.192a.915.915,0,0,0-.914.914v2.1a.915.915,0,0,0,.914.914h4.541a.915.915,0,0,0,.914-.914v-2.1a.915.915,0,0,0-.914-.914Z" transform="translate(-92.984 -385.507)" fill="#ffc894"/>
        <path id="Trazado_877180" data-name="Trazado 877180" d="M130.4,469.936a.245.245,0,1,1-.245-.245.245.245,0,0,1,.245.245" transform="translate(-109.675 -396.517)" fill="#ffc894"/>
        <path id="Trazado_877181" data-name="Trazado 877181" d="M140.146,469.936a.245.245,0,1,1-.245-.245.245.245,0,0,1,.245.245" transform="translate(-117.9 -396.517)" fill="#ffc894"/>
        <path id="Trazado_877182" data-name="Trazado 877182" d="M120.662,469.936a.245.245,0,1,1-.245-.245.245.245,0,0,1,.245.245" transform="translate(-101.451 -396.517)" fill="#ffc894"/>
      </g>
    </g>
  </g>
</svg>
