<svg xmlns="http://www.w3.org/2000/svg" xmlns:xlink="http://www.w3.org/1999/xlink" width="402" height="404" viewBox="0 0 402 404">
  <defs>
    <clipPath id="clip-path">
      <rect id="Rectángulo_401258" data-name="Rectángulo 401258" width="158.226" height="140.275" fill="#405f5a"/>
    </clipPath>
    <clipPath id="clip-path-2">
      <rect id="Rectángulo_402711" data-name="Rectángulo 402711" width="370.869" height="243.103" fill="none"/>
    </clipPath>
    <clipPath id="clip-path-4">
      <path id="Trazado_878630" data-name="Trazado 878630" d="M220.388,195.162l8.655,2.385,2.425-30.956-.973-8.664,3.887-27.469,7.775,25.809,6.317,41.279h8.461l-2.281-27.779-2.295-17.281-2.429-30.805-18.364-1.126-10.594-1.086Z" transform="translate(-220.388 -119.47)" fill="none"/>
    </clipPath>
    <linearGradient id="linear-gradient" x1="-7.824" y1="1.129" x2="-7.788" y2="1.129" gradientUnits="objectBoundingBox">
      <stop offset="0" stop-color="#102e48"/>
      <stop offset="1" stop-color="#012736"/>
    </linearGradient>
    <clipPath id="clip-path-5">
      <path id="Trazado_878631" data-name="Trazado 878631" d="M237.95,84.632l-4.464,0-5.07.352.012-.105a.807.807,0,0,0-.307.112l-1.212,1.153-2.721,3.085c-4.1,4.222-8.36,12.68-9.1,13.683-1.166,1.587-6.706,24.854-6.706,24.854l7.288.68,4.056-17.393,6.334-9.135-3.273,29.238,31.1,1.936-1.652-19.736.874-9.738,7.392,8-.18,20.419,6.878.523-2.215-21.69-9.482-22.8L246.113,84.5Z" transform="translate(-208.386 -84.502)" fill="none"/>
    </clipPath>
    <clipPath id="clip-path-7">
      <rect id="Rectángulo_402706" data-name="Rectángulo 402706" width="5.63" height="69.853" fill="none"/>
    </clipPath>
    <clipPath id="clip-path-8">
      <rect id="Rectángulo_402707" data-name="Rectángulo 402707" width="28.959" height="2.212" fill="none"/>
    </clipPath>
    <clipPath id="clip-path-9">
      <path id="Trazado_878638" data-name="Trazado 878638" d="M242.442,107.507c0,.4.005.794.012,1.19l.531-5.894a23.335,23.335,0,0,1,4.955,9.462c1.749,6.206,2.257,18.957,2.257,18.957l6.878.523s.154-14.572-1.082-21.937-8.054-21.359-8.054-21.359l-2.561-1.2c-2.344,5.593-2.936,12.622-2.936,20.257" transform="translate(-242.442 -87.25)" fill="#ff9b6a"/>
    </clipPath>
    <clipPath id="clip-path-11">
      <path id="Trazado_873467" data-name="Trazado 873467" d="M140.067,72.316A61.377,61.377,0,1,1,78.689,10.939a61.378,61.378,0,0,1,61.378,61.377" transform="translate(-17.313 -10.939)" fill="#2436b1"/>
    </clipPath>
  </defs>
  <g id="Grupo_1102344" data-name="Grupo 1102344" transform="translate(-283.333 -2071)">
    <g id="Grupo_1101458" data-name="Grupo 1101458" transform="translate(0 1502)">
      <rect id="Rectángulo_401253" data-name="Rectángulo 401253" width="402" height="404" rx="10" transform="translate(283.333 569)" fill="#d2d6ef"/>
      <g id="Grupo_1099438" data-name="Grupo 1099438" transform="translate(303.282 594.934)">
        <g id="Grupo_1099431" data-name="Grupo 1099431" clip-path="url(#clip-path)">
          <path id="Trazado_873431" data-name="Trazado 873431" d="M0,3.158A3.158,3.158,0,1,0,3.158,0,3.158,3.158,0,0,0,0,3.158" transform="translate(151.909)" fill="#405f5a"/>
          <path id="Trazado_873432" data-name="Trazado 873432" d="M28.954,3.158A3.158,3.158,0,1,0,32.112,0a3.158,3.158,0,0,0-3.158,3.158" transform="translate(92.572)" fill="#405f5a"/>
          <path id="Trazado_873433" data-name="Trazado 873433" d="M57.907,3.158A3.158,3.158,0,1,0,61.065,0a3.158,3.158,0,0,0-3.158,3.158" transform="translate(33.238)" fill="#405f5a"/>
          <path id="Trazado_873434" data-name="Trazado 873434" d="M86.86,3.158A3.158,3.158,0,1,0,90.018,0,3.158,3.158,0,0,0,86.86,3.158" transform="translate(-26.096)" fill="#405f5a"/>
          <path id="Trazado_873435" data-name="Trazado 873435" d="M115.813,3.158A3.159,3.159,0,1,0,118.971,0a3.159,3.159,0,0,0-3.158,3.158" transform="translate(-85.432)" fill="#405f5a"/>
          <path id="Trazado_873436" data-name="Trazado 873436" d="M144.767,3.158A3.158,3.158,0,1,0,147.925,0a3.158,3.158,0,0,0-3.158,3.158" transform="translate(-144.767)" fill="#405f5a"/>
          <path id="Trazado_873437" data-name="Trazado 873437" d="M0,35.073a3.158,3.158,0,1,0,3.158-3.158A3.159,3.159,0,0,0,0,35.073" transform="translate(151.909 1.574)" fill="#405f5a"/>
          <path id="Trazado_873438" data-name="Trazado 873438" d="M28.954,35.073a3.158,3.158,0,1,0,3.158-3.158,3.159,3.159,0,0,0-3.158,3.158" transform="translate(92.572 1.574)" fill="#405f5a"/>
          <path id="Trazado_873439" data-name="Trazado 873439" d="M57.907,35.073a3.158,3.158,0,1,0,3.158-3.158,3.159,3.159,0,0,0-3.158,3.158" transform="translate(33.238 1.574)" fill="#405f5a"/>
          <path id="Trazado_873440" data-name="Trazado 873440" d="M86.86,35.073a3.158,3.158,0,1,0,3.158-3.158,3.159,3.159,0,0,0-3.158,3.158" transform="translate(-26.096 1.574)" fill="#405f5a"/>
          <path id="Trazado_873441" data-name="Trazado 873441" d="M115.813,35.073a3.159,3.159,0,1,0,3.158-3.158,3.16,3.16,0,0,0-3.158,3.158" transform="translate(-85.432 1.574)" fill="#405f5a"/>
          <path id="Trazado_873442" data-name="Trazado 873442" d="M144.767,35.073a3.158,3.158,0,1,0,3.158-3.158,3.159,3.159,0,0,0-3.158,3.158" transform="translate(-144.767 1.574)" fill="#405f5a"/>
          <path id="Trazado_873443" data-name="Trazado 873443" d="M0,66.988A3.158,3.158,0,1,0,3.158,63.83,3.159,3.159,0,0,0,0,66.988" transform="translate(151.909 3.149)" fill="#405f5a"/>
          <path id="Trazado_873444" data-name="Trazado 873444" d="M28.954,66.988a3.158,3.158,0,1,0,3.158-3.158,3.159,3.159,0,0,0-3.158,3.158" transform="translate(92.572 3.149)" fill="#405f5a"/>
          <path id="Trazado_873445" data-name="Trazado 873445" d="M57.907,66.988a3.158,3.158,0,1,0,3.158-3.158,3.159,3.159,0,0,0-3.158,3.158" transform="translate(33.238 3.149)" fill="#405f5a"/>
          <path id="Trazado_873446" data-name="Trazado 873446" d="M86.86,66.988a3.158,3.158,0,1,0,3.158-3.158,3.159,3.159,0,0,0-3.158,3.158" transform="translate(-26.096 3.149)" fill="#405f5a"/>
          <path id="Trazado_873447" data-name="Trazado 873447" d="M115.813,66.988a3.159,3.159,0,1,0,3.158-3.158,3.16,3.16,0,0,0-3.158,3.158" transform="translate(-85.432 3.149)" fill="#405f5a"/>
          <path id="Trazado_873448" data-name="Trazado 873448" d="M144.767,66.988a3.158,3.158,0,1,0,3.158-3.158,3.159,3.159,0,0,0-3.158,3.158" transform="translate(-144.767 3.149)" fill="#405f5a"/>
          <path id="Trazado_873449" data-name="Trazado 873449" d="M0,98.9a3.158,3.158,0,1,0,3.158-3.158A3.159,3.159,0,0,0,0,98.9" transform="translate(151.909 4.723)" fill="#405f5a"/>
          <path id="Trazado_873450" data-name="Trazado 873450" d="M28.954,98.9a3.158,3.158,0,1,0,3.158-3.158A3.159,3.159,0,0,0,28.954,98.9" transform="translate(92.572 4.723)" fill="#405f5a"/>
          <path id="Trazado_873451" data-name="Trazado 873451" d="M57.907,98.9a3.158,3.158,0,1,0,3.158-3.158A3.159,3.159,0,0,0,57.907,98.9" transform="translate(33.238 4.723)" fill="#405f5a"/>
          <path id="Trazado_873452" data-name="Trazado 873452" d="M86.86,98.9a3.158,3.158,0,1,0,3.158-3.158A3.159,3.159,0,0,0,86.86,98.9" transform="translate(-26.096 4.723)" fill="#405f5a"/>
          <path id="Trazado_873453" data-name="Trazado 873453" d="M115.813,98.9a3.159,3.159,0,1,0,3.158-3.158,3.16,3.16,0,0,0-3.158,3.158" transform="translate(-85.432 4.723)" fill="#405f5a"/>
          <path id="Trazado_873454" data-name="Trazado 873454" d="M144.767,98.9a3.158,3.158,0,1,0,3.158-3.158,3.159,3.159,0,0,0-3.158,3.158" transform="translate(-144.767 4.723)" fill="#405f5a"/>
          <path id="Trazado_873455" data-name="Trazado 873455" d="M0,130.818a3.158,3.158,0,1,0,3.158-3.159A3.159,3.159,0,0,0,0,130.818" transform="translate(151.909 6.298)" fill="#405f5a"/>
          <path id="Trazado_873456" data-name="Trazado 873456" d="M28.954,130.818a3.158,3.158,0,1,0,3.158-3.159,3.159,3.159,0,0,0-3.158,3.159" transform="translate(92.572 6.298)" fill="#405f5a"/>
          <path id="Trazado_873457" data-name="Trazado 873457" d="M57.907,130.818a3.158,3.158,0,1,0,3.158-3.159,3.159,3.159,0,0,0-3.158,3.159" transform="translate(33.238 6.298)" fill="#405f5a"/>
          <path id="Trazado_873458" data-name="Trazado 873458" d="M86.86,130.818a3.158,3.158,0,1,0,3.158-3.159,3.159,3.159,0,0,0-3.158,3.159" transform="translate(-26.096 6.298)" fill="#405f5a"/>
          <path id="Trazado_873459" data-name="Trazado 873459" d="M115.813,130.818a3.159,3.159,0,1,0,3.158-3.159,3.16,3.16,0,0,0-3.158,3.159" transform="translate(-85.432 6.298)" fill="#405f5a"/>
          <path id="Trazado_873460" data-name="Trazado 873460" d="M144.767,130.818a3.158,3.158,0,1,0,3.158-3.159,3.159,3.159,0,0,0-3.158,3.159" transform="translate(-144.767 6.298)" fill="#405f5a"/>
        </g>
      </g>
      <g id="Grupo_1102275" data-name="Grupo 1102275" transform="translate(303.282 637.449)">
        <g id="Grupo_1102274" data-name="Grupo 1102274" clip-path="url(#clip-path-2)">
          <g id="Grupo_1102257" data-name="Grupo 1102257">
            <g id="Grupo_1102256" data-name="Grupo 1102256" clip-path="url(#clip-path-2)">
              <path id="Trazado_878622" data-name="Trazado 878622" d="M292.8,75.221c-81.832-32.4-79.615-99.236-184.526-66.36C35.6,31.634-10.856,103.81,2.191,164.755c9.843,45.975,38.777,79.711,90.543,67.794s96.455.806,136.754,8.824C280.2,251.466,357.274,216.1,368.57,169.094S348.724,97.36,292.8,75.221" transform="translate(0 0)" fill="#eaf0f9"/>
              <path id="Trazado_878623" data-name="Trazado 878623" d="M178.9,157.417a4.83,4.83,0,0,0-.642-2.39c-.9-1.959-3.028-8.059,2.353-8.059h24.613V122.237c0-5.383-6.1-3.254-8.06-2.355a4.819,4.819,0,0,1-2.388.643c-3.226,0-5.842-3.29-5.842-7.349s2.615-7.348,5.842-7.348a4.787,4.787,0,0,1,2.108.5.33.33,0,0,1,.167.036c1.828.864,8.173,3.188,8.173-2.3V79.328H180.615c-5.489,0-3.165-6.345-2.3-8.173a.332.332,0,0,0,.036-.169,4.8,4.8,0,0,0,.494-2.108c0-3.225-3.287-5.841-7.348-5.841s-7.347,2.615-7.347,5.841a4.835,4.835,0,0,0,.641,2.39c.9,1.96,3.028,8.06-2.352,8.06H137.587v24.73c0,5.383,6.1,3.254,8.06,2.355a4.823,4.823,0,0,1,2.39-.642c3.225,0,5.842,3.29,5.842,7.348s-2.617,7.348-5.842,7.348a4.783,4.783,0,0,1-2.108-.5.335.335,0,0,1-.169-.035c-1.827-.864-8.173-3.188-8.173,2.3v24.731h24.851c5.488,0,3.164,6.345,2.3,8.172a.337.337,0,0,0-.036.169,4.8,4.8,0,0,0-.494,2.108c0,3.226,3.29,5.841,7.348,5.841s7.348-2.614,7.348-5.841" transform="translate(40.91 18.743)" fill="#fff"/>
              <path id="Trazado_878624" data-name="Trazado 878624" d="M208.777,195.372V127.731H184.046c-5.381,0-3.252,6.1-2.353,8.06a4.823,4.823,0,0,1,.642,2.39c0,3.225-3.29,5.841-7.348,5.841s-7.348-2.615-7.348-5.841a4.8,4.8,0,0,1,.494-2.108.334.334,0,0,1,.036-.169c.864-1.828,3.188-8.173-2.3-8.173H141.136v24.613c0,5.489-6.345,3.165-8.172,2.3a.339.339,0,0,0-.17-.036,4.794,4.794,0,0,0-2.107-.494c-3.226,0-5.841,3.29-5.841,7.348s2.614,7.348,5.841,7.348a4.821,4.821,0,0,0,2.388-.642c1.96-.9,8.06-3.028,8.06,2.353v24.849Z" transform="translate(37.122 37.979)" fill="#ff9b6a"/>
              <path id="Trazado_878625" data-name="Trazado 878625" d="M142.32,157.966a4.787,4.787,0,0,1,2.108.5.335.335,0,0,1,.169.035c1.827.864,8.172,3.188,8.172-2.3v-24.73H127.92c-5.489,0-3.165-6.347-2.3-8.173a.332.332,0,0,0,.035-.169,4.783,4.783,0,0,0,.5-2.108c0-3.225-3.29-5.841-7.348-5.841s-7.348,2.615-7.348,5.841a4.826,4.826,0,0,0,.642,2.39c.9,1.96,3.028,8.06-2.355,8.06H85.129V156.2c0,5.383,6.1,3.254,8.059,2.355a4.831,4.831,0,0,1,2.39-.643c3.226,0,5.841,3.29,5.841,7.349S98.8,172.6,95.578,172.6a4.777,4.777,0,0,1-2.107-.5.339.339,0,0,1-.17-.036c-1.827-.864-8.172-3.186-8.172,2.3v24.73h67.639v-24.73c0-5.383-6.1-3.254-8.059-2.355a4.83,4.83,0,0,1-2.39.642c-3.227,0-5.841-3.29-5.841-7.348s2.614-7.348,5.841-7.348" transform="translate(25.312 34.246)" fill="#153f5e"/>
              <path id="Trazado_878626" data-name="Trazado 878626" d="M201.495,183.636c0,1.7,17.847,3.082,39.865,3.082s39.865-1.38,39.865-3.082-17.847-3.082-39.865-3.082-39.865,1.38-39.865,3.082" transform="translate(59.912 53.686)" fill="#cddae7"/>
              <path id="Trazado_878627" data-name="Trazado 878627" d="M238.937,81.69s3.865-4.676,2.733-10.045c-.6-2.833-8.011-4.927-10.547-4.927S227.436,70,227.436,70l-2.685,7.574s-1.315,5.637.236,6.367a32.862,32.862,0,0,0,5.376.789L231,91.88l7.688-1.715Z" transform="translate(66.672 19.838)" fill="#e7bda8"/>
              <path id="Trazado_878628" data-name="Trazado 878628" d="M235.475,76.776l-3.237,5.342-2.958.581-.323-.961,3.1-.306,3.066-4.656Z" transform="translate(68.078 22.828)" fill="#d2ae93"/>
              <path id="Trazado_878629" data-name="Trazado 878629" d="M245.511,182.237c2.51.44,6.35.981,6.35.981l.223-2.1-.378-2.4-8.743-.231-4.325.68-.987.794s5.915,1.933,7.859,2.273" transform="translate(70.663 53.072)" fill="#19132e"/>
            </g>
          </g>
          <g id="Grupo_1102259" data-name="Grupo 1102259" transform="translate(285.918 154.993)">
            <g id="Grupo_1102258" data-name="Grupo 1102258" clip-path="url(#clip-path-4)">
              <rect id="Rectángulo_402704" data-name="Rectángulo 402704" width="36.546" height="78.076" fill="url(#linear-gradient)"/>
            </g>
          </g>
          <g id="Grupo_1102261" data-name="Grupo 1102261" transform="translate(270.347 109.628)">
            <g id="Grupo_1102260" data-name="Grupo 1102260" clip-path="url(#clip-path-5)">
              <rect id="Rectángulo_402705" data-name="Rectángulo 402705" width="58.815" height="48.592" transform="translate(0)" fill="#ff9b6a"/>
            </g>
          </g>
          <g id="Grupo_1102269" data-name="Grupo 1102269">
            <g id="Grupo_1102268" data-name="Grupo 1102268" clip-path="url(#clip-path-2)">
              <g id="Grupo_1102264" data-name="Grupo 1102264" transform="translate(294.281 162.388)" opacity="0.6">
                <g id="Grupo_1102263" data-name="Grupo 1102263">
                  <g id="Grupo_1102262" data-name="Grupo 1102262" clip-path="url(#clip-path-7)">
                    <path id="Trazado_878632" data-name="Trazado 878632" d="M227.8,154.757l.816,9.679-1.783,30.587,2.758-31.056-.9-9.118,3.775-26.086-1.069-3.595Z" transform="translate(-226.834 -125.17)" fill="#19132e"/>
                  </g>
                </g>
              </g>
              <path id="Trazado_878633" data-name="Trazado 878633" d="M214.128,184.336H226.37l.925-1.107.784,1.107h2.139v-5.082l-6.086-1.05-3.028,3.507-6.976,1.967Z" transform="translate(63.669 52.987)" fill="#19132e"/>
              <path id="Trazado_878634" data-name="Trazado 878634" d="M246.8,127.5l1.328.673,1.789-1.866.406,3.024-2.383,4.738,1.544.054,2.975-3.382,2.146-3.339.1-2.927-.474-2.462-3.56-.633Z" transform="translate(73.383 36.092)" fill="#e7bda8"/>
              <g id="Grupo_1102267" data-name="Grupo 1102267" transform="translate(286.792 156.284)" opacity="0.6">
                <g id="Grupo_1102266" data-name="Grupo 1102266">
                  <g id="Grupo_1102265" data-name="Grupo 1102265" clip-path="url(#clip-path-8)">
                    <path id="Trazado_878635" data-name="Trazado 878635" d="M249.827,122.677l-14.868-.553-13.9-1.659,28.959,1.2Z" transform="translate(-221.062 -120.465)" fill="#19132e"/>
                  </g>
                </g>
              </g>
              <path id="Trazado_878636" data-name="Trazado 878636" d="M216.184,124.976l-1.444.444-1.369-2.126-1.027,2.906,1.357,5.047-1.527-.2-2.218-3.812-1.413-3.634.5-2.894.977-2.342,3.626-.038Z" transform="translate(62.008 35.183)" fill="#e7bda8"/>
              <path id="Trazado_878637" data-name="Trazado 878637" d="M225.783,67.87c.532-.9,2.68-1.514,4.127-1.675,0,0,.947-4.622,4.632-2.512s6.921,3.7,7.938,7.4c.519,1.888.228,8.079-.968,12.383s-9.048,2.7-10.219,1.378c-.463-.523-.708-2.094-1-4.015a8.567,8.567,0,0,0,1.318-1.47c1.2-1.666.886-2.483.3-2.972-.549-.458-1.142-.462-2.206.922-.135-.672-.289-1.339-.472-1.977-.361-1.256-.4-2.859-1.19-3.565-1.67-1.5-2.87-2.883-2.266-3.9" transform="translate(67.087 18.771)" fill="#0b4b5b"/>
            </g>
          </g>
          <g id="Grupo_1102271" data-name="Grupo 1102271" transform="translate(314.529 113.193)">
            <g id="Grupo_1102270" data-name="Grupo 1102270" clip-path="url(#clip-path-9)">
              <rect id="Rectángulo_402709" data-name="Rectángulo 402709" width="14.787" height="44.494" transform="translate(0)" fill="#ff9b6a"/>
            </g>
          </g>
          <g id="Grupo_1102273" data-name="Grupo 1102273">
            <g id="Grupo_1102272" data-name="Grupo 1102272" clip-path="url(#clip-path-2)">
              <path id="Trazado_878639" data-name="Trazado 878639" d="M35.022,111.484c.346,5.92.069,7.605,1.687,15.117,2.506,11.637,2.224,8.895,2.464,10.528,1.112,2.872,4.391,15.494,5.6,17.919.07,4.92.807,8.789,2.239,14.783,1.711,7.159,6.686,19.3,9.2,25.945l4.968-1.187c-.725-13.251-2.582-31.44-5.406-51.458-1.808-12.822-.064-24.718-2.041-35.122Z" transform="translate(10.413 32.116)" fill="#1e2d54"/>
              <path id="Trazado_878640" data-name="Trazado 878640" d="M27.1,109.736c-1.232,5.838-1.441,12.253-1.646,19.935-.317,11.9,1.706,17.335,1.533,18.979a80.173,80.173,0,0,0,1.831,8.562,66.04,66.04,0,0,0-2.02,16.7,159.729,159.729,0,0,0,1.509,22.735h6.056c2.818-13.055,5.689-31.178,7.95-51.3,1.448-12.89,2.466-25.026,3.054-35.6Z" transform="translate(7.558 32.629)" fill="#153f5e"/>
              <path id="Trazado_878641" data-name="Trazado 878641" d="M55.609,113.964c0,5.2-5.515,9.407-12.32,9.407s-12.32-4.211-12.32-9.407,5.516-9.407,12.32-9.407,12.32,4.211,12.32,9.407" transform="translate(9.209 31.089)" fill="#153f5e"/>
              <path id="Trazado_878642" data-name="Trazado 878642" d="M32.258,181.443H28v-6.271h5.012Z" transform="translate(8.326 52.085)" fill="#ea9f88"/>
              <path id="Trazado_878643" data-name="Trazado 878643" d="M34.969,186v-.431a3.932,3.932,0,0,0-.179-1.213l-1.047-4.2a3.266,3.266,0,0,1-1.908.287c-.943-.2-.9-1.568-1.9-2.24h-.455a3.085,3.085,0,0,0-1.567,1.68c-.464.99-.627,2.989-.928,3.642-.34.747-.693,1.457-.969,2a1.836,1.836,0,0,0-.676.93c-.363,0-.437.009-.009.031a2.155,2.155,0,0,0-.108.666v.911H35.306v-.911A2.107,2.107,0,0,0,34.969,186m-3.63-.751v.01h-.292l.006-.01Z" transform="translate(7.446 52.986)" fill="#16415d"/>
              <path id="Trazado_878644" data-name="Trazado 878644" d="M57.109,180.571l-3.55,1.087-1.836-6,4.179-1.28Z" transform="translate(15.38 51.851)" fill="#ea9f88"/>
              <path id="Trazado_878645" data-name="Trazado 878645" d="M50.4,183.993l1.539-4.331a12.963,12.963,0,0,0,3.656.294c1.386-.21,1.38-1.474,1.932-2.309h1.847a12.1,12.1,0,0,0,7.186,5.375h3.566c.832,0,1.511,1,1.511,2.221v.987H56.644l-.756-1.318h-.419v1.318H50.134v-.987a2.963,2.963,0,0,1,.266-1.251" transform="translate(14.907 52.822)" fill="#16415d"/>
              <path id="Trazado_878646" data-name="Trazado 878646" d="M33,69.772a11.85,11.85,0,0,0,10.855-.344,8.053,8.053,0,0,1-1.06-4.1,7.375,7.375,0,0,1,1.867-5.161V57.484H37.856A19.851,19.851,0,0,1,33,69.772" transform="translate(9.814 17.092)" fill="#ea9f86"/>
              <path id="Trazado_878647" data-name="Trazado 878647" d="M48.228,55.4c.284-3.9-3.965-4.349-7.091-4.58-2.008-.148-3.826.006-5.143,1.989-.328-.476-1.055.367-1.568.348-1.065-.042-1.732.292-1.786,1.793s.519,3.6,1.584,3.64a1.223,1.223,0,0,0,.153-.016c.036,1.223-.415,2.16.11,3.159a9.869,9.869,0,0,0,5.464,4.128C46.02,67.617,47.944,59.3,48.228,55.4" transform="translate(9.704 15.099)" fill="#ebb190"/>
              <path id="Trazado_878648" data-name="Trazado 878648" d="M52.826,52.677c.331-3.141-.641-5.154-5.672-5.747a48.289,48.289,0,0,0-12.593.282c-3.653.727-3.138,3.572-3,4.807.348,3.044,1.253,7.521,2.737,8a.925.925,0,0,0,.9-.152,2.7,2.7,0,0,1-1.113-1.579c-.333-1.2.092-2.335.952-2.543a1.862,1.862,0,0,1,1.915,1.186c1.134-2.139,2.839-4.258,7.045-2.317,4.6,2.122,8.5,1.2,8.831-1.938" transform="translate(9.353 13.871)" fill="#1c3054"/>
              <path id="Trazado_878649" data-name="Trazado 878649" d="M40.2,92.518A248.4,248.4,0,0,0,67.1,91.109c-.455-11.776-7.6-21.627-17.339-24.943a9.628,9.628,0,0,1-6.29,2.16,9.367,9.367,0,0,1-6.737-2.587C26.148,68.582,18.241,79.02,17.945,91.567c6.981.616,14.468.951,22.258.951" transform="translate(5.336 19.547)" fill="#729edb"/>
              <path id="Trazado_878650" data-name="Trazado 878650" d="M58.17,84.889,58.7,94.1c-4.98,1.181-8.171,3.273-9.232,6.519q-2.829-3.094-3.239-10.374a33.89,33.89,0,0,1,0-3.91Z" transform="translate(13.729 25.241)" fill="#ea9f87"/>
              <path id="Trazado_878651" data-name="Trazado 878651" d="M48.692,99.486c.865-5.392,4.312-6.409,8.682-6.925l19.2-1.107a5.317,5.317,0,0,1,3.463-2.132c.306-.074.69.371.707.667.078,1.356-.794,2.621,1.862,2.544a40.618,40.618,0,0,0,4.971-.423c.33-.062,1.454-.044.767.95a9.112,9.112,0,0,1-6.555,3.709,5.506,5.506,0,0,1-4.14-1.591c-6.139,2.745-17.335,5.861-23.692,6.046a7.321,7.321,0,0,1-5.262-1.738" transform="translate(14.478 26.557)" fill="#efb290"/>
              <path id="Trazado_878652" data-name="Trazado 878652" d="M29.557,124.6H58.71c.671,0,.536-1.864.448-2.128-.56-1.675-1.134-2.125-1.506-4.022a50.613,50.613,0,0,1-.924-9.753c0-10.991,3.307-21.376,7.648-27.5A25.72,25.72,0,0,0,49.141,66.213a9.622,9.622,0,0,1-6.29,2.161,9.368,9.368,0,0,1-6.737-2.588C28.13,67.931,21.671,74.4,18.849,82.832c6.3,2.778,11.059,15.5,11.059,30.788,0,2.39-.121,4.713-.344,6.946a8.979,8.979,0,0,1-.7,2.182c-.176,1.214.344,1.847.694,1.847" transform="translate(5.605 19.561)" fill="#729edb"/>
              <path id="Trazado_878653" data-name="Trazado 878653" d="M30.772,84.958l-.346,11.033c-5.442,1.07-9.062,3.352-10.519,7.155q-2.719-3.888-2.435-12.606a45.484,45.484,0,0,1,.389-4.669Z" transform="translate(5.188 25.261)" fill="#ea9f87"/>
              <path id="Trazado_878654" data-name="Trazado 878654" d="M19.3,101.438c1.461-6.379,5.248-7.358,9.971-7.676l20.642-.014a5.818,5.818,0,0,1,3.914-2.309c.336-.067.7.492.691.846-.051,1.623-1.111,3.075,1.738,3.164a39.251,39.251,0,0,0,5.359-.167c.357-.052,1.557.048.724,1.186-1.314,1.8-4.325,4.079-7.378,3.983a5.475,5.475,0,0,1-4.27-2.181c-6.84,2.859-19.123,5.817-25.939,5.6a7.2,7.2,0,0,1-5.454-2.434" transform="translate(5.74 27.187)" fill="#efb290"/>
              <path id="Trazado_878655" data-name="Trazado 878655" d="M118.89,105.95a4.544,4.544,0,0,1-.057,2.056.332.332,0,0,1,0,.163c-.454,1.867-1.4,8.216,3.706,7.166l23.013-4.734L140.8,87.48c-1.051-5.109,5.3-4.161,7.165-3.708a.3.3,0,0,0,.163,0,4.563,4.563,0,0,0,2.056.06c3-.619,4.805-4.18,4.03-7.957s-3.84-6.339-6.842-5.721a4.58,4.58,0,0,0-2.1,1.056c-1.652,1.21-6.921,4.36-7.951-.649l-4.709-22.9-23.013,4.734c-5.009,1.029-1.86,6.3-.649,7.951a4.572,4.572,0,0,1,1.055,2.1c.618,3-1.943,6.064-5.72,6.841s-7.339-1.027-7.957-4.028a4.568,4.568,0,0,1,.058-2.058.309.309,0,0,1,0-.165c.454-1.866,1.4-8.215-3.706-7.164L69.662,60.6l4.711,22.9c1.05,5.11-5.3,4.161-7.165,3.707a.322.322,0,0,0-.165,0,4.539,4.539,0,0,0-2.055-.056c-3,.616-4.807,4.179-4.03,7.954s3.84,6.339,6.842,5.723a4.6,4.6,0,0,0,2.1-1.057c1.652-1.212,6.92-4.36,7.95.649l4.756,23.125,23.014-4.733c5.008-1.03,1.86-6.3.647-7.951a4.6,4.6,0,0,1-1.055-2.1c-.618-3,1.943-6.065,5.72-6.842s7.339,1.027,7.957,4.03" transform="translate(18.072 14.171)" fill="#b2bebc"/>
              <path id="Trazado_878656" data-name="Trazado 878656" d="M137.562,24.582v6.472h1.4V24.582a.712.712,0,1,0-1.4,0" transform="translate(40.903 7.058)" fill="#e5803c"/>
              <path id="Trazado_878657" data-name="Trazado 878657" d="M137.562,47.588a.712.712,0,1,0,1.4,0V41.5h-1.4Z" transform="translate(40.903 12.341)" fill="#e5803c"/>
              <path id="Trazado_878658" data-name="Trazado 878658" d="M126.548,35.451a.782.782,0,0,0,.845.7h6.472v-1.4h-6.472a.782.782,0,0,0-.845.7" transform="translate(37.628 10.333)" fill="#e5803c"/>
              <path id="Trazado_878659" data-name="Trazado 878659" d="M150.4,34.752h-6.083v1.4H150.4a.712.712,0,1,0,0-1.4" transform="translate(42.91 10.333)" fill="#e5803c"/>
              <path id="Trazado_878660" data-name="Trazado 878660" d="M130.074,28.254l4.577,4.577.989-.99-4.576-4.577a.712.712,0,1,0-.99.99" transform="translate(38.593 8.023)" fill="#e5803c"/>
              <path id="Trazado_878661" data-name="Trazado 878661" d="M146.416,44.595a.712.712,0,1,0,.99-.99l-4.3-4.3-.989.99Z" transform="translate(42.256 11.687)" fill="#e5803c"/>
              <path id="Trazado_878662" data-name="Trazado 878662" d="M129.973,44.76a.781.781,0,0,0,1.091-.1l4.577-4.577-.99-.989-4.577,4.577a.782.782,0,0,0-.1,1.091" transform="translate(38.593 11.624)" fill="#e5803c"/>
              <path id="Trazado_878663" data-name="Trazado 878663" d="M146.416,27.264l-4.3,4.3.989.99,4.3-4.3a.712.712,0,1,0-.99-.99" transform="translate(42.256 8.023)" fill="#e5803c"/>
            </g>
          </g>
        </g>
      </g>
    </g>
    <g id="Grupo_1102276" data-name="Grupo 1102276" transform="translate(543.282 2345.539)">
      <g id="Grupo_1099433" data-name="Grupo 1099433" clip-path="url(#clip-path-11)">
        <path id="Trazado_873461" data-name="Trazado 873461" d="M25,29.944,48.059,6.883,69.771,28.6,91.606,6.761l22.816,22.816,22.57-22.57L157.381,27.4l3.38-3.38L136.992.246l-22.57,22.569L91.606,0,69.771,21.833,48.059.122,25,23.184,3.382,1.568,0,4.947Z" transform="translate(-13.983 -15.18)" fill="#2436b1"/>
        <path id="Trazado_873462" data-name="Trazado 873462" d="M25,46.74l23.062-23.06,21.711,21.71L91.606,23.556l22.816,22.816,22.57-22.57,20.389,20.39,3.38-3.382L136.992,17.041l-22.57,22.57L91.606,16.8,69.771,38.63,48.059,16.919,25,39.979,3.382,18.363,0,21.742Z" transform="translate(-13.983 -8.669)" fill="#2436b1"/>
        <path id="Trazado_873463" data-name="Trazado 873463" d="M25,63.535l23.062-23.06L69.771,62.186,91.606,40.353l22.816,22.815,22.57-22.57,20.389,20.39,3.38-3.382L136.992,33.836l-22.57,22.57L91.606,33.59,69.771,55.425,48.059,33.714,25,56.774,3.382,35.158,0,38.539Z" transform="translate(-13.983 -2.158)" fill="#2436b1"/>
        <path id="Trazado_873464" data-name="Trazado 873464" d="M25,80.331,48.059,57.269,69.771,78.981,91.606,57.147l22.816,22.816,22.57-22.572,20.389,20.39,3.38-3.38L136.992,50.632,114.422,73.2,91.606,50.387,69.771,72.221,48.059,50.509,25,73.57,3.382,51.953,0,55.334Z" transform="translate(-13.983 4.353)" fill="#2436b1"/>
        <path id="Trazado_873465" data-name="Trazado 873465" d="M25,97.126,48.059,74.065,69.771,95.776,91.606,73.942l22.816,22.816,22.57-22.57,20.389,20.39,3.38-3.38L136.992,67.427,114.422,90,91.606,67.182,69.771,89.017,48.059,67.305,25,90.367,3.382,68.75,0,72.13Z" transform="translate(-13.983 10.864)" fill="#2436b1"/>
        <path id="Trazado_873466" data-name="Trazado 873466" d="M25,113.921l23.062-23.06,21.711,21.711L91.606,90.739l22.816,22.815,22.57-22.57,20.389,20.39,3.38-3.382L136.992,84.223l-22.57,22.57L91.606,83.977,69.771,105.812,48.059,84.1,25,107.161,3.382,85.545,0,88.925Z" transform="translate(-13.983 17.375)" fill="#2436b1"/>
      </g>
    </g>
  </g>
</svg>
