<svg xmlns="http://www.w3.org/2000/svg" xmlns:xlink="http://www.w3.org/1999/xlink" width="402" height="404" viewBox="0 0 402 404">
  <defs>
    <clipPath id="clip-path">
      <rect id="Rectángulo_401258" data-name="Rectángulo 401258" width="158.226" height="140.275" fill="#405f5a"/>
    </clipPath>
    <clipPath id="clip-path-2">
      <rect id="Rectángulo_402702" data-name="Rectángulo 402702" width="360.036" height="314.201" fill="none"/>
    </clipPath>
    <clipPath id="clip-path-4">
      <rect id="Rectángulo_402700" data-name="Rectángulo 402700" width="32.184" height="34.573" fill="none"/>
    </clipPath>
    <clipPath id="clip-path-5">
      <path id="Trazado_873467" data-name="Trazado 873467" d="M140.067,72.316A61.377,61.377,0,1,1,78.689,10.939a61.378,61.378,0,0,1,61.378,61.377" transform="translate(-17.313 -10.939)" fill="#2436b1"/>
    </clipPath>
  </defs>
  <g id="Grupo_1102345" data-name="Grupo 1102345" transform="translate(-283.333 -1323)">
    <g id="Grupo_1101456" data-name="Grupo 1101456" transform="translate(0 754)">
      <rect id="Rectángulo_401253" data-name="Rectángulo 401253" width="402" height="404" rx="10" transform="translate(283.333 569)" fill="#d2d6ef"/>
      <g id="Grupo_1099438" data-name="Grupo 1099438" transform="translate(505.057 585.934)">
        <g id="Grupo_1099431" data-name="Grupo 1099431" clip-path="url(#clip-path)">
          <path id="Trazado_873431" data-name="Trazado 873431" d="M0,3.158A3.158,3.158,0,1,0,3.158,0,3.158,3.158,0,0,0,0,3.158" transform="translate(151.909)" fill="#405f5a"/>
          <path id="Trazado_873432" data-name="Trazado 873432" d="M28.954,3.158A3.158,3.158,0,1,0,32.112,0a3.158,3.158,0,0,0-3.158,3.158" transform="translate(92.572)" fill="#405f5a"/>
          <path id="Trazado_873433" data-name="Trazado 873433" d="M57.907,3.158A3.158,3.158,0,1,0,61.065,0a3.158,3.158,0,0,0-3.158,3.158" transform="translate(33.238)" fill="#405f5a"/>
          <path id="Trazado_873434" data-name="Trazado 873434" d="M86.86,3.158A3.158,3.158,0,1,0,90.018,0,3.158,3.158,0,0,0,86.86,3.158" transform="translate(-26.096)" fill="#405f5a"/>
          <path id="Trazado_873435" data-name="Trazado 873435" d="M115.813,3.158A3.159,3.159,0,1,0,118.971,0a3.159,3.159,0,0,0-3.158,3.158" transform="translate(-85.432)" fill="#405f5a"/>
          <path id="Trazado_873436" data-name="Trazado 873436" d="M144.767,3.158A3.158,3.158,0,1,0,147.925,0a3.158,3.158,0,0,0-3.158,3.158" transform="translate(-144.767)" fill="#405f5a"/>
          <path id="Trazado_873437" data-name="Trazado 873437" d="M0,35.073a3.158,3.158,0,1,0,3.158-3.158A3.159,3.159,0,0,0,0,35.073" transform="translate(151.909 1.574)" fill="#405f5a"/>
          <path id="Trazado_873438" data-name="Trazado 873438" d="M28.954,35.073a3.158,3.158,0,1,0,3.158-3.158,3.159,3.159,0,0,0-3.158,3.158" transform="translate(92.572 1.574)" fill="#405f5a"/>
          <path id="Trazado_873439" data-name="Trazado 873439" d="M57.907,35.073a3.158,3.158,0,1,0,3.158-3.158,3.159,3.159,0,0,0-3.158,3.158" transform="translate(33.238 1.574)" fill="#405f5a"/>
          <path id="Trazado_873440" data-name="Trazado 873440" d="M86.86,35.073a3.158,3.158,0,1,0,3.158-3.158,3.159,3.159,0,0,0-3.158,3.158" transform="translate(-26.096 1.574)" fill="#405f5a"/>
          <path id="Trazado_873441" data-name="Trazado 873441" d="M115.813,35.073a3.159,3.159,0,1,0,3.158-3.158,3.16,3.16,0,0,0-3.158,3.158" transform="translate(-85.432 1.574)" fill="#405f5a"/>
          <path id="Trazado_873442" data-name="Trazado 873442" d="M144.767,35.073a3.158,3.158,0,1,0,3.158-3.158,3.159,3.159,0,0,0-3.158,3.158" transform="translate(-144.767 1.574)" fill="#405f5a"/>
          <path id="Trazado_873443" data-name="Trazado 873443" d="M0,66.988A3.158,3.158,0,1,0,3.158,63.83,3.159,3.159,0,0,0,0,66.988" transform="translate(151.909 3.149)" fill="#405f5a"/>
          <path id="Trazado_873444" data-name="Trazado 873444" d="M28.954,66.988a3.158,3.158,0,1,0,3.158-3.158,3.159,3.159,0,0,0-3.158,3.158" transform="translate(92.572 3.149)" fill="#405f5a"/>
          <path id="Trazado_873445" data-name="Trazado 873445" d="M57.907,66.988a3.158,3.158,0,1,0,3.158-3.158,3.159,3.159,0,0,0-3.158,3.158" transform="translate(33.238 3.149)" fill="#405f5a"/>
          <path id="Trazado_873446" data-name="Trazado 873446" d="M86.86,66.988a3.158,3.158,0,1,0,3.158-3.158,3.159,3.159,0,0,0-3.158,3.158" transform="translate(-26.096 3.149)" fill="#405f5a"/>
          <path id="Trazado_873447" data-name="Trazado 873447" d="M115.813,66.988a3.159,3.159,0,1,0,3.158-3.158,3.16,3.16,0,0,0-3.158,3.158" transform="translate(-85.432 3.149)" fill="#405f5a"/>
          <path id="Trazado_873448" data-name="Trazado 873448" d="M144.767,66.988a3.158,3.158,0,1,0,3.158-3.158,3.159,3.159,0,0,0-3.158,3.158" transform="translate(-144.767 3.149)" fill="#405f5a"/>
          <path id="Trazado_873449" data-name="Trazado 873449" d="M0,98.9a3.158,3.158,0,1,0,3.158-3.158A3.159,3.159,0,0,0,0,98.9" transform="translate(151.909 4.723)" fill="#405f5a"/>
          <path id="Trazado_873450" data-name="Trazado 873450" d="M28.954,98.9a3.158,3.158,0,1,0,3.158-3.158A3.159,3.159,0,0,0,28.954,98.9" transform="translate(92.572 4.723)" fill="#405f5a"/>
          <path id="Trazado_873451" data-name="Trazado 873451" d="M57.907,98.9a3.158,3.158,0,1,0,3.158-3.158A3.159,3.159,0,0,0,57.907,98.9" transform="translate(33.238 4.723)" fill="#405f5a"/>
          <path id="Trazado_873452" data-name="Trazado 873452" d="M86.86,98.9a3.158,3.158,0,1,0,3.158-3.158A3.159,3.159,0,0,0,86.86,98.9" transform="translate(-26.096 4.723)" fill="#405f5a"/>
          <path id="Trazado_873453" data-name="Trazado 873453" d="M115.813,98.9a3.159,3.159,0,1,0,3.158-3.158,3.16,3.16,0,0,0-3.158,3.158" transform="translate(-85.432 4.723)" fill="#405f5a"/>
          <path id="Trazado_873454" data-name="Trazado 873454" d="M144.767,98.9a3.158,3.158,0,1,0,3.158-3.158,3.159,3.159,0,0,0-3.158,3.158" transform="translate(-144.767 4.723)" fill="#405f5a"/>
          <path id="Trazado_873455" data-name="Trazado 873455" d="M0,130.818a3.158,3.158,0,1,0,3.158-3.159A3.159,3.159,0,0,0,0,130.818" transform="translate(151.909 6.298)" fill="#405f5a"/>
          <path id="Trazado_873456" data-name="Trazado 873456" d="M28.954,130.818a3.158,3.158,0,1,0,3.158-3.159,3.159,3.159,0,0,0-3.158,3.159" transform="translate(92.572 6.298)" fill="#405f5a"/>
          <path id="Trazado_873457" data-name="Trazado 873457" d="M57.907,130.818a3.158,3.158,0,1,0,3.158-3.159,3.159,3.159,0,0,0-3.158,3.159" transform="translate(33.238 6.298)" fill="#405f5a"/>
          <path id="Trazado_873458" data-name="Trazado 873458" d="M86.86,130.818a3.158,3.158,0,1,0,3.158-3.159,3.159,3.159,0,0,0-3.158,3.159" transform="translate(-26.096 6.298)" fill="#405f5a"/>
          <path id="Trazado_873459" data-name="Trazado 873459" d="M115.813,130.818a3.159,3.159,0,1,0,3.158-3.159,3.16,3.16,0,0,0-3.158,3.159" transform="translate(-85.432 6.298)" fill="#405f5a"/>
          <path id="Trazado_873460" data-name="Trazado 873460" d="M144.767,130.818a3.158,3.158,0,1,0,3.158-3.159,3.159,3.159,0,0,0-3.158,3.159" transform="translate(-144.767 6.298)" fill="#405f5a"/>
        </g>
      </g>
    </g>
    <g id="Grupo_1102254" data-name="Grupo 1102254" transform="translate(307.972 1374.562)">
      <g id="Grupo_1102253" data-name="Grupo 1102253" clip-path="url(#clip-path-2)">
        <g id="Grupo_1102252" data-name="Grupo 1102252">
          <g id="Grupo_1102251" data-name="Grupo 1102251" clip-path="url(#clip-path-2)">
            <path id="Trazado_878575" data-name="Trazado 878575" d="M274.819,113.318c-75.354-39.952-71.419-119.1-170.1-82.165C36.354,56.739-8.957,141.355,1.5,213.807c7.887,54.657,33.907,95.181,82.48,82.058s89.864,2.805,127.194,13.08c46.979,12.931,119.791-27.486,131.633-82.959s-16.489-85.366-67.985-112.668" transform="translate(0 2.832)" fill="#eaf0f9"/>
            <path id="Trazado_878576" data-name="Trazado 878576" d="M304.634,257.133c0,4.731-31.492,8.565-70.341,8.565s-70.34-3.835-70.34-8.565,31.492-8.565,70.34-8.565,70.341,3.835,70.341,8.565" transform="translate(21.508 32.608)" fill="#cddae7"/>
            <path id="Trazado_878577" data-name="Trazado 878577" d="M134.418,251.245c0,3.777-18.275,6.839-40.82,6.839s-40.82-3.062-40.82-6.839,18.275-6.839,40.82-6.839,40.82,3.062,40.82,6.839" transform="translate(6.924 32.062)" fill="#cddae7"/>
            <path id="Trazado_878579" data-name="Trazado 878579" d="M301.846,58.688v7.671H303.5V58.688a.844.844,0,1,0-1.658,0" transform="translate(39.598 7.568)" fill="#e5803c"/>
            <path id="Trazado_878580" data-name="Trazado 878580" d="M301.846,89.045a.844.844,0,1,0,1.658,0V81.836h-1.658Z" transform="translate(39.598 10.736)" fill="#e5803c"/>
            <path id="Trazado_878581" data-name="Trazado 878581" d="M286.876,73.487a.927.927,0,0,0,1,.829h7.669V72.658h-7.669a.927.927,0,0,0-1,.829" transform="translate(37.634 9.532)" fill="#e5803c"/>
            <path id="Trazado_878582" data-name="Trazado 878582" d="M318.234,72.658h-7.209v1.658h7.209a.844.844,0,1,0,0-1.658" transform="translate(40.802 9.532)" fill="#e5803c"/>
            <path id="Trazado_878583" data-name="Trazado 878583" d="M291.622,63.606l5.424,5.424,1.172-1.173-5.424-5.423a.843.843,0,1,0-1.172,1.172" transform="translate(38.213 8.147)" fill="#e5803c"/>
            <path id="Trazado_878584" data-name="Trazado 878584" d="M313.13,85.114a.843.843,0,1,0,1.172-1.172l-5.1-5.1-1.172,1.173Z" transform="translate(40.409 10.343)" fill="#e5803c"/>
            <path id="Trazado_878585" data-name="Trazado 878585" d="M291.5,85.273a.929.929,0,0,0,1.3-.121l5.422-5.424-1.171-1.172-5.425,5.423a.928.928,0,0,0-.121,1.294" transform="translate(38.213 10.305)" fill="#e5803c"/>
            <path id="Trazado_878586" data-name="Trazado 878586" d="M313.13,62.433l-5.1,5.1L309.2,68.7l5.1-5.1a.843.843,0,1,0-1.172-1.172" transform="translate(40.409 8.147)" fill="#e5803c"/>
            <path id="Trazado_878587" data-name="Trazado 878587" d="M172.165,164.216a70.189,70.189,0,0,0-31.86.973c-16.734,4.64-88.524,45.474-88.524,45.474s-12.3-4.975-23.232-23.195-10.008-32.209-10.008-32.209S80.37,103.922,91.33,93.321,108.313,58.6,108.313,58.6Z" transform="translate(2.43 7.687)" fill="#729edb"/>
            <path id="Trazado_878588" data-name="Trazado 878588" d="M139.892,106.5l31.1,51.434a70.189,70.189,0,0,0-31.86.973c-16.735,4.64-88.525,45.474-88.525,45.474s-12.2-4.938-23.092-22.97Z" transform="translate(3.609 13.971)" fill="#6b90bd"/>
            <path id="Trazado_878589" data-name="Trazado 878589" d="M55.83,187.858l-14.2,9.464s-9.537-3.474-18.176-17.874-6.467-23.2-6.467-23.2l14.2-9.463Z" transform="translate(2.197 19.256)" fill="#cddadc"/>
            <path id="Trazado_878590" data-name="Trazado 878590" d="M116.175,125.627c24.435,40.727,64.117,60.5,88.633,44.155s24.583-62.607.148-103.334-64.117-60.5-88.633-44.155S91.741,84.9,116.175,125.627" transform="translate(12.842 2.172)" fill="#227a81"/>
            <path id="Trazado_878591" data-name="Trazado 878591" d="M203.686,62.164c24.435,40.727,24.368,86.992-.148,103.334s-64.2-3.427-88.633-44.155a139.269,139.269,0,0,1-7.328-13.936l87.3-58.195a137.262,137.262,0,0,1,8.8,12.952" transform="translate(14.113 6.456)" fill="#104c56"/>
            <path id="Trazado_878592" data-name="Trazado 878592" d="M121.818,121.553c23.817,39.7,61.6,59.568,84.384,44.38s21.952-59.685-1.865-99.384-61.6-59.569-84.385-44.38S98,81.853,121.818,121.553" transform="translate(13.564 2.239)" fill="#fff"/>
            <path id="Trazado_878593" data-name="Trazado 878593" d="M126.022,117.639c21.7,36.171,55.4,54.757,75.269,41.512s18.385-53.3-3.315-89.474-55.4-54.757-75.269-41.512-18.385,53.3,3.316,89.474" transform="translate(14.263 3.134)" fill="#ff9b6a"/>
            <path id="Trazado_878594" data-name="Trazado 878594" d="M18.542,147.856s19.272-16.5,38.892-32.837a106.84,106.84,0,0,0,13.346,34.5A100.631,100.631,0,0,0,96.91,178.744C74,191.14,51.781,203.26,51.781,203.26s-12.3-4.975-23.231-23.2-10.008-32.208-10.008-32.208" transform="translate(2.43 15.089)" fill="#1e2d54"/>
            <path id="Trazado_878595" data-name="Trazado 878595" d="M203.361,79.438c12.991,30.938,11.44,61.243-5.339,72.428s-43.418-.33-64.368-25.963Z" transform="translate(17.533 10.421)" fill="#ff894e"/>
            <path id="Trazado_878596" data-name="Trazado 878596" d="M113.107,84.309l25.87-11.227,22.923,38.21-20.947,20.983a135.615,135.615,0,0,1-15.428-21.058,147.009,147.009,0,0,1-12.418-26.909" transform="translate(14.838 9.587)" fill="#cde7ec"/>
            <path id="Trazado_878597" data-name="Trazado 878597" d="M150.587,92.61l9.456,15.762-20.282,20.54s-1.891-.888-6.548-6.63a93.03,93.03,0,0,1-7.582-10.805Z" transform="translate(16.481 12.149)" fill="#add9de"/>
            <path id="Trazado_878598" data-name="Trazado 878598" d="M137.276,99.433c6.33,10.552,16.229,15.927,22.109,12.008s5.516-15.651-.814-26.2-16.228-15.928-22.109-12.008-5.516,15.65.814,26.2" transform="translate(17.353 9.439)" fill="#fff"/>
            <path id="Trazado_878599" data-name="Trazado 878599" d="M70.234,146.456A100.572,100.572,0,0,0,89.07,169.5L45.18,196.542C40.6,193.183,34.092,187.147,28,177a78.806,78.806,0,0,1-5.314-10.54l43.177-28.043q1.989,4.066,4.368,8.043" transform="translate(2.976 18.158)" fill="#09333a"/>
            <path id="Trazado_878600" data-name="Trazado 878600" d="M124.171,230.191s-8.742,8.829-15.717,15.622-12.524-1.3-12.524-1.3L55.1,191.215l28.09-15.433Z" transform="translate(7.228 23.06)" fill="#2436b1"/>
            <path id="Trazado_878601" data-name="Trazado 878601" d="M75.864,178.166l4.528-2.487,40.984,54.409-3.256,3.235Z" transform="translate(9.952 23.046)" fill="#729edb"/>
            <path id="Trazado_878602" data-name="Trazado 878602" d="M38.427,189.706c-1.253-1.19-2.561-2.529-3.9-4.051L78.04,157.176q2.1,2.513,4.306,4.834Z" transform="translate(4.529 20.619)" fill="#0b5b63"/>
            <g id="Grupo_1102250" data-name="Grupo 1102250" transform="translate(85.233 216.155)" opacity="0.5">
              <g id="Grupo_1102249" data-name="Grupo 1102249">
                <g id="Grupo_1102248" data-name="Grupo 1102248" clip-path="url(#clip-path-4)">
                  <path id="Trazado_878603" data-name="Trazado 878603" d="M105.774,214.792l-4.188-5.559L90.229,216.8a3.546,3.546,0,0,0-.96,4.733l.071.119a3.16,3.16,0,0,0,4.468,1.113Z" transform="translate(-73.59 -188.706)" fill="#dceef1"/>
                  <path id="Trazado_878604" data-name="Trazado 878604" d="M75.934,203.311a3.161,3.161,0,0,0,4.468,1.113l11.668-7.778-4.187-5.559-11.06,7.372a3.546,3.546,0,0,0-.962,4.733Z" transform="translate(-75.349 -191.087)" fill="#dceef1"/>
                  <path id="Trazado_878605" data-name="Trazado 878605" d="M99.124,205.9l-4.188-5.559L83.144,208.2a3.547,3.547,0,0,0-.962,4.733l.071.119a3.162,3.162,0,0,0,4.469,1.113Z" transform="translate(-74.52 -189.873)" fill="#dceef1"/>
                </g>
              </g>
            </g>
            <path id="Trazado_878606" data-name="Trazado 878606" d="M252.1,145.449c-.443,7.587-.089,9.746-2.162,19.374-3.211,14.914-2.851,11.4-3.157,13.492-1.424,3.681-5.628,19.858-7.177,22.964-.09,6.305-1.036,11.264-2.87,18.946-2.193,9.176-8.571,24.731-11.791,33.251l-6.365-1.521c.929-16.981,3.308-40.293,6.929-65.947,2.318-16.433.08-31.679,2.615-45.012Z" transform="translate(28.674 18.497)" fill="#1e2d54"/>
            <path id="Trazado_878607" data-name="Trazado 878607" d="M263.139,143.534c1.58,7.482,1.847,15.7,2.11,25.549.406,15.252-2.187,22.215-1.965,24.323a103.078,103.078,0,0,1-2.346,10.974,84.623,84.623,0,0,1,2.588,21.4,204.579,204.579,0,0,1-1.933,29.136h-7.761c-3.611-16.731-7.292-39.957-10.189-65.751-1.856-16.52-3.162-32.072-3.914-45.629Z" transform="translate(31.449 18.83)" fill="#153f5e"/>
            <path id="Trazado_878608" data-name="Trazado 878608" d="M226.253,147.977c0,6.659,7.069,12.056,15.788,12.056s15.789-5.4,15.789-12.056-7.069-12.056-15.789-12.056-15.788,5.4-15.788,12.056" transform="translate(29.681 17.831)" fill="#153f5e"/>
            <path id="Trazado_878609" data-name="Trazado 878609" d="M253.82,247.751h5.455v-8.038h-6.423Z" transform="translate(33.17 31.447)" fill="#ea9f88"/>
            <path id="Trazado_878610" data-name="Trazado 878610" d="M251.252,255.63V256.8h12.917V255.63a2.8,2.8,0,0,0-.137-.853c.55-.027.454-.038-.01-.041a2.36,2.36,0,0,0-.869-1.191c-.353-.692-.8-1.6-1.242-2.559-.383-.837-.59-3.4-1.187-4.667a3.963,3.963,0,0,0-2.009-2.154h-.583c-1.284.862-1.223,2.61-2.432,2.871a4.188,4.188,0,0,1-2.444-.365l-1.343,5.381a5.046,5.046,0,0,0-.232,1.554v.552a2.7,2.7,0,0,0-.43,1.472M256.7,253.2l.006.012h-.372V253.2Z" transform="translate(32.961 32.031)" fill="#16415d"/>
            <path id="Trazado_878611" data-name="Trazado 878611" d="M217.561,246.485l4.548,1.394,2.354-7.686-5.356-1.64Z" transform="translate(28.541 31.294)" fill="#ea9f88"/>
            <path id="Trazado_878612" data-name="Trazado 878612" d="M228.854,251.485l-1.972-5.55a16.627,16.627,0,0,1-4.685.377c-1.776-.269-1.77-1.888-2.476-2.96h-2.368s-3.109,5.515-9.21,6.89h-4.569c-1.066,0-1.938,1.28-1.938,2.846v1.265h19.214l.969-1.689h.538v1.689h6.836v-1.265a3.806,3.806,0,0,0-.34-1.6" transform="translate(26.452 31.924)" fill="#16415d"/>
            <path id="Trazado_878613" data-name="Trazado 878613" d="M252.909,82.481A15.186,15.186,0,0,1,239,82.041a10.318,10.318,0,0,0,1.357-5.261,9.464,9.464,0,0,0-2.391-6.615V66.733h8.728a25.44,25.44,0,0,0,6.217,15.748" transform="translate(31.217 8.754)" fill="#ea9f86"/>
            <path id="Trazado_878614" data-name="Trazado 878614" d="M234.056,62.8c-.364-5,5.081-5.573,9.089-5.869,2.572-.19,4.9.008,6.59,2.549.421-.61,1.351.471,2.01.445,1.365-.052,2.218.376,2.29,2.3s-.666,4.613-2.03,4.665a1.613,1.613,0,0,1-.2-.019c-.046,1.568.532,2.768-.143,4.049-1.321,2.51-4.619,4.6-7,5.291-7.777,2.248-10.243-8.41-10.607-13.408" transform="translate(30.702 7.462)" fill="#ebb190"/>
            <path id="Trazado_878615" data-name="Trazado 878615" d="M229.251,58.532c-.423-4.025.821-6.6,7.27-7.365a61.846,61.846,0,0,1,16.139.361c4.682.93,4.021,4.577,3.84,6.159-.445,3.9-1.606,9.639-3.508,10.256a1.192,1.192,0,0,1-1.147-.195,3.471,3.471,0,0,0,1.426-2.024c.428-1.534-.119-2.993-1.222-3.259a2.386,2.386,0,0,0-2.454,1.518c-1.452-2.74-3.638-5.455-9.027-2.968-5.9,2.721-10.9,1.541-11.319-2.484" transform="translate(30.065 6.665)" fill="#1c3054"/>
            <path id="Trazado_878616" data-name="Trazado 878616" d="M252.091,113.186a318.448,318.448,0,0,1-34.466-1.805c.583-15.093,9.741-27.716,22.22-31.966a12.347,12.347,0,0,0,8.062,2.769,12.005,12.005,0,0,0,8.633-3.318c13.563,3.645,23.7,17.021,24.077,33.1-8.947.79-18.541,1.218-28.526,1.218" transform="translate(28.549 10.346)" fill="#729edb"/>
            <path id="Trazado_878617" data-name="Trazado 878617" d="M218.308,107.014l-.681,11.8c6.382,1.514,10.47,4.2,11.83,8.354q3.626-3.964,4.153-13.294a43.032,43.032,0,0,0,0-5.01Z" transform="translate(28.549 14.039)" fill="#ea9f87"/>
            <path id="Trazado_878618" data-name="Trazado 878618" d="M234.046,126.554c-1.11-6.909-5.527-8.214-11.126-8.874l-24.6-1.42c-.669-1.212-2.305-2.216-4.438-2.732-.393-.1-.886.477-.907.857-.1,1.734,1.018,3.357-2.386,3.258a52.315,52.315,0,0,1-6.373-.542c-.42-.08-1.861-.055-.981,1.216,1.388,2.007,4.752,4.649,8.4,4.754a7.054,7.054,0,0,0,5.306-2.037c7.87,3.518,22.219,7.511,30.364,7.746a9.379,9.379,0,0,0,6.744-2.227" transform="translate(24 14.892)" fill="#efb290"/>
            <path id="Trazado_878619" data-name="Trazado 878619" d="M265.027,154.3H227.665c-.86,0-.687-2.388-.574-2.727.718-2.147,1.454-2.723,1.931-5.154a64.882,64.882,0,0,0,1.183-12.5c0-14.086-4.239-27.394-9.8-35.247,3.689-9.146,10.794-16.22,19.524-19.194a12.341,12.341,0,0,0,8.062,2.769,12.009,12.009,0,0,0,8.634-3.317c10.23,2.749,18.51,11.038,22.126,21.845-8.072,3.561-14.172,19.868-14.172,39.458,0,3.063.154,6.041.44,8.9a11.4,11.4,0,0,0,.9,2.8c.226,1.558-.442,2.369-.89,2.369" transform="translate(28.914 10.355)" fill="#729edb"/>
            <path id="Trazado_878620" data-name="Trazado 878620" d="M258.947,107.114l.443,14.139c6.976,1.372,11.614,4.3,13.481,9.171q3.483-4.982,3.121-16.157a57.925,57.925,0,0,0-.5-5.983Z" transform="translate(33.97 14.052)" fill="#ea9f87"/>
            <path id="Trazado_878621" data-name="Trazado 878621" d="M277.754,129.454c-1.872-8.175-6.726-9.431-12.78-9.838L238.52,119.6a7.455,7.455,0,0,0-5.017-2.959c-.429-.087-.9.629-.885,1.084.064,2.08,1.422,3.94-2.228,4.055a50.618,50.618,0,0,1-6.869-.214c-.457-.067-2,.06-.928,1.519,1.683,2.3,5.543,5.227,9.456,5.1a7.015,7.015,0,0,0,5.472-2.794c8.766,3.664,24.507,7.454,33.242,7.181a9.231,9.231,0,0,0,6.991-3.12" transform="translate(29.153 15.3)" fill="#efb290"/>
          </g>
        </g>
      </g>
    </g>
    <g id="Grupo_1102255" data-name="Grupo 1102255" transform="translate(303.282 1592.582)">
      <g id="Grupo_1099433" data-name="Grupo 1099433" clip-path="url(#clip-path-5)">
        <path id="Trazado_873461" data-name="Trazado 873461" d="M25,29.944,48.059,6.883,69.771,28.6,91.606,6.761l22.816,22.816,22.57-22.57L157.381,27.4l3.38-3.38L136.992.246l-22.57,22.569L91.606,0,69.771,21.833,48.059.122,25,23.184,3.382,1.568,0,4.947Z" transform="translate(-13.983 -15.18)" fill="#2436b1"/>
        <path id="Trazado_873462" data-name="Trazado 873462" d="M25,46.74l23.062-23.06,21.711,21.71L91.606,23.556l22.816,22.816,22.57-22.57,20.389,20.39,3.38-3.382L136.992,17.041l-22.57,22.57L91.606,16.8,69.771,38.63,48.059,16.919,25,39.979,3.382,18.363,0,21.742Z" transform="translate(-13.983 -8.669)" fill="#2436b1"/>
        <path id="Trazado_873463" data-name="Trazado 873463" d="M25,63.535l23.062-23.06L69.771,62.186,91.606,40.353l22.816,22.815,22.57-22.57,20.389,20.39,3.38-3.382L136.992,33.836l-22.57,22.57L91.606,33.59,69.771,55.425,48.059,33.714,25,56.774,3.382,35.158,0,38.539Z" transform="translate(-13.983 -2.158)" fill="#2436b1"/>
        <path id="Trazado_873464" data-name="Trazado 873464" d="M25,80.331,48.059,57.269,69.771,78.981,91.606,57.147l22.816,22.816,22.57-22.572,20.389,20.39,3.38-3.38L136.992,50.632,114.422,73.2,91.606,50.387,69.771,72.221,48.059,50.509,25,73.57,3.382,51.953,0,55.334Z" transform="translate(-13.983 4.353)" fill="#2436b1"/>
        <path id="Trazado_873465" data-name="Trazado 873465" d="M25,97.126,48.059,74.065,69.771,95.776,91.606,73.942l22.816,22.816,22.57-22.57,20.389,20.39,3.38-3.38L136.992,67.427,114.422,90,91.606,67.182,69.771,89.017,48.059,67.305,25,90.367,3.382,68.75,0,72.13Z" transform="translate(-13.983 10.864)" fill="#2436b1"/>
        <path id="Trazado_873466" data-name="Trazado 873466" d="M25,113.921l23.062-23.06,21.711,21.711L91.606,90.739l22.816,22.815,22.57-22.57,20.389,20.39,3.38-3.382L136.992,84.223l-22.57,22.57L91.606,83.977,69.771,105.812,48.059,84.1,25,107.161,3.382,85.545,0,88.925Z" transform="translate(-13.983 17.375)" fill="#2436b1"/>
      </g>
    </g>
  </g>
</svg>
