<svg xmlns="http://www.w3.org/2000/svg" xmlns:xlink="http://www.w3.org/1999/xlink" width="402" height="404" viewBox="0 0 402 404">
  <defs>
    <clipPath id="clip-path">
      <rect id="Rectángulo_401258" data-name="Rectángulo 401258" width="158.226" height="140.275" fill="#405f5a"/>
    </clipPath>
    <clipPath id="clip-path-2">
      <rect id="Rectángulo_402699" data-name="Rectángulo 402699" width="379.98" height="313.108" fill="none"/>
    </clipPath>
    <clipPath id="clip-path-4">
      <rect id="Rectángulo_402666" data-name="Rectángulo 402666" width="109.41" height="8.972" fill="none"/>
    </clipPath>
    <clipPath id="clip-path-5">
      <path id="Trazado_878499" data-name="Trazado 878499" d="M215.812,209.166l9.228,2.678,2.584-29.7-1.036-9.741,4.144-30.875,8.29,29.01,14.918,41.323h9.119L256.1,185.5l-6.2-19.21-2.59-35.348-19.579-1.266-11.3-1.22Z" transform="translate(-215.812 -128.454)" fill="none"/>
    </clipPath>
    <linearGradient id="linear-gradient" x1="-6.312" y1="1.626" x2="-6.283" y2="1.626" gradientUnits="objectBoundingBox">
      <stop offset="0" stop-color="#0f2d47"/>
      <stop offset="1" stop-color="#0a2635"/>
    </linearGradient>
    <clipPath id="clip-path-7">
      <rect id="Rectángulo_402669" data-name="Rectángulo 402669" width="6.003" height="73.428" fill="none"/>
    </clipPath>
    <clipPath id="clip-path-8">
      <rect id="Rectángulo_402671" data-name="Rectángulo 402671" width="7.765" height="6.699" fill="none"/>
    </clipPath>
    <clipPath id="clip-path-9">
      <rect id="Rectángulo_402672" data-name="Rectángulo 402672" width="79.529" height="6.482" fill="none"/>
    </clipPath>
    <clipPath id="clip-path-10">
      <path id="Trazado_878523" data-name="Trazado 878523" d="M171.737,138.968l-18.318,1.184L151,172.55l-2.29,18.173-2.275,29.215h8.439l6.3-43.412,7.756-27.142,3.876,28.885-.969,9.113,2.418,32.556,8.632-2.508-.582-79.6Z" transform="translate(-146.433 -137.827)" fill="none"/>
    </clipPath>
    <linearGradient id="linear-gradient-2" x1="-5.551" y1="1.494" x2="-5.513" y2="1.494" xlink:href="#linear-gradient"/>
    <clipPath id="clip-path-12">
      <rect id="Rectángulo_402675" data-name="Rectángulo 402675" width="5.616" height="73.462" fill="none"/>
    </clipPath>
    <clipPath id="clip-path-13">
      <rect id="Rectángulo_402676" data-name="Rectángulo 402676" width="28.885" height="2.326" fill="none"/>
    </clipPath>
    <clipPath id="clip-path-14">
      <path id="Trazado_878531" data-name="Trazado 878531" d="M150.711,107.274s-6.8,14.718-8.033,22.462-1.078,23.07-1.078,23.07l6.859-.547s.507-13.411,2.251-19.937a24.919,24.919,0,0,1,4.944-9.951l.528,6.2q.012-.622.012-1.251c0-8.029-.591-15.421-2.928-21.3Z" transform="translate(-141.594 -106.015)" fill="none"/>
    </clipPath>
    <linearGradient id="linear-gradient-3" x1="-13.254" y1="3.561" x2="-13.16" y2="3.561" gradientUnits="objectBoundingBox">
      <stop offset="0" stop-color="#aa6338"/>
      <stop offset="0.062" stop-color="#aa6338"/>
      <stop offset="1" stop-color="#c96f43"/>
    </linearGradient>
    <clipPath id="clip-path-16">
      <rect id="Rectángulo_402679" data-name="Rectángulo 402679" width="79.53" height="6.482" fill="none"/>
    </clipPath>
    <clipPath id="clip-path-17">
      <path id="Trazado_878534" data-name="Trazado 878534" d="M39.581,131.153c-.26,7.17-.229,21.738-.026,29.429.616,28.419,1.969,56.073,1.969,56.073L39.7,220h7.365l5.855-59.414,1.458-17.331,2.168-.043,3.423,17.374L70.755,220H79.5l-3.539-3.663s-2.367-31.221-3.63-55.751C71.754,151.807,71,136,70.672,130.264Z" transform="translate(-39.394 -130.264)" fill="none"/>
    </clipPath>
    <linearGradient id="linear-gradient-4" x1="-1.353" y1="1.483" x2="-1.319" y2="1.483" xlink:href="#linear-gradient"/>
    <clipPath id="clip-path-19">
      <rect id="Rectángulo_402682" data-name="Rectángulo 402682" width="60.462" height="8.418" fill="none"/>
    </clipPath>
    <clipPath id="clip-path-20">
      <path id="Trazado_878553" data-name="Trazado 878553" d="M92.662,208.32l7,.413,2.207-26.19,1.983-9.293.977-9.224,3.011,9.318,7.2,35.4h5.91l-1.5-23.714-2.07-17.28-1.68-31.8-12.691-1.139-7.324-1.1Z" transform="translate(-92.662 -133.716)" fill="none"/>
    </clipPath>
    <linearGradient id="linear-gradient-5" x1="-4.527" y1="1.71" x2="-4.478" y2="1.71" xlink:href="#linear-gradient"/>
    <clipPath id="clip-path-22">
      <path id="Trazado_878555" data-name="Trazado 878555" d="M114.431,198.233s-4.539.42-6.372.666a12.467,12.467,0,0,0-5.931,2.436h6.108l6.195-1.972v1.44h2.92v-3.81Z" transform="translate(-102.128 -196.993)" fill="none"/>
    </clipPath>
    <linearGradient id="linear-gradient-6" x1="-9.271" y1="9.419" x2="-9.18" y2="9.419" xlink:href="#linear-gradient"/>
    <clipPath id="clip-path-24">
      <path id="Trazado_878557" data-name="Trazado 878557" d="M98.526,197.958s-4.539.419-6.37.665a12.452,12.452,0,0,0-5.931,2.438h6.106l6.195-1.973v1.44h2.921v-3.808Z" transform="translate(-86.225 -196.718)" fill="none"/>
    </clipPath>
    <linearGradient id="linear-gradient-7" x1="-7.827" y1="9.506" x2="-7.736" y2="9.506" xlink:href="#linear-gradient"/>
    <clipPath id="clip-path-26">
      <path id="Trazado_873467" data-name="Trazado 873467" d="M140.067,72.316A61.377,61.377,0,1,1,78.689,10.939a61.378,61.378,0,0,1,61.378,61.377" transform="translate(-17.313 -10.939)" fill="#2436b1"/>
    </clipPath>
  </defs>
  <g id="Grupo_1102346" data-name="Grupo 1102346" transform="translate(-283.333 -569)">
    <g id="Grupo_1101455" data-name="Grupo 1101455">
      <rect id="Rectángulo_401253" data-name="Rectángulo 401253" width="402" height="404" rx="10" transform="translate(283.333 569)" fill="#d2d6ef"/>
      <g id="Grupo_1099438" data-name="Grupo 1099438" transform="translate(505.057 585.934)">
        <g id="Grupo_1099431" data-name="Grupo 1099431" clip-path="url(#clip-path)">
          <path id="Trazado_873431" data-name="Trazado 873431" d="M0,3.158A3.158,3.158,0,1,0,3.158,0,3.158,3.158,0,0,0,0,3.158" transform="translate(151.909)" fill="#405f5a"/>
          <path id="Trazado_873432" data-name="Trazado 873432" d="M28.954,3.158A3.158,3.158,0,1,0,32.112,0a3.158,3.158,0,0,0-3.158,3.158" transform="translate(92.572)" fill="#405f5a"/>
          <path id="Trazado_873433" data-name="Trazado 873433" d="M57.907,3.158A3.158,3.158,0,1,0,61.065,0a3.158,3.158,0,0,0-3.158,3.158" transform="translate(33.238)" fill="#405f5a"/>
          <path id="Trazado_873434" data-name="Trazado 873434" d="M86.86,3.158A3.158,3.158,0,1,0,90.018,0,3.158,3.158,0,0,0,86.86,3.158" transform="translate(-26.096)" fill="#405f5a"/>
          <path id="Trazado_873435" data-name="Trazado 873435" d="M115.813,3.158A3.159,3.159,0,1,0,118.971,0a3.159,3.159,0,0,0-3.158,3.158" transform="translate(-85.432)" fill="#405f5a"/>
          <path id="Trazado_873436" data-name="Trazado 873436" d="M144.767,3.158A3.158,3.158,0,1,0,147.925,0a3.158,3.158,0,0,0-3.158,3.158" transform="translate(-144.767)" fill="#405f5a"/>
          <path id="Trazado_873437" data-name="Trazado 873437" d="M0,35.073a3.158,3.158,0,1,0,3.158-3.158A3.159,3.159,0,0,0,0,35.073" transform="translate(151.909 1.574)" fill="#405f5a"/>
          <path id="Trazado_873438" data-name="Trazado 873438" d="M28.954,35.073a3.158,3.158,0,1,0,3.158-3.158,3.159,3.159,0,0,0-3.158,3.158" transform="translate(92.572 1.574)" fill="#405f5a"/>
          <path id="Trazado_873439" data-name="Trazado 873439" d="M57.907,35.073a3.158,3.158,0,1,0,3.158-3.158,3.159,3.159,0,0,0-3.158,3.158" transform="translate(33.238 1.574)" fill="#405f5a"/>
          <path id="Trazado_873440" data-name="Trazado 873440" d="M86.86,35.073a3.158,3.158,0,1,0,3.158-3.158,3.159,3.159,0,0,0-3.158,3.158" transform="translate(-26.096 1.574)" fill="#405f5a"/>
          <path id="Trazado_873441" data-name="Trazado 873441" d="M115.813,35.073a3.159,3.159,0,1,0,3.158-3.158,3.16,3.16,0,0,0-3.158,3.158" transform="translate(-85.432 1.574)" fill="#405f5a"/>
          <path id="Trazado_873442" data-name="Trazado 873442" d="M144.767,35.073a3.158,3.158,0,1,0,3.158-3.158,3.159,3.159,0,0,0-3.158,3.158" transform="translate(-144.767 1.574)" fill="#405f5a"/>
          <path id="Trazado_873443" data-name="Trazado 873443" d="M0,66.988A3.158,3.158,0,1,0,3.158,63.83,3.159,3.159,0,0,0,0,66.988" transform="translate(151.909 3.149)" fill="#405f5a"/>
          <path id="Trazado_873444" data-name="Trazado 873444" d="M28.954,66.988a3.158,3.158,0,1,0,3.158-3.158,3.159,3.159,0,0,0-3.158,3.158" transform="translate(92.572 3.149)" fill="#405f5a"/>
          <path id="Trazado_873445" data-name="Trazado 873445" d="M57.907,66.988a3.158,3.158,0,1,0,3.158-3.158,3.159,3.159,0,0,0-3.158,3.158" transform="translate(33.238 3.149)" fill="#405f5a"/>
          <path id="Trazado_873446" data-name="Trazado 873446" d="M86.86,66.988a3.158,3.158,0,1,0,3.158-3.158,3.159,3.159,0,0,0-3.158,3.158" transform="translate(-26.096 3.149)" fill="#405f5a"/>
          <path id="Trazado_873447" data-name="Trazado 873447" d="M115.813,66.988a3.159,3.159,0,1,0,3.158-3.158,3.16,3.16,0,0,0-3.158,3.158" transform="translate(-85.432 3.149)" fill="#405f5a"/>
          <path id="Trazado_873448" data-name="Trazado 873448" d="M144.767,66.988a3.158,3.158,0,1,0,3.158-3.158,3.159,3.159,0,0,0-3.158,3.158" transform="translate(-144.767 3.149)" fill="#405f5a"/>
          <path id="Trazado_873449" data-name="Trazado 873449" d="M0,98.9a3.158,3.158,0,1,0,3.158-3.158A3.159,3.159,0,0,0,0,98.9" transform="translate(151.909 4.723)" fill="#405f5a"/>
          <path id="Trazado_873450" data-name="Trazado 873450" d="M28.954,98.9a3.158,3.158,0,1,0,3.158-3.158A3.159,3.159,0,0,0,28.954,98.9" transform="translate(92.572 4.723)" fill="#405f5a"/>
          <path id="Trazado_873451" data-name="Trazado 873451" d="M57.907,98.9a3.158,3.158,0,1,0,3.158-3.158A3.159,3.159,0,0,0,57.907,98.9" transform="translate(33.238 4.723)" fill="#405f5a"/>
          <path id="Trazado_873452" data-name="Trazado 873452" d="M86.86,98.9a3.158,3.158,0,1,0,3.158-3.158A3.159,3.159,0,0,0,86.86,98.9" transform="translate(-26.096 4.723)" fill="#405f5a"/>
          <path id="Trazado_873453" data-name="Trazado 873453" d="M115.813,98.9a3.159,3.159,0,1,0,3.158-3.158,3.16,3.16,0,0,0-3.158,3.158" transform="translate(-85.432 4.723)" fill="#405f5a"/>
          <path id="Trazado_873454" data-name="Trazado 873454" d="M144.767,98.9a3.158,3.158,0,1,0,3.158-3.158,3.159,3.159,0,0,0-3.158,3.158" transform="translate(-144.767 4.723)" fill="#405f5a"/>
          <path id="Trazado_873455" data-name="Trazado 873455" d="M0,130.818a3.158,3.158,0,1,0,3.158-3.159A3.159,3.159,0,0,0,0,130.818" transform="translate(151.909 6.298)" fill="#405f5a"/>
          <path id="Trazado_873456" data-name="Trazado 873456" d="M28.954,130.818a3.158,3.158,0,1,0,3.158-3.159,3.159,3.159,0,0,0-3.158,3.159" transform="translate(92.572 6.298)" fill="#405f5a"/>
          <path id="Trazado_873457" data-name="Trazado 873457" d="M57.907,130.818a3.158,3.158,0,1,0,3.158-3.159,3.159,3.159,0,0,0-3.158,3.159" transform="translate(33.238 6.298)" fill="#405f5a"/>
          <path id="Trazado_873458" data-name="Trazado 873458" d="M86.86,130.818a3.158,3.158,0,1,0,3.158-3.159,3.159,3.159,0,0,0-3.158,3.159" transform="translate(-26.096 6.298)" fill="#405f5a"/>
          <path id="Trazado_873459" data-name="Trazado 873459" d="M115.813,130.818a3.159,3.159,0,1,0,3.158-3.159,3.16,3.16,0,0,0-3.158,3.159" transform="translate(-85.432 6.298)" fill="#405f5a"/>
          <path id="Trazado_873460" data-name="Trazado 873460" d="M144.767,130.818a3.158,3.158,0,1,0,3.158-3.159,3.159,3.159,0,0,0-3.158,3.159" transform="translate(-144.767 6.298)" fill="#405f5a"/>
        </g>
      </g>
    </g>
    <g id="Grupo_1102246" data-name="Grupo 1102246" transform="translate(298 597.446)">
      <g id="Grupo_1102245" data-name="Grupo 1102245" clip-path="url(#clip-path-2)">
        <g id="Grupo_1102195" data-name="Grupo 1102195">
          <g id="Grupo_1102194" data-name="Grupo 1102194" clip-path="url(#clip-path-2)">
            <path id="Trazado_878466" data-name="Trazado 878466" d="M279.7,106.519C203,65.858,207.01-14.691,106.573,22.9,37,48.935-9.116,135.053,1.525,208.791c8.026,55.626,34.507,96.869,83.943,83.513s91.457,2.856,129.45,13.313c47.813,13.161,121.916-27.974,133.969-84.431S332.1,134.306,279.7,106.519" transform="translate(0 5.025)" fill="#e7e9f6"/>
            <path id="Trazado_878467" data-name="Trazado 878467" d="M198.745,7.04v3.746h.81V7.04a.412.412,0,1,0-.81,0" transform="translate(75.89 2.501)" fill="#ed971b"/>
            <path id="Trazado_878468" data-name="Trazado 878468" d="M198.745,19.725a.412.412,0,1,0,.81,0V16.2h-.81Z" transform="translate(75.89 6.187)" fill="#ed971b"/>
            <path id="Trazado_878469" data-name="Trazado 878469" d="M192.76,12.94a.452.452,0,0,0,.489.4h3.745v-.81h-3.745a.452.452,0,0,0-.489.4" transform="translate(73.605 4.786)" fill="#ed971b"/>
            <path id="Trazado_878470" data-name="Trazado 878470" d="M205.934,12.535h-3.52v.81h3.52a.412.412,0,1,0,0-.81" transform="translate(77.291 4.786)" fill="#ed971b"/>
            <path id="Trazado_878471" data-name="Trazado 878471" d="M194.687,9.05l2.649,2.649.572-.573-2.649-2.648a.412.412,0,1,0-.572.572" transform="translate(74.278 3.175)" fill="#ed971b"/>
            <path id="Trazado_878472" data-name="Trazado 878472" d="M203.707,18.07a.412.412,0,1,0,.572-.572l-2.489-2.49-.572.573Z" transform="translate(76.834 5.731)" fill="#ed971b"/>
            <path id="Trazado_878473" data-name="Trazado 878473" d="M194.627,18.174a.453.453,0,0,0,.632-.059l2.649-2.649-.572-.572-2.649,2.649a.453.453,0,0,0-.059.632" transform="translate(74.278 5.687)" fill="#ed971b"/>
            <path id="Trazado_878474" data-name="Trazado 878474" d="M203.707,8.477l-2.489,2.489.572.573,2.489-2.49a.412.412,0,1,0-.572-.572" transform="translate(76.834 3.175)" fill="#ed971b"/>
            <path id="Trazado_878475" data-name="Trazado 878475" d="M68.175,67.131v3.1h.669v-3.1a.34.34,0,1,0-.669,0" transform="translate(26.032 25.479)" fill="#56989c"/>
            <path id="Trazado_878476" data-name="Trazado 878476" d="M68.175,77.616a.34.34,0,1,0,.669,0v-2.91h-.669Z" transform="translate(26.032 28.526)" fill="#56989c"/>
            <path id="Trazado_878477" data-name="Trazado 878477" d="M63.229,72.008a.374.374,0,0,0,.4.334h3.1v-.669h-3.1a.374.374,0,0,0-.4.334" transform="translate(24.144 27.368)" fill="#56989c"/>
            <path id="Trazado_878478" data-name="Trazado 878478" d="M74.118,71.673h-2.91v.669h2.91a.34.34,0,1,0,0-.669" transform="translate(27.19 27.368)" fill="#56989c"/>
            <path id="Trazado_878479" data-name="Trazado 878479" d="M64.821,68.793l2.189,2.189.474-.473-2.19-2.189a.34.34,0,1,0-.473.473" transform="translate(24.7 26.036)" fill="#56989c"/>
            <path id="Trazado_878480" data-name="Trazado 878480" d="M72.278,76.248a.34.34,0,1,0,.473-.473l-2.056-2.058-.474.473Z" transform="translate(26.813 28.149)" fill="#56989c"/>
            <path id="Trazado_878481" data-name="Trazado 878481" d="M64.773,76.335a.374.374,0,0,0,.522-.05L67.484,74.1l-.473-.474-2.19,2.189a.375.375,0,0,0-.048.524" transform="translate(24.7 28.112)" fill="#56989c"/>
            <path id="Trazado_878482" data-name="Trazado 878482" d="M72.278,68.319,70.22,70.377l.474.473,2.056-2.058a.34.34,0,1,0-.473-.473" transform="translate(26.813 26.036)" fill="#56989c"/>
            <path id="Trazado_878483" data-name="Trazado 878483" d="M257.988,45.059h-2.006V43.741h2.006V41.408h1.231v2.333h2.008v1.318h-2.008v2.333h-1.231Z" transform="translate(97.745 15.812)" fill="#fcfdff"/>
            <path id="Trazado_878484" data-name="Trazado 878484" d="M15.451,84.864H13.445V83.545h2.006V81.213h1.231v2.333H18.69v1.318H16.683V87.2H15.451Z" transform="translate(5.134 31.011)" fill="#fcfdff"/>
            <path id="Trazado_878485" data-name="Trazado 878485" d="M133.083,88.448h-2.375v-1.56h2.375V84.127h1.458v2.761h2.375v1.56h-2.375v2.761h-1.458Z" transform="translate(49.91 32.124)" fill="#d68047"/>
            <path id="Trazado_878486" data-name="Trazado 878486" d="M255.05,80.36h-3.174V78.275h3.174V74.587H257v3.688h3.174V80.36H257v3.69H255.05Z" transform="translate(96.178 28.481)" fill="#fcfdff"/>
            <path id="Trazado_878487" data-name="Trazado 878487" d="M43.614,45.923H40.44V43.838h3.174V40.15h1.947v3.688h3.174v2.085H45.561v3.688H43.614Z" transform="translate(15.442 15.331)" fill="#fcfdff"/>
            <path id="Trazado_878488" data-name="Trazado 878488" d="M278.125,126.5a6.118,6.118,0,0,0,.106-1.451.216.216,0,0,0-.127-.184l-1.04-.456-.014-.065a4.969,4.969,0,0,0-.354-1.053l-.03-.061.56-.985a.211.211,0,0,0-.01-.224,5.8,5.8,0,0,0-.444-.578,6.119,6.119,0,0,0-.51-.518.207.207,0,0,0-.22-.04l-1.054.412-.057-.037a5.011,5.011,0,0,0-.994-.495l-.062-.023-.305-1.09a.207.207,0,0,0-.163-.151,6.05,6.05,0,0,0-1.455-.1.209.209,0,0,0-.182.127l-.453,1.036-.065.014a4.889,4.889,0,0,0-1.056.354l-.061.029-.984-.558a.212.212,0,0,0-.222.01,6.314,6.314,0,0,0-.58.441,6.565,6.565,0,0,0-.521.515.211.211,0,0,0-.04.218l.412,1.056-.036.057a4.923,4.923,0,0,0-.5.995l-.022.062-1.093.308a.209.209,0,0,0-.149.163,6.166,6.166,0,0,0-.1,1.452.213.213,0,0,0,.127.185l1.042.453.014.065a5.246,5.246,0,0,0,.35,1.052l.029.061-.557.987a.211.211,0,0,0,.011.224,6.8,6.8,0,0,0,.442.579,6.192,6.192,0,0,0,.511.517.207.207,0,0,0,.22.04l1.053-.413.057.036a4.969,4.969,0,0,0,.992.5l.062.023.307,1.093a.214.214,0,0,0,.166.152,6.266,6.266,0,0,0,1.448.1.213.213,0,0,0,.184-.126l.459-1.039.066-.014a4.977,4.977,0,0,0,1.054-.352l.061-.029.988.554a.209.209,0,0,0,.222-.01,5.591,5.591,0,0,0,1.1-.953.209.209,0,0,0,.039-.221l-.417-1.05.039-.058a4.862,4.862,0,0,0,.5-1l.022-.064,1.092-.307a.21.21,0,0,0,.149-.162m-.377-.293-.012.083-1.074.3a.213.213,0,0,0-.145.14,4.369,4.369,0,0,1-.6,1.2.212.212,0,0,0-.025.2l.41,1.034-.059.061c-.116.12-.227.225-.334.319s-.239.2-.365.289l-.068.05-.973-.546a.208.208,0,0,0-.2,0,4.508,4.508,0,0,1-1.274.426.216.216,0,0,0-.159.123l-.451,1.023h-.141a5.788,5.788,0,0,1-.868-.065l-.083-.012-.3-1.074a.21.21,0,0,0-.137-.144,4.527,4.527,0,0,1-1.2-.6.218.218,0,0,0-.2-.023l-1.034.406-.061-.058c-.112-.108-.22-.22-.319-.334s-.189-.229-.29-.365l-.048-.068.546-.97a.208.208,0,0,0,0-.2,4.744,4.744,0,0,1-.424-1.275.207.207,0,0,0-.123-.155l-1.023-.446v-.084a5.674,5.674,0,0,1,.065-.926l.012-.083,1.074-.3a.212.212,0,0,0,.144-.138,4.582,4.582,0,0,1,.6-1.2.209.209,0,0,0,.023-.2l-.4-1.036.058-.061c.106-.111.22-.218.336-.321s.246-.2.365-.289l.069-.05.967.547a.207.207,0,0,0,.2,0,4.458,4.458,0,0,1,1.277-.427.206.206,0,0,0,.158-.123l.444-1.02h.086a5.32,5.32,0,0,1,.927.064l.083.014.3,1.072a.211.211,0,0,0,.138.145,4.487,4.487,0,0,1,1.2.6.207.207,0,0,0,.2.025l1.036-.406.061.059c.12.115.224.225.321.336s.192.231.287.362l.05.068-.549.969a.207.207,0,0,0,0,.2,4.41,4.41,0,0,1,.426,1.274.217.217,0,0,0,.126.158l1.023.448v.084a5.62,5.62,0,0,1-.066.923" transform="translate(101.682 45.589)" fill="#f2f6f7"/>
            <path id="Trazado_878489" data-name="Trazado 878489" d="M272.291,131.412a6.409,6.409,0,0,1-1.164-.108.276.276,0,0,1-.213-.195l-.3-1.064-.033-.012a5.041,5.041,0,0,1-1-.5l-.03-.019-1.025.4a.268.268,0,0,1-.282-.053,6.331,6.331,0,0,1-.517-.521,6.674,6.674,0,0,1-.446-.585.273.273,0,0,1-.012-.287l.54-.962-.015-.032a5.248,5.248,0,0,1-.355-1.063l-.007-.036-1.013-.441a.271.271,0,0,1-.163-.238,6.125,6.125,0,0,1,.1-1.466.273.273,0,0,1,.193-.211l1.063-.3.012-.035a5.064,5.064,0,0,1,.5-1.006l.019-.03-.4-1.027a.271.271,0,0,1,.051-.281,6.691,6.691,0,0,1,.526-.521,6.536,6.536,0,0,1,.587-.446.271.271,0,0,1,.286-.011l.956.542.033-.015a5.006,5.006,0,0,1,1.068-.358l.035-.007.441-1.007a.271.271,0,0,1,.235-.164,6.018,6.018,0,0,1,1.47.1.269.269,0,0,1,.21.193l.3,1.061.035.012a4.944,4.944,0,0,1,1,.5l.03.019,1.025-.4a.267.267,0,0,1,.283.053,6.054,6.054,0,0,1,.515.522,6.388,6.388,0,0,1,.448.585.27.27,0,0,1,.012.286l-.543.959.015.033a4.895,4.895,0,0,1,.358,1.064l.008.036,1.012.442a.273.273,0,0,1,.163.238,6.157,6.157,0,0,1-.106,1.465.271.271,0,0,1-.193.209l-1.061.3-.011.033a4.893,4.893,0,0,1-.5,1.01l-.019.03.406,1.023a.276.276,0,0,1-.052.283,6.562,6.562,0,0,1-.524.518,6.8,6.8,0,0,1-.586.446.273.273,0,0,1-.287.011l-.96-.539-.033.015a4.918,4.918,0,0,1-1.067.358l-.035.007-.448,1.012a.271.271,0,0,1-.235.162c-.1.006-.2.007-.3.007m-2.728-2.037.083.054a4.908,4.908,0,0,0,.978.491l.093.033.315,1.123a.149.149,0,0,0,.117.108,6.159,6.159,0,0,0,1.434.1.151.151,0,0,0,.131-.09l.473-1.068.1-.019a4.849,4.849,0,0,0,1.041-.348l.09-.041,1.016.569a.151.151,0,0,0,.158-.007,6.362,6.362,0,0,0,.576-.438,6.749,6.749,0,0,0,.513-.507.152.152,0,0,0,.029-.158l-.43-1.079.054-.084a4.743,4.743,0,0,0,.492-.984l.033-.094,1.121-.314a.152.152,0,0,0,.108-.116,6.054,6.054,0,0,0,.1-1.436.148.148,0,0,0-.09-.131l-1.07-.468-.021-.1a4.815,4.815,0,0,0-.35-1.039l-.041-.09.573-1.013a.147.147,0,0,0-.007-.159,5.9,5.9,0,0,0-.438-.572,6.056,6.056,0,0,0-.507-.514.15.15,0,0,0-.156-.029l-1.083.424-.083-.054a4.844,4.844,0,0,0-.98-.489l-.093-.033-.314-1.121a.149.149,0,0,0-.116-.108,5.91,5.91,0,0,0-1.44-.1.15.15,0,0,0-.131.091l-.464,1.064-.1.021a4.789,4.789,0,0,0-1.042.35l-.09.041-1.01-.572a.15.15,0,0,0-.159.006,6.313,6.313,0,0,0-.575.437,6.423,6.423,0,0,0-.515.511.148.148,0,0,0-.029.155l.423,1.085-.053.082a4.954,4.954,0,0,0-.491.984l-.033.091-1.122.316a.151.151,0,0,0-.108.116,6.117,6.117,0,0,0-.1,1.438.15.15,0,0,0,.091.131l1.07.467.021.1a5.087,5.087,0,0,0,.347,1.038l.04.09-.571,1.014a.15.15,0,0,0,.008.159,6.191,6.191,0,0,0,.438.575,6.061,6.061,0,0,0,.506.51.148.148,0,0,0,.156.029Zm2.732,1.614a6.04,6.04,0,0,1-.875-.065l-.123-.018-.312-1.112a.151.151,0,0,0-.1-.1,4.557,4.557,0,0,1-1.216-.608.15.15,0,0,0-.142-.017l-1.072.42-.088-.086c-.113-.108-.221-.221-.323-.337s-.192-.234-.292-.37l-.072-.1.564-1a.149.149,0,0,0,0-.142,4.7,4.7,0,0,1-.43-1.291.151.151,0,0,0-.088-.111l-1.059-.462v-.124a5.789,5.789,0,0,1,.066-.936l.018-.122,1.111-.314a.151.151,0,0,0,.1-.1,4.623,4.623,0,0,1,.608-1.22.154.154,0,0,0,.017-.141l-.419-1.074.086-.088c.108-.112.222-.221.339-.323s.25-.2.37-.293l.1-.072,1,.567a.151.151,0,0,0,.144,0,4.5,4.5,0,0,1,1.293-.433.147.147,0,0,0,.112-.088l.46-1.056h.124a5.3,5.3,0,0,1,.937.065l.122.019.31,1.11a.15.15,0,0,0,.1.1,4.583,4.583,0,0,1,1.217.607.15.15,0,0,0,.142.018l1.072-.42.088.086c.122.117.227.229.323.34s.193.232.292.366l.073.1-.568,1a.149.149,0,0,0,0,.142,4.529,4.529,0,0,1,.434,1.291.152.152,0,0,0,.088.113l1.059.463v.124a5.728,5.728,0,0,1-.066.933l-.019.122-1.111.312a.146.146,0,0,0-.1.1,4.5,4.5,0,0,1-.609,1.223.15.15,0,0,0-.018.142l.426,1.07-.086.088c-.12.123-.231.229-.339.323s-.242.2-.37.292l-.1.073-1.006-.564a.145.145,0,0,0-.142,0,4.524,4.524,0,0,1-1.291.431.148.148,0,0,0-.112.087l-.468,1.059Zm-.9-.192.046.007a5.781,5.781,0,0,0,.857.064h.1l.435-.987a.278.278,0,0,1,.2-.159,4.424,4.424,0,0,0,1.256-.419.266.266,0,0,1,.257,0l.938.525.036-.026c.126-.091.247-.187.362-.285s.214-.2.332-.316l.03-.032-.4-1a.271.271,0,0,1,.03-.257,4.357,4.357,0,0,0,.593-1.19.272.272,0,0,1,.187-.178l1.035-.292.007-.044a5.623,5.623,0,0,0,.065-.913v-.046l-.985-.431a.277.277,0,0,1-.16-.2,4.43,4.43,0,0,0-.422-1.256.269.269,0,0,1,.006-.257l.528-.936-.026-.036c-.1-.131-.189-.249-.285-.358s-.2-.218-.316-.333l-.033-.032-1,.392a.269.269,0,0,1-.256-.032,4.471,4.471,0,0,0-1.186-.591.27.27,0,0,1-.178-.185l-.29-1.035-.044-.007a5.313,5.313,0,0,0-.916-.064h-.046l-.428.983a.277.277,0,0,1-.2.16,4.373,4.373,0,0,0-1.259.42.268.268,0,0,1-.258-.006l-.934-.528-.036.026c-.119.086-.238.18-.363.286s-.224.207-.33.316l-.032.033.391,1a.28.28,0,0,1-.03.256,4.546,4.546,0,0,0-.593,1.187.275.275,0,0,1-.185.178l-1.036.292-.007.046a5.859,5.859,0,0,0-.064.915v.046l.987.43a.271.271,0,0,1,.159.2,4.577,4.577,0,0,0,.42,1.259.27.27,0,0,1-.006.256l-.526.937.026.036c.1.134.191.253.285.362s.206.222.316.329l.032.032,1-.392a.269.269,0,0,1,.256.032,4.512,4.512,0,0,0,1.186.591.276.276,0,0,1,.177.185Z" transform="translate(101.665 45.572)" fill="#f2f6f7"/>
            <path id="Trazado_878490" data-name="Trazado 878490" d="M271.14,126.149a1.908,1.908,0,1,1,1.908-1.908,1.911,1.911,0,0,1-1.908,1.908m0-3.518a1.61,1.61,0,1,0,1.61,1.61,1.612,1.612,0,0,0-1.61-1.61" transform="translate(102.805 46.712)" fill="#f2f6f7"/>
            <path id="Trazado_878491" data-name="Trazado 878491" d="M271.174,126.3a2.03,2.03,0,1,1,2.03-2.03,2.032,2.032,0,0,1-2.03,2.03m0-3.817a1.787,1.787,0,1,0,1.787,1.787,1.789,1.789,0,0,0-1.787-1.787m0,3.518a1.731,1.731,0,1,1,1.731-1.731,1.733,1.733,0,0,1-1.731,1.731m0-3.22a1.488,1.488,0,1,0,1.488,1.488,1.49,1.49,0,0,0-1.488-1.488" transform="translate(102.772 46.678)" fill="#f2f6f7"/>
            <path id="Trazado_878492" data-name="Trazado 878492" d="M243.816,182.313l-1.06-4.385a10.884,10.884,0,0,0,1.473-.258,11.183,11.183,0,0,0,2.254-.839l1.061,4.392a11.246,11.246,0,0,1-3.728,1.09" transform="translate(92.695 67.522)" fill="#6eb4c7"/>
            <path id="Trazado_878493" data-name="Trazado 878493" d="M216.723,142.8l.528-2.1c1.085.345,2.19.658,3.316.927.7.169,1.4.318,2.1.453l-.526,2.095q-1.055-.205-2.1-.456-1.681-.4-3.316-.92" transform="translate(82.755 53.725)" fill="#b4d6df"/>
            <g id="Grupo_1102193" data-name="Grupo 1102193" transform="translate(264.535 261.434)" opacity="0.6">
              <g id="Grupo_1102192" data-name="Grupo 1102192">
                <g id="Grupo_1102191" data-name="Grupo 1102191" clip-path="url(#clip-path-4)">
                  <path id="Trazado_878494" data-name="Trazado 878494" d="M191.436,193.677c0,2.478,24.492,4.485,54.7,4.485s54.706-2.008,54.706-4.485-24.492-4.485-54.706-4.485-54.7,2.008-54.7,4.485" transform="translate(-191.436 -189.192)" fill="#81aebb"/>
                </g>
              </g>
            </g>
            <path id="Trazado_878495" data-name="Trazado 878495" d="M235.183,89.164s3.854-4.893,2.726-10.513c-.6-2.964-7.99-5.156-10.52-5.156s-2.2,3.437-2.2,3.437-4.68,6.048-5.055,7.105l2.377,1.662s-2.786,5.058-1.24,5.822c.912.45,5.363.825,5.363.825l.636,7.481,7.668-2.382Z" transform="translate(84.057 28.064)" fill="#e0beab"/>
            <path id="Trazado_878496" data-name="Trazado 878496" d="M229.634,77.26c.162-1.772-3.655-.55-5.525-1.111-1.188-.355-.04-2.377,1.451-3.051,2.769-1.249,6.764,1.477,6.764,1.477s4.076,1.932,4.72,4.618-1.611,9.828-1.611,9.828,1.516-.746-1.231-1.421-1.456-3.757-2.932-3.908-3.757,2.541-3.757,2.541l-1.745-.416s3.7-6.785,3.866-8.558" transform="translate(85.387 27.787)" fill="#204a59"/>
            <path id="Trazado_878497" data-name="Trazado 878497" d="M231.337,83.378l-3.228,5.591-2.95.608-.322-1.006,3.1-.321,3.057-4.872Z" transform="translate(85.853 31.838)" fill="#cdaf97"/>
            <path id="Trazado_878498" data-name="Trazado 878498" d="M221.372,81.654l2.819-4.73-4.059,5.8.38.394Z" transform="translate(84.057 29.373)" fill="#cdaf97"/>
          </g>
        </g>
        <g id="Grupo_1102197" data-name="Grupo 1102197" transform="translate(298.219 177.504)">
          <g id="Grupo_1102196" data-name="Grupo 1102196" clip-path="url(#clip-path-5)">
            <rect id="Rectángulo_402668" data-name="Rectángulo 402668" width="47.247" height="83.405" fill="url(#linear-gradient)"/>
          </g>
        </g>
        <g id="Grupo_1102208" data-name="Grupo 1102208">
          <g id="Grupo_1102207" data-name="Grupo 1102207" clip-path="url(#clip-path-2)">
            <path id="Trazado_878500" data-name="Trazado 878500" d="M195.833,102.815l15.713,5.735s.659,1.658,1.9-.126c.785-1.128,6.858-7.771,11.227-12.515l3.953-4.733.451-.033.116-.126-.012.119,5.407-.4,2.69,23.142,10.773-24.555L260.8,98.472l3.428,6.017.829,13.054-9.231-7.335-1.244,15.347,1.762,21.466-33.155-2.175,3.725-34.382-2.719,1.755-11.574,9.26s-2.073,0-2.75-.9-16.626-9.453-16.626-9.453Z" transform="translate(73.789 34.109)" fill="#729edb"/>
            <g id="Grupo_1102200" data-name="Grupo 1102200" transform="translate(307.136 186.534)" opacity="0.6">
              <g id="Grupo_1102199" data-name="Grupo 1102199">
                <g id="Grupo_1102198" data-name="Grupo 1102198" clip-path="url(#clip-path-7)">
                  <path id="Trazado_878501" data-name="Trazado 878501" d="M223.295,168.248l.869,10.881-1.9,29.288L225.2,178.6l-.962-10.249,4.025-29.323-1.14-4.041Z" transform="translate(-222.265 -134.989)" fill="#0d0e20"/>
                </g>
              </g>
            </g>
            <path id="Trazado_878502" data-name="Trazado 878502" d="M239.306,163.786l-3.108-3.315.231-.217,3.108,3.315Z" transform="translate(90.191 61.192)" fill="#3a2e65"/>
            <path id="Trazado_878503" data-name="Trazado 878503" d="M205.315,194.166h17.822l1.346-1.244,1.14,1.244h3.115v-5.713l-8.86-1.18-4.408,3.942-10.154,2.211Z" transform="translate(78.399 71.509)" fill="#18142d"/>
            <path id="Trazado_878504" data-name="Trazado 878504" d="M243.7,194.3l8.881-.435.236-2.362-1.244-2.695-7.874.311Z" transform="translate(93.058 72.097)" fill="#18142d"/>
            <path id="Trazado_878505" data-name="Trazado 878505" d="M225.855,113.848,236.317,89.6l-1.324-.185-7.07,3.811-3-3.145-1.758.622Z" transform="translate(85.215 34.144)" fill="#fff"/>
            <path id="Trazado_878506" data-name="Trazado 878506" d="M226.833,95.313l-2.439,8.932.991,8.579,3.731-8.5-1.35-8.8,1.35-1.451L227.561,92.1,225.9,93.965Z" transform="translate(85.684 35.169)" fill="#ed971b"/>
            <path id="Trazado_878507" data-name="Trazado 878507" d="M238.371,94.093l-13.259,19.789,10.771-24.555,2.176,2.9-2.027.1Z" transform="translate(85.958 34.109)" fill="#729edb"/>
            <path id="Trazado_878508" data-name="Trazado 878508" d="M220.761,91.941l6.012,21.551-2.69-23.143Z" transform="translate(84.297 34.499)" fill="#729edb"/>
            <path id="Trazado_878509" data-name="Trazado 878509" d="M247.155,131.99l-15.853-.622L216.487,129.5l30.876,1.347Z" transform="translate(82.665 49.45)" fill="#39667c"/>
            <path id="Trazado_878510" data-name="Trazado 878510" d="M226.009,143.713l-.265-.01.931-30.71-6.007-21.221.256-.072,6.019,21.26v.021Z" transform="translate(84.261 35.015)" fill="#729edb"/>
            <path id="Trazado_878511" data-name="Trazado 878511" d="M238.732,106.249l-.315-.029.622-6.631.315.029Z" transform="translate(91.039 38.027)" fill="#352d62"/>
            <rect id="Rectángulo_402670" data-name="Rectángulo 402670" width="9.704" height="0.316" transform="matrix(0.079, -0.997, 0.997, 0.079, 300.544, 144.559)" fill="#325869"/>
            <path id="Trazado_878512" data-name="Trazado 878512" d="M192.165,96.2l-1.173,1.132L192.6,99.8l-3.6-.605-2.262,1.709.093,1.434,3.1,1.888,3.337,1.094,2.975.345,1.8-3.427Z" transform="translate(71.305 36.735)" fill="#e0beab"/>
            <path id="Trazado_878513" data-name="Trazado 878513" d="M242,164.915l-4.857-4.966.227-.221,4.857,4.966Z" transform="translate(90.551 60.991)" fill="#3a2e65"/>
            <path id="Trazado_878514" data-name="Trazado 878514" d="M220.186,162.586l-3.108-3.315.231-.217,3.108,3.315Z" transform="translate(82.89 60.734)" fill="#3a2e65"/>
            <path id="Trazado_878515" data-name="Trazado 878515" d="M221.873,103.348l-.1,1.483-14.505,11.294Z" transform="translate(79.143 39.463)" fill="#729edb"/>
            <g id="Grupo_1102203" data-name="Grupo 1102203" transform="translate(329.717 143.122)" opacity="0.6">
              <g id="Grupo_1102202" data-name="Grupo 1102202">
                <g id="Grupo_1102201" data-name="Grupo 1102201" clip-path="url(#clip-path-8)">
                  <path id="Trazado_878516" data-name="Trazado 878516" d="M245.444,110.272h0l-6.839-5.248.311-1.451,7.455,6.666Z" transform="translate(-238.606 -103.573)" fill="#18142d"/>
                </g>
              </g>
            </g>
            <path id="Trazado_878517" data-name="Trazado 878517" d="M246.6,120.894l-8.794-9.069,1.716-18.153,4.789,3.438,11.37,21.124-1.988,26.326-7.063-1.423Z" transform="translate(90.805 35.768)" fill="#729edb"/>
            <path id="Trazado_878518" data-name="Trazado 878518" d="M242.686,136.512l1.364.73,1.836-2.02.419,3.275-2.449,5.129,1.585.058,3.055-3.662,2.2-3.615.108-3.17-.488-2.664-3.655-.685Z" transform="translate(92.668 49.597)" fill="#e0beab"/>
            <g id="Grupo_1102206" data-name="Grupo 1102206" transform="translate(183.722 273.796)" opacity="0.6">
              <g id="Grupo_1102205" data-name="Grupo 1102205">
                <g id="Grupo_1102204" data-name="Grupo 1102204" clip-path="url(#clip-path-9)">
                  <path id="Trazado_878519" data-name="Trazado 878519" d="M212.483,201.38c0,1.79-17.8,3.242-39.765,3.242s-39.764-1.452-39.764-3.242,17.8-3.242,39.764-3.242,39.765,1.452,39.765,3.242" transform="translate(-132.954 -198.138)" fill="#81aebb"/>
                </g>
              </g>
            </g>
            <path id="Trazado_878520" data-name="Trazado 878520" d="M159.411,101.487s-3.854-4.917-2.726-10.564c.594-2.979,7.991-5.182,10.521-5.182s3.677,3.453,3.677,3.453l2.679,7.965s1.311,5.93-.236,6.7c-.912.453-5.363.829-5.363.829l-.636,7.52-7.669-1.8Z" transform="translate(59.75 32.74)" fill="#e0beab"/>
            <path id="Trazado_878521" data-name="Trazado 878521" d="M160.084,95.673l3.229,5.619,2.95.611.322-1.01-3.1-.322-3.058-4.9Z" transform="translate(61.127 36.532)" fill="#cdaf97"/>
            <path id="Trazado_878522" data-name="Trazado 878522" d="M152.784,200.04c-2.5.462-6.336,1.032-6.336,1.032l-.22-2.21.373-2.521,8.722-.242,4.313.713.985.836s-5.9,2.033-7.838,2.391" transform="translate(55.837 74.88)" fill="#18142d"/>
          </g>
        </g>
        <g id="Grupo_1102210" data-name="Grupo 1102210" transform="translate(202.348 190.456)">
          <g id="Grupo_1102209" data-name="Grupo 1102209" clip-path="url(#clip-path-10)">
            <rect id="Rectángulo_402674" data-name="Rectángulo 402674" width="36.454" height="82.111" fill="url(#linear-gradient-2)"/>
          </g>
        </g>
        <g id="Grupo_1102218" data-name="Grupo 1102218">
          <g id="Grupo_1102217" data-name="Grupo 1102217" clip-path="url(#clip-path-2)">
            <path id="Trazado_878524" data-name="Trazado 878524" d="M200.265,148.8s-5.525-24.47-6.688-26.139c-.735-1.054-4.984-9.949-9.073-14.388l-2.714-3.246-1.209-1.213a.782.782,0,0,0-.307-.117l.012.111-5.058-.369-4.454,0-8.142-.137-9.368,3.749-9.457,23.982-2.21,22.812,6.859-.55-.18-21.474,7.375-8.414.872,10.242L154.879,154.4l31.018-2.035-3.486-32.84-.073,1.643,6.614,10.056L193,149.518Z" transform="translate(54.069 39.445)" fill="#ed971b"/>
            <g id="Grupo_1102213" data-name="Grupo 1102213" transform="translate(224.844 198.232)" opacity="0.6">
              <g id="Grupo_1102212" data-name="Grupo 1102212">
                <g id="Grupo_1102211" data-name="Grupo 1102211" clip-path="url(#clip-path-12)">
                  <path id="Trazado_878525" data-name="Trazado 878525" d="M167.365,174.569l-.814,10.179,1.777,32.168-2.75-32.66.9-9.589-3.766-27.432,1.067-3.781Z" transform="translate(-162.713 -143.454)" fill="#18142d"/>
                </g>
              </g>
            </g>
            <path id="Trazado_878526" data-name="Trazado 878526" d="M183.111,202.266H170.9l-.923-1.164-.781,1.164h-2.134v-5.345l6.07-1.1,3.021,3.688,6.958,2.069Z" transform="translate(63.792 74.772)" fill="#18142d"/>
            <path id="Trazado_878527" data-name="Trazado 878527" d="M150.259,146.153l-1.325.709L147.15,144.9l-.406,3.181,2.378,4.982-1.539.057-2.968-3.555-2.14-3.513-.1-3.079.473-2.588,3.55-.666Z" transform="translate(54.363 53.351)" fill="#e0beab"/>
            <g id="Grupo_1102216" data-name="Grupo 1102216" transform="translate(209.044 191.812)" opacity="0.6">
              <g id="Grupo_1102215" data-name="Grupo 1102215">
                <g id="Grupo_1102214" data-name="Grupo 1102214" clip-path="url(#clip-path-13)">
                  <path id="Trazado_878528" data-name="Trazado 878528" d="M151.472,141.135l14.83-.582,13.863-1.745-28.886,1.26Z" transform="translate(-151.279 -138.809)" fill="#18142d"/>
                </g>
              </g>
            </g>
            <path id="Trazado_878529" data-name="Trazado 878529" d="M178.391,143.691l1.44.467,1.365-2.236,1.025,3.055-1.353,5.308,1.523-.21,2.212-4.009,1.41-3.821-.5-3.044-.974-2.462-3.616-.04Z" transform="translate(68.118 52.198)" fill="#e0beab"/>
            <path id="Trazado_878530" data-name="Trazado 878530" d="M172.465,87.185c-.531-.945-2.673-1.592-4.117-1.762,0,0-.945-4.861-4.62-2.641s-6.905,3.894-7.919,7.785c-.517,1.987-.227,8.5.966,13.024s9.025,2.837,10.193,1.448c.463-.549.708-2.2.995-4.222a8.939,8.939,0,0,1-1.316-1.546c-1.194-1.752-.883-2.612-.3-3.126.547-.482,1.14-.485,2.2.97.135-.707.289-1.408.473-2.08.358-1.32.4-3.007,1.186-3.749,1.665-1.577,2.862-3.032,2.261-4.1" transform="translate(59.402 31.388)" fill="#204a59"/>
          </g>
        </g>
        <g id="Grupo_1102220" data-name="Grupo 1102220" transform="translate(195.662 146.496)">
          <g id="Grupo_1102219" data-name="Grupo 1102219" clip-path="url(#clip-path-14)">
            <rect id="Rectángulo_402678" data-name="Rectángulo 402678" width="14.751" height="46.791" transform="translate(-0.15 0)" fill="url(#linear-gradient-3)"/>
          </g>
        </g>
        <g id="Grupo_1102225" data-name="Grupo 1102225">
          <g id="Grupo_1102224" data-name="Grupo 1102224" clip-path="url(#clip-path-2)">
            <g id="Grupo_1102223" data-name="Grupo 1102223" transform="translate(36.498 267.191)" opacity="0.6">
              <g id="Grupo_1102222" data-name="Grupo 1102222">
                <g id="Grupo_1102221" data-name="Grupo 1102221" clip-path="url(#clip-path-16)">
                  <path id="Trazado_878532" data-name="Trazado 878532" d="M105.941,196.6c0,1.789-17.8,3.242-39.765,3.242s-39.764-1.452-39.764-3.242,17.8-3.242,39.764-3.242,39.765,1.452,39.765,3.242" transform="translate(-26.412 -193.358)" fill="#81aebb"/>
                </g>
              </g>
            </g>
            <path id="Trazado_878533" data-name="Trazado 878533" d="M51.862,140.291a.291.291,0,0,0,.282-.211l1.973-7.2a.284.284,0,0,0-.207-.348.291.291,0,0,0-.357.2l-1.973,7.206a.284.284,0,0,0,.207.348.277.277,0,0,0,.075.01" transform="translate(19.692 50.601)" fill="#474985"/>
          </g>
        </g>
        <g id="Grupo_1102227" data-name="Grupo 1102227" transform="translate(54.436 180.005)">
          <g id="Grupo_1102226" data-name="Grupo 1102226" clip-path="url(#clip-path-17)">
            <rect id="Rectángulo_402681" data-name="Rectángulo 402681" width="40.18" height="89.732" transform="translate(-0.073)" fill="url(#linear-gradient-4)"/>
          </g>
        </g>
        <g id="Grupo_1102232" data-name="Grupo 1102232">
          <g id="Grupo_1102231" data-name="Grupo 1102231" clip-path="url(#clip-path-2)">
            <path id="Trazado_878535" data-name="Trazado 878535" d="M32.218,124.352a6.559,6.559,0,0,1,.315-1.738,23.89,23.89,0,0,1,1.958-5.906l5.567-12.926a29.955,29.955,0,0,1,3.181-5.215c2.333-3.144,5.8-4.177,10.158-4.161,2.034.007-3.387,8.193-4.68,10.191-1.912,2.957-2.538,6.549-5.516,12.137-1,1.868-1.789,4.767-2.953,6.97.028.4.028.813.023,1.212l-.087,8.661a28.207,28.207,0,0,0,.539,7.589,2.7,2.7,0,0,1-1.089,2.847,4.2,4.2,0,0,1-2.621,1.023,53.409,53.409,0,0,1-4.188-12.057q-.263-1.327-.42-2.668a35.624,35.624,0,0,1-.187-5.959" transform="translate(12.283 36.048)" fill="#4374af"/>
            <path id="Trazado_878536" data-name="Trazado 878536" d="M38.964,147.8l32.361,1.336c-.086-5.685-.475-13.595-.761-17.974-.023-.281-.035-.55-.044-.81-.2-2.815-.311-5.578-.275-8.532,0-.292,0-.585.012-.876.025-1.158.084-2.349.178-3.585.146-2.005.372-4.132.71-6.445.468-3.227,2.478-7.769,1.957-10.26-.649-3.017-3.334-5.351-6.612-6.312a11.8,11.8,0,0,0-3.774-.492l-13.45.445C40,94.6,39,103.522,39.242,109.655c.185,4.86.5,9.724.724,14.594a97.524,97.524,0,0,1-.406,16.543c-.187,1.919-.556,5.051-.6,7.009" transform="translate(14.878 35.834)" fill="#729edb"/>
            <path id="Trazado_878537" data-name="Trazado 878537" d="M48.076,116.628c4.079,1.823,13.9,5.368,15.9,6.481a35.166,35.166,0,0,0,3.536,1.7c-.023-.281-.035-.55-.046-.81-.2-2.815-.311-5.579-.275-8.532a71.774,71.774,0,0,1-10.9-3.209c-1.1-.449-5.023-2.6-5.777-1.4a12.75,12.75,0,0,1-2.86,2.819,1.7,1.7,0,0,0,.42,2.949" transform="translate(17.936 42.193)" fill="#4374af"/>
            <path id="Trazado_878538" data-name="Trazado 878538" d="M44.192,103.428a.977.977,0,0,0,.019.267l2.608,9.893a1.184,1.184,0,0,0,1.14.8l5.645-.129a.956.956,0,0,0,.481-.151l0-.011a.627.627,0,0,0,.214-.69l-2.608-9.9a1.168,1.168,0,0,0-1.129-.792l-5.645.128a.7.7,0,0,0-.728.582" transform="translate(16.874 39.222)" fill="#686868"/>
            <path id="Trazado_878539" data-name="Trazado 878539" d="M44.192,103.312a.977.977,0,0,0,.019.267l2.608,9.893a1.184,1.184,0,0,0,1.14.8l5.645-.129a.956.956,0,0,0,.481-.151l0-.011a.524.524,0,0,0-.019-.267l-2.606-9.9a1.175,1.175,0,0,0-1.141-.793l-5.645.127a.84.84,0,0,0-.484.162" transform="translate(16.874 39.339)" fill="#3e403f"/>
            <path id="Trazado_878540" data-name="Trazado 878540" d="M52.137,109.968c1.928.842,2.229,3.564,2.985,4.534.915,1.176-.953,1.553-2.981,1.3-1.814-.224-4.035-.988-4.759-1.845a4.762,4.762,0,0,1-1.327-3.795c.058-1.8,3.565-1.3,6.082-.2" transform="translate(17.584 41.613)" fill="#ecc7a4"/>
            <path id="Trazado_878541" data-name="Trazado 878541" d="M51.594,117.3c.741-.842,1.52-.225,2.614.1,3.92,1.172,10.72.886,15.788,1.485-.344-.807-.665-1.584-.967-2.273-3-6.8-4.765-9.681-5.914-12.117-1.074-2.277-5.974-10.56-3.963-10.626,5.111-.169,8.129.988,10.209,4.51a99.67,99.67,0,0,1,7.969,17.58c.933,2.511,2.131,4.122,2.308,6.557.008.07.008,1.65.012,1.722.055,1.159-.146.638-.742,1.309-.062.119-.113.234-.182.357-1.329,2.356-10.216,1.906-16.17-.47-2.826-1.126-11.451-5.07-11.451-5.07a3.055,3.055,0,0,1,.491-3.065" transform="translate(19.432 35.839)" fill="#729edb"/>
            <path id="Trazado_878542" data-name="Trazado 878542" d="M48.024,94.22a3.235,3.235,0,0,0,.321.811,4.407,4.407,0,0,0,4.271,2.1,9.185,9.185,0,0,0,6.29-3.094,2.073,2.073,0,0,0,.16-.178Z" transform="translate(18.338 35.838)" fill="#b17b45"/>
            <path id="Trazado_878543" data-name="Trazado 878543" d="M57.928,89.177V96s-5.165,5.84-9.911.137l.416-6.955Z" transform="translate(18.335 34.052)" fill="#e0beab"/>
            <path id="Trazado_878544" data-name="Trazado 878544" d="M52.606,93.3c.126.018.254.033.383.043A5.789,5.789,0,0,0,57.238,92a.229.229,0,0,0,0-.347.293.293,0,0,0-.386-.021,5.263,5.263,0,0,1-7.65-.938.3.3,0,0,0-.381-.07.226.226,0,0,0-.059.341A5.916,5.916,0,0,0,52.606,93.3" transform="translate(18.6 34.59)" fill="#b07762"/>
            <path id="Trazado_878545" data-name="Trazado 878545" d="M60.476,85.687c.62,5.562-.079,11.576-4.315,11.968-4.407.408-9.059-2.182-9.678-7.742S48.758,79.1,52.949,78.18s6.906,1.946,7.527,7.508" transform="translate(17.717 29.788)" fill="#ecc7a4"/>
            <path id="Trazado_878546" data-name="Trazado 878546" d="M60.575,81.222a2,2,0,0,0-.294-1.827,4.379,4.379,0,0,0-.305-.424,10.966,10.966,0,0,0-1.853-1.754.512.512,0,0,0-.066.008c-3.207-1.013-6.916-1.257-9.815.184A4.641,4.641,0,0,0,45.669,80.3c-.752,1.593-.529,4.162-.115,6.093.111.526.234,1,.358,1.4.564,1.854,1.286,4.367,2.782,5.772a1.852,1.852,0,0,0,1.273.457l.066-.012c-.054-.084-.109-.171-.158-.264A7,7,0,0,1,49.761,92a1.015,1.015,0,0,1-.619.33,1.286,1.286,0,0,1-.735-.249,2.382,2.382,0,0,1-1.1-2.145,4.409,4.409,0,0,1,.133-.991l.008-.017a1.724,1.724,0,0,1,.321-.681.57.57,0,0,1,.437-.218,1.59,1.59,0,0,1,.877.583c.018.025.033.048.048.068q.07.4.17.784c.069.3.158.593.249.883a3.347,3.347,0,0,0,1.1.453l.015-.192a13.432,13.432,0,0,1-.486-4.99c.015-.413.036-.826.048-1.24.015-.386.028-.767.028-1.148l-.006-.061a15.409,15.409,0,0,0,5.016-.865,6.009,6.009,0,0,0-1.524,1.014c-.152.133-.3.269-.442.4-.347.33-.681.667-1.028.98,1.986.145,4.953-.971,6.967-2.207.289-.181.558-.362.8-.542l.007.007.008.012c.039.437.066.879.087,1.328a32.722,32.722,0,0,1-.062,4.853.818.818,0,0,1,.093.008c.082-.426.2-.839.314-1.253a9.187,9.187,0,0,0,.343-1.72c.094-1.161.368-2.891-.251-3.97" transform="translate(17.249 29.172)" fill="#204a59"/>
            <path id="Trazado_878547" data-name="Trazado 878547" d="M41.1,130.043h0c-.488-.445-1.013-.949-1.535-1.405a1.571,1.571,0,0,0-.211.263,4.345,4.345,0,0,1-3.835,2.816c.438.674.844,1.208,3.221,2.938a6.717,6.717,0,0,0,4.188,1.028,1.712,1.712,0,0,0,1.538-1.316,43.948,43.948,0,0,0-3.366-4.324" transform="translate(13.562 49.12)" fill="#ecc7a4"/>
            <path id="Trazado_878548" data-name="Trazado 878548" d="M43.446,192.63l4.418.251-.379,3.3H38.127Z" transform="translate(14.559 73.555)" fill="#18142d"/>
            <path id="Trazado_878549" data-name="Trazado 878549" d="M77.983,197.066H65.771l-.923-1.164-.781,1.164H61.934v-5.345l6.07-1.1,3.021,3.688,6.958,2.069Z" transform="translate(23.649 72.786)" fill="#18142d"/>
            <g id="Grupo_1102230" data-name="Grupo 1102230" transform="translate(108.128 272.346)" opacity="0.6">
              <g id="Grupo_1102229" data-name="Grupo 1102229">
                <g id="Grupo_1102228" data-name="Grupo 1102228" clip-path="url(#clip-path-19)">
                  <path id="Trazado_878550" data-name="Trazado 878550" d="M78.249,201.3c0,2.324,13.535,4.209,30.231,4.209s30.232-1.885,30.232-4.209-13.535-4.209-30.232-4.209-30.231,1.885-30.231,4.209" transform="translate(-78.249 -197.088)" fill="#81aebb"/>
                </g>
              </g>
            </g>
            <path id="Trazado_878551" data-name="Trazado 878551" d="M106.045,94.488s.692-12.162-2.619-13.425-5.69,4.636-5.69,4.636a17.588,17.588,0,0,0-2,5.388,5.1,5.1,0,0,0,.714,3.857s4.357.366,5.638,4-.315,13.769-.315,13.769,9.681-3.022,6.672-7.635c-2.6-3.987-2.4-10.595-2.4-10.595" transform="translate(36.529 30.886)" fill="#204a59"/>
            <path id="Trazado_878552" data-name="Trazado 878552" d="M116.114,97.428c4.589,10.463,5.565,20.153,2.181,21.64s-9.848-5.789-14.436-16.252-5.565-20.153-2.181-21.641,9.847,5.79,14.436,16.253" transform="translate(38.056 30.922)" fill="#204a59"/>
          </g>
        </g>
        <g id="Grupo_1102234" data-name="Grupo 1102234" transform="translate(128.045 184.775)">
          <g id="Grupo_1102233" data-name="Grupo 1102233" clip-path="url(#clip-path-20)">
            <rect id="Rectángulo_402684" data-name="Rectángulo 402684" width="28.288" height="75.03" transform="translate(0)" fill="url(#linear-gradient-5)"/>
          </g>
        </g>
        <g id="Grupo_1102236" data-name="Grupo 1102236">
          <g id="Grupo_1102235" data-name="Grupo 1102235" clip-path="url(#clip-path-2)">
            <path id="Trazado_878554" data-name="Trazado 878554" d="M116.29,201.918l-11.151,1.241,7.257-5.848v-9.039h3.01l.177,7.443Z" transform="translate(40.147 71.891)" fill="#cdaf97"/>
          </g>
        </g>
        <g id="Grupo_1102238" data-name="Grupo 1102238" transform="translate(141.125 272.214)">
          <g id="Grupo_1102237" data-name="Grupo 1102237" clip-path="url(#clip-path-22)">
            <rect id="Rectángulo_402686" data-name="Rectángulo 402686" width="15.222" height="4.342" transform="translate(0 0)" fill="url(#linear-gradient-6)"/>
          </g>
        </g>
        <g id="Grupo_1102240" data-name="Grupo 1102240">
          <g id="Grupo_1102239" data-name="Grupo 1102239" clip-path="url(#clip-path-2)">
            <path id="Trazado_878556" data-name="Trazado 878556" d="M100.387,201.642l-11.152,1.241,7.257-5.848V188H99.5l.177,7.443Z" transform="translate(34.074 71.786)" fill="#cdaf97"/>
          </g>
        </g>
        <g id="Grupo_1102242" data-name="Grupo 1102242" transform="translate(119.15 271.834)">
          <g id="Grupo_1102241" data-name="Grupo 1102241" clip-path="url(#clip-path-24)">
            <rect id="Rectángulo_402688" data-name="Rectángulo 402688" width="15.222" height="4.342" transform="translate(0)" fill="url(#linear-gradient-7)"/>
          </g>
        </g>
        <g id="Grupo_1102244" data-name="Grupo 1102244">
          <g id="Grupo_1102243" data-name="Grupo 1102243" clip-path="url(#clip-path-2)">
            <path id="Trazado_878558" data-name="Trazado 878558" d="M116.7,115.017l-5.655-17.342-8.143,3.8a53.692,53.692,0,0,0-5.016,12.432c-1.227,5.069-.685,10.251-.529,14.5.354,9.688-3.341,20.558-3.341,20.558s5.583-.348,10.776-.115a66.443,66.443,0,0,1,10.669,1.532s-4.492-10.561-4.513-17.686,5.753-17.685,5.753-17.685" transform="translate(35.898 37.297)" fill="#729edb"/>
            <path id="Trazado_878559" data-name="Trazado 878559" d="M131.993,123.354,107.309,98.238a9.525,9.525,0,0,0-2.06,7.631c.59,4.962,7.188,8.934,7.188,8.934l10.275,11.837-5.192,4.986,3.068,6.853s8.954-7.134,10.908-8.824.5-6.3.5-6.3" transform="translate(40.156 37.512)" fill="#729edb"/>
            <path id="Trazado_878560" data-name="Trazado 878560" d="M106.978,94.433l-6.455-12.656-1.819,3.1a8.988,8.988,0,0,0-1.042,2.013c-.211.694-2.62,2.851-1.8,3.1a.857.857,0,0,1,.589.674,8.237,8.237,0,0,1-.151,1.813A5.1,5.1,0,0,0,97.537,96.2s4.367-.236,6.137,3.191,0,7.328,0,7.328,10.754,2.029,7.136-2.127c-3.127-3.59-3.835-10.163-3.835-10.163" transform="translate(36.54 31.226)" fill="#ecc7a4"/>
            <path id="Trazado_878561" data-name="Trazado 878561" d="M108.148,85.858c1.586,3.618,1.042,7.354-1.215,8.345s-5.371-1.136-6.958-4.752S98.933,82.1,101.191,81.1s5.371,1.136,6.958,4.754" transform="translate(37.828 30.876)" fill="#204a59"/>
            <path id="Trazado_878562" data-name="Trazado 878562" d="M109.827,130.064l8.281-3-1.237-3.352-7.979,3.195Z" transform="translate(41.58 47.239)" fill="#ecc7a4"/>
            <path id="Trazado_878563" data-name="Trazado 878563" d="M113.562,127.975c0,1.3-2.538,2.349-5.671,2.349s-5.671-1.052-5.671-2.349,2.54-2.349,5.671-2.349,5.671,1.052,5.671,2.349" transform="translate(39.032 47.97)" fill="#ecc7a4"/>
            <path id="Trazado_878564" data-name="Trazado 878564" d="M101.447,81a12.957,12.957,0,0,0-1.321.466,21.414,21.414,0,0,1,8.052,11.6c.2.677.359,1.354.493,2.03,3.69-2.118,5.728-5.862,4.727-9.293-1.228-4.216-6.58-6.363-11.952-4.8" transform="translate(38.233 30.736)" fill="#204a59"/>
            <path id="Trazado_878565" data-name="Trazado 878565" d="M95.71,13.5c-8.027-2.373-25.748,2.011-39.448,6.112S30.422,30.1,25.428,35.971c-2.252,2.648-2.32,6.423-1.474,9.41C26.672,55,30.793,69.562,30.793,69.562s1.479,4.9,11.8,2.779c.416-.084.847-.174,1.285-.264.283,7.958,7.787,14.37,17.174,14.766a18.429,18.429,0,0,1-5.4-13.072,18.663,18.663,0,0,1,.482-4.216c8.674-1.741,18.144-3.5,24.792-4.112C91.417,64.472,92.821,56.2,92.821,56.2s4-17.312,6.64-32.708c.9-5.255-.135-8.925-3.75-9.994" transform="translate(8.956 4.899)" fill="#405f5a"/>
            <path id="Trazado_878566" data-name="Trazado 878566" d="M215.819,30.645c-.855-3.547-4.351-7.4-7.951-8.136a26.4,26.4,0,0,0-5.212-.5c-15.506,0-49.473,1.053-65.823.341-7.86-.341-10.853,3.377-10.984,8.69-.391,15.94,8.957,48.045,22.036,48.045,30.464,0,50.35-1.368,50.35-1.368s8.892,11.193,10.054,12.17,2.381,1.886,2.619.417c1.591-9.866,7.564-48.663,4.911-59.657" transform="translate(48.05 8.403)" fill="#ff9b6a"/>
            <path id="Trazado_878567" data-name="Trazado 878567" d="M288.54,35.363c-3.035-16.418-30.258-25.058-49.778-21.886S203.7,31.05,207.794,48.947C212.476,69.392,230.23,76.1,249.75,72.929a54.644,54.644,0,0,0,19.118-7.335,24.168,24.168,0,0,1,.339,15.113c5.655-2.9,9.648-9.9,9.648-18.086a24.475,24.475,0,0,0-.386-4.328C285.6,51.5,290,43.253,288.54,35.363" transform="translate(79.093 4.898)" fill="#b26c4a"/>
            <path id="Trazado_878568" data-name="Trazado 878568" d="M104.1,73.354l-5.337-.665c-5.337-.666-9.123-5.313-8.415-10.328L98.021,7.99c.708-5.015,5.652-8.574,10.988-7.91l42.3,5.272c5.337.665,9.123,5.312,8.415,10.328l-7.671,54.371c-.707,5.015-5.652,8.574-10.987,7.91l-25.812-3.217C110.2,82.9,102.78,88.236,94.633,88.515a18.85,18.85,0,0,1-3.365-.192c5.649-2.693,9.875-8.063,12.835-14.97" transform="translate(34.468 0)" fill="#a6aedf"/>
            <path id="Trazado_878569" data-name="Trazado 878569" d="M23.627,145.563H20.453v-2.085h3.174V139.79h1.947v3.688h3.174v2.085H25.574v3.69H23.627Z" transform="translate(7.81 53.378)" fill="#fcfdff"/>
            <path id="Trazado_878570" data-name="Trazado 878570" d="M153.164,48.124a4.079,4.079,0,1,1-4.079-4.079,4.08,4.08,0,0,1,4.079,4.079" transform="translate(55.37 16.818)" fill="#fff"/>
            <path id="Trazado_878571" data-name="Trazado 878571" d="M164.8,48.124a4.079,4.079,0,1,1-4.079-4.079,4.08,4.08,0,0,1,4.079,4.079" transform="translate(59.813 16.818)" fill="#fff"/>
            <path id="Trazado_878572" data-name="Trazado 878572" d="M176.557,48.124a4.079,4.079,0,1,1-4.079-4.079,4.08,4.08,0,0,1,4.079,4.079" transform="translate(64.303 16.818)" fill="#fff"/>
            <rect id="Rectángulo_402689" data-name="Rectángulo 402689" width="36.416" height="1.821" transform="translate(307.466 38.997)" fill="#fff"/>
            <rect id="Rectángulo_402690" data-name="Rectángulo 402690" width="36.416" height="1.821" transform="translate(307.466 44.111)" fill="#fff"/>
            <rect id="Rectángulo_402691" data-name="Rectángulo 402691" width="36.416" height="1.821" transform="translate(307.466 49.224)" fill="#fff"/>
            <rect id="Rectángulo_402692" data-name="Rectángulo 402692" width="26.534" height="1.821" transform="translate(307.466 54.222)" fill="#fff"/>
            <path id="Trazado_878573" data-name="Trazado 878573" d="M56.708,40.659c0,3.055,0,3.565-2.547,3.565v5.689c5.942,0,7.642-3.995,7.642-11.038V29.539H50.765v9.336h5.943Z" transform="translate(19.384 11.279)" fill="#fff"/>
            <path id="Trazado_878574" data-name="Trazado 878574" d="M47.495,38.875v1.784c0,3.054,0,3.565-2.547,3.565v5.689c5.941,0,7.64-3.995,7.64-11.038V29.539H41.554v9.336Z" transform="translate(15.867 11.279)" fill="#fff"/>
            <rect id="Rectángulo_402693" data-name="Rectángulo 402693" width="2.328" height="33.907" transform="translate(143.48 31.453) rotate(-82.834)" fill="#fff"/>
            <rect id="Rectángulo_402694" data-name="Rectángulo 402694" width="2.328" height="33.907" transform="translate(142.665 37.936) rotate(-82.834)" fill="#fff"/>
            <rect id="Rectángulo_402695" data-name="Rectángulo 402695" width="2.328" height="33.907" transform="translate(141.85 44.42) rotate(-82.834)" fill="#fff"/>
            <rect id="Rectángulo_402696" data-name="Rectángulo 402696" width="2.329" height="24.705" transform="translate(141.054 50.758) rotate(-82.835)" fill="#fff"/>
            <rect id="Rectángulo_402697" data-name="Rectángulo 402697" width="2.328" height="33.907" transform="translate(144.274 25.138) rotate(-82.834)" fill="#fff"/>
          </g>
        </g>
      </g>
    </g>
    <g id="Grupo_1102247" data-name="Grupo 1102247" transform="translate(535.282 834.582)">
      <g id="Grupo_1099433" data-name="Grupo 1099433" clip-path="url(#clip-path-26)">
        <path id="Trazado_873461" data-name="Trazado 873461" d="M25,29.944,48.059,6.883,69.771,28.6,91.606,6.761l22.816,22.816,22.57-22.57L157.381,27.4l3.38-3.38L136.992.246l-22.57,22.569L91.606,0,69.771,21.833,48.059.122,25,23.184,3.382,1.568,0,4.947Z" transform="translate(-13.983 -15.18)" fill="#2436b1"/>
        <path id="Trazado_873462" data-name="Trazado 873462" d="M25,46.74l23.062-23.06,21.711,21.71L91.606,23.556l22.816,22.816,22.57-22.57,20.389,20.39,3.38-3.382L136.992,17.041l-22.57,22.57L91.606,16.8,69.771,38.63,48.059,16.919,25,39.979,3.382,18.363,0,21.742Z" transform="translate(-13.983 -8.669)" fill="#2436b1"/>
        <path id="Trazado_873463" data-name="Trazado 873463" d="M25,63.535l23.062-23.06L69.771,62.186,91.606,40.353l22.816,22.815,22.57-22.57,20.389,20.39,3.38-3.382L136.992,33.836l-22.57,22.57L91.606,33.59,69.771,55.425,48.059,33.714,25,56.774,3.382,35.158,0,38.539Z" transform="translate(-13.983 -2.158)" fill="#2436b1"/>
        <path id="Trazado_873464" data-name="Trazado 873464" d="M25,80.331,48.059,57.269,69.771,78.981,91.606,57.147l22.816,22.816,22.57-22.572,20.389,20.39,3.38-3.38L136.992,50.632,114.422,73.2,91.606,50.387,69.771,72.221,48.059,50.509,25,73.57,3.382,51.953,0,55.334Z" transform="translate(-13.983 4.353)" fill="#2436b1"/>
        <path id="Trazado_873465" data-name="Trazado 873465" d="M25,97.126,48.059,74.065,69.771,95.776,91.606,73.942l22.816,22.816,22.57-22.57,20.389,20.39,3.38-3.38L136.992,67.427,114.422,90,91.606,67.182,69.771,89.017,48.059,67.305,25,90.367,3.382,68.75,0,72.13Z" transform="translate(-13.983 10.864)" fill="#2436b1"/>
        <path id="Trazado_873466" data-name="Trazado 873466" d="M25,113.921l23.062-23.06,21.711,21.711L91.606,90.739l22.816,22.815,22.57-22.57,20.389,20.39,3.38-3.382L136.992,84.223l-22.57,22.57L91.606,83.977,69.771,105.812,48.059,84.1,25,107.161,3.382,85.545,0,88.925Z" transform="translate(-13.983 17.375)" fill="#2436b1"/>
      </g>
    </g>
  </g>
</svg>
